<svg width="20" height="20" viewBox="0 0 20 20" fill="none" xmlns="http://www.w3.org/2000/svg">
<g clip-path="url(#clip0_198_1010)">
<path d="M17.8125 15.5073C17.3866 15.1595 17.0078 14.7469 16.62 14.3583C16.548 14.2863 16.4759 14.2142 16.4039 14.1422C16.2497 13.988 16.0955 13.8337 15.9414 13.6794C15.7186 13.4563 15.4957 13.2333 15.2727 13.0103C14.9109 12.6484 14.5492 12.2864 14.1875 11.9243C13.8365 11.5729 13.4854 11.2215 13.1342 10.8702C13.1125 10.8485 13.0908 10.8268 13.0685 10.8045C12.9596 10.6955 12.8508 10.5866 12.7419 10.4777C11.8408 9.57626 10.9399 8.67464 10.0391 7.77293C9.92029 7.82606 9.83853 7.88571 9.74695 7.97776C9.72061 8.00403 9.69428 8.0303 9.66715 8.05737C9.63854 8.08632 9.60993 8.11526 9.58045 8.14509C9.53448 8.19112 9.53448 8.19112 9.48759 8.23808C9.38461 8.34129 9.28192 8.44478 9.17922 8.54827C9.10557 8.62219 9.03191 8.6961 8.95823 8.76999C8.79938 8.92933 8.64067 9.0888 8.48204 9.24836C8.25234 9.47938 8.02235 9.71012 7.79227 9.94077C7.41855 10.3154 7.04494 10.6902 6.67146 11.0651C6.6491 11.0876 6.62674 11.11 6.60371 11.1331C6.28678 11.4513 5.96997 11.7695 5.65321 12.0878C5.63092 12.1102 5.60864 12.1326 5.58568 12.1557C5.56342 12.1781 5.54116 12.2004 5.51823 12.2235C5.14658 12.5969 4.77462 12.9701 4.40241 13.343C4.173 13.5729 3.94385 13.803 3.71502 14.0334C3.55802 14.1915 3.40073 14.3493 3.24322 14.5069C3.15246 14.5977 3.06188 14.6887 2.97156 14.7799C2.87336 14.879 2.77469 14.9777 2.67589 15.0762C2.6478 15.1048 2.61971 15.1334 2.59077 15.1629C2.28526 15.4654 1.93398 15.7092 1.49178 15.7155C1.46517 15.7153 1.43856 15.7151 1.41114 15.7148C1.38342 15.7146 1.3557 15.7144 1.32714 15.7142C1.11429 15.7095 0.969303 15.6828 0.781258 15.5854C0.755426 15.5721 0.729595 15.5588 0.70298 15.5451C0.368086 15.357 0.137627 15.0595 0.0161819 14.6968C-0.0728264 14.2131 0.00933266 13.8176 0.280041 13.4161C0.407404 13.2446 0.557777 13.0972 0.709047 12.9469C0.744675 12.9111 0.780304 12.8752 0.817011 12.8382C0.915155 12.7395 1.01366 12.641 1.11223 12.5427C1.21876 12.4363 1.32496 12.3295 1.43121 12.2228C1.63912 12.014 1.84734 11.8056 2.05569 11.5973C2.22511 11.428 2.39442 11.2585 2.56367 11.089C2.61251 11.0401 2.66135 10.9911 2.71019 10.9422C2.7345 10.9179 2.75881 10.8935 2.78386 10.8684C3.24314 10.4084 3.70282 9.94877 4.1626 9.48925C4.5828 9.06928 5.00247 8.64879 5.4219 8.22806C5.85311 7.79554 6.28468 7.36338 6.71664 6.9316C6.95893 6.68939 7.20108 6.44704 7.44284 6.20431C7.64864 5.99768 7.85478 5.79141 8.06136 5.58556C8.16664 5.48064 8.27177 5.37556 8.37647 5.27005C8.49022 5.15543 8.60471 5.0416 8.71929 4.92781C8.75193 4.89469 8.78456 4.86156 8.81818 4.82744C9.19383 4.45734 9.5465 4.28506 10.0698 4.28399C10.6394 4.29443 11 4.65953 11.3823 5.04299C11.4358 5.09619 11.4358 5.09619 11.4904 5.15047C11.5888 5.24825 11.6869 5.34628 11.7849 5.44435C11.891 5.55034 11.9972 5.6561 12.1035 5.7619C12.3354 5.99292 12.567 6.22423 12.7986 6.4556C12.9433 6.60019 13.0881 6.74473 13.2329 6.88924C13.6342 7.28979 14.0355 7.6904 14.4365 8.09128C14.4621 8.11689 14.4877 8.14251 14.5141 8.1689C14.566 8.22083 14.618 8.27276 14.6699 8.32468C14.6957 8.35046 14.7215 8.37623 14.748 8.40279C14.7739 8.42859 14.7997 8.4544 14.8263 8.48099C15.2447 8.89923 15.6635 9.31702 16.0825 9.7346C16.5133 10.1639 16.9437 10.5935 17.3737 11.0235C17.6149 11.2647 17.8563 11.5058 18.0981 11.7464C18.3039 11.9513 18.5094 12.1565 18.7145 12.3622C18.819 12.467 18.9237 12.5716 19.0288 12.6759C19.143 12.7891 19.2564 12.9031 19.3698 13.0171C19.4193 13.0659 19.4193 13.0659 19.4698 13.1156C19.8419 13.493 20.0105 13.8438 20.0096 14.3689C20.0029 14.7779 19.8681 15.0496 19.5834 15.339C19.0934 15.7854 18.3798 15.8479 17.8125 15.5073Z" fill="#39251C"/>
</g>
<defs>
<clipPath id="clip0_198_1010">
<rect width="20" height="20" fill="white" transform="matrix(-1 0 0 -1 20 20)"/>
</clipPath>
</defs>
</svg>
