<svg width="20" height="20" viewBox="0 0 20 20" fill="none" xmlns="http://www.w3.org/2000/svg">
<g clip-path="url(#clip0_226_347)">
<path d="M2.18749 4.49269C2.6134 4.84048 2.99219 5.25306 3.38 5.64171C3.45203 5.71375 3.52407 5.78578 3.59611 5.8578C3.75034 6.012 3.90449 6.16628 4.0586 6.32061C4.2814 6.54373 4.50432 6.76675 4.72726 6.98973C5.08908 7.35164 5.45082 7.71364 5.8125 8.07569C6.16355 8.4271 6.51464 8.77846 6.86578 9.12977C6.88748 9.15148 6.90917 9.17318 6.93152 9.19555C7.04038 9.30446 7.14924 9.41336 7.2581 9.52227C8.15917 10.4237 9.0601 11.3254 9.96093 12.2271C10.0797 12.1739 10.1615 12.1143 10.2531 12.0222C10.2794 11.996 10.3057 11.9697 10.3328 11.9426C10.3615 11.9137 10.3901 11.8847 10.4196 11.8549C10.4655 11.8089 10.4655 11.8089 10.5124 11.7619C10.6154 11.6587 10.7181 11.5552 10.8208 11.4517C10.8944 11.3778 10.9681 11.3039 11.0418 11.23C11.2006 11.0707 11.3593 10.9112 11.518 10.7516C11.7477 10.5206 11.9777 10.2899 12.2077 10.0592C12.5815 9.68457 12.9551 9.30979 13.3285 8.93489C13.3509 8.91245 13.3733 8.89001 13.3963 8.86689C13.7132 8.54874 14.03 8.23047 14.3468 7.91216C14.3691 7.88977 14.3914 7.86738 14.4143 7.8443C14.4366 7.82194 14.4588 7.79957 14.4818 7.77653C14.8534 7.40307 15.2254 7.02992 15.5976 6.65701C15.827 6.42714 16.0562 6.19702 16.285 5.96657C16.442 5.8085 16.5993 5.6507 16.7568 5.49313C16.8475 5.40232 16.9381 5.31135 17.0284 5.22011C17.1266 5.12095 17.2253 5.0223 17.3241 4.92375C17.3522 4.89515 17.3803 4.86655 17.4092 4.83709C17.7147 4.53456 18.066 4.29081 18.5082 4.28451C18.5348 4.28473 18.5614 4.28495 18.5889 4.28517C18.6166 4.28536 18.6443 4.28556 18.6729 4.28575C18.8857 4.29053 19.0307 4.31719 19.2187 4.41457C19.2446 4.42786 19.2704 4.44115 19.297 4.45485C19.6319 4.64295 19.8624 4.94053 19.9838 5.30324C20.0728 5.78691 19.9907 6.18237 19.72 6.58387C19.5926 6.75538 19.4422 6.90276 19.291 7.05308C19.2553 7.08894 19.2197 7.12481 19.183 7.16176C19.0848 7.26054 18.9863 7.35896 18.8878 7.45731C18.7812 7.56375 18.675 7.67052 18.5688 7.77724C18.3609 7.98597 18.1527 8.19437 17.9443 8.40265C17.7749 8.57202 17.6056 8.74148 17.4363 8.91101C17.3875 8.95993 17.3387 9.00886 17.2898 9.05778C17.2655 9.08213 17.2412 9.10648 17.2161 9.13157C16.7569 9.5916 16.2972 10.0512 15.8374 10.5108C15.4172 10.9307 14.9975 11.3512 14.5781 11.7719C14.1469 12.2045 13.7153 12.6366 13.2834 13.0684C13.0411 13.3106 12.7989 13.553 12.5572 13.7957C12.3514 14.0023 12.1452 14.2086 11.9386 14.4144C11.8334 14.5194 11.7282 14.6244 11.6235 14.7299C11.5098 14.8446 11.3953 14.9584 11.2807 15.0722C11.2481 15.1053 11.2154 15.1384 11.1818 15.1726C10.8062 15.5427 10.4535 15.7149 9.93018 15.716C9.36065 15.7056 9.00002 15.3405 8.61766 14.957C8.56415 14.9038 8.56415 14.9038 8.50956 14.8495C8.41123 14.7517 8.31313 14.6537 8.21508 14.5557C8.10903 14.4497 8.00276 14.3439 7.89651 14.2381C7.6646 14.0071 7.43297 13.7758 7.20141 13.5444C7.05669 13.3998 6.9119 13.2553 6.7671 13.1108C6.36579 12.7102 5.96454 12.3096 5.56355 11.9087C5.53792 11.8831 5.5123 11.8575 5.4859 11.8311C5.43396 11.7792 5.38202 11.7272 5.33008 11.6753C5.3043 11.6495 5.27851 11.6238 5.25195 11.5972C5.22614 11.5714 5.20033 11.5456 5.17373 11.519C4.75535 11.1008 4.33651 10.683 3.91746 10.2654C3.48671 9.83613 3.05632 9.4065 2.6263 8.97649C2.38507 8.73528 2.14368 8.49422 1.90189 8.25356C1.69605 8.04869 1.49056 7.84348 1.2855 7.63783C1.18097 7.53302 1.07629 7.42837 0.971175 7.32415C0.856983 7.21091 0.743571 7.09693 0.630212 6.98286C0.580715 6.93414 0.580715 6.93414 0.530218 6.88443C0.158125 6.50703 -0.0104677 6.1562 -0.00964053 5.63107C-0.00287331 5.22207 0.131881 4.95035 0.416557 4.661C0.906631 4.21456 1.62025 4.15214 2.18749 4.49269Z" fill="#FDFFFF"/>
</g>
<defs>
<clipPath id="clip0_226_347">
<rect width="20" height="20" fill="white"/>
</clipPath>
</defs>
</svg>
