<svg width="20" height="20" viewBox="0 0 20 20" fill="none" xmlns="http://www.w3.org/2000/svg">
<g clip-path="url(#clip0_240_656)">
<path d="M17.8214 15.4985C17.3955 15.1507 17.0167 14.7382 16.6289 14.3495C16.5569 14.2775 16.4848 14.2054 16.4128 14.1334C16.2586 13.9792 16.1044 13.8249 15.9503 13.6706C15.7275 13.4475 15.5046 13.2245 15.2817 13.0015C14.9198 12.6396 14.5581 12.2776 14.1964 11.9155C13.8454 11.5641 13.4943 11.2127 13.1431 10.8614C13.1214 10.8397 13.0997 10.818 13.0774 10.7957C12.9685 10.6868 12.8597 10.5778 12.7508 10.4689C11.8497 9.56747 10.9488 8.66585 10.048 7.76414C9.9292 7.81727 9.84744 7.87692 9.75586 7.96897C9.72952 7.99524 9.70319 8.02151 9.67606 8.04858C9.64745 8.07753 9.61884 8.10647 9.58936 8.1363C9.54339 8.18233 9.54339 8.18233 9.4965 8.22929C9.39352 8.3325 9.29083 8.43599 9.18813 8.53948C9.11448 8.61341 9.04082 8.68731 8.96714 8.7612C8.80829 8.92054 8.64958 9.08001 8.49095 9.23957C8.26125 9.47059 8.03126 9.70133 7.80119 9.93198C7.42746 10.3066 7.05385 10.6814 6.68037 11.0563C6.65801 11.0788 6.63566 11.1012 6.61262 11.1243C6.29569 11.4425 5.97888 11.7607 5.66212 12.079C5.63983 12.1014 5.61755 12.1238 5.59459 12.1469C5.57233 12.1693 5.55007 12.1916 5.52714 12.2147C5.15549 12.5881 4.78353 12.9613 4.41132 13.3342C4.18191 13.5641 3.95276 13.7942 3.72393 14.0246C3.56693 14.1827 3.40964 14.3405 3.25213 14.4981C3.16137 14.5889 3.07079 14.6799 2.98047 14.7711C2.88227 14.8703 2.7836 14.9689 2.6848 15.0675C2.65671 15.0961 2.62862 15.1247 2.59968 15.1541C2.29418 15.4566 1.94289 15.7004 1.50069 15.7067C1.47408 15.7065 1.44747 15.7063 1.42005 15.706C1.39233 15.7058 1.36461 15.7057 1.33605 15.7055C1.12321 15.7007 0.978214 15.674 0.790169 15.5766C0.764338 15.5634 0.738506 15.5501 0.711891 15.5364C0.376997 15.3483 0.146538 15.0507 0.0250931 14.688C-0.0639153 14.2043 0.0182438 13.8088 0.288952 13.4073C0.416315 13.2358 0.566689 13.0885 0.717958 12.9381C0.753586 12.9023 0.789215 12.8664 0.825922 12.8294C0.924067 12.7307 1.02257 12.6323 1.12114 12.5339C1.22767 12.4275 1.33388 12.3207 1.44012 12.214C1.64803 12.0052 1.85625 11.7968 2.0646 11.5886C2.23402 11.4192 2.40333 11.2497 2.57258 11.0802C2.62142 11.0313 2.67026 10.9824 2.7191 10.9334C2.74341 10.9091 2.76772 10.8847 2.79277 10.8596C3.25205 10.3996 3.71173 9.93998 4.17152 9.48046C4.59171 9.06049 5.01138 8.64 5.43081 8.21927C5.86202 7.78675 6.29359 7.35459 6.72555 6.92281C6.96784 6.6806 7.20999 6.43826 7.45175 6.19552C7.65755 5.9889 7.86369 5.78262 8.07027 5.57677C8.17556 5.47185 8.28068 5.36677 8.38538 5.26126C8.49913 5.14664 8.61362 5.03281 8.7282 4.91902C8.76084 4.8859 8.79347 4.85277 8.8271 4.81865C9.20274 4.44855 9.55541 4.27627 10.0787 4.2752C10.6483 4.28564 11.0089 4.65074 11.3912 5.0342C11.4448 5.0874 11.4448 5.0874 11.4993 5.14168C11.5977 5.23947 11.6958 5.33749 11.7938 5.43556C11.8999 5.54155 12.0062 5.64731 12.1124 5.75311C12.3443 5.98413 12.5759 6.21544 12.8075 6.44681C12.9522 6.59141 13.097 6.73594 13.2418 6.88045C13.6431 7.281 14.0444 7.68161 14.4454 8.08249C14.471 8.10811 14.4966 8.13372 14.523 8.16012C14.575 8.21204 14.6269 8.26397 14.6788 8.31589C14.7046 8.34167 14.7304 8.36744 14.757 8.394C14.7828 8.4198 14.8086 8.44561 14.8352 8.4722C15.2536 8.89044 15.6724 9.30823 16.0914 9.72581C16.5222 10.1551 16.9526 10.5847 17.3826 11.0147C17.6238 11.2559 17.8652 11.497 18.107 11.7376C18.3129 11.9425 18.5183 12.1477 18.7234 12.3534C18.8279 12.4582 18.9326 12.5628 19.0377 12.6671C19.1519 12.7803 19.2653 12.8943 19.3787 13.0083C19.4282 13.0571 19.4282 13.0571 19.4787 13.1068C19.8508 13.4842 20.0194 13.835 20.0186 14.3601C20.0118 14.7691 19.877 15.0409 19.5924 15.3302C19.1023 15.7767 18.3887 15.8391 17.8214 15.4985Z" fill="#FDFFFF"/>
</g>
<defs>
<clipPath id="clip0_240_656">
<rect width="20" height="20" fill="white"/>
</clipPath>
</defs>
</svg>
