<svg width="39" height="40" viewBox="0 0 39 40" fill="none" xmlns="http://www.w3.org/2000/svg">
<g clip-path="url(#clip0_1099_97875)">
<path opacity="0.995" fill-rule="evenodd" clip-rule="evenodd" d="M38.9625 5.03975C38.9625 5.53975 38.9625 6.03975 38.9625 6.53975C38.8079 7.04887 38.5705 7.52387 38.25 7.96475C34.224 11.9783 30.2115 16.0032 26.2125 20.0397C30.2115 24.0763 34.224 28.1012 38.25 32.1147C38.5705 32.5556 38.8079 33.0307 38.9625 33.5397C38.9625 34.0398 38.9625 34.5397 38.9625 35.0397C38.8079 35.5489 38.5705 36.0239 38.25 36.4647C37.5625 37.1523 36.875 37.8397 36.1875 38.5272C35.8298 38.7808 35.4548 38.9933 35.0625 39.1647C34.3875 39.1647 33.7125 39.1647 33.0375 39.1647C32.6112 39.0139 32.2112 38.8014 31.8375 38.5272C27.824 34.5013 23.799 30.4888 19.7625 26.4897C15.726 30.4888 11.7011 34.5013 7.6875 38.5272C7.31379 38.8014 6.91379 39.0139 6.4875 39.1647C5.8125 39.1647 5.1375 39.1647 4.4625 39.1647C4.07025 38.9933 3.69525 38.7808 3.3375 38.5272C2.65 37.8397 1.9625 37.1523 1.275 36.4647C0.954556 36.0239 0.717056 35.5489 0.5625 35.0397C0.5625 34.5397 0.5625 34.0398 0.5625 33.5397C0.717056 33.0307 0.954556 32.5556 1.275 32.1147C5.30102 28.1012 9.3135 24.0763 13.3125 20.0397C9.3135 16.0032 5.30102 11.9783 1.275 7.96475C0.954946 7.52465 0.717446 7.04964 0.5625 6.53975C0.5625 6.03975 0.5625 5.53975 0.5625 5.03975C0.717056 4.53063 0.954556 4.05563 1.275 3.61475C2.06723 2.77232 2.90473 1.98482 3.7875 1.25225C5.14733 0.620158 6.44733 0.720158 7.6875 1.55225C11.7011 5.57827 15.726 9.59075 19.7625 13.5897C23.799 9.59075 27.824 5.57827 31.8375 1.55225C32.706 0.891461 33.681 0.666461 34.7625 0.877249C35.2868 1.00192 35.7618 1.22692 36.1875 1.55225C36.875 2.23975 37.5625 2.92725 38.25 3.61475C38.5705 4.05563 38.8079 4.53063 38.9625 5.03975Z" fill="white"/>
</g>
<defs>
<clipPath id="clip0_1099_97875">
<rect width="38.4" height="38.4" fill="" transform="translate(0.601562 0.800781)"/>
</clipPath>
</defs>
</svg>
