<svg width="40" height="41" viewBox="0 0 40 41" fill="none" xmlns="http://www.w3.org/2000/svg">
<path d="M2.42183 11.0684C2.74398 11.1918 3.0169 11.3479 3.30073 11.542C3.3504 11.5755 3.40006 11.6091 3.45122 11.6436C3.6292 11.764 3.80676 11.8849 3.98433 12.0059C4.13182 12.106 4.27932 12.2061 4.42683 12.3062C4.80184 12.5608 5.17659 12.8158 5.55121 13.0709C6.0053 13.3802 6.45966 13.6891 6.91402 13.998C7.07647 14.1085 7.23893 14.219 7.40138 14.3295C7.72993 14.5529 8.05851 14.7763 8.3871 14.9996C9.22978 15.5725 10.0721 16.1458 10.9139 16.72C11.698 17.2547 12.4828 17.7882 13.2677 18.3217C13.5947 18.544 13.9218 18.7664 14.2488 18.9888C14.4104 19.0987 14.5721 19.2087 14.7338 19.3186C15.1104 19.5745 15.4868 19.8306 15.8629 20.0874C15.9947 20.1773 16.1265 20.2672 16.2583 20.3571C16.4227 20.4692 16.587 20.5814 16.7512 20.6938C18.0788 21.5986 19.2138 22.3267 20.8715 22.0416C21.9922 21.7137 22.9775 20.8817 23.9199 20.2212C24.4061 19.8804 24.8956 19.5457 25.3906 19.2178C26.0672 18.7693 26.7403 18.316 27.4121 17.8604C27.4633 17.8256 27.5145 17.7909 27.5672 17.7551C27.777 17.6129 27.9868 17.4705 28.1966 17.3282C28.5605 17.0813 28.9245 16.8346 29.2886 16.5881C29.339 16.5539 29.3894 16.5198 29.4413 16.4847C29.5427 16.416 29.6442 16.3473 29.7456 16.2786C30.6045 15.6969 31.4631 15.1148 32.3214 14.5321C32.846 14.176 33.3708 13.8201 33.8958 13.4646C33.9734 13.4121 33.9734 13.4121 34.0525 13.3585C34.26 13.218 34.4676 13.0775 34.6751 12.937C35.196 12.5845 35.7165 12.2316 36.2353 11.8762C36.3159 11.821 36.3965 11.7658 36.4795 11.709C36.6288 11.6067 36.778 11.5042 36.9271 11.4015C36.9919 11.3571 37.0566 11.3128 37.1234 11.267C37.1796 11.2284 37.2357 11.1897 37.2936 11.1499C37.4218 11.0684 37.4218 11.0684 37.5 11.0684C37.5071 13.4112 37.5126 15.754 37.5159 18.0968C37.5163 18.3737 37.5167 18.6507 37.5171 18.9276C37.5172 18.9827 37.5173 19.0378 37.5174 19.0946C37.5187 19.9859 37.5212 20.8772 37.5241 21.7685C37.527 22.6838 37.5287 23.5991 37.5294 24.5145C37.5298 25.0283 37.5307 25.542 37.533 26.0558C37.5351 26.5399 37.5358 27.0238 37.5353 27.5079C37.5354 27.6851 37.536 27.8623 37.5372 28.0396C37.5459 29.391 37.4299 30.558 36.4648 31.5957C35.561 32.438 34.5341 32.6785 33.3308 32.6705C33.2109 32.6709 33.0909 32.6714 32.971 32.672C32.6434 32.6733 32.3158 32.6727 31.9882 32.6717C31.6341 32.671 31.28 32.6721 30.9259 32.673C30.233 32.6743 29.5401 32.674 28.8471 32.6731C28.2838 32.6724 27.7205 32.6723 27.1571 32.6727C27.0367 32.6727 27.0367 32.6727 26.9139 32.6728C26.7508 32.6729 26.5877 32.673 26.4246 32.6731C24.8964 32.674 23.3681 32.673 21.8399 32.6713C20.5296 32.6699 19.2193 32.6702 17.9091 32.6716C16.3863 32.6733 14.8635 32.6739 13.3407 32.673C13.1782 32.6729 13.0157 32.6728 12.8532 32.6727C12.7333 32.6726 12.7333 32.6726 12.611 32.6725C12.0486 32.6723 11.4862 32.6727 10.9238 32.6735C10.238 32.6743 9.5523 32.6741 8.86653 32.6724C8.51689 32.6716 8.16726 32.6713 7.81762 32.6723C7.49709 32.6733 7.1766 32.6727 6.85607 32.6711C6.74058 32.6707 6.62508 32.6709 6.50959 32.6717C5.27708 32.6792 4.37736 32.3648 3.46675 31.5371C2.62633 30.6628 2.39516 29.5794 2.40304 28.4019C2.4029 28.3272 2.40277 28.2524 2.40263 28.1754C2.40238 27.9276 2.40323 27.6798 2.40409 27.432C2.40413 27.2533 2.40411 27.0746 2.40402 26.8959C2.40398 26.4127 2.40489 25.9295 2.40599 25.4463C2.40696 24.9406 2.40705 24.4349 2.40724 23.9292C2.40767 23.081 2.40864 22.2329 2.41004 21.3847C2.41148 20.5115 2.41258 19.6382 2.41325 18.765C2.41329 18.7111 2.41333 18.6572 2.41337 18.6016C2.41357 18.3311 2.41377 18.0606 2.41397 17.7901C2.41558 15.5495 2.41834 13.3089 2.42183 11.0684Z" fill="#39251C"/>
<path d="M5.98752 7.61088C6.08932 7.61038 6.19111 7.60987 6.29599 7.60935C6.40801 7.60958 6.52003 7.60983 6.63206 7.61009C6.75179 7.6098 6.87153 7.60944 6.99127 7.60902C7.31973 7.60806 7.64819 7.60808 7.97666 7.60826C8.33113 7.6083 8.68561 7.60743 9.04008 7.60669C9.73437 7.6054 10.4286 7.60497 11.1229 7.60488C11.6874 7.6048 12.2518 7.60448 12.8162 7.60399C14.4169 7.60261 16.0175 7.60189 17.6182 7.60201C17.7045 7.60201 17.7907 7.60202 17.8796 7.60203C18.0092 7.60204 18.0092 7.60204 18.1414 7.60205C19.5412 7.60211 20.941 7.60061 22.3408 7.59841C23.7785 7.59617 25.2162 7.59509 26.6539 7.59522C27.4609 7.59527 28.2678 7.59485 29.0748 7.59316C29.762 7.59174 30.4491 7.5914 31.1362 7.59246C31.4866 7.59297 31.837 7.59298 32.1874 7.59163C32.5086 7.5904 32.8297 7.59062 33.1509 7.59198C33.2667 7.59222 33.3825 7.59194 33.4983 7.59107C34.3649 7.58497 35.0723 7.71667 35.8154 8.17786C35.9071 8.23345 35.9071 8.23345 36.0007 8.29016C36.1823 8.41969 36.3313 8.5629 36.4844 8.72473C36.3669 9.06617 36.1081 9.20679 35.817 9.39032C35.7098 9.4598 35.6026 9.52935 35.4955 9.59894C35.4396 9.63499 35.3837 9.67103 35.326 9.70816C35.0492 9.88805 34.7761 10.0735 34.5029 10.2588C34.3888 10.336 34.2747 10.4131 34.1606 10.4902C34.0416 10.5707 33.9227 10.6511 33.8037 10.7316C33.6769 10.8173 33.55 10.9031 33.4232 10.9888C33.0373 11.2497 32.6515 11.5106 32.2656 11.7716C32.1491 11.8504 32.0325 11.9293 31.916 12.0081C31.147 12.5281 30.3782 13.0483 29.6094 13.5685C29.1716 13.8647 28.7337 14.1609 28.2959 14.4572C28.2143 14.5124 28.2143 14.5124 28.131 14.5687C27.4997 14.9958 26.8684 15.4227 26.2369 15.8494C26.1769 15.8899 26.1169 15.9305 26.055 15.9722C25.7522 16.1768 25.4493 16.3814 25.1464 16.586C24.5372 16.9975 23.9282 17.4094 23.3197 17.822C23.1398 17.9439 22.9599 18.0658 22.7801 18.1878C22.6669 18.2644 22.5539 18.3412 22.4408 18.418C20.3606 19.8309 20.3606 19.8309 19.6094 19.7404C19.3482 19.6494 19.1343 19.5046 18.9062 19.3497C18.7849 19.268 18.7849 19.268 18.6612 19.1846C18.4554 19.0446 18.2508 18.9029 18.0466 18.7607C17.5741 18.4323 17.0975 18.11 16.6211 17.7872C16.5264 17.723 16.4317 17.6588 16.337 17.5946C16.1438 17.4636 15.9506 17.3326 15.7573 17.2016C15.3417 16.9198 14.9262 16.6379 14.5107 16.3559C14.2835 16.2017 14.0563 16.0475 13.829 15.8933C13.784 15.8627 13.7389 15.8321 13.6925 15.8006C13.4167 15.6135 13.1409 15.4264 12.8651 15.2393C11.8687 14.5633 10.8726 13.887 9.87705 13.2098C9.27213 12.7984 8.6669 12.3874 8.06152 11.9767C8.0163 11.946 7.97108 11.9153 7.92449 11.8837C7.45569 11.5656 6.98684 11.2476 6.51788 10.9297C5.515 10.2499 4.5124 9.56974 3.51562 8.88098C3.78306 8.29535 4.35074 8.02625 4.92188 7.78723C5.28765 7.66871 5.60348 7.61136 5.98752 7.61088Z" fill="#39251C"/>
</svg>
