<svg width="18" height="20" viewBox="0 0 18 20" fill="none" xmlns="http://www.w3.org/2000/svg">
<path d="M11.9683 1.02877C12.3038 1.30994 12.5994 1.59518 12.8645 1.94463C12.888 1.97529 12.9115 2.00595 12.9357 2.03753C13.3805 2.64395 13.6258 3.30498 13.7584 4.04321C13.7656 4.08299 13.7728 4.12277 13.7803 4.16375C13.927 5.47118 13.6282 6.72486 12.8257 7.77403C12.7143 7.90895 12.5971 8.03647 12.4759 8.16266C12.4432 8.19787 12.4104 8.23309 12.3766 8.26938C12.1202 8.53736 11.8543 8.74088 11.5432 8.93991C11.5109 8.96145 11.4786 8.98299 11.4453 9.00519C10.728 9.46437 9.84928 9.65579 9.00743 9.65158C8.96168 9.65139 8.91592 9.6512 8.86878 9.651C8.50464 9.64614 8.16518 9.61194 7.8124 9.52285C7.77395 9.51316 7.77395 9.51316 7.73471 9.50327C7.0336 9.32063 6.37 8.97375 5.84088 8.47796C5.76739 8.40953 5.69263 8.34664 5.61423 8.2841C5.42712 8.12473 5.2804 7.92902 5.13088 7.73517C5.10763 7.70521 5.08439 7.67525 5.06044 7.64439C4.4549 6.82298 4.18221 5.87631 4.1836 4.86176C4.18362 4.83552 4.18364 4.80928 4.18366 4.78225C4.18621 4.09105 4.29458 3.46696 4.5868 2.83847C4.60433 2.79879 4.62187 2.75912 4.63993 2.71824C5.0139 1.91536 5.67456 1.21688 6.41335 0.739884C6.44751 0.717541 6.48168 0.695198 6.51688 0.672178C8.16214 -0.347613 10.4702 -0.189887 11.9683 1.02877Z" fill="#2654DC"/>
<path d="M6.372 10.3203C6.69193 10.5306 7.01413 10.7063 7.36996 10.8474C7.39435 10.8571 7.41875 10.8668 7.44389 10.8768C8.63376 11.336 9.77521 11.1916 10.9286 10.712C11.272 10.5515 11.5833 10.3407 11.8967 10.1287C12.6297 9.63693 12.6297 9.63693 13.0342 9.65969C13.0638 9.66061 13.0934 9.66153 13.1239 9.66248C14.106 9.70583 15.0341 10.1053 15.7064 10.8332C16.9683 12.2827 17.2845 14.3549 17.3188 16.2105C17.3204 16.2575 17.3219 16.3046 17.3235 16.353C17.3414 17.2024 17.1766 18.1432 16.595 18.7973C16.5389 18.8553 16.4823 18.9129 16.425 18.9697C16.3913 19.005 16.3576 19.0403 16.3229 19.0766C16.2925 19.1055 16.262 19.1343 16.2306 19.164C16.2031 19.1906 16.2031 19.1906 16.1749 19.2178C15.3741 19.9514 14.3445 19.9978 13.322 19.9959C13.217 19.9961 13.112 19.9964 13.0069 19.9967C12.7525 19.9973 12.4981 19.9974 12.2436 19.9972C12.0366 19.997 11.8295 19.9971 11.6224 19.9973C11.5928 19.9973 11.5632 19.9973 11.5328 19.9974C11.4726 19.9974 11.4125 19.9975 11.3523 19.9975C10.7897 19.9981 10.227 19.9979 9.6644 19.9974C9.15111 19.997 8.63783 19.9975 8.12454 19.9985C7.59587 19.9994 7.06719 19.9998 6.53852 19.9995C6.24236 19.9994 5.94621 19.9995 5.65005 20.0002C5.39792 20.0007 5.1458 20.0008 4.89368 20.0001C4.76537 19.9997 4.63708 19.9997 4.50876 20.0003C3.38235 20.0044 2.41246 19.8268 1.57942 19.0086C1.54936 18.9795 1.5193 18.9504 1.48833 18.9204C0.936015 18.3501 0.68162 17.555 0.677682 16.772C0.67741 16.7362 0.677137 16.7003 0.676856 16.6633C0.676175 16.5472 0.675929 16.4311 0.675861 16.3149C0.675834 16.2753 0.675808 16.2357 0.675781 16.1949C0.676413 15.5953 0.698293 15.0146 0.802164 14.4228C0.80904 14.3813 0.815916 14.3399 0.823 14.2972C0.916184 13.7412 1.0378 13.2044 1.22965 12.674C1.23871 12.6485 1.24776 12.6231 1.25709 12.5969C1.47978 11.9799 1.78237 11.4291 2.20122 10.9252C2.22191 10.8986 2.2426 10.872 2.26392 10.8445C2.79923 10.1735 3.69336 9.7873 4.52946 9.68995C5.30172 9.61013 5.74159 9.90162 6.372 10.3203Z" fill="#2654DC"/>
</svg>
