<?xml version="1.0" encoding="UTF-8"?>
<svg version="1.1" xmlns="http://www.w3.org/2000/svg" width="512" height="512">
<path d="M0 0 C2.18976095 -0.00407382 4.37951984 -0.00942022 6.5692749 -0.01593018 C12.4698235 -0.02950988 18.37021328 -0.02434487 24.27076435 -0.01479292 C30.46841647 -0.00715144 36.66605579 -0.01425397 42.8637085 -0.01895142 C53.26333029 -0.02439433 63.66288796 -0.01725419 74.0625 -0.00292969 C86.06415409 0.01341117 98.06560684 0.00809195 110.06725717 -0.0084089 C120.401453 -0.02204506 130.73560298 -0.02393353 141.06980491 -0.0160929 C147.22920215 -0.01143031 153.38852767 -0.01075287 159.54792023 -0.02070236 C165.33635326 -0.02940139 171.12459006 -0.02329653 176.91300201 -0.00601959 C179.0300972 -0.00207116 181.14720905 -0.00316043 183.26429749 -0.00980759 C213.35699956 -0.09554427 229.40088231 11.10142512 250.65966797 31.34521484 C253.89982798 34.42141849 257.16680112 37.46846792 260.43652344 40.51318359 C261.66831501 41.66159885 262.9000859 42.81003629 264.13183594 43.95849609 C264.73801758 44.52342773 265.34419922 45.08835938 265.96875 45.67041016 C269.0844625 48.57477596 272.19786454 51.48161659 275.31152344 54.38818359 C276.56151262 55.55486186 277.81151261 56.72152853 279.06152344 57.88818359 C286.56152344 64.88818359 294.06152344 71.88818359 301.56152344 78.88818359 C302.18091797 79.46616699 302.8003125 80.04415039 303.43847656 80.63964844 C304.68244305 81.80092164 305.92593649 82.96270179 307.16894531 84.125 C310.38247174 87.12861874 313.6049184 90.12172935 316.84277344 93.09912109 C331.85319658 106.92899029 344.81826637 120.99294439 346.27292061 142.47589874 C346.51294575 148.34752504 346.47714817 154.21706865 346.44262695 160.09228516 C346.44777586 162.33803368 346.45506441 164.58377815 346.46430969 166.82951355 C346.48271216 172.88565531 346.46995387 178.94135275 346.45021939 184.99747562 C346.43373099 191.36622115 346.44266027 197.73494077 346.44773865 204.10369873 C346.45224958 214.79936467 346.43656161 225.49481251 346.40844727 236.19042969 C346.37964417 247.14851173 346.37251699 258.10634362 346.38793945 269.06445312 C346.4065837 282.32955146 346.40469371 295.59450259 346.38572502 308.85961151 C346.37889907 313.90056207 346.3798409 318.94141937 346.38726997 323.98236847 C346.39500361 329.93504753 346.38257838 335.88737179 346.35542107 341.83999062 C346.34860847 344.00854503 346.34836128 346.17713305 346.3556366 348.34568596 C346.40605714 365.35051189 344.90397351 382.15943219 338.62402344 398.13818359 C338.32923096 398.90855957 338.03443848 399.67893555 337.73071289 400.47265625 C327.85863892 425.36122606 309.69107459 447.42492811 286.81152344 461.38818359 C285.73902344 462.07138672 284.66652344 462.75458984 283.56152344 463.45849609 C277.17382304 467.34730444 270.67201131 470.46619457 263.68652344 473.13818359 C263.00251465 473.40775879 262.31850586 473.67733398 261.61376953 473.95507812 C244.26863609 480.24583825 226.60807176 480.97336566 208.35839844 480.90576172 C205.86575921 480.91119534 203.37312321 480.9183249 200.88049316 480.92700195 C194.86323334 480.94322126 188.8462517 480.94102336 182.82900333 480.92935139 C177.93070408 480.92025018 173.0324606 480.91912163 168.13415527 480.92344666 C167.43214705 480.92405959 166.73013883 480.92467252 166.00685763 480.92530403 C164.57993093 480.92658316 163.15300423 480.92788002 161.72607756 480.92919439 C148.40285723 480.94055094 135.07974769 480.92756438 121.75654554 480.90599293 C110.3698682 480.88812642 98.98335409 480.89123193 87.59667969 480.90966797 C74.31520028 480.93116236 61.03381753 480.93945277 47.75232315 480.92721891 C46.33117932 480.92594496 44.91003547 480.92468747 43.4888916 480.92344666 C42.44054425 480.922521 42.44054425 480.922521 41.37101817 480.92157665 C36.48898001 480.91814932 31.6070041 480.92389494 26.72497559 480.93336487 C20.13208673 480.94587458 13.53945496 480.9367382 6.94657898 480.91378784 C4.54258223 480.90854745 2.13855933 480.90993319 -0.26542664 480.9188385 C-20.70694022 480.98751796 -39.37451592 478.65607447 -58.18847656 470.38818359 C-58.84267578 470.10491211 -59.496875 469.82164062 -60.17089844 469.52978516 C-90.2659714 456.24391148 -113.97266245 430.66662074 -126.05957031 400.19189453 C-126.91011641 397.93520369 -127.71696727 395.66880313 -128.50097656 393.38818359 C-128.84672729 392.39455811 -128.84672729 392.39455811 -129.19946289 391.38085938 C-134.3411951 375.485486 -134.62697143 359.93246766 -134.5925293 343.38916016 C-134.59824176 340.89711198 -134.60520939 338.40506641 -134.61332703 335.9130249 C-134.62933054 329.88189687 -134.63137837 323.85091898 -134.62611412 317.81978443 C-134.62204951 312.90995374 -134.62354294 308.00015366 -134.62886238 303.0903244 C-134.6296108 302.38777422 -134.63035923 301.68522404 -134.63113033 300.96138446 C-134.63266203 299.53349162 -134.63420038 298.1055988 -134.63574529 296.67770597 C-134.64943034 283.32782023 -134.64406128 269.97799331 -134.63256008 256.62810895 C-134.62263586 244.45964304 -134.63556145 232.29132937 -134.65949427 220.12288693 C-134.68397623 207.57913042 -134.69347068 195.03544453 -134.68684155 182.49166465 C-134.68336892 175.46903032 -134.68545038 168.44651284 -134.70309258 161.42389679 C-134.7194926 154.81465812 -134.71449252 148.20566031 -134.69578743 141.59641266 C-134.69212968 139.18596447 -134.69512664 136.77549442 -134.70567322 134.36506653 C-134.7771817 116.65458742 -133.54833567 99.29733253 -127.00097656 82.63818359 C-126.70618408 81.86780762 -126.4113916 81.09743164 -126.10766602 80.30371094 C-113.73104197 49.1008986 -88.90690386 23.82545088 -58.28320312 10.26708984 C-54.63011567 8.73432588 -50.93447338 7.3634461 -47.18847656 6.07568359 C-46.19485107 5.72993286 -46.19485107 5.72993286 -45.18115234 5.37719727 C-30.20468403 0.53270651 -15.58588242 -0.04914168 0 0 Z M-16.88833618 33.27346802 C-17.59919164 33.35053541 -18.3100471 33.4276028 -19.04244363 33.50700557 C-38.29078258 35.83727899 -55.99020649 44.21844962 -70.18847656 57.38818359 C-71.46271484 58.54253906 -71.46271484 58.54253906 -72.76269531 59.72021484 C-91.96631538 77.92395271 -101.14676492 102.27811219 -102.18847656 128.38818359 C-102.3619406 135.69661074 -102.32553766 143.00790583 -102.31787109 150.31787109 C-102.31922852 152.50408965 -102.32101037 154.69030798 -102.32318115 156.87652588 C-102.32771483 162.77728086 -102.32598273 168.67801823 -102.32280207 174.5787735 C-102.32025738 180.77549789 -102.32262186 186.97222085 -102.32418823 193.16894531 C-102.32600379 203.5721056 -102.32361974 213.97525877 -102.31884766 224.37841797 C-102.31340623 236.37879273 -102.31516932 248.37914767 -102.32067406 260.37952232 C-102.32522269 270.71199882 -102.32584718 281.04447023 -102.32323539 291.3769474 C-102.32168225 297.53529768 -102.32145237 303.69363999 -102.32477188 309.85198975 C-102.32767607 315.64362121 -102.32562836 321.43523092 -102.31987762 327.22686005 C-102.31856364 329.34311639 -102.3189208 331.4593746 -102.32114029 333.57563019 C-102.34154482 355.02016776 -101.61471355 374.65372252 -92.18847656 394.38818359 C-91.74761719 395.31115234 -91.30675781 396.23412109 -90.85253906 397.18505859 C-79.86166211 418.68102788 -59.73817592 435.56436211 -36.87988281 443.15478516 C-34.45123672 443.9016824 -32.01526758 444.59634358 -29.56347656 445.26318359 C-28.82468262 445.4665332 -28.08588867 445.66988281 -27.32470703 445.87939453 C-13.67032724 449.31756915 0.77833178 448.53726332 14.74780273 448.53344727 C16.94708818 448.53644414 19.1463731 448.53984788 21.34565735 448.54362488 C27.28805819 448.55241529 33.23044461 448.55480089 39.17285132 448.55544066 C42.89429163 448.55615398 46.61572833 448.55829362 50.33716774 448.56093788 C62.67546316 448.56969934 75.01374985 448.57435963 87.35204842 448.57360741 C88.34652102 448.57354747 88.34652102 448.57354747 89.36108398 448.57348633 C90.35679273 448.57342501 90.35679273 448.57342501 91.37261681 448.57336245 C102.11994526 448.57295637 112.86723862 448.58252037 123.61455693 448.59662469 C134.69143977 448.61104502 145.7683047 448.61770934 156.84519702 448.61703092 C163.04729812 448.61677716 169.24935946 448.61956067 175.45145226 448.63020897 C181.28988392 448.63996035 187.12823836 448.63992134 192.9666729 448.63269234 C195.09576278 448.63165519 197.22485765 448.6339569 199.35393906 448.6400528 C230.05938565 448.72219554 258.36491506 445.17843816 281.81152344 423.38818359 C283.12056641 422.18162109 283.12056641 422.18162109 284.45605469 420.95068359 C300.69600971 405.36811806 310.66067568 384.97867512 312.92915344 362.63583374 C313.01287116 361.81787807 313.09658888 360.9999224 313.18284351 360.15718019 C314.07615312 350.6668765 314.08480164 341.19982477 314.05444336 331.67578125 C314.0555196 329.68111611 314.05746332 327.68645128 314.06019592 325.69178772 C314.06498851 320.33941031 314.05746256 314.98711797 314.04724288 309.63475084 C314.03838327 304.01174059 314.04022125 298.38873237 314.04060364 292.76571655 C314.03967142 283.34330846 314.03104195 273.92093287 314.01733398 264.49853516 C314.00154921 253.60838816 313.99633833 242.71827653 313.99706954 231.82811892 C313.9977445 220.20483023 313.99081375 208.58155514 313.98162293 196.95827055 C313.97949286 193.61580192 313.97878197 190.27333549 313.97838402 186.93086624 C313.9773804 181.68911125 313.97128227 176.44738598 313.96121788 171.20564079 C313.95829605 169.28233332 313.95706687 167.35902242 313.95764542 165.43571281 C313.95813584 162.81319949 313.95248337 160.19076953 313.94523621 157.56826782 C313.94678481 156.8059298 313.94833341 156.04359178 313.94992894 155.2581526 C313.93279505 151.51001082 313.71246942 148.03259987 312.81152344 144.38818359 C311.46087799 144.37938423 311.46087799 144.37938423 310.08294678 144.3704071 C301.55115112 144.31223669 293.01961049 144.24002271 284.48806381 144.15246868 C280.10306424 144.10795177 275.7181536 144.06865582 271.33300781 144.04174805 C267.09232423 144.01552699 262.85198636 143.97499557 258.61151886 143.92499733 C257.00265083 143.9084546 255.39372318 143.89686263 253.78478241 143.89056969 C234.10691419 143.80590035 217.61641003 139.08395716 203.24511719 125.07568359 C193.69227138 114.52615242 186.81859841 100.86928183 186.60620117 86.42626953 C186.58625595 85.22532654 186.56631073 84.02438354 186.54576111 82.78704834 C186.52069237 80.84937592 186.52069237 80.84937592 186.49511719 78.87255859 C186.4745338 77.53305438 186.45353697 76.19355647 186.43214417 74.85406494 C186.37706635 71.33603018 186.32759437 67.81793819 186.27929688 64.29980469 C186.22897719 60.70681695 186.17334587 57.11391187 186.11816406 53.52099609 C186.01075744 46.47679704 185.90927395 39.43252379 185.81152344 32.38818359 C160.95833081 32.34133764 136.10514486 32.30613326 111.25191689 32.28455925 C99.71057275 32.27427313 88.16925615 32.26026407 76.62792969 32.23730469 C66.56144515 32.21728889 56.49498057 32.20444783 46.42847669 32.2000066 C41.10478517 32.19741302 35.7811507 32.19137329 30.45747757 32.17672348 C25.43261085 32.16300976 20.40782395 32.15898841 15.38294029 32.16196823 C13.55218126 32.16142417 11.72141918 32.15752974 9.8906765 32.14977264 C0.91097626 32.11363503 -7.95463254 32.30291805 -16.88833618 33.27346802 Z M217.81152344 47.38818359 C217.76151266 51.88646028 217.72551967 56.38458304 217.70166016 60.88305664 C217.69169745 62.408476 217.67812235 63.93387675 217.66064453 65.45922852 C217.50276981 79.60758916 217.61292683 92.06704075 227.40917969 103.20458984 C236.11406471 111.41558068 247.36743781 112.56010461 258.80761719 112.48583984 C259.64116226 112.4844249 260.47470734 112.48300995 261.33351135 112.48155212 C263.9720533 112.47599528 266.61050753 112.46345099 269.24902344 112.45068359 C271.04785033 112.44566301 272.84667856 112.44110108 274.64550781 112.43701172 C279.03421302 112.42604002 283.4228534 112.40880555 287.81152344 112.38818359 C287.0276123 111.4367749 286.24370117 110.48536621 285.43603516 109.50512695 C284.99508514 108.96995956 284.55413513 108.43479218 284.099823 107.88340759 C282.51794605 106.04745232 280.79827019 104.49956419 278.93652344 102.95068359 C276.28064331 100.68771457 273.75359237 98.38043203 271.31152344 95.88818359 C268.90086864 93.43369871 266.41799952 91.13376299 263.81152344 88.88818359 C260.58195977 86.10579028 257.57829691 83.17798931 254.59277344 80.13818359 C252.72762669 78.30575872 250.79224598 76.59465225 248.81152344 74.88818359 C245.58195977 72.10579028 242.57829691 69.17798931 239.59277344 66.13818359 C237.09697839 63.68617442 234.44534776 61.43251241 231.79199219 59.15380859 C229.24352116 56.88179892 226.88945795 54.45110164 224.54980469 51.96630859 C222.47639561 50.08393271 220.2226617 48.80114262 217.81152344 47.38818359 Z " fill="#7c7c7c" transform="translate(150.1884765625,15.61181640625)"/>
<path d="M0 0 C4.63192542 2.1505368 8.12101432 5.18553139 10 10 C10.55867443 14.71284731 10.46591693 19.41131575 10.390625 24.1484375 C10.3831563 25.52990904 10.37746634 26.91139124 10.37347412 28.2928772 C10.35826689 31.91316438 10.31902917 35.5328005 10.2746582 39.15283203 C10.23359831 42.85310053 10.21544037 46.55347516 10.1953125 50.25390625 C10.15252867 57.50289964 10.08433879 64.75135828 10 72 C10.76341705 71.99111755 11.52683411 71.98223511 12.31338501 71.9730835 C19.52239084 71.89279802 26.73117863 71.83196529 33.94051552 71.79275131 C37.6465735 71.77191285 41.3522608 71.74366497 45.05810547 71.69824219 C48.63725786 71.65464888 52.21605464 71.63083477 55.79545212 71.62049103 C57.15818247 71.61312365 58.52089427 71.59873662 59.88347244 71.57707977 C73.08858548 71.37562308 73.08858548 71.37562308 78 76 C81.62833663 79.81930172 82.31000458 82.88279006 82.5 88 C82.25777597 94.52390047 80.46708005 97.67710341 75.73583984 102.13183594 C70.50603531 105.5042545 63.82896876 104.48563004 57.8515625 104.390625 C56.47009096 104.3831563 55.08860876 104.37746634 53.7071228 104.37347412 C50.08683562 104.35826689 46.4671995 104.31902917 42.84716797 104.2746582 C39.14689947 104.23359831 35.44652484 104.21544037 31.74609375 104.1953125 C24.49710036 104.15252867 17.24864172 104.08433879 10 104 C10.00888245 104.76341705 10.01776489 105.52683411 10.0269165 106.31338501 C10.10720198 113.52239084 10.16803471 120.73117863 10.20724869 127.94051552 C10.22808715 131.6465735 10.25633503 135.3522608 10.30175781 139.05810547 C10.34535112 142.63725786 10.36916523 146.21605464 10.37950897 149.79545212 C10.38687635 151.15818247 10.40126338 152.52089427 10.42292023 153.88347244 C10.62437692 167.08858548 10.62437692 167.08858548 6 172 C2.18069828 175.62833663 -0.88279006 176.31000458 -6 176.5 C-12.52390047 176.25777597 -15.67710341 174.46708005 -20.13183594 169.73583984 C-23.5042545 164.50603531 -22.48563004 157.82896876 -22.390625 151.8515625 C-22.3831563 150.47009096 -22.37746634 149.08860876 -22.37347412 147.7071228 C-22.35826689 144.08683562 -22.31902917 140.4671995 -22.2746582 136.84716797 C-22.23359831 133.14689947 -22.21544037 129.44652484 -22.1953125 125.74609375 C-22.15252867 118.49710036 -22.08433879 111.24864172 -22 104 C-22.76341705 104.00888245 -23.52683411 104.01776489 -24.31338501 104.0269165 C-31.52239084 104.10720198 -38.73117863 104.16803471 -45.94051552 104.20724869 C-49.6465735 104.22808715 -53.3522608 104.25633503 -57.05810547 104.30175781 C-60.63725786 104.34535112 -64.21605464 104.36916523 -67.79545212 104.37950897 C-69.15818247 104.38687635 -70.52089427 104.40126338 -71.88347244 104.42292023 C-85.08858548 104.62437692 -85.08858548 104.62437692 -90 100 C-93.62833663 96.18069828 -94.31000458 93.11720994 -94.5 88 C-94.25777597 81.47609953 -92.46708005 78.32289659 -87.73583984 73.86816406 C-82.50603531 70.4957455 -75.82896876 71.51436996 -69.8515625 71.609375 C-68.47009096 71.6168437 -67.08860876 71.62253366 -65.7071228 71.62652588 C-62.08683562 71.64173311 -58.4671995 71.68097083 -54.84716797 71.7253418 C-51.14689947 71.76640169 -47.44652484 71.78455963 -43.74609375 71.8046875 C-36.49710036 71.84747133 -29.24864172 71.91566121 -22 72 C-22.00888245 71.23658295 -22.01776489 70.47316589 -22.0269165 69.68661499 C-22.10720198 62.47760916 -22.16803471 55.26882137 -22.20724869 48.05948448 C-22.22808715 44.3534265 -22.25633503 40.6477392 -22.30175781 36.94189453 C-22.34535112 33.36274214 -22.36916523 29.78394536 -22.37950897 26.20454788 C-22.38687635 24.84181753 -22.40126338 23.47910573 -22.42292023 22.11652756 C-22.62437692 8.91141452 -22.62437692 8.91141452 -18 4 C-12.72867143 -1.00776214 -6.89190982 -0.92775709 0 0 Z " fill="#7c7c7c" transform="translate(262,168)"/>
</svg>
