<?xml version="1.0" encoding="UTF-8"?>
<svg version="1.1" xmlns="http://www.w3.org/2000/svg" width="512" height="512">
<path d="M0 0 C1.06081787 0.00182281 2.12163574 0.00364563 3.21459961 0.00552368 C18.48451432 0.04972546 33.3366068 0.44804415 48.375 3.3125 C49.31956055 3.47878906 50.26412109 3.64507813 51.23730469 3.81640625 C103.45260794 13.07626298 152.0419314 36.54219757 190.375 73.3125 C190.99133301 73.89628418 191.60766602 74.48006836 192.24267578 75.08154297 C202.40577945 84.74839645 211.24585102 94.88604059 219.375 106.3125 C220.04305664 107.23748291 220.04305664 107.23748291 220.72460938 108.18115234 C242.4506968 138.4612704 257.34907423 177.21730227 257.578125 214.80078125 C257.58513931 215.57762772 257.59215363 216.35447418 257.59938049 217.15486145 C257.61676839 219.64496746 257.62323189 222.13483553 257.625 224.625 C257.62601212 225.90247101 257.62601212 225.90247101 257.62704468 227.20574951 C257.61116108 239.81673212 257.16501022 251.96840601 254.375 264.3125 C254.20339355 265.11671387 254.03178711 265.92092773 253.85498047 266.74951172 C246.38233299 301.32135799 230.43371312 332.58103494 207.375 359.3125 C206.83319092 359.94712158 206.29138184 360.58174316 205.7331543 361.2355957 C194.51745599 374.24503699 182.26640891 386.20158779 168.375 396.3125 C167.22505169 397.16899066 166.07531411 398.02576433 164.92578125 398.8828125 C156.73536134 404.92306044 148.2303594 410.3041584 139.375 415.3125 C138.67842285 415.70937012 137.9818457 416.10624023 137.26416016 416.51513672 C109.64943718 432.0928312 79.49386572 441.75276304 48.375 447.3125 C47.07925049 447.5602417 47.07925049 447.5602417 45.75732422 447.81298828 C16.17010605 453.3076762 -18.09562579 452.97942148 -47.625 447.3125 C-48.60146484 447.13557617 -49.57792969 446.95865234 -50.58398438 446.77636719 C-62.35925267 444.62017479 -73.8616074 441.95061918 -85.20800781 438.10424805 C-89.69256351 436.63653199 -92.98116378 435.75791105 -97.625 437.3125 C-100.02234612 439.03946717 -100.02234612 439.03946717 -102.1875 441.3125 C-116.74210213 455.02115655 -134.97640388 464.46047046 -153.625 471.3125 C-154.26872559 471.54952637 -154.91245117 471.78655273 -155.57568359 472.03076172 C-171.32844974 477.6881894 -187.78085476 480.60210907 -204.5 481 C-205.49193359 481.04358643 -206.48386719 481.08717285 -207.50585938 481.13208008 C-214.07280141 481.14272614 -217.44000722 479.67726111 -222.16845703 475.11254883 C-225.15255303 471.42469435 -224.96669436 467.39643649 -224.89453125 462.86328125 C-224.26984298 456.95137631 -220.72505749 453.36344818 -216.875 449.1875 C-201.99036062 432.86151752 -194.09465488 409.77258983 -194.7265625 387.77734375 C-194.92898828 384.27237879 -195.24747558 380.80250357 -195.625 377.3125 C-195.67914063 376.4875 -195.73328125 375.6625 -195.7890625 374.8125 C-196.58933965 368.41028284 -200.30276225 365.07080554 -204.65625 360.5546875 C-226.239319 337.62989028 -240.08239354 307.24439475 -248.625 277.3125 C-248.93050781 276.27351563 -249.23601562 275.23453125 -249.55078125 274.1640625 C-250.35269848 271.22781171 -251.0097557 268.29350511 -251.625 265.3125 C-251.9034375 264.05695313 -252.181875 262.80140625 -252.46875 261.5078125 C-257.20093746 237.54218166 -256.94514832 209.14083727 -251.625 185.3125 C-251.42632324 184.40226074 -251.22764648 183.49202148 -251.02294922 182.55419922 C-239.79833792 132.58576104 -209.69704444 85.99258028 -168.34326172 55.58642578 C-166.59464318 54.28999334 -164.87671197 52.95961282 -163.16015625 51.62109375 C-130.83106937 26.72867302 -91.55035033 11.86370461 -51.8125 4.0625 C-51.0505835 3.91135742 -50.28866699 3.76021484 -49.50366211 3.60449219 C-33.03857273 0.55482789 -16.70517147 -0.05956807 0 0 Z M-148.625 193.3125 C-149.26179688 193.90804687 -149.89859375 194.50359375 -150.5546875 195.1171875 C-159.04205702 203.89596885 -161.96129075 215.25471597 -162.01000977 227.12670898 C-161.79822572 238.63974744 -157.45966244 247.95334133 -149.625 256.3125 C-148.73167969 257.26769531 -148.73167969 257.26769531 -147.8203125 258.2421875 C-139.04153115 266.72955702 -127.68278403 269.64879075 -115.81079102 269.69750977 C-104.29775256 269.48572572 -94.98415867 265.14716244 -86.625 257.3125 C-85.66980469 256.41917969 -85.66980469 256.41917969 -84.6953125 255.5078125 C-76.20794298 246.72903115 -73.28870925 235.37028403 -73.23999023 223.49829102 C-73.45177428 211.98525256 -77.79033756 202.67165867 -85.625 194.3125 C-86.51832031 193.35730469 -86.51832031 193.35730469 -87.4296875 192.3828125 C-96.20846885 183.89544298 -107.56721597 180.97620925 -119.43920898 180.92749023 C-130.95224744 181.13927428 -140.26584133 185.47783756 -148.625 193.3125 Z M-28.625 193.3125 C-29.26179687 193.90804687 -29.89859375 194.50359375 -30.5546875 195.1171875 C-39.04205702 203.89596885 -41.96129075 215.25471597 -42.01000977 227.12670898 C-41.79822572 238.63974744 -37.45966244 247.95334133 -29.625 256.3125 C-28.73167969 257.26769531 -28.73167969 257.26769531 -27.8203125 258.2421875 C-19.04153115 266.72955702 -7.68278403 269.64879075 4.18920898 269.69750977 C15.70224744 269.48572572 25.01584133 265.14716244 33.375 257.3125 C34.33019531 256.41917969 34.33019531 256.41917969 35.3046875 255.5078125 C43.79205702 246.72903115 46.71129075 235.37028403 46.76000977 223.49829102 C46.54822572 211.98525256 42.20966244 202.67165867 34.375 194.3125 C33.48167969 193.35730469 33.48167969 193.35730469 32.5703125 192.3828125 C23.79153115 183.89544298 12.43278403 180.97620925 0.56079102 180.92749023 C-10.95224744 181.13927428 -20.26584133 185.47783756 -28.625 193.3125 Z M91.375 193.3125 C90.73820312 193.90804687 90.10140625 194.50359375 89.4453125 195.1171875 C80.95794298 203.89596885 78.03870925 215.25471597 77.98999023 227.12670898 C78.20177428 238.63974744 82.54033756 247.95334133 90.375 256.3125 C91.26832031 257.26769531 91.26832031 257.26769531 92.1796875 258.2421875 C100.95846885 266.72955702 112.31721597 269.64879075 124.18920898 269.69750977 C135.70224744 269.48572572 145.01584133 265.14716244 153.375 257.3125 C154.33019531 256.41917969 154.33019531 256.41917969 155.3046875 255.5078125 C163.79205702 246.72903115 166.71129075 235.37028403 166.76000977 223.49829102 C166.54822572 211.98525256 162.20966244 202.67165867 154.375 194.3125 C153.48167969 193.35730469 153.48167969 193.35730469 152.5703125 192.3828125 C143.79153115 183.89544298 132.43278403 180.97620925 120.56079102 180.92749023 C109.04775256 181.13927428 99.73415867 185.47783756 91.375 193.3125 Z " fill="#000000" transform="translate(254.625,15.6875)"/>
</svg>
