<?xml version="1.0" encoding="UTF-8"?>
<svg version="1.1" xmlns="http://www.w3.org/2000/svg" width="512" height="512">
<path d="M0 0 C1.13953644 -0.00453111 2.27907289 -0.00906223 3.45314074 -0.01373065 C7.2387002 -0.02630345 11.02411447 -0.02475887 14.80969238 -0.02310181 C17.5376031 -0.02800984 20.26550389 -0.03584258 22.9934082 -0.04345703 C29.61593403 -0.05999984 36.23842423 -0.06556356 42.86096901 -0.06668179 C48.25143908 -0.06763568 53.64189751 -0.07176295 59.03236389 -0.07808304 C74.35466672 -0.09567892 89.67694164 -0.10492477 104.99925464 -0.10342209 C106.23573382 -0.10330222 106.23573382 -0.10330222 107.49719238 -0.10317993 C108.73520225 -0.10305729 108.73520225 -0.10305729 109.99822241 -0.10293217 C123.35677348 -0.10212026 136.71521152 -0.12123832 150.07372993 -0.14945666 C163.82872535 -0.17828042 177.58366584 -0.19199169 191.33869219 -0.19026911 C199.04549977 -0.18960836 206.75218895 -0.19496091 214.45896912 -0.21662521 C221.02380448 -0.23496274 227.5884678 -0.23908265 234.15331787 -0.22560637 C237.49371322 -0.21913851 240.8335145 -0.2209647 244.17391968 -0.23631287 C262.59067542 -0.31538839 281.09950824 0.22149026 298.12414551 8.07992554 C298.90523682 8.42539429 299.68632812 8.77086304 300.49108887 9.12680054 C306.73053508 11.95602311 312.53354136 15.20449371 318.06164551 19.26742554 C318.88535645 19.87070679 319.70906738 20.47398804 320.55773926 21.09555054 C343.43538066 38.65530025 358.01640685 63.17323478 362.63362694 91.57247162 C363.50718981 99.11367373 363.34787121 106.69407927 363.33630371 114.2762146 C363.34065855 116.1731842 363.34584426 118.07015204 363.35179138 119.96711731 C363.36511102 125.08923852 363.36576782 130.21128562 363.36322808 135.33342075 C363.36215337 139.62468258 363.3670546 143.91592971 363.3718335 148.20718837 C363.38290483 158.34039723 363.38337979 168.47356903 363.37731934 178.60678101 C363.37128399 189.02456862 363.38358491 199.44222103 363.4048894 209.85998559 C363.42256398 218.83620821 363.42849748 227.81238803 363.42525166 236.78862739 C363.42344765 242.13556331 363.42598609 247.48240281 363.4399662 252.82932281 C363.45263527 257.86259976 363.45051548 262.89566761 363.43755531 267.92894173 C363.43520944 269.76377244 363.43785172 271.5986183 363.44617844 273.43343163 C363.50773557 288.06636036 362.24099695 302.02676893 356.93664551 315.82992554 C356.63661621 316.62092651 356.33658691 317.41192749 356.02746582 318.22689819 C345.52551692 344.835047 324.28640432 365.63808336 298.18664551 376.99398804 C297.15539551 377.41422241 296.12414551 377.83445679 295.06164551 378.26742554 C294.13352051 378.64640991 293.20539551 379.02539429 292.24914551 379.41586304 C274.97378482 385.79814907 257.45131053 385.50020623 239.32217598 384.88341904 C235.20510846 384.74907251 231.08801914 384.6710547 226.96934509 384.60559082 C226.26417946 384.59427781 225.55901383 384.5829648 224.83247954 384.57130897 C222.66473637 384.53712629 220.49698234 384.5037321 218.32922363 384.47055054 C209.50835376 384.33551801 200.69463652 384.16407433 191.87927246 383.81723022 C152.79151359 382.31696279 125.52475853 385.66001975 94.2507019 411.81948853 C89.01261199 416.194555 83.43866477 419.8823138 77.69445801 423.56430054 C76.06915547 424.65819673 74.44731145 425.75725434 72.82946777 426.8621521 C57.99774042 436.94518251 43.11632278 446.95451714 28.15460205 456.84371948 C26.48194451 457.95005623 24.81057344 459.0583407 23.14056396 460.16867065 C20.84845594 461.69170042 18.55156489 463.2072104 16.25305176 464.72055054 C15.57914902 465.1700708 14.90524628 465.61959106 14.21092224 466.08273315 C7.60226299 470.40783816 1.87670708 471.03594267 -5.93835449 470.26742554 C-11.80340327 468.53950713 -15.51858957 465.34821913 -18.93835449 460.26742554 C-22.76653223 452.6075756 -22.41535377 444.76529005 -22.45007324 436.39242554 C-22.46694083 434.85684797 -22.48509384 433.32128404 -22.50447083 431.78573608 C-22.55175159 427.76797751 -22.58170204 423.75027423 -22.60791016 419.73233032 C-22.63782708 415.62282395 -22.68431884 411.51350768 -22.72937012 407.40414429 C-22.81515339 399.35866527 -22.88260888 391.31316851 -22.93835449 383.26742554 C-24.03910812 382.92960052 -25.13986176 382.59177551 -26.27397156 382.24371338 C-27.73139395 381.79325136 -29.18877393 381.34265208 -30.64611816 380.89193726 C-31.37006523 380.67015305 -32.0940123 380.44836884 -32.83989716 380.21986389 C-37.86719192 378.66100586 -42.5993698 376.87509237 -47.25085449 374.39242554 C-47.91125732 374.04856812 -48.57166016 373.70471069 -49.2520752 373.35043335 C-51.15954263 372.34320514 -53.05121265 371.31214892 -54.93835449 370.26742554 C-55.92577637 369.72344116 -56.91319824 369.17945679 -57.93054199 368.61898804 C-83.00866713 353.71749339 -98.01032574 328.28161212 -105.17663574 300.70492554 C-106.55033199 294.50568094 -107.0871379 288.49532145 -107.08552551 282.15727234 C-107.0892022 281.36910997 -107.09287889 280.5809476 -107.09666699 279.76890153 C-107.10763066 277.14250759 -107.11153526 274.51615331 -107.11535645 271.88973999 C-107.12162696 269.99999875 -107.12827428 268.11025872 -107.13526917 266.22052002 C-107.1562539 260.02392424 -107.16667099 253.8273284 -107.17663574 247.63070679 C-107.18068633 245.48932572 -107.18480334 243.34794477 -107.18898582 241.20656395 C-107.20803058 231.13651655 -107.2222593 221.06647642 -107.23059779 210.99641448 C-107.24034732 199.41652436 -107.26661005 187.83682654 -107.30709869 176.25700408 C-107.33739624 167.27997764 -107.35207979 158.30300587 -107.35537881 149.32592934 C-107.35771506 143.97762417 -107.36648711 138.62952458 -107.39183998 133.2812748 C-107.41536355 128.23735338 -107.41925787 123.19376933 -107.4090786 118.14980698 C-107.40858886 116.31503734 -107.41473973 114.4802497 -107.42863464 112.64553261 C-107.54365327 96.53509091 -105.96123624 80.01320361 -99.12585449 65.20492554 C-98.78038574 64.42383423 -98.43491699 63.64274292 -98.07897949 62.83798218 C-95.24975692 56.59853597 -92.00128632 50.79552969 -87.93835449 45.26742554 C-87.33507324 44.4437146 -86.73179199 43.62000366 -86.11022949 42.77133179 C-68.3447064 19.62559946 -43.8414113 5.36499954 -15.20069027 0.69497561 C-10.12568766 0.0298639 -5.11207756 -0.01521147 0 0 Z M-17.75085449 138.47836304 C-21.2196481 143.70437446 -21.70669413 149.11672121 -20.57897949 155.20883179 C-18.76566391 161.4696714 -14.44565384 165.92538918 -8.93835449 169.26742554 C-2.42279264 171.33913756 4.02056854 171.55278708 10.80212402 171.52139282 C12.37221773 171.52607279 12.37221773 171.52607279 13.97403049 171.53084731 C17.4629291 171.53879091 20.95165202 171.53251781 24.44055176 171.5262146 C26.94941306 171.52892607 29.45827357 171.53248788 31.96713257 171.53683472 C38.06301356 171.54499744 44.15883005 171.54381683 50.25471187 171.53800943 C55.21104126 171.53348402 60.16735687 171.53288384 65.12368774 171.53505707 C66.18369959 171.53551677 66.18369959 171.53551677 67.26512581 171.53598575 C68.70093243 171.53662523 70.13673904 171.53727366 71.57254565 171.53793094 C85.02125143 171.5436276 98.4699299 171.53708676 111.9186312 171.5263302 C123.44645953 171.51739529 134.97424758 171.51894752 146.5020752 171.52816772 C159.90420539 171.53888209 173.30631167 171.54307834 186.70844555 171.5369432 C188.13883145 171.53630613 189.56921736 171.53567739 190.99960327 171.53505707 C191.7032942 171.53474852 192.40698513 171.53443997 193.13200003 171.53412206 C198.07967458 171.53239862 203.02733391 171.53530265 207.9750061 171.54001617 C214.63988352 171.54622635 221.30467332 171.54177518 227.96954727 171.53022766 C230.41363524 171.52758619 232.85772962 171.52833739 235.30181503 171.53275299 C238.64168496 171.53823002 241.98131245 171.53134791 245.32116699 171.52139282 C246.76675916 171.52808499 246.76675916 171.52808499 248.24155521 171.53491235 C257.99409346 171.47865389 265.00379898 170.40309592 272.17492676 163.48226929 C275.80174633 159.22469848 276.80490652 155.28466047 277.49914551 149.82992554 C276.58693687 142.4019409 273.72934861 137.17314198 267.94055176 132.45883179 C262.22432871 128.83419971 257.00067632 128.97990617 250.41581726 129 C249.33096474 128.99546889 248.24611221 128.99093777 247.12838537 128.98626935 C243.48654814 128.97359055 239.8448598 128.97524799 236.20300293 128.97689819 C233.59458727 128.97091512 230.98617339 128.96411009 228.37776184 128.95654297 C222.02366977 128.93993684 215.6696148 128.93443359 209.31550284 128.93331821 C204.14978108 128.93236753 198.98407155 128.92825621 193.81835365 128.92191696 C179.16863093 128.90430539 164.51893751 128.89507793 149.86920413 128.89657791 C148.6847861 128.89669778 148.6847861 128.89669778 147.47644043 128.89682007 C146.68586289 128.89690183 145.89528535 128.89698359 145.08075092 128.89706783 C132.26976734 128.89788064 119.45890137 128.87874394 106.6479518 128.85054334 C93.4898821 128.82180747 80.33186974 128.80800343 67.17376786 128.80973089 C59.7880531 128.81039456 52.40246161 128.8049123 45.01677513 128.78337479 C38.07037425 128.76324793 31.12423772 128.7638439 24.17782402 128.77840805 C21.62849803 128.78050164 19.07915589 128.77576266 16.52985764 128.76368713 C13.04907284 128.74826744 9.56918985 128.75752239 6.08842468 128.77294922 C4.57600631 128.75751853 4.57600631 128.75751853 3.03303403 128.74177611 C-5.89309105 128.82916848 -12.19874387 131.38735218 -17.75085449 138.47836304 Z M26.62414551 221.70492554 C22.1265434 227.61036432 21.17489238 232.91523185 22.06164551 240.26742554 C23.85772363 246.3654872 27.68137184 250.92867864 33.06164551 254.26742554 C37.6651326 256.10188944 41.53964458 256.52206818 46.48017883 256.53485107 C47.20582761 256.53938219 47.93147639 256.5439133 48.67911452 256.54858172 C51.09941505 256.56119514 53.51948967 256.55960735 55.93981934 256.55795288 C57.67977689 256.56394006 59.4197318 256.57074604 61.15968323 256.57830811 C65.87880423 256.59595632 70.59785267 256.600663 75.31700349 256.60193968 C78.2676298 256.60336253 81.21823774 256.60763469 84.16885948 256.61293411 C94.46915226 256.63143068 104.76939331 256.63960521 115.06970215 256.63803101 C124.66048291 256.6368298 134.25103856 256.65792911 143.84176236 256.68951833 C152.08485399 256.71569815 160.32787218 256.72639758 168.57100505 256.72512019 C173.49028134 256.72461105 178.40935754 256.73026782 183.3285923 256.75147629 C187.95718023 256.77088733 192.58537776 256.77096358 197.21397972 256.75644302 C198.90823311 256.75435736 200.60251111 256.75904132 202.29672241 256.77116394 C216.14103906 257.05227249 216.14103906 257.05227249 227.91949177 250.52786827 C232.9748656 245.09393358 234.55666565 240.20631125 234.37023926 232.82601929 C233.56037891 226.11135434 230.0715385 221.76396983 225.03820801 217.49398804 C220.12168546 214.44302346 215.32759361 214.01470775 209.64311218 214 C208.91746341 213.99546889 208.19181463 213.99093777 207.4441765 213.98626935 C205.02387597 213.97365593 202.60380134 213.97524372 200.18347168 213.97689819 C198.44351412 213.97091102 196.70355922 213.96410503 194.96360779 213.95654297 C190.24448678 213.93889475 185.52543834 213.93418808 180.80628753 213.9329114 C177.85566122 213.93148854 174.90505328 213.92721639 171.95443153 213.92191696 C161.65413876 213.9034204 151.3538977 213.89524586 141.05358887 213.89682007 C131.46280811 213.89802128 121.87225246 213.87692196 112.28152865 213.84533274 C104.03843702 213.81915292 95.79541884 213.80845349 87.55228597 213.80973089 C82.63300967 213.81024003 77.71393348 213.80458325 72.79469872 213.78337479 C68.16611079 213.76396374 63.53791325 213.76388749 58.90931129 213.77840805 C57.21505791 213.78049371 55.5207799 213.77580976 53.8265686 213.76368713 C38.79455933 213.64175697 38.79455933 213.64175697 26.62414551 221.70492554 Z " stroke="#7c7c7c" stroke-width="30" fill="white" transform="translate(127.9383544921875,20.732574462890625)"/>
</svg>
