<?xml version="1.0" encoding="UTF-8"?>
<svg version="1.1" xmlns="http://www.w3.org/2000/svg" width="512" height="512">
<path d="M0 0 C4.32196986 3.54542718 6.19438147 6.13519487 7.71484375 11.578125 C7.96640015 14.67982483 7.96640015 14.67982483 7.97021484 18.01977539 C7.97717377 19.27871109 7.98413269 20.53764679 7.99130249 21.83473206 C7.99062145 22.50072481 7.98994041 23.16671757 7.98923874 23.85289192 C7.98826469 25.96164225 8.00132166 28.06989489 8.01821899 30.17857361 C8.06420198 36.17101121 8.08904503 42.16339767 8.09570312 48.15600586 C8.10077123 51.83307587 8.12528896 55.50962816 8.16102982 59.18652153 C8.17071097 60.5740794 8.17322494 61.96170959 8.16785812 63.34929085 C8.11260912 78.34701998 11.44247893 91.09743723 21.453125 102.5703125 C38.35127505 118.85332647 60.90906751 116.8733201 82.6015625 116.83691406 C85.31979705 116.83852838 88.03802486 116.84311867 90.7562561 116.84753418 C97.34575573 116.85638335 103.93520955 116.85452626 110.52471089 116.8487089 C115.8846723 116.84417468 121.24462096 116.84358708 126.60458374 116.84575653 C127.37019519 116.846063 128.13580663 116.84636946 128.92461842 116.84668522 C130.48040271 116.84732473 132.036187 116.84797316 133.59197128 116.8486304 C148.14819542 116.85432058 162.70439428 116.84779646 177.26061428 116.83702967 C189.72486227 116.82809535 202.18907299 116.82964776 214.65332031 116.83886719 C229.1608291 116.84959307 243.66831578 116.85377138 258.17582798 116.84764266 C259.72558657 116.84700563 261.27534516 116.84637688 262.82510376 116.84575653 C263.96858804 116.8452937 263.96858804 116.8452937 265.13517302 116.84482153 C270.48281081 116.84310153 275.83043447 116.84599462 281.17807007 116.85071564 C287.70346827 116.8563503 294.22881842 116.85475403 300.75421119 116.84415415 C304.07752552 116.83893198 307.40069448 116.83787499 310.7240181 116.84345245 C341.66928718 117.41941969 341.66928718 117.41941969 367.9765625 102.5703125 C377.9813338 91.10417011 381.32356911 78.37156854 381.23126411 63.37985611 C381.21838393 61.27614776 381.23014129 59.17370415 381.24729919 57.07003784 C381.27371452 53.36727074 381.27960514 49.66482621 381.27819824 45.9619751 C381.27594938 40.01709888 381.29029728 34.07261732 381.3337841 28.12789536 C381.34354029 26.06772166 381.33495611 24.00818797 381.3250885 21.94802856 C381.36630168 14.41081029 381.50697295 8.75001914 386.22265625 2.6171875 C390.09697879 -0.77050515 393.25527403 -2.35605505 398.4453125 -2.5859375 C403.88999231 -2.19234619 408.03652454 -0.57644091 411.65234375 3.578125 C414.66417364 7.95896848 414.84931817 10.97071672 414.8918457 16.18237305 C414.8984169 16.84961395 414.9049881 17.51685486 414.91175842 18.20431519 C414.9314848 20.41615934 414.94316254 22.62793506 414.953125 24.83984375 C414.95720053 25.60043406 414.96127605 26.36102436 414.96547508 27.14466286 C414.98634915 31.18310905 415.00063594 35.22152129 415.01000977 39.26000977 C415.02097958 43.38949126 415.05526371 47.51841967 415.09518147 51.64770794 C415.12162963 54.8558079 415.129727 58.06378287 415.13329124 61.27198219 C415.13809777 62.79110187 415.14953701 64.31021831 415.16832924 65.82922935 C415.32575942 79.4171558 413.53346815 92.75469089 406.96484375 104.890625 C406.45050781 105.87579102 406.45050781 105.87579102 405.92578125 106.88085938 C395.37290222 126.5808507 379.13623853 140.39965767 357.77130544 146.97428071 C349.82629654 149.30719469 342.46824211 149.86790898 334.19247437 149.84555054 C332.95396811 149.85008165 331.71546186 149.85461276 330.43942511 149.85928118 C327.02256985 149.86971062 323.60592599 149.87125804 320.18906999 149.86889243 C316.49564007 149.86848269 312.80224104 149.87953844 309.10882568 149.88900757 C301.87996443 149.90558543 294.65113579 149.91111568 287.42225711 149.91223232 C281.54206548 149.91318445 275.66188456 149.91730298 269.78169632 149.92363358 C253.08824053 149.94123827 236.39481039 149.95047381 219.70134525 149.94897263 C218.80232808 149.94889272 217.9033109 149.9488128 216.97705078 149.94873047 C215.6268667 149.94860783 215.6268667 149.94860783 214.24940617 149.94848271 C199.67158369 149.94767033 185.09386466 149.96679785 170.51607208 149.9950072 C155.52609287 150.02378383 140.53616404 150.03754483 125.54615653 150.03581965 C117.13914915 150.03515733 108.73225019 150.04057984 100.32526779 150.06217575 C93.16550682 150.0804507 86.00590339 150.08468346 78.8461291 150.0711569 C75.19861802 150.06465852 71.55140862 150.06439532 67.90392685 150.0818634 C39.80771311 150.20807739 39.80771311 150.20807739 27.71484375 145.578125 C26.43510209 145.09651193 26.43510209 145.09651193 25.12950706 144.6051693 C22.90779612 143.71788108 20.83181095 142.69231826 18.71484375 141.578125 C17.79445312 141.10890625 16.8740625 140.6396875 15.92578125 140.15625 C-2.58305598 130.11269491 -16.17683998 113.39001527 -22.29949951 93.23983765 C-25.08158872 83.26801554 -25.86709303 74.01010741 -25.78125 63.6953125 C-25.78140555 62.14071587 -25.78290379 60.58611886 -25.78565979 59.03152466 C-25.78702889 55.80957422 -25.77472583 52.58807712 -25.75170898 49.36621094 C-25.72308721 45.24847045 -25.72614603 41.13146717 -25.7387991 37.01366997 C-25.74576125 33.81881447 -25.7379649 30.62412842 -25.72554207 27.42929459 C-25.72104957 25.91032689 -25.72067137 24.39134091 -25.72460747 22.87237167 C-25.72753131 20.75551787 -25.71096737 18.63967483 -25.68920898 16.52294922 C-25.683806 15.32322479 -25.67840302 14.12350037 -25.6728363 12.88742065 C-25.10277826 8.02131889 -23.47290961 4.73377692 -19.97265625 1.328125 C-13.64550177 -2.79188257 -6.66194868 -4.14521251 0 0 Z " fill="#000000" transform="translate(61.28515625,310.421875)"/>
<path d="M0 0 C4.96584595 2.30557133 7.41616368 5.22328528 10 10 C10.57227112 13.29377429 10.54712069 16.53408424 10.51898193 19.87081909 C10.52648319 20.86008176 10.53398444 21.84934443 10.541713 22.86858475 C10.5619993 26.18066973 10.55388536 29.49207076 10.54589844 32.80419922 C10.5546329 35.17944517 10.56511823 37.55468523 10.57722473 39.92991638 C10.60222465 45.70838261 10.60897037 51.48666231 10.6076645 57.26517777 C10.60712981 63.9904184 10.62910757 70.71552857 10.65247145 77.44072177 C10.69353919 89.43345375 10.71686198 101.42615173 10.72900391 113.41894531 C10.74083495 125.06709053 10.76103657 136.71517175 10.79248047 148.36328125 C10.79538462 149.44071564 10.79538462 149.44071564 10.79834744 150.53991638 C10.80811213 154.14345413 10.81804122 157.74699141 10.82805204 161.35052848 C10.91085641 191.23365529 10.96455731 221.11677717 11 251 C11.76341705 250.22992111 12.52683411 249.45984222 13.31338501 248.66642761 C20.514529 241.4044259 27.7236138 234.15039102 34.94051552 226.90404797 C38.65039717 223.17852134 42.35744085 219.45026026 46.05810547 215.71557617 C49.63062787 212.11041935 53.21046323 208.51267496 56.79545212 204.91991615 C58.16079187 203.54904029 59.52349168 202.17552982 60.88347244 200.79933739 C62.791172 198.86980999 64.70810759 196.94992782 66.62744141 195.03198242 C67.18561554 194.46302246 67.74378967 193.8940625 68.31887817 193.30786133 C72.82694121 188.83488099 77.34425205 185.57318598 83.9375 185.5625 C89.09054535 185.74072563 91.89397352 186.87941987 96 190 C99.52257768 194.17147357 100.90736392 197.53447128 101 203 C99.61122096 211.24089776 94.81757276 216.02890662 89.03393555 221.71069336 C88.11654602 222.63538422 87.19915649 223.56007507 86.25396729 224.51278687 C83.75301287 227.03244321 81.23378513 229.53303853 78.7101438 232.02994609 C76.0647861 234.65256054 73.43498664 237.29069771 70.80293274 239.926651 C66.38393867 244.34740682 61.95318042 248.75609046 57.51489258 253.1574707 C52.3892103 258.24077137 47.28146387 263.34155789 42.18317002 268.45231718 C37.26808709 273.37879975 32.34172589 278.29384618 27.40973854 283.20340157 C25.31507942 285.28879036 23.22421448 287.37787645 21.13629723 289.47001457 C18.22056552 292.39022253 15.28842709 295.29339665 12.35424805 298.19506836 C11.49221268 299.06205856 10.63017731 299.92904877 9.74201965 300.8223114 C8.93876251 301.61139893 8.13550537 302.40048645 7.3079071 303.21348572 C6.61677165 303.90051543 5.9256362 304.58754515 5.21355724 305.29539394 C1.28004708 308.32449349 -2.96440761 309.39255621 -7.875 309.0625 C-11.75388247 308.5086877 -13.87207601 307.65971321 -16.74343872 304.99940491 C-17.77652349 304.04839496 -17.77652349 304.04839496 -18.83047867 303.07817268 C-22.66694614 299.40324136 -26.46718038 295.69746791 -30.22998047 291.94702148 C-31.55827629 290.62858246 -31.55827629 290.62858246 -32.91340637 289.2835083 C-35.81756112 286.39892933 -38.71780959 283.51047146 -41.6171875 280.62109375 C-42.62132832 279.62100712 -43.62550053 278.62095201 -44.62970352 277.62092781 C-49.34155045 272.92806389 -54.05102986 268.23284004 -58.75757968 263.53466362 C-64.17578512 258.12626084 -69.60220131 252.72627159 -75.03560531 247.33313888 C-79.24916521 243.14973611 -83.45502225 238.95868879 -87.65518677 234.76183754 C-90.15867835 232.26069307 -92.66534705 229.76294415 -95.180233 227.27325249 C-97.98004108 224.5010532 -100.76383111 221.71310507 -103.54638672 218.92358398 C-104.37754501 218.10523575 -105.20870331 217.28688751 -106.06504822 216.44374084 C-111.11557568 211.34687827 -113.66036047 207.80396277 -114.3125 200.5 C-113.8539082 195.36377188 -111.99147256 192.32196341 -108.9375 188.25 C-104.93163849 185.18168054 -101.05594182 183.94534117 -96 184 C-89.17312565 185.49817028 -84.89494278 188.24131144 -80.10327148 193.21557617 C-79.47772873 193.84024277 -78.85218597 194.46490936 -78.20768738 195.10850525 C-76.16425544 197.15608374 -74.14285172 199.2240063 -72.12109375 201.29296875 C-70.70037912 202.7248858 -69.27832509 204.15547506 -67.85499573 205.58479309 C-64.12788633 209.33471767 -60.41915498 213.10231151 -56.71405029 216.8739624 C-52.92388439 220.72570745 -49.11649391 224.5603434 -45.31054688 228.39648438 C-37.85680668 235.91440829 -30.42238285 243.45112452 -23 251 C-22.99853344 249.76348127 -22.99706688 248.52696255 -22.99555588 247.25297356 C-22.95985571 217.90206761 -22.90361723 188.55127554 -22.82207905 159.20046484 C-22.81206156 155.58807071 -22.80221744 151.97567614 -22.79248047 148.36328125 C-22.78956841 147.2845348 -22.78956841 147.2845348 -22.78659752 146.1839955 C-22.75557441 134.53860609 -22.73859601 122.89323639 -22.72680578 111.24781345 C-22.71439581 99.2989771 -22.68689796 87.35024421 -22.64538693 75.40147316 C-22.62250314 68.68981773 -22.60659939 61.97829597 -22.60811615 55.26659775 C-22.60885998 48.95139256 -22.59102021 42.63651454 -22.55883217 36.32139397 C-22.55030253 34.00184686 -22.54860389 31.68226318 -22.55419731 29.36270714 C-22.56081237 26.19835976 -22.54297533 23.03506087 -22.51898193 19.87081909 C-22.52674235 18.9505776 -22.53450277 18.03033611 -22.54249835 17.08220851 C-22.46815375 11.55263315 -21.68190987 8.38870735 -18 4 C-12.72867143 -1.00776214 -6.89190982 -0.92775709 0 0 Z " fill="#000000" transform="translate(262,52)"/>
</svg>
