<?xml version="1.0" encoding="UTF-8"?>
<svg version="1.1" xmlns="http://www.w3.org/2000/svg" width="512" height="512">
<path d="M0 0 C1.04945801 0.23348145 1.04945801 0.23348145 2.12011719 0.47167969 C32.60122373 7.60434404 64.42423746 27.76991061 82 54 C82 54.66 82 55.32 82 56 C82.66 56 83.32 56 84 56 C84.38865234 55.15115234 84.38865234 55.15115234 84.78515625 54.28515625 C97.87988738 29.65358804 128.45046779 11.58030024 154.31787109 3.25390625 C189.67082673 -7.33552389 226.22801673 -5.27348277 259.125 11.9375 C266.17626847 15.75373414 272.74355774 19.96914832 279 25 C279.90878906 25.70769531 280.81757813 26.41539063 281.75390625 27.14453125 C296.41651197 38.788965 308.64124952 52.76873297 318 69 C318.57016846 69.98299072 318.57016846 69.98299072 319.15185547 70.98583984 C330.7300786 91.19008787 339.05209197 114.29635653 339.203125 137.8203125 C339.21013931 138.55272659 339.21715363 139.28514069 339.22438049 140.03974915 C339.24184096 142.40156236 339.24823663 144.76312453 339.25 147.125 C339.25101212 148.33701584 339.25101212 148.33701584 339.25204468 149.57351685 C339.2351911 162.28000851 338.61032095 174.52903751 336 187 C335.83371094 187.82854492 335.66742188 188.65708984 335.49609375 189.51074219 C327.54974889 228.31539291 310.37586145 265.09786447 287 297 C286.50612793 297.67643555 286.01225586 298.35287109 285.50341797 299.04980469 C279.25376385 307.57440431 272.81381236 315.91639233 266 324 C265.53062012 324.55961426 265.06124023 325.11922852 264.57763672 325.69580078 C259.19297807 332.10511965 253.79760377 338.39123139 247.78125 344.22265625 C245.9837243 346.01624 244.3352354 347.8810743 242.6875 349.8125 C236.3976118 357.10762147 229.47404796 363.88361827 222.1484375 370.1328125 C219.96775889 372.02802045 217.84583082 373.97982564 215.72851562 375.9453125 C210.57431963 380.72715213 205.3095088 385.29062006 199.828125 389.69921875 C197.32183424 391.73817628 194.86405682 393.823751 192.41699219 395.93310547 C184.56445302 402.68399505 176.35113502 408.88233028 168 415 C167.28150879 415.52883789 166.56301758 416.05767578 165.82275391 416.60253906 C145.18680271 431.77053325 123.72423517 445.52210874 101.6875 458.5625 C101.02484131 458.9558252 100.36218262 459.34915039 99.67944336 459.75439453 C98.41945259 460.49322553 97.15318458 461.22147324 95.88037109 461.93798828 C94.59220208 462.66553115 93.31939759 463.42077031 92.06103516 464.19873047 C87.62271213 466.75791155 84.34711308 467.52835306 79.26367188 466.65429688 C75.21059274 465.48278565 71.81474693 463.4666593 68.25 461.25 C67.44143555 460.764104 66.63287109 460.27820801 65.79980469 459.77758789 C63.18935525 458.20167026 60.59452917 456.60196869 58 455 C56.20872946 453.9095053 54.41706043 452.8196649 52.625 451.73046875 C21.37902498 432.64672874 -8.5291851 411.28883399 -36.32177734 387.43554688 C-38.08964519 385.92331776 -39.86635317 384.42196278 -41.64453125 382.921875 C-47.38833383 378.06150002 -52.98450006 373.18529424 -58.2265625 367.77734375 C-59.99867723 366.00132569 -61.83976147 364.37565197 -63.75 362.75 C-71.4283722 356.13175809 -78.61322321 348.82408842 -85.17578125 341.1015625 C-87.01619585 338.98134183 -88.92233392 336.93160829 -90.84179688 334.88305664 C-96.85295724 328.44565415 -102.33235629 321.69405905 -107.68554688 314.70410156 C-108.91481405 313.11043796 -110.16752969 311.53493855 -111.421875 309.9609375 C-147.13146952 264.79880326 -173.09522988 209.09643287 -173.24023438 150.79858398 C-173.24988103 148.46626284 -173.28096831 146.13484779 -173.3125 143.80273438 C-173.41086771 129.91556125 -171.49779419 116.56617672 -167.4375 103.25 C-167.06612915 102.02518921 -167.06612915 102.02518921 -166.68725586 100.77563477 C-162.21864497 86.7791313 -155.55401861 72.95661712 -147 61 C-146.33742187 60.05511719 -145.67484375 59.11023438 -144.9921875 58.13671875 C-122.74997252 27.4041959 -90.92979141 4.95660784 -53.25 -1.9375 C-35.6960019 -4.69802375 -17.30704348 -3.877959 0 0 Z M-116 52 C-116.94746094 52.85271484 -116.94746094 52.85271484 -117.9140625 53.72265625 C-139.33726115 73.57211282 -153.68102017 106.46091191 -155.17700195 135.42724609 C-155.6241404 161.66768137 -153.23499935 185.89952175 -145 211 C-144.74911621 211.7744043 -144.49823242 212.54880859 -144.23974609 213.34667969 C-131.96071191 250.57071001 -110.2674762 283.49666049 -85 313.125 C-84.56236328 313.63828857 -84.12472656 314.15157715 -83.67382812 314.68041992 C-74.87962625 324.87040168 -65.60498599 334.55991294 -56.07397461 344.05639648 C-54.30008997 345.82487219 -52.53168223 347.59870044 -50.76367188 349.37304688 C-45.01113093 355.12935823 -39.22241038 360.74740492 -33 366 C-31.76131393 367.08007681 -30.52434043 368.16212073 -29.2890625 369.24609375 C-22.31666251 375.32796134 -15.31602277 381.33163675 -8 387 C-7.41057617 387.45810059 -6.82115234 387.91620117 -6.21386719 388.38818359 C17.25343533 406.59597428 41.53125152 423.66145167 67.078125 438.84228516 C68.9250337 439.95484119 70.74554185 441.10105489 72.5625 442.26171875 C74.1403125 443.24591797 74.1403125 443.24591797 75.75 444.25 C76.63171875 444.81203125 77.5134375 445.3740625 78.421875 445.953125 C81.83795261 447.34025955 83.47178628 447.0488098 87 446 C89.5984299 444.68066447 92.02515337 443.33153158 94.5 441.8125 C95.22703125 441.37470215 95.9540625 440.9369043 96.703125 440.48583984 C99.14482801 439.00535256 101.57375154 437.5056738 104 436 C104.87914062 435.45553223 105.75828125 434.91106445 106.6640625 434.35009766 C118.4066424 427.04653077 129.89112433 419.45965088 141.10205078 411.36425781 C142.90157559 410.07074808 144.71153027 408.79394477 146.52734375 407.5234375 C159.87337601 398.1601032 172.71391135 388.12076332 185.07421875 377.4921875 C187.75779581 375.20631011 190.49038526 373.00529732 193.25 370.8125 C205.46588075 360.81609973 216.58574775 349.51467623 227.77462769 338.40060425 C228.90813992 337.27515173 230.0431267 336.15118199 231.17971802 335.02883911 C237.53866111 328.74131171 243.54606539 322.39148749 249.09838867 315.36914062 C250.92295536 313.0959868 252.83055208 310.94865976 254.8125 308.8125 C296.74004742 261.98648664 323.97719918 198.89521861 321.22753906 135.70849609 C320.72751091 127.55889561 319.31638478 119.82000219 317 112 C316.78569336 111.26974609 316.57138672 110.53949219 316.35058594 109.78710938 C305.34178184 73.5397806 280.50507296 43.95350985 247.22314453 26.10742188 C220.19761704 12.64511211 188.3360069 11.47387784 159.875 20.6875 C130.23359581 30.88745113 106.08710808 51.13217858 90 78 C90 78.66 90 79.32 90 80 C88.41773035 80.19627391 86.83410729 80.38165538 85.25 80.5625 C83.92742187 80.71912109 83.92742187 80.71912109 82.578125 80.87890625 C78.30942623 81.07940574 78.30942623 81.07940574 76 80 C75.03515625 77.85546875 75.03515625 77.85546875 74 75 C72.52416655 72.71510851 71.03141384 70.51084576 69.4375 68.3125 C68.99132324 67.69528076 68.54514648 67.07806152 68.08544922 66.44213867 C48.22091805 39.35446147 19.30714865 21.03880858 -14.03588867 15.77392578 C-53.43707752 10.4557651 -87.93845545 24.99181674 -116 52 Z " fill="#000000" transform="translate(173,24)"/>
</svg>
