<?xml version="1.0" encoding="UTF-8"?>
<svg version="1.1" xmlns="http://www.w3.org/2000/svg" width="512" height="512">
<path d="M0 0 C1.59412197 0.79310143 3.18867527 1.58533638 4.78361887 2.37678421 C9.1449822 4.54416584 13.50006352 6.72390788 17.85416424 8.90583467 C22.55889195 11.26077288 27.26934381 13.60421131 31.97903442 15.94920349 C41.19687022 20.5412394 50.40919966 25.14421686 59.61946589 29.7514133 C67.10707134 33.49676267 74.59639971 37.23864428 82.08695793 40.97808456 C84.24644857 42.05617791 86.40593913 43.1342714 88.56542963 44.21236503 C89.64033792 44.74899579 90.71524622 45.28562655 91.82272749 45.83851884 C112.13995357 55.98225059 132.45057241 66.1391561 152.75926279 76.29996358 C171.32958196 85.59049591 189.90841014 94.86386605 208.49128897 104.12924732 C227.58368228 113.64887859 246.67010333 123.18038562 265.75020689 132.72462642 C276.45773037 138.08046552 287.16757366 143.43153577 297.88372993 148.77008438 C307.00584493 153.31466811 316.12228003 157.87040835 325.23160965 162.44056912 C329.87693524 164.77074812 334.52465748 167.09575758 339.17951584 169.40684319 C343.44566328 171.52510692 347.70406898 173.65816839 351.95693915 175.80295859 C353.4916774 176.57373735 355.02910231 177.33919613 356.56951118 178.09857871 C370.36597377 184.90656268 381.66520202 192.46225119 386.89512634 207.72042847 C389.82497141 219.09866237 388.11495375 230.3126799 382.46543884 240.56027222 C375.48019957 251.10886337 365.35725447 256.24266773 354.33872986 261.68634033 C352.73635907 262.49084669 351.13460141 263.2965752 349.53340244 264.10341132 C345.15352194 266.30597505 340.76513826 268.49108828 336.37509966 270.6733191 C331.63378954 273.03397309 326.90059387 275.41079689 322.16633606 277.78555298 C312.89994891 282.4304422 303.62613021 287.06030004 294.34962344 291.68494003 C283.54466598 297.07216096 272.74680545 302.47353487 261.9491173 307.8753068 C242.68340613 317.51269407 223.41075199 327.1361151 204.13438416 336.75216675 C185.43255626 346.08161196 166.73652668 355.42255231 148.04649353 364.77560425 C127.6869181 374.9641259 107.32421787 385.14635196 86.95598888 395.31756461 C84.78415989 396.40211255 82.61233225 397.4866632 80.44050598 398.57121658 C78.83767575 399.37161068 78.83767575 399.37161068 77.20246512 400.18817436 C69.67424512 403.94797425 62.14820524 407.71211528 54.62294006 411.47782516 C45.45340607 416.0661168 36.28025669 420.64708465 27.10245347 425.21881454 C22.42039479 427.55128795 17.73997592 429.88690188 13.0638237 432.23119736 C8.78239925 434.37747933 4.49646163 436.51445182 0.2067498 438.64411946 C-1.34331859 439.41566984 -2.89171985 440.19058068 -4.43824947 440.96920006 C-18.00459752 447.79522146 -30.06428047 452.00881683 -45.17909241 447.40402222 C-55.29808597 443.58225641 -63.10925936 436.92424832 -68.28456116 427.37277222 C-73.4272654 415.858576 -72.36479098 404.70572987 -69.40882874 392.76144409 C-69.14084126 391.64136711 -68.87285379 390.52129013 -68.59674549 389.36727142 C-67.71426536 385.69907779 -66.81362812 382.03570129 -65.90956116 378.37277222 C-65.60664028 377.13564484 -65.30371941 375.89851746 -64.99161911 374.62390137 C-62.84365315 365.85597229 -60.66171512 357.09675263 -58.46853995 348.34003639 C-57.53336844 344.60452124 -56.6005502 340.86841825 -55.66732788 337.13241577 C-54.10839882 330.8931021 -52.54752862 324.65427654 -50.98548889 318.41574097 C-49.18069643 311.20756178 -47.37936791 303.9985232 -45.57973069 296.78905535 C-44.02379954 290.55627136 -42.46604519 284.32394516 -40.90674812 278.09200239 C-39.9797121 274.38697091 -39.05330716 270.68178478 -38.12856102 266.97618103 C-37.26468145 263.51490577 -36.39851993 260.05420964 -35.53055763 256.59395599 C-35.0604744 254.71754023 -34.59271553 252.84054264 -34.12501526 250.96353149 C-33.84623032 249.85403137 -33.56744537 248.74453125 -33.2802124 247.60140991 C-33.03819942 246.63411201 -32.79618643 245.66681412 -32.54683971 244.67020416 C-31.90956116 242.37277222 -31.90956116 242.37277222 -30.90956116 240.37277222 C-28.21369553 239.80603218 -28.21369553 239.80603218 -24.56135559 239.36523438 C-23.89377975 239.28352875 -23.22620391 239.20182312 -22.5383985 239.11764157 C-13.86926436 238.08386288 -5.17404211 237.29245425 3.51914978 236.49337769 C5.42469516 236.3159889 7.33021718 236.13834895 9.23571777 235.96047974 C14.36530329 235.4825017 19.49523736 235.00837281 24.6252737 234.53526068 C28.92223031 234.13867387 33.21902149 233.74030999 37.51581883 233.34200203 C47.65387379 232.40230277 57.79222871 231.46589045 67.93077087 230.53146362 C78.36673833 229.56955768 88.80213963 228.60167537 99.23728919 227.63094032 C108.22589015 226.7950072 117.21484729 225.96298305 126.20409417 225.13402474 C131.56050541 224.64002311 136.91676717 224.14452369 142.27268219 223.6451683 C147.30550582 223.17609078 152.338758 222.71191043 157.37237358 222.25141144 C159.21269378 222.08223575 161.05285893 221.91136296 162.89284706 221.73861313 C171.97386275 220.88702853 180.95635439 220.07392793 190.09043884 220.37277222 C190.09043884 219.71277222 190.09043884 219.05277222 190.09043884 218.37277222 C189.24905318 218.40284819 189.24905318 218.40284819 188.39066982 218.43353176 C178.53634699 218.61656692 168.7932043 217.56255721 158.99497986 216.64450073 C156.9703553 216.45851141 154.94569085 216.27295588 152.92098999 216.08779907 C147.45003917 215.58617125 141.97968684 215.07827784 136.50943875 214.56905103 C130.77810684 214.03642508 125.0462931 213.50903247 119.31454468 212.98091125 C109.6985844 212.09409343 100.08299828 211.20330616 90.46763611 210.31002808 C79.34747122 209.27699035 68.22678471 208.24972639 57.10579163 207.2256456 C46.40062503 206.2397674 35.69578955 205.25034004 24.99111748 204.25910759 C20.43667709 203.83740731 15.88213213 203.416863 11.3275013 202.99722481 C5.97150864 202.50355472 0.61581543 202.00675335 -4.73966026 201.50750732 C-6.70682107 201.32462067 -8.67408129 201.14279974 -10.64144516 200.96211052 C-13.32191074 200.71574512 -16.00199113 200.46554531 -18.68200684 200.21434021 C-19.4643875 200.14332503 -20.24676817 200.07230986 -21.05285734 199.99914271 C-24.42931365 199.67888029 -27.63537128 199.24911041 -30.90956116 198.37277222 C-35.48090715 182.50779674 -39.45396812 166.49183469 -43.45111752 150.47519779 C-44.41413228 146.61800667 -45.37947966 142.7613992 -46.34443665 138.9046936 C-47.95979269 132.44688301 -49.57318971 125.98858538 -51.18544006 119.52999878 C-53.04639547 112.07524103 -54.91077549 104.62134585 -56.77688384 97.16787648 C-58.38721441 90.73563444 -59.99570823 84.30293514 -61.60267091 77.86985087 C-62.55907516 74.04112549 -63.51610404 70.21255928 -64.47480011 66.38440704 C-65.37328645 62.79624725 -66.26946101 59.20751781 -67.16386986 55.61833954 C-67.64752896 53.67981048 -68.13349644 51.74185781 -68.61953735 49.80392456 C-68.90818161 48.64370789 -69.19682587 47.48349121 -69.49421692 46.28811646 C-69.87024614 44.78286848 -69.87024614 44.78286848 -70.25387192 43.24721146 C-73.2692915 30.02808285 -72.45433805 18.7659033 -65.59706116 6.94699097 C-59.94326983 -1.6776583 -51.37694018 -7.46369203 -41.34706116 -10.00222778 C-25.86183384 -12.67019768 -13.5246604 -6.80647431 0 0 Z " fill="#000000" transform="translate(97.90956115722656,36.627227783203125)"/>
</svg>
