<?xml version="1.0" encoding="UTF-8"?>
<svg version="1.1" xmlns="http://www.w3.org/2000/svg" width="512" height="512">
<path d="M0 0 C3.84843641 3.66879665 7.06710561 7.51303826 10.1875 11.8125 C10.6623584 12.46412109 11.1372168 13.11574219 11.62646484 13.78710938 C16.3493832 20.35185616 20.64331157 27.1558026 24.83105469 34.07080078 C25.92359524 35.87390343 27.02678582 37.66999394 28.1328125 39.46484375 C30.47061094 43.28165753 32.74514038 47.13369186 35 51 C35.49983398 51.85609863 35.99966797 52.71219727 36.51464844 53.59423828 C51.48981952 79.40470202 64.37049399 106.10872926 75 134 C75.64727051 135.69455322 75.64727051 135.69455322 76.30761719 137.42333984 C104.43949642 211.82282508 114.82474481 294.94976146 91 372 C90.76168457 372.78761719 90.52336914 373.57523437 90.27783203 374.38671875 C82.69639114 399.23844262 71.03295192 422.25658184 54 442 C53.53126465 442.5470459 53.0625293 443.0940918 52.57958984 443.65771484 C13.44442526 488.85849885 -45.86859877 507.059073 -103.74649048 511.78436279 C-108.94167137 512.12869075 -114.12683944 512.18173363 -119.33203125 512.203125 C-120.47562607 512.20995804 -121.61922089 512.21679108 -122.79747009 512.22383118 C-126.46917712 512.24080094 -130.1407561 512.24715234 -133.8125 512.25 C-135.05978882 512.25200409 -136.30707764 512.25400818 -137.59216309 512.256073 C-182.19554054 512.27365486 -182.19554054 512.27365486 -198 508 C-198.82539859 463.48961696 -188.4918033 416.78100566 -174 375 C-173.55068115 373.68805664 -173.55068115 373.68805664 -173.09228516 372.34960938 C-162.78424549 342.62515744 -147.90481554 313.42426641 -128 289 C-127.09372056 287.82333334 -126.191531 286.64350789 -125.29296875 285.4609375 C-119.64875134 278.06322482 -113.74300075 271.43231641 -107 265 C-104.63628557 262.65810447 -102.29164518 260.30702491 -100 257.89453125 C-89.14832796 246.5977711 -75.14242623 235.86298225 -61 229 C-68.32493216 230.82643581 -75.21250498 233.09554344 -82.125 236.125 C-83.03241943 236.52114502 -83.93983887 236.91729004 -84.87475586 237.32543945 C-117.24463108 251.65625195 -146.54027331 273.63200513 -168 302 C-168.46019531 302.59490234 -168.92039062 303.18980469 -169.39453125 303.80273438 C-189.67269247 330.13290495 -203.93838465 359.81960773 -215 391 C-215.3103418 391.85464844 -215.62068359 392.70929688 -215.94042969 393.58984375 C-226.9533275 423.99841219 -233.10151381 455.96104815 -237 488 C-237.99 488 -238.98 488 -240 488 C-270.823807 432.98474058 -293.36622868 371.99168625 -276.03930664 308.69458008 C-269.02661175 284.47426411 -256.30611191 262.30262507 -239 244 C-237.89117511 242.69143298 -236.78683332 241.37905099 -235.6875 240.0625 C-222.85216916 225.39776568 -206.56125318 214.04444492 -190 204 C-189.23204102 203.53368164 -188.46408203 203.06736328 -187.67285156 202.58691406 C-171.99939207 193.23163734 -155.30850083 186.55090088 -138.46179199 179.66915894 C-100.90594687 164.27380179 -66.66051995 144.88419355 -37 117 C-36.30132812 116.36707031 -35.60265625 115.73414062 -34.8828125 115.08203125 C-13.62606509 95.10421677 2.15503929 64.19444275 3.21875 34.89453125 C3.44354595 24.88807391 2.99723328 15.54404035 0.65625 5.80078125 C0 3 0 3 0 0 Z " fill="#489F0F" transform="translate(345,0)"/>
<path d="M0 0 C35.48019131 53.22028697 32.78457645 149.01870374 21.71630859 207.47949219 C19.95687309 216.12675187 17.60540886 224.57399687 15 233 C14.76168457 233.78761719 14.52336914 234.57523438 14.27783203 235.38671875 C6.69639114 260.23844262 -4.96704808 283.25658184 -22 303 C-22.46873535 303.5470459 -22.9374707 304.0940918 -23.42041016 304.65771484 C-62.55557474 349.85849885 -121.86859877 368.059073 -179.74649048 372.78436279 C-184.94167137 373.12869075 -190.12683944 373.18173363 -195.33203125 373.203125 C-197.04742348 373.21337456 -197.04742348 373.21337456 -198.79747009 373.22383118 C-202.46917712 373.24080094 -206.1407561 373.24715234 -209.8125 373.25 C-211.05978882 373.25200409 -212.30707764 373.25400818 -213.59216309 373.256073 C-258.19554054 373.27365486 -258.19554054 373.27365486 -274 369 C-274 368.34 -274 367.68 -274 367 C-273.2107312 366.66959717 -273.2107312 366.66959717 -272.40551758 366.33251953 C-226.41909947 347.016337 -183.25574167 322.15734401 -146.40625 288.1953125 C-145.07960328 286.98496273 -143.74501513 285.78252758 -142.37866211 284.6171875 C-136.37979548 279.48886059 -130.78621322 273.97234616 -125.2097168 268.39501953 C-123.57424118 266.76172552 -121.93092292 265.1366153 -120.28710938 263.51171875 C-113.72503323 256.98420426 -107.76087308 250.25316092 -102 243 C-101.07691922 241.90991991 -100.14729347 240.82529516 -99.20703125 239.75 C-80.69293313 218.48747949 -65.52944619 194.67082085 -52 170 C-51.50113281 169.09411133 -51.00226563 168.18822266 -50.48828125 167.25488281 C-29.8962772 129.60433556 -15.97410957 88.87917801 -7 47 C-6.84047852 46.27361328 -6.68095703 45.54722656 -6.51660156 44.79882812 C-3.31264791 30.06818002 -1.84336393 14.94969558 0 0 Z " fill="#3A7F0D" transform="translate(421,139)"/>
<path d="M0 0 C5.10566375 3.70608487 9.39156147 9.06215216 10.78125 15.29296875 C11.81080794 24.02133221 10.97938004 31.06534209 5.78125 38.29296875 C1.23450841 43.39050326 -4.11054725 46.82756396 -11.01171875 47.609375 C-19.41008746 47.93934893 -25.57851408 46.36694575 -32.03125 40.91796875 C-33.1140625 39.61859375 -33.1140625 39.61859375 -34.21875 38.29296875 C-34.940625 37.44734375 -35.6625 36.60171875 -36.40625 35.73046875 C-40.01269114 28.89066659 -41.22625275 20.9018979 -39.11328125 13.390625 C-36.37924287 6.9793647 -31.50017426 1.16122661 -25.0703125 -1.64453125 C-16.60554938 -4.6352362 -7.92077544 -4.49601393 0 0 Z " fill="#49A010" transform="translate(141.21875,43.70703125)"/>
<path d="M0 0 C5.38471492 3.39586147 9.29708594 7.80300505 11 14 C11.81461295 20.71005929 11.94097386 27.27485885 8.40234375 33.21875 C4.51479255 38.15669804 0.0402201 42.08304392 -6 44 C-13.46318156 44.88528774 -19.79578288 44.42538564 -26 40 C-31.25381903 35.58201581 -34.82266664 30.48438725 -35.9375 23.6875 C-36.41429379 16.49891676 -34.3738703 10.27796357 -29.9375 4.625 C-21.66654997 -4.01315923 -10.50937085 -4.92917394 0 0 Z " fill="#49A010" transform="translate(283,57)"/>
<path d="M0 0 C3.86545987 2.39974647 6.54726913 4.64180739 8 9 C8.52124721 13.96466601 8.53000847 17.87882824 6.375 22.4375 C2.72424465 26.37647288 -0.65095347 28.1300055 -6 28.375 C-11.14315284 28.14925093 -14.57963306 26.34359035 -18.3125 22.8125 C-20.43958247 19.26736255 -21.20206733 16.08797756 -21 12 C-19.2043568 6.32954779 -16.91546017 2.7492761 -11.8125 -0.3125 C-7.66479206 -1.32638416 -4.1020234 -1.21800695 0 0 Z " fill="#397E0C" transform="translate(98,161)"/>
<path d="M0 0 C3.02519989 2.05971056 4.66926776 3.51573824 5.48046875 7.15625 C5.7530672 11.57676536 5.43956037 13.44476585 2.625 17 C-1.47126303 20.12096231 -3.81739837 20.43920353 -9 20 C-12.62291705 17.9872683 -13.78765675 16.46892468 -15.5 12.6875 C-16.12753814 8.05940621 -15.43771726 5.96129054 -13 2 C-8.52732607 -1.25285376 -5.2750801 -1.53456876 0 0 Z " fill="#499F0F" transform="translate(141,151)"/>
<path d="M0 0 C2.56510573 1.68756956 3.7514063 2.86855016 4.41796875 5.90234375 C4.68356977 9.75714768 4.44877428 11.45603117 1.9375 14.5 C-1.72999792 16.37276489 -3.93187045 16.59172793 -8 16 C-10.72235378 14.065696 -11.75092091 12.69386319 -12.875 9.5625 C-13.02932606 6.39881585 -12.58872546 4.74416216 -11 2 C-7.19854297 -1.16788086 -4.69187265 -1.49740617 0 0 Z " fill="#49A010" transform="translate(208,115)"/>
</svg>
