<svg width="40" height="40" viewBox="0 0 40 40" fill="none" xmlns="http://www.w3.org/2000/svg">
<path opacity="0.974" fill-rule="evenodd" clip-rule="evenodd" d="M31.1351 4.2565C33.1534 4.09938 34.5206 4.95875 35.2367 6.83462C35.6356 8.47657 35.1799 9.81767 33.8695 10.8581C32.0451 11.9059 30.3915 11.6846 28.9086 10.194C27.685 8.30329 27.8803 6.57156 29.4945 4.99868C29.9904 4.62144 30.5373 4.37405 31.1351 4.2565Z" fill="#EEF6E6"/>
<path opacity="0.99" fill-rule="evenodd" clip-rule="evenodd" d="M19.2565 4.41406C20.5062 4.46616 21.7562 4.53126 23.0065 4.60938C23.9055 4.67675 24.7909 4.81998 25.6627 5.03906C24.4243 8.05273 24.9712 10.6959 27.3034 12.9688C29.4891 14.7301 31.885 15.0816 34.4909 14.0234C34.5366 14.0398 34.5757 14.0659 34.6081 14.1016C35.3229 18.3564 35.2708 22.6012 34.4518 26.8359C33.9457 29.2902 32.7608 31.3345 30.8971 32.9688C28.5595 34.5959 25.9554 35.4813 23.0846 35.625C19.6247 35.947 16.1872 35.7908 12.7721 35.1562C8.20181 34.1276 5.40233 31.3281 4.37368 26.7578C3.5927 22.5995 3.54062 18.4329 4.21743 14.2578C5.28351 8.5568 8.70798 5.39271 14.4909 4.76562C16.0859 4.56893 17.6744 4.45174 19.2565 4.41406ZM25.194 15.9766C26.2618 16.0307 26.6915 16.5776 26.4831 17.6172C24.8333 19.814 23.1536 21.9884 21.444 24.1406C20.9334 24.4186 20.4386 24.3926 19.9596 24.0625C18.4864 22.8888 17.002 21.7298 15.5065 20.5859C14.0654 22.4312 12.607 24.2672 11.1315 26.0938C10.1581 26.4663 9.55923 26.1409 9.33462 25.1172C9.3604 24.8966 9.42556 24.6882 9.52993 24.4922C11.2163 22.2501 12.9481 20.0496 14.7252 17.8906C15.1561 17.7158 15.5728 17.7418 15.9752 17.9688C17.4788 19.1823 19.0023 20.3673 20.5456 21.5234C21.8775 19.9277 23.1536 18.287 24.3737 16.6016C24.5967 16.3116 24.8702 16.1034 25.194 15.9766Z" fill="none" stroke="#7c7c7c" stroke-width="2"/>
</svg>
