<?xml version="1.0" encoding="UTF-8"?>
<svg version="1.1" xmlns="http://www.w3.org/2000/svg" width="512" height="512">
<path d="M0 0 C1.02901932 -0.0071553 2.05803864 -0.01431061 3.11824036 -0.02168274 C4.25176437 -0.02437164 5.38528839 -0.02706055 6.55316162 -0.02983093 C7.7435051 -0.03640213 8.93384857 -0.04297333 10.16026306 -0.04974365 C14.11381383 -0.06951323 18.06735136 -0.08114775 22.02093506 -0.09111023 C23.38223033 -0.0951578 24.7435254 -0.09927472 26.10482025 -0.10346031 C32.50137498 -0.12251467 38.89791816 -0.1367442 45.29449582 -0.14507228 C52.6755773 -0.15484092 60.05635858 -0.18114926 67.4373343 -0.22157317 C73.14358086 -0.25175103 78.84974147 -0.26654279 84.55606627 -0.26985329 C87.96350019 -0.27220227 91.3706135 -0.2811418 94.77796173 -0.30631447 C98.58217894 -0.33060292 102.38560973 -0.32975909 106.18988037 -0.32279968 C107.31530746 -0.33560974 108.44073456 -0.3484198 109.6002655 -0.36161804 C115.64954201 -0.32124015 119.40129206 -0.01723323 124.13031006 4.14717102 C124.8275116 4.76056335 125.52471313 5.37395569 126.24304199 6.00593567 C127.19995941 6.96046631 127.19995941 6.96046631 128.1762085 7.9342804 C128.91006775 8.66183533 129.643927 9.38939026 130.40002441 10.13899231 C131.17211243 10.91512878 131.94420044 11.69126526 132.73968506 12.49092102 C133.54770569 13.2970282 134.35572632 14.10313538 135.18823242 14.93367004 C136.88834391 16.6324249 138.58594978 18.33369064 140.28118896 20.03730774 C142.87841974 22.64527289 145.48617736 25.24236826 148.09515381 27.83857727 C149.74813945 29.49288405 151.40050484 31.14781089 153.05218506 32.80342102 C154.22246246 33.96762573 154.22246246 33.96762573 155.41638184 35.15534973 C156.13763245 35.88290466 156.85888306 36.61045959 157.60198975 37.36006165 C158.23675232 37.99641541 158.87151489 38.63276917 159.5255127 39.28840637 C163.01477692 43.32986427 163.38289372 46.50931682 163.3977356 51.81388855 C163.40226671 52.48277544 163.40679782 53.15166233 163.41146624 53.84081852 C163.42412071 56.08086444 163.42248923 58.32066755 163.4208374 60.56074524 C163.426822 62.16734632 163.43362739 63.77394452 163.44119263 65.38053894 C163.45886668 69.7442175 163.46354859 74.10781764 163.4648242 78.47152853 C163.46672342 82.11466333 163.4740812 85.75777987 163.48116839 89.40090764 C163.49745523 97.99651396 163.50233707 106.59207839 163.50091553 115.18769836 C163.49971394 124.05368921 163.5208184 132.91943668 163.55240285 141.78536594 C163.57855659 149.39822786 163.58928321 157.01101024 163.58800471 164.62391675 C163.58749481 169.1703383 163.59319306 173.71654358 163.61436081 178.26292038 C163.63372809 182.53937016 163.63387817 186.81539701 163.61932755 191.09186172 C163.61723647 192.65998197 163.6219582 194.22812858 163.63404846 195.79620361 C163.64950598 197.94012727 163.64019172 200.08259352 163.62478638 202.22648621 C163.62587591 203.42515257 163.62696545 204.62381893 163.628088 205.85880852 C162.90247031 210.65229935 160.67501477 213.78970324 157.06781006 216.95967102 C154.05451023 218.80653221 151.57508388 219.27081594 148.11859131 219.24482727 C147.36126709 219.24160461 146.60394287 219.23838196 145.82366943 219.23506165 C145.03798584 219.22668274 144.25230225 219.21830383 143.44281006 219.20967102 C142.6455249 219.2051593 141.84823975 219.20064758 141.02679443 219.19599915 C139.06126749 219.18422952 137.09577921 219.1662945 135.13031006 219.14717102 C135.13491902 219.7460935 135.13952799 220.34501598 135.14427662 220.96208763 C135.25494422 235.56959895 135.33755784 250.17708542 135.38937092 264.78491783 C135.41509675 271.84934468 135.4501385 278.91349082 135.50750732 285.97773743 C135.56287481 292.79882581 135.59175669 299.61962276 135.60469627 306.44092178 C135.61391422 309.03957831 135.63191474 311.63821942 135.65896034 314.23675156 C135.6954095 317.88480965 135.70024847 321.53167414 135.69793701 325.17988586 C135.71591339 326.24732025 135.73388977 327.31475464 135.75241089 328.41453552 C135.70334546 335.60030242 134.27002433 341.18652488 130.13031006 347.14717102 C123.78600869 353.1721035 117.95892427 355.46836123 109.20452881 355.34248352 C108.45693802 355.33965363 107.70934723 355.33682373 106.93910217 355.33390808 C104.56517126 355.32276571 102.19162581 355.29767264 99.81781006 355.27217102 C98.20258116 355.26213352 96.5873463 355.25300901 94.97210693 355.24482727 C91.02469412 355.22284591 87.07756732 355.18835759 83.13031006 355.14717102 C83.14141312 355.72631256 83.15251617 356.3054541 83.16395569 356.90214539 C83.2752031 362.9698279 83.35024627 369.03721733 83.40496826 375.10566711 C83.42999915 377.36555259 83.46403443 379.62535804 83.50750732 381.88496399 C83.56866239 385.14704721 83.59663508 388.40805347 83.61859131 391.67060852 C83.65730095 393.16810135 83.65730095 393.16810135 83.6967926 394.69584656 C83.69957861 401.77965039 82.20381689 407.27700211 78.13031006 413.14717102 C72.34482561 418.57354199 67.98139515 420.26951435 60.01438904 420.28761292 C58.92046041 420.2920696 58.92046041 420.2920696 57.80443221 420.29661632 C55.35404597 420.30530679 52.90370855 420.30681186 50.45330811 420.30830383 C48.69907527 420.31293176 46.94484344 420.31795638 45.19061279 420.323349 C40.41987895 420.33647739 35.64915919 420.3429188 30.8784101 420.34735966 C27.89851488 420.35028964 24.91862352 420.35439431 21.93873024 420.35886383 C12.61727405 420.37253985 3.29582665 420.38220602 -6.02563888 420.38606572 C-16.78953061 420.39054703 -27.55329538 420.40809791 -38.31714851 420.43706632 C-46.63485866 420.45867524 -54.95253307 420.46876958 -63.270271 420.47010684 C-68.23920868 420.47115542 -73.20802704 420.47707459 -78.1769352 420.49492645 C-82.85137551 420.51139349 -87.52560664 420.51356928 -92.20006561 420.50478745 C-93.91492714 420.50401634 -95.62979984 420.50836946 -97.3446331 420.5182457 C-99.68761072 420.53094733 -102.02984544 420.52509852 -104.37281799 420.5146637 C-105.68339833 420.51613026 -106.99397867 420.51759682 -108.34427357 420.51910782 C-114.15142354 419.90644465 -118.7208883 417.18679367 -122.86968994 413.14717102 C-126.1711326 407.7740177 -128.00060705 402.80099988 -127.98321533 396.47041321 C-127.9831398 395.54976074 -127.98306427 394.62910828 -127.98298645 393.68055725 C-127.97782516 392.69500854 -127.97266388 391.70945984 -127.96734619 390.69404602 C-127.96522377 389.17100861 -127.96522377 389.17100861 -127.96305847 387.61720276 C-127.9574651 384.3771621 -127.94491379 381.13719077 -127.93218994 377.89717102 C-127.92717409 375.69925535 -127.92261133 373.5013386 -127.91851807 371.30342102 C-127.90749784 365.91798073 -127.89076628 360.53258083 -127.86968994 355.14717102 C-128.48076347 355.15085819 -129.09183701 355.15454536 -129.72142792 355.15834427 C-144.61201573 355.24680393 -159.50257806 355.31293336 -174.39336395 355.35441971 C-181.59455318 355.37501715 -188.79556666 355.4030834 -195.99664307 355.44892883 C-202.27543907 355.48888343 -208.55410776 355.51462432 -214.83302736 355.523525 C-218.15564569 355.52872533 -221.47781639 355.54300787 -224.80033875 355.57009125 C-228.51573184 355.59916987 -232.23037305 355.60312496 -235.94586182 355.60127258 C-237.03918823 355.61565369 -238.13251465 355.63003479 -239.25897217 355.64485168 C-246.88851687 355.60375006 -252.10094778 354.32225291 -258.07672119 349.28779602 C-258.60652588 348.66388977 -259.13633057 348.03998352 -259.68218994 347.39717102 C-260.49623291 346.4767804 -260.49623291 346.4767804 -261.32672119 345.53779602 C-265.3126289 339.36216179 -266.31141819 333.659629 -266.16265869 326.49092102 C-266.15841385 325.70318298 -266.15416901 324.91544495 -266.14979553 324.10383606 C-266.13316611 321.61791512 -266.09554608 319.13284183 -266.05718994 316.64717102 C-266.04212266 314.94926616 -266.02843785 313.25134844 -266.01617432 311.55342102 C-265.9833146 307.41768383 -265.93164468 303.28257052 -265.86968994 299.14717102 C-266.47832886 299.15383286 -267.08696777 299.16049469 -267.71405029 299.1673584 C-274.0734934 299.23395156 -280.43283672 299.27907092 -286.7925415 299.31196594 C-289.16302517 299.32701201 -291.53348119 299.34745375 -293.90386963 299.37348938 C-297.31962934 299.41005608 -300.73501956 299.4269397 -304.15093994 299.44013977 C-305.20333862 299.45562363 -306.2557373 299.47110748 -307.34002686 299.48706055 C-315.34668999 299.48887401 -322.01111194 298.39247419 -328.18218994 292.83467102 C-328.81769775 292.28166321 -329.45320557 291.7286554 -330.10797119 291.15888977 C-335.63898693 284.84298488 -335.30395642 278.55992674 -335.27374268 270.56758118 C-335.28060593 269.30183762 -335.28746918 268.03609406 -335.29454041 266.73199463 C-335.31244052 263.27110547 -335.31130923 259.81047031 -335.30559802 256.34954882 C-335.30250096 253.45457597 -335.3086045 250.55965155 -335.31463677 247.66468561 C-335.32867063 240.83133225 -335.32713082 233.99810393 -335.31573486 227.16474915 C-335.30426011 220.12893006 -335.3183208 213.09349245 -335.34513134 206.05772364 C-335.36732789 200.00484659 -335.37391669 193.95208893 -335.36805493 187.89917409 C-335.3646929 184.28945172 -335.36704952 180.67997372 -335.38430595 177.0702858 C-335.4027248 173.04179702 -335.38854758 169.01404433 -335.37139893 164.98554993 C-335.38106689 163.79879166 -335.39073486 162.61203339 -335.4006958 161.38931274 C-335.33219478 153.69520709 -334.48364419 147.86889726 -328.90484619 142.12373352 C-328.25386963 141.6777179 -327.60289307 141.23170227 -326.93218994 140.77217102 C-325.95959229 140.07994446 -325.95959229 140.07994446 -324.96734619 139.37373352 C-320.80532057 136.94007236 -317.35512343 135.89663363 -312.52862549 135.92012024 C-310.96757332 135.92034683 -310.96757332 135.92034683 -309.37498474 135.920578 C-307.7075396 135.93606186 -307.7075396 135.93606186 -306.00640869 135.95185852 C-304.85928909 135.95468842 -303.71216949 135.95751831 -302.5302887 135.96043396 C-298.87248227 135.97161406 -295.21492216 135.99671507 -291.55718994 136.02217102 C-289.07477161 136.03220361 -286.59234943 136.04132897 -284.10992432 136.04951477 C-278.02976238 136.07154631 -271.94974376 136.10500254 -265.86968994 136.14717102 C-265.87857239 135.12954681 -265.88745483 134.11192261 -265.89660645 133.0634613 C-265.97792636 123.442281 -266.03776729 113.82117104 -266.07693863 104.1997242 C-266.09775453 99.25400011 -266.12596189 94.30855494 -266.17144775 89.36299133 C-266.21512034 84.58431659 -266.23887209 79.80590903 -266.24919891 75.02705002 C-266.25655202 73.20990167 -266.27091043 71.39276684 -266.29261017 69.57573318 C-266.53051233 48.81686552 -266.53051233 48.81686552 -259.68609619 40.49092102 C-258.94230713 39.88248352 -258.19851807 39.27404602 -257.43218994 38.64717102 C-256.690979 38.01810852 -255.94976807 37.38904602 -255.18609619 36.74092102 C-249.6801119 32.95265527 -244.90176038 32.86434918 -238.4228363 32.90666199 C-236.98922657 32.90409871 -236.98922657 32.90409871 -235.52665502 32.90148365 C-232.3221576 32.89818778 -229.11786927 32.90919419 -225.91339111 32.92012024 C-223.61711634 32.92068433 -221.32084121 32.92036783 -219.02456665 32.91923523 C-212.78742683 32.91866064 -206.5503637 32.93043222 -200.31324172 32.94438314 C-193.79627987 32.95687275 -187.27931633 32.95805961 -180.76234436 32.96043396 C-169.82293325 32.96594693 -158.88355051 32.97844538 -147.94415283 32.99629211 C-136.67722718 33.01465406 -125.41030918 33.02880902 -114.14337158 33.03730774 C-113.44871523 33.03783319 -112.75405888 33.03835863 -112.03835233 33.0389 C-108.55341695 33.0415101 -105.06848151 33.04403751 -101.58354604 33.04652381 C-72.67890871 33.06725252 -43.7743 33.10262357 -14.86968994 33.14717102 C-14.88540039 32.54767639 -14.90111084 31.94818176 -14.91729736 31.33052063 C-14.98013125 28.58200225 -15.0188323 25.8336356 -15.05718994 23.08467102 C-15.09489502 21.67024719 -15.09489502 21.67024719 -15.13336182 20.22724915 C-15.1944214 14.38588202 -14.72559301 10.28373602 -11.86968994 5.14717102 C-7.85809948 1.42911157 -5.39796887 0.02570528 0 0 Z M2.13031006 17.14717102 C2.13031006 78.19717102 2.13031006 139.24717102 2.13031006 202.14717102 C49.65031006 202.14717102 97.17031006 202.14717102 146.13031006 202.14717102 C146.13031006 153.96717102 146.13031006 105.78717102 146.13031006 56.14717102 C135.57031006 55.81717102 125.01031006 55.48717102 114.13031006 55.14717102 C109.13031006 51.14717102 109.13031006 51.14717102 108.13031006 49.14717102 C107.80031006 38.58717102 107.47031006 28.02717102 107.13031006 17.14717102 C72.48031006 17.14717102 37.83031006 17.14717102 2.13031006 17.14717102 Z M124.13031006 30.14717102 C124.13031006 33.11717102 124.13031006 36.08717102 124.13031006 39.14717102 C127.10031006 39.14717102 130.07031006 39.14717102 133.13031006 39.14717102 C132.20218506 38.03342102 131.27406006 36.91967102 130.31781006 35.77217102 C129.79573975 35.14568665 129.27366943 34.51920227 128.73577881 33.87373352 C127.04805267 31.92506622 127.04805267 31.92506622 124.13031006 30.14717102 Z M-247.86968994 54.14717102 C-253.53635661 65.48050435 -248.86968994 79.47611915 -248.86968994 92.14717102 C-171.64968994 92.14717102 -94.42968994 92.14717102 -14.86968994 92.14717102 C-14.86968994 78.28717102 -14.86968994 64.42717102 -14.86968994 50.14717102 C-43.97484741 50.05901878 -73.07991116 49.98515086 -102.18516852 49.9429097 C-105.61988553 49.93790677 -109.05460226 49.93272949 -112.48931885 49.92744446 C-113.17312039 49.92639522 -113.85692193 49.92534597 -114.56144473 49.92426494 C-125.63917957 49.90685105 -136.71683154 49.87530799 -147.79451719 49.83855984 C-159.15793991 49.80117769 -170.52130114 49.77924045 -181.88478923 49.77081704 C-188.26891003 49.76559314 -194.65284274 49.75327863 -201.03690338 49.72425079 C-207.0417821 49.69716743 -213.04639466 49.68871175 -219.05132866 49.6947403 C-221.2588667 49.69363689 -223.46641334 49.68564118 -225.6738987 49.67034912 C-228.68124494 49.65053232 -231.68757801 49.65520173 -234.69494629 49.66615295 C-235.57432208 49.65450159 -236.45369788 49.64285022 -237.35972142 49.63084579 C-242.2404655 49.67909332 -244.85139445 49.9008288 -247.86968994 54.14717102 Z M-248.86968994 109.14717102 C-248.86968994 118.05717102 -248.86968994 126.96717102 -248.86968994 136.14717102 C-246.68037842 136.15127991 -244.49106689 136.15538879 -242.2354126 136.15962219 C-234.97095582 136.17688303 -227.70684777 136.22148984 -220.44260597 136.27926159 C-216.04176758 136.31343275 -211.6412727 136.3386261 -207.24029541 136.34272766 C-202.98650202 136.34703196 -198.73348221 136.37566929 -194.47993088 136.4206028 C-192.8638295 136.43351017 -191.24763522 136.43790964 -189.6314888 136.43332481 C-180.59889887 136.41368348 -172.43829322 136.50821887 -164.86968994 142.14717102 C-157.70724343 149.58194383 -157.57292605 158.16984105 -157.59503174 167.99824524 C-157.58992081 169.1747464 -157.58480988 170.35124756 -157.57954407 171.56340027 C-157.56567232 175.44293846 -157.5666031 179.32229851 -157.56890869 183.20185852 C-157.5665976 185.22183377 -157.56309369 187.24180466 -157.55950195 189.261778 C-157.54842781 195.60949869 -157.54795736 201.9571602 -157.55401611 208.30488586 C-157.56005307 214.83452496 -157.54774729 221.36394843 -157.52644604 227.89355075 C-157.50878215 233.51672984 -157.50283625 239.1398406 -157.50608379 244.76304638 C-157.50788939 248.11400922 -157.50400378 251.46469593 -157.49136925 254.81565475 C-157.47899602 258.55637341 -157.48580259 262.29659667 -157.49737549 266.03730774 C-157.48973175 267.13474304 -157.48208801 268.23217834 -157.47421265 269.36286926 C-157.52958722 277.48460652 -158.50115226 284.75605474 -163.86968994 291.14717102 C-163.86968994 291.80717102 -163.86968994 292.46717102 -163.86968994 293.14717102 C-173.69459616 298.1507313 -182.65642484 298.61570737 -193.49859619 298.65888977 C-195.10000464 298.67576036 -196.70140003 298.69391376 -198.30278015 298.71328735 C-202.48985718 298.76053549 -206.67688128 298.79050693 -210.86413574 298.81672668 C-215.14799447 298.84666024 -219.43167125 298.89314619 -223.71539307 298.93818665 C-232.10006875 299.02393271 -240.48476148 299.09140457 -248.86968994 299.14717102 C-248.94405749 303.75528972 -248.99839388 308.36305616 -249.03448486 312.97163391 C-249.04953616 314.53810209 -249.06998201 316.10452838 -249.0960083 317.67085266 C-249.13255427 319.92738708 -249.14945255 322.18336255 -249.16265869 324.44013977 C-249.17814255 325.13616806 -249.1936264 325.83219635 -249.20957947 326.54931641 C-249.21108237 330.92887127 -248.55803575 333.66551606 -245.86968994 337.14717102 C-243.44874528 338.35764335 -241.93024675 338.27034657 -239.22537231 338.26742554 C-238.24658112 338.2688002 -237.26778992 338.27017487 -236.25933838 338.27159119 C-234.6430957 338.26619827 -234.6430957 338.26619827 -232.99420166 338.26069641 C-231.2966423 338.26091545 -231.2966423 338.26091545 -229.56478882 338.26113892 C-225.80963245 338.26044009 -222.05452518 338.25264909 -218.29937744 338.24482727 C-215.7014875 338.24296298 -213.10359721 338.24153913 -210.50570679 338.24053955 C-204.35755211 338.23710648 -198.20941782 338.22921832 -192.06127083 338.21919006 C-185.06256927 338.20802169 -178.06386686 338.20251665 -171.06515861 338.19749463 C-156.66665952 338.18703552 -142.26817536 338.16944058 -127.86968994 338.14717102 C-127.86089058 337.14358299 -127.86089058 337.14358299 -127.85191345 336.11972046 C-127.78775182 329.12721477 -127.70327379 322.13515965 -127.60723877 315.14302063 C-127.57407868 312.53696144 -127.54601929 309.93083198 -127.52325439 307.32466125 C-127.48954505 303.56857992 -127.43721882 299.81313747 -127.38140869 296.05732727 C-127.37501877 294.90072098 -127.36862885 293.74411469 -127.36204529 292.55245972 C-127.22096717 284.70918382 -126.25643569 278.12508059 -122.18218994 271.33467102 C-115.50140113 265.01500593 -107.7991227 264.02578301 -98.86875916 264.01345825 C-98.18802945 264.0111927 -97.50729975 264.00892714 -96.80594188 264.00659293 C-94.5377043 264.00029123 -92.26952707 264.00107982 -90.00128174 264.00190735 C-88.36969933 263.99891346 -86.73811764 263.9955104 -85.10653687 263.99172974 C-80.68287143 263.98290873 -76.25922535 263.98055241 -71.83555198 263.97991395 C-69.06919196 263.97920234 -66.30283684 263.97706592 -63.53647804 263.97441673 C-53.87809564 263.96516944 -44.21972702 263.96108106 -34.56134033 263.96186829 C-25.57047583 263.96246884 -16.57967138 263.95191976 -7.58882207 263.93612462 C0.14046552 263.9230316 7.86973352 263.91768513 15.5990321 263.9183237 C20.21084689 263.91857817 24.8226083 263.9157547 29.434412 263.90514565 C33.77399483 263.89543505 38.11347357 263.89540573 42.45306015 263.90266228 C44.04088049 263.90370446 45.6287074 263.90136711 47.21651649 263.89530182 C68.80205418 263.81822277 68.80205418 263.81822277 76.13031006 270.14717102 C80.13102451 275.5139831 82.23120005 279.961909 82.33563232 286.72016907 C82.35557755 287.86112534 82.37552277 289.0020816 82.39607239 290.1776123 C82.42114113 292.02459465 82.42114113 292.02459465 82.44671631 293.90888977 C82.46749741 295.16981949 82.4882785 296.43074921 82.50968933 297.72988892 C82.56403128 301.0786256 82.61427172 304.42737307 82.66253662 307.77619934 C82.71281363 311.19483331 82.7684673 314.61337928 82.82366943 318.03193665 C82.93084506 324.73694464 83.03261518 331.44201855 83.13031006 338.14717102 C87.31111607 338.27120223 91.49093508 338.36170703 95.67303467 338.42182922 C97.09412297 338.44690249 98.51508319 338.48097101 99.93572998 338.52436829 C101.98398468 338.5853496 104.03052889 338.61344864 106.07952881 338.63545227 C107.92550659 338.67472839 107.92550659 338.67472839 109.80877686 338.71479797 C114.27923489 337.95082775 115.43622962 336.79738866 118.13031006 333.14717102 C118.85320818 329.46963819 118.76203666 325.8516557 118.69793701 322.11470032 C118.69866714 321.00206314 118.69939728 319.88942596 118.70014954 318.74307251 C118.69666859 315.06868086 118.6577804 311.39555974 118.61859131 307.72138977 C118.60926507 305.17263481 118.60214807 302.62387089 118.59715271 300.07510376 C118.58001848 294.05430158 118.54062056 288.03404404 118.49040526 282.01345998 C118.43446644 275.15743254 118.40701402 268.30138305 118.38192809 261.44518411 C118.32970266 247.34559453 118.24178895 233.24640772 118.13031006 219.14717102 C117.51223921 219.14478267 116.89416836 219.14239431 116.25736809 219.13993359 C101.20874558 219.080762 86.16030197 219.00519824 71.11186028 218.91145611 C63.8344963 218.86651688 56.55718106 218.82709796 49.27972412 218.80073547 C42.93566662 218.77774014 36.59176357 218.74432512 30.2478286 218.69846946 C26.88966155 218.67455771 23.53164727 218.65581562 20.17339706 218.64955711 C16.42166108 218.63994453 12.67048327 218.61191757 8.91888428 218.57954407 C7.80901657 218.58097916 6.69914886 218.58241425 5.5556488 218.58389282 C0.01833752 218.51624835 -4.12858996 218.34759528 -8.86968994 215.14717102 C-33.22715218 189.4730892 -14.50486508 144.53518237 -14.86968994 109.14717102 C-92.08968994 109.14717102 -169.30968994 109.14717102 -248.86968994 109.14717102 Z M-316.69223213 154.35700607 C-318.25839377 156.73814249 -318.252321 158.31320797 -318.26409912 161.15730286 C-318.27544891 162.19203232 -318.28679871 163.22676178 -318.29849243 164.29284668 C-318.29556183 165.42748856 -318.29263123 166.56213043 -318.28961182 167.7311554 C-318.29808136 168.92646378 -318.3065509 170.12177216 -318.3152771 171.353302 C-318.33468559 174.63224734 -318.34042296 177.91084395 -318.33852959 181.1898365 C-318.33841 183.92607342 -318.34696924 186.66225691 -318.3553071 189.39847898 C-318.37454731 195.8523435 -318.37742246 202.30607865 -318.3706665 208.75996399 C-318.36402162 215.4215613 -318.38690588 222.08260547 -318.42398024 228.74409056 C-318.45464696 234.46138059 -318.46604071 240.17849239 -318.46214342 245.89586306 C-318.46007308 249.31160419 -318.46559816 252.72691475 -318.49003601 256.14257812 C-318.51207463 259.94989917 -318.50259911 263.75587174 -318.48492432 267.56318665 C-318.49818756 268.69782852 -318.51145081 269.8324704 -318.52511597 271.00149536 C-318.51390717 272.03622482 -318.50269836 273.07095428 -318.4911499 274.13703918 C-318.49186241 275.03742165 -318.49257492 275.93780411 -318.49330902 276.86547089 C-318.05060326 279.3514358 -318.05060326 279.3514358 -315.68469334 280.93649483 C-312.61053036 282.25863033 -310.54201688 282.5242677 -307.20817566 282.52812195 C-306.07958633 282.53658142 -304.95099701 282.54504089 -303.78820801 282.55375671 C-302.5594696 282.54768402 -301.3307312 282.54161133 -300.0647583 282.53535461 C-298.11283318 282.54324005 -298.11283318 282.54324005 -296.12147522 282.55128479 C-292.55954728 282.564941 -288.99788053 282.55966725 -285.43594813 282.55014753 C-281.70621848 282.5425437 -277.97651094 282.54959841 -274.2467804 282.55430603 C-267.9848937 282.5597608 -261.72311323 282.55257861 -255.46124268 282.5382843 C-248.22263298 282.52195113 -240.9842767 282.52725214 -233.74567312 282.54376352 C-227.52812943 282.55737785 -221.31066202 282.55929854 -215.09310824 282.55144751 C-211.38070907 282.5467716 -207.66842903 282.54614397 -203.95603752 282.55605698 C-199.81894798 282.5663329 -195.68229543 282.55209019 -191.54522705 282.53535461 C-189.6990831 282.54446365 -189.6990831 282.54446365 -187.81564331 282.55375671 C-186.68987381 282.54529724 -185.56410431 282.53683777 -184.40422058 282.52812195 C-183.42623977 282.52699087 -182.44825895 282.52585979 -181.44064236 282.52469444 C-178.41048335 282.07974027 -177.05591173 281.26601867 -174.86968994 279.14717102 C-173.90247477 276.24552552 -173.73976622 274.39632637 -173.72924805 271.37828064 C-173.7235379 270.39692642 -173.71782776 269.4155722 -173.71194458 268.40447998 C-173.71082672 267.32908463 -173.70970886 266.25368927 -173.70855713 265.14570618 C-173.70359222 264.01213181 -173.69862732 262.87855743 -173.69351196 261.71063232 C-173.67888064 257.95249327 -173.67208706 254.19439641 -173.66656494 250.43623352 C-173.66081475 247.82933043 -173.655057 245.22242735 -173.64929199 242.61552429 C-173.63972209 237.84559691 -173.63382425 233.07567866 -173.63079524 228.30574286 C-173.62631418 221.28807531 -173.60876242 214.27060251 -173.57979465 207.25299418 C-173.55556543 201.17199679 -173.54785057 195.09107977 -173.54611969 189.01003647 C-173.54308889 186.42402969 -173.53504606 183.83802381 -173.52193451 181.25204849 C-173.50491235 177.63702312 -173.50674507 174.02247392 -173.51324463 170.40742493 C-173.49942245 168.80040459 -173.49942245 168.80040459 -173.48532104 167.16091919 C-173.51736172 161.48250556 -173.64057544 157.37628553 -177.86968994 153.14717102 C-179.6343523 153.04428719 -181.40315563 153.0119587 -183.17080688 153.00672913 C-184.89547432 152.99816391 -184.89547432 152.99816391 -186.65498352 152.98942566 C-187.92772629 152.9883078 -189.20046906 152.98718994 -190.51177979 152.98603821 C-191.85679766 152.98141227 -193.20181421 152.97638792 -194.54682922 152.97099304 C-198.21007724 152.95784505 -201.87330691 152.95141939 -205.53657484 152.94698238 C-207.82328128 152.94405542 -210.10998265 152.93995134 -212.39668655 152.93547821 C-219.54555787 152.92179675 -226.69441767 152.91213337 -233.84330118 152.90827632 C-242.10616722 152.90379426 -250.36886795 152.88624236 -258.63168371 152.85727572 C-265.01131926 152.8356844 -271.39090822 152.8255734 -277.77057993 152.8242352 C-281.58419236 152.8231853 -285.39764952 152.81723861 -289.2112236 152.79941559 C-292.79811942 152.78297882 -296.38474255 152.78075775 -299.97166252 152.7895546 C-301.91890818 152.79069645 -303.8661446 152.77694499 -305.81333923 152.76280212 C-306.96875717 152.76837128 -308.12417511 152.77394043 -309.31460571 152.77967834 C-310.82393708 152.7774785 -310.82393708 152.7774785 -312.36375999 152.77523422 C-314.87855164 152.96718142 -314.87855164 152.96718142 -316.69223213 154.35700607 Z M-109.86968994 283.14717102 C-111.04386129 285.49551371 -110.99298046 286.8707458 -110.98994446 289.48777771 C-110.99131912 290.39925568 -110.99269379 291.31073364 -110.99411011 292.24983215 C-110.99051483 293.25252136 -110.98691956 294.25521057 -110.98321533 295.2882843 C-110.98336136 296.34196198 -110.98350739 297.39563965 -110.98365784 298.48124695 C-110.98295914 301.97667982 -110.97516875 305.47205992 -110.96734619 308.96748352 C-110.96548186 311.38601146 -110.96405803 313.80453978 -110.96305847 316.22306824 C-110.9592345 322.59845517 -110.94940523 328.97381943 -110.93835449 335.34919739 C-110.92813779 341.85086256 -110.92356029 348.35253139 -110.91851807 354.85420227 C-110.90778287 367.61853488 -110.89089924 380.38285174 -110.86968994 393.14717102 C-106.82822761 389.11372941 -102.88660273 385.01157513 -98.99468994 380.83467102 C-98.05725952 379.82956482 -98.05725952 379.82956482 -97.10089111 378.80415344 C-93.5454883 374.9810847 -90.0449183 371.12420853 -86.63922119 367.16670227 C-83.79536251 363.92106223 -80.85703766 360.76168785 -77.93341064 357.58808899 C-74.66388509 354.03216094 -71.45724455 350.43020326 -68.30718994 346.76826477 C-67.59562744 345.96582336 -67.59562744 345.96582336 -66.86968994 345.14717102 C-66.39531494 344.58642883 -65.92093994 344.02568665 -65.43218994 343.44795227 C-63.45161282 341.79912182 -62.41341379 341.80081784 -59.86968994 341.89717102 C-59.18906494 341.91263977 -58.50843994 341.92810852 -57.80718994 341.94404602 C-55.86968994 342.14717102 -55.86968994 342.14717102 -52.86968994 343.14717102 C-52.16489129 344.46074671 -51.50263277 345.79750232 -50.86968994 347.14717102 C-49.83751857 348.38881494 -48.75627547 349.59067849 -47.63922119 350.75654602 C-47.00049072 351.42943665 -46.36176025 352.10232727 -45.70367432 352.79560852 C-45.03658447 353.48912415 -44.36949463 354.18263977 -43.68218994 354.89717102 C-30.87550458 368.302776 -30.87550458 368.302776 -27.29473877 373.38056946 C-26.82447266 373.96354797 -26.35420654 374.54652649 -25.86968994 375.14717102 C-25.20968994 375.14717102 -24.54968994 375.14717102 -23.86968994 375.14717102 C-22.58512559 373.7501408 -22.58512559 373.7501408 -21.32281494 371.87763977 C-20.81444092 371.16277405 -20.30606689 370.44790833 -19.7822876 369.71138 C-19.23363037 368.92706604 -18.68497314 368.14275208 -18.11968994 367.33467102 C-16.94610111 365.68299637 -15.77159043 364.03197642 -14.59625244 362.38154602 C-13.98555908 361.5210968 -13.37486572 360.66064758 -12.7456665 359.77412415 C-9.7033034 355.51386556 -6.60164568 351.29794239 -3.49468994 347.08467102 C-2.93684814 346.32501038 -2.37900635 345.56534973 -1.80426025 344.78266907 C1.07093181 340.88068363 3.9766765 337.00243529 6.91937256 333.15107727 C7.48607666 332.40801331 8.05278076 331.66494934 8.63665771 330.89936829 C10.78007545 328.38493397 12.01946083 328.16673265 15.31781006 327.58467102 C19.54507215 328.20836543 19.8779929 328.53069915 22.45452881 331.62763977 C23.06175781 332.35636292 23.66898682 333.08508606 24.2946167 333.83589172 C27.20572739 337.50120425 30.00519173 341.23490826 32.75531006 345.02217102 C33.35649658 345.84370667 33.95768311 346.66524231 34.5770874 347.51167297 C38.66131195 353.10142757 42.70938634 358.71716991 46.75531006 364.33467102 C51.08607877 370.34704683 55.45245082 376.33084952 59.88031006 382.27217102 C60.65108887 383.31280701 60.65108887 383.31280701 61.43743896 384.37446594 C62.64332919 385.98445109 63.88318448 387.5689121 65.13031006 389.14717102 C65.46031006 389.14717102 65.79031006 389.14717102 66.13031006 389.14717102 C66.19973097 375.5087161 66.25308112 361.870303 66.28574657 348.23170757 C66.30142203 341.89918478 66.32269473 335.56678259 66.35662842 329.23432922 C66.38915461 323.12651186 66.4071489 317.01881073 66.41494179 310.91091347 C66.42049741 308.57723472 66.43134575 306.24356254 66.44750023 303.90993309 C66.46918463 300.64862041 66.47228072 297.3877919 66.47088623 294.12641907 C66.48167206 293.15537735 66.49245789 292.18433563 66.50357056 291.18386841 C66.49738457 289.85245316 66.49738457 289.85245316 66.49107361 288.49414062 C66.49383899 287.7225999 66.49660437 286.95105917 66.49945354 286.15613842 C66.02685276 283.5841316 65.17622184 282.73333804 63.13031006 281.14717102 C59.72731441 280.01283914 57.12853747 280.01557148 53.53915405 280.00672913 C52.86633247 280.003758 52.19351088 280.00078688 51.50030077 279.99772573 C49.24105304 279.98903956 46.98185832 279.98753056 44.72259521 279.98603821 C43.10466905 279.98141002 41.48674399 279.97638536 39.86882019 279.97099304 C35.47004249 279.95786813 31.07128005 279.95142404 26.67248583 279.94698238 C23.92510173 279.94405213 21.17772181 279.93994744 18.43033981 279.93547821 C9.83664043 279.92180376 1.2429506 279.91213654 -7.35075891 279.90827632 C-17.27530775 279.90379393 -27.19971898 279.88623742 -37.12422597 279.85727572 C-44.79309382 279.83567212 -52.46192291 279.82557276 -60.13082087 279.8242352 C-64.71240376 279.82318633 -69.29385728 279.81726099 -73.87540817 279.79941559 C-78.18460553 279.78295746 -82.49357595 279.78076835 -86.8027935 279.7895546 C-88.38423329 279.79032615 -89.96568517 279.78596662 -91.54709435 279.77609634 C-93.70652292 279.76340891 -95.86514382 279.76923542 -98.02456665 279.77967834 C-99.83695863 279.7774785 -99.83695863 279.7774785 -101.68596458 279.77523422 C-105.18513412 280.1840226 -107.0695385 281.04571702 -109.86968994 283.14717102 Z M14.13031006 351.14717102 C12.74874438 352.64157024 12.74874438 352.64157024 11.36468506 354.63545227 C10.81127441 355.39527405 10.25786377 356.15509583 9.68768311 356.9379425 C9.09125 357.77011292 8.49481689 358.60228333 7.88031006 359.45967102 C6.61093909 361.20718329 5.34140313 362.95457572 4.07171631 364.70185852 C3.41961182 365.60388 2.76750732 366.50590149 2.09564209 367.43525696 C-0.97291442 371.66948375 -4.07777296 375.87670752 -7.18218994 380.08467102 C-8.05109863 381.2665802 -8.05109863 381.2665802 -8.93756104 382.47236633 C-11.51763548 385.97879142 -14.10792239 389.47514722 -16.74859619 392.93623352 C-17.17551758 393.49705627 -17.60243896 394.05787903 -18.04229736 394.63569641 C-19.15486798 396.09209088 -20.27372625 397.54367628 -21.39312744 398.99482727 C-23.05825756 400.98701774 -23.05825756 400.98701774 -22.86968994 403.14717102 C2.54031006 403.14717102 27.95031006 403.14717102 54.13031006 403.14717102 C50.07690859 397.06706881 45.98453901 391.12562174 41.63031006 385.27217102 C40.40364777 383.61599493 39.17708846 381.95974256 37.95062256 380.30342102 C37.32446045 379.45908508 36.69829834 378.61474915 36.05316162 377.74482727 C34.11219866 375.12270362 32.17862612 372.49529425 30.24749756 369.86592102 C29.3068042 368.58564026 29.3068042 368.58564026 28.34710693 367.27949524 C27.14729815 365.64613943 25.94805098 364.01237089 24.74945068 362.37812805 C20.6012288 356.63333033 20.6012288 356.63333033 16.13031006 351.14717102 C15.47031006 351.14717102 14.81031006 351.14717102 14.13031006 351.14717102 Z M-63.66265869 365.92842102 C-64.79995663 367.16269654 -65.93111654 368.40264647 -67.05718994 369.64717102 C-67.6479834 370.2921051 -68.23877686 370.93703918 -68.84747314 371.60151672 C-72.32443132 375.40801715 -75.76077761 379.24706966 -79.12359619 383.15498352 C-82.156338 386.61515874 -85.30644297 389.96975055 -88.44000244 393.33857727 C-90.2781254 395.46335285 -91.9074306 397.53747197 -93.52154541 399.82270813 C-93.96368378 400.44705246 -94.40582214 401.07139679 -94.86135864 401.71466064 C-95.36048264 402.42375328 -95.36048264 402.42375328 -95.86968994 403.14717102 C-88.77243108 403.45272748 -81.67687808 403.66208189 -74.57452393 403.80635071 C-72.16177002 403.86651188 -69.74945032 403.94826961 -67.3381958 404.05244446 C-53.49829775 405.38073864 -53.49829775 405.38073864 -41.19732666 400.56318665 C-38.2781822 397.23185937 -35.72569303 393.56697499 -35.99835205 388.98506165 C-37.05080831 386.7651427 -38.293748 385.30507923 -40.00250244 383.53779602 C-40.64445557 382.8649054 -41.28640869 382.19201477 -41.94781494 381.49873352 C-42.62328369 380.8052179 -43.29875244 380.11170227 -43.99468994 379.39717102 C-45.31114728 378.02867979 -46.62625531 376.65888926 -47.94000244 375.28779602 C-48.59001221 374.6129718 -49.24002197 373.93814758 -49.909729 373.24287415 C-52.51927614 370.45259604 -54.97794296 367.54438106 -57.41998291 364.60713196 C-57.89838623 364.12534485 -58.37678955 363.64355774 -58.86968994 363.14717102 C-61.29042211 362.9119648 -61.29042211 362.9119648 -63.66265869 365.92842102 Z " fill="#7c7c7c" stroke="#7c7c7c" stroke-width="4" transform="translate(341.86968994140625,45.85282897949219)"/>
<path d="M0 0 C2.36562713 1.45845297 4.56230519 3.03161774 6.77197266 4.71679688 C7.58730469 5.30589844 8.40263672 5.895 9.24267578 6.50195312 C11.71150359 8.2964163 14.15066108 10.12521111 16.58447266 11.96679688 C17.95534615 12.99313281 19.32642686 14.01919204 20.69775391 15.04492188 C22.63765628 16.49984865 24.57385882 17.95868503 26.50048828 19.43115234 C32.55218553 24.0336593 38.83621412 28.27486039 45.20361328 32.42773438 C50.37803532 35.87441821 54.73996277 39.27777709 57.58447266 44.96679688 C57.96712785 50.70662474 57.71344374 53.94899569 54.58447266 58.96679688 C52.41812547 61.06338033 50.03960807 62.78617454 47.58447266 64.52929688 C46.88386719 65.04105469 46.18326172 65.5528125 45.46142578 66.08007812 C39.29403434 70.54967403 32.9927327 74.82741118 26.68115234 79.08984375 C20.61099253 83.20596191 14.72125878 87.51991599 8.92236328 92.00976562 C-2.39126455 100.69203522 -2.39126455 100.69203522 -10.34130859 100.28710938 C-14.44824519 99.65289318 -16.64983048 97.72947896 -19.51989746 94.87071228 C-21.96032608 91.1322197 -21.97867347 88.01049346 -21.93310547 83.69165039 C-21.94011475 82.87150452 -21.94712402 82.05135864 -21.9543457 81.20635986 C-21.97191221 78.50246044 -21.96030696 75.79961271 -21.94677734 73.09570312 C-21.94947291 71.21150004 -21.95335587 69.32729831 -21.95837402 67.44309998 C-21.96426746 63.4963556 -21.95571206 59.54997368 -21.93701172 55.60327148 C-21.91423792 50.55135221 -21.92733623 45.50028371 -21.95130157 40.44839573 C-21.9657771 36.55781175 -21.96114525 32.66742842 -21.95079041 28.7768383 C-21.94812716 26.91455929 -21.95137873 25.0522619 -21.96070862 23.19000435 C-21.97090144 20.58329375 -21.95533504 17.97794725 -21.93310547 15.37133789 C-21.94120239 14.605952 -21.94929932 13.8405661 -21.9576416 13.05198669 C-21.87634298 7.88959689 -20.66601624 4.9500312 -17.41552734 0.96679688 C-12.50150585 -2.46324119 -5.37308519 -2.29825111 0 0 Z M-4.41552734 18.96679688 C-4.41552734 38.76679688 -4.41552734 58.56679688 -4.41552734 78.96679688 C1.27867857 75.74697547 1.27867857 75.74697547 6.60791016 72.15429688 C7.31125488 71.6414917 8.01459961 71.12868652 8.73925781 70.6003418 C9.47192871 70.06127197 10.20459961 69.52220215 10.95947266 68.96679688 C12.5370052 67.81624453 14.1151468 66.66652688 15.69384766 65.51757812 C16.49628906 64.93314941 17.29873047 64.3487207 18.12548828 63.74658203 C22.1295148 60.8485128 26.16781316 57.99954259 30.20947266 55.15429688 C30.94987793 54.63287109 31.6902832 54.11144531 32.453125 53.57421875 C34.16298559 52.37090793 35.87363329 51.16871567 37.58447266 49.96679688 C33.55469495 45.659377 29.14030614 42.30722368 24.33447266 38.90429688 C23.55394531 38.34645508 22.77341797 37.78861328 21.96923828 37.21386719 C19.5112546 35.45971578 17.04822075 33.71284023 14.58447266 31.96679688 C12.95421659 30.80670769 11.32400742 29.64655263 9.69384766 28.48632812 C8.15776622 27.39595322 6.62132188 26.30608934 5.08447266 25.21679688 C4.36098633 24.70366943 3.6375 24.19054199 2.89208984 23.66186523 C-0.6462642 21.12685801 -0.6462642 21.12685801 -4.41552734 18.96679688 Z " fill="#7c7c7c" stroke="#7c7c7c" stroke-width="4" transform="translate(86.41552734375,214.033203125)"/>
<path d="M0 0 C1.40819252 -0.0131424 1.40819252 -0.0131424 2.84483337 -0.02655029 C5.94325184 -0.04852904 9.04023929 -0.03399654 12.13867188 -0.01708984 C14.29431431 -0.0204584 16.44995489 -0.02531135 18.60559082 -0.03158569 C23.121522 -0.03895498 27.6369584 -0.02824928 32.15283203 -0.00488281 C37.94033439 0.0236045 43.72667744 0.0072009 49.51413727 -0.02274513 C53.96487151 -0.04081628 58.41533107 -0.0350608 62.86607361 -0.02210617 C64.99991493 -0.01877168 67.13378122 -0.02286072 69.26759338 -0.03450394 C72.2506817 -0.04720921 75.23189504 -0.0278393 78.21484375 0 C79.09603378 -0.01012115 79.97722382 -0.02024231 80.88511658 -0.03067017 C85.25666077 0.04487946 87.0735191 0.24029115 90.65539551 2.96865845 C92.60742188 5.64697266 92.60742188 5.64697266 93.23242188 9.14697266 C92.42496656 13.66872244 91.24761337 14.87418592 87.60742188 17.64697266 C84.47469303 18.37245699 81.41950213 18.33075331 78.21484375 18.29394531 C77.27604874 18.30270691 76.33725372 18.31146851 75.37001038 18.32049561 C72.27159191 18.34247435 69.17460446 18.32794185 66.07617188 18.31103516 C63.92052944 18.31440372 61.76488886 18.31925667 59.60925293 18.32553101 C55.09332175 18.33290029 50.57788535 18.32219459 46.06201172 18.29882812 C40.27450936 18.27034081 34.48816631 18.28674441 28.70070648 18.31669044 C24.24997224 18.3347616 19.79951268 18.32900612 15.34877014 18.31605148 C13.21492882 18.31271699 11.08106253 18.31680604 8.94725037 18.32844925 C5.96416205 18.34115452 2.98294871 18.32178461 0 18.29394531 C-0.88119003 18.30406647 -1.76238007 18.31418762 -2.67027283 18.32461548 C-7.04181702 18.24906585 -8.85867535 18.05365416 -12.44055176 15.32528687 C-14.39257812 12.64697266 -14.39257812 12.64697266 -15.01757812 9.14697266 C-13.47097336 0.48598598 -7.47953738 -0.08590832 0 0 Z " fill="#7c7c7c" stroke="#7c7c7c" stroke-width="4" transform="translate(377.392578125,208.35302734375)"/>
<path d="M0 0 C1.40819252 -0.0131424 1.40819252 -0.0131424 2.84483337 -0.02655029 C5.94325184 -0.04852904 9.04023929 -0.03399654 12.13867188 -0.01708984 C14.29431431 -0.0204584 16.44995489 -0.02531135 18.60559082 -0.03158569 C23.121522 -0.03895498 27.6369584 -0.02824928 32.15283203 -0.00488281 C37.94033439 0.0236045 43.72667744 0.0072009 49.51413727 -0.02274513 C53.96487151 -0.04081628 58.41533107 -0.0350608 62.86607361 -0.02210617 C64.99991493 -0.01877168 67.13378122 -0.02286072 69.26759338 -0.03450394 C72.2506817 -0.04720921 75.23189504 -0.0278393 78.21484375 0 C79.09603378 -0.01012115 79.97722382 -0.02024231 80.88511658 -0.03067017 C85.25601455 0.04486829 87.07657796 0.2443335 90.66320801 2.9647522 C93.19872461 6.46272873 93.22318039 8.4136329 92.60742188 12.64697266 C90.84727057 15.83200835 90.10851271 16.47994238 86.60742188 17.64697266 C83.57572388 17.76444999 80.5662034 17.82514761 77.53369141 17.83984375 C76.14056732 17.85210999 76.14056732 17.85210999 74.71929932 17.86462402 C71.6429509 17.88945656 68.56664848 17.90598662 65.49023438 17.92041016 C64.44010036 17.92573383 63.38996635 17.93105751 62.3080101 17.93654251 C56.75205973 17.96326193 51.19613176 17.98264266 45.64013672 17.99707031 C39.89755477 18.01373551 34.15554478 18.05853271 28.4131794 18.10944176 C24.0002678 18.14306449 19.587493 18.15464216 15.17446518 18.16029739 C13.05732719 18.16702119 10.94019855 18.18227237 8.82318497 18.2061882 C5.8616259 18.23774196 2.90162383 18.23789135 -0.06005859 18.23046875 C-0.93503998 18.24687408 -1.81002136 18.26327942 -2.71151733 18.28018188 C-7.07531153 18.2353833 -8.85844583 18.05363456 -12.4367981 15.32925415 C-14.39257812 12.64697266 -14.39257812 12.64697266 -15.01757812 9.14697266 C-13.47097336 0.48598598 -7.47953738 -0.08590832 0 0 Z " fill="#7c7c7c" stroke="#7c7c7c" stroke-width="4" transform="translate(377.392578125,125.35302734375)"/>
<path d="M0 0 C0.89948868 -0.0049649 1.79897736 -0.00992981 2.72572327 -0.01504517 C5.70468915 -0.02966372 8.68360179 -0.036468 11.66259766 -0.04199219 C13.73141481 -0.04774353 15.80023195 -0.05350127 17.86904907 -0.05926514 C22.20843759 -0.069774 26.54780758 -0.07561754 30.88720703 -0.07910156 C36.44803077 -0.08458852 42.00860993 -0.10862142 47.56935692 -0.13707352 C51.84329952 -0.15569441 56.11718313 -0.16090519 60.39116287 -0.16243744 C62.44128381 -0.16546532 64.49140367 -0.17349839 66.54148483 -0.18662262 C69.40935656 -0.2036728 72.27662944 -0.20180542 75.14453125 -0.1953125 C75.99146042 -0.20452728 76.83838959 -0.21374207 77.71098328 -0.22323608 C82.36147151 -0.19024565 85.44177641 0.12021182 89.20166016 3.16113281 C91.5433478 6.67366427 91.69789693 8.02582637 91.20166016 12.16113281 C89.77062988 14.81700134 89.77062988 14.81700134 87.20166016 17.16113281 C84.04880788 17.91028871 80.9511596 17.83393819 77.72314453 17.79223633 C76.76338211 17.79939163 75.80361969 17.80654694 74.81477356 17.81391907 C71.64116874 17.83083254 68.46897123 17.81138737 65.29541016 17.79003906 C63.09110395 17.79086751 60.88679781 17.79332599 58.68249512 17.79734802 C54.06222951 17.80020785 49.44244819 17.78548625 44.82226562 17.75805664 C38.89687832 17.72397404 32.97235716 17.72999059 27.04692841 17.74871922 C22.49502328 17.75928258 17.94332006 17.75035732 13.39143372 17.7353344 C11.20653381 17.73014728 9.02161286 17.73064078 6.8367157 17.73687935 C3.78407375 17.74232338 0.73267601 17.72198168 -2.31982422 17.69458008 C-3.22488205 17.70110596 -4.12993988 17.70763184 -5.06242371 17.71435547 C-11.18183411 17.62084716 -11.18183411 17.62084716 -14.35754395 15.25279236 C-16.36061799 12.34485172 -16.36553732 10.49761595 -16.19287109 7.06347656 C-15.58445877 4.12984486 -14.1868747 2.86722914 -11.79833984 1.16113281 C-7.86257746 -0.15078798 -4.10332879 0.0053902 0 0 Z " fill="#7c7c7c" stroke="#7c7c7c" stroke-width="4" transform="translate(378.79833984375,166.8388671875)"/>
<path d="M0 0 C1.80746452 -0.01441132 1.80746452 -0.01441132 3.65144348 -0.02911377 C4.95973618 -0.03336365 6.26802887 -0.03761353 7.6159668 -0.04199219 C8.96876528 -0.04774464 10.32156374 -0.05350236 11.67436218 -0.05926514 C14.51321798 -0.0697757 17.35204545 -0.07561767 20.19091797 -0.07910156 C23.82258191 -0.0845798 27.4538697 -0.1085927 31.08541584 -0.13707352 C33.88131286 -0.15573173 36.67711995 -0.16090722 39.47307396 -0.16243744 C41.4611228 -0.16692482 43.44912346 -0.18555815 45.43708801 -0.20440674 C47.25873726 -0.19990509 47.25873726 -0.19990509 49.1171875 -0.1953125 C50.71697197 -0.20078094 50.71697197 -0.20078094 52.34907532 -0.20635986 C55.71348099 0.21945295 57.56567383 1.11299892 60.25268555 3.16113281 C62.13729879 7.32298705 62.60405522 9.21243469 61.00268555 13.53613281 C59.25268555 16.16113281 59.25268555 16.16113281 57.25268555 17.16113281 C55.21144955 17.27317439 53.16654661 17.32045454 51.12231445 17.33813477 C49.8340274 17.35097 48.54574036 17.36380524 47.21841431 17.37702942 C45.80536279 17.38519612 44.39230693 17.39263998 42.97924805 17.39941406 C42.26895824 17.40348959 41.55866844 17.40756512 40.82685471 17.41176414 C37.06808513 17.43262251 33.30935205 17.44692574 29.55053711 17.45629883 C25.66757639 17.46736892 21.78518788 17.50177547 17.90242958 17.54147053 C14.91699149 17.56760899 11.93169038 17.57598809 8.94614792 17.57958031 C7.514796 17.58445275 6.08345046 17.5960856 4.65221024 17.6146183 C2.64889559 17.63894815 0.64530297 17.63563101 -1.3581543 17.63110352 C-2.49795746 17.63696976 -3.63776062 17.642836 -4.81210327 17.64888 C-8.3857804 17.05503824 -9.5487138 15.98107356 -11.74731445 13.16113281 C-12.47502678 10.42150994 -12.32703022 7.92899142 -11.74731445 5.16113281 C-8.23775161 0.59870112 -5.56021702 0.03567699 0 0 Z " fill="#7c7c7c" stroke="#7c7c7c" stroke-width="4" transform="translate(374.747314453125,83.8388671875)"/>
<path d="M0 0 C4.44387139 2.49803421 6.99147627 5.75862485 8.8125 10.5 C9.92055887 16.118741 8.86528142 20.81518231 6.08984375 25.7734375 C3.41421781 29.39003281 -0.01444074 31.10898025 -4.1875 32.5 C-10.63531656 32.92280764 -14.72897664 32.41585108 -19.85546875 28.09375 C-23.83191626 24.08896676 -25.13472296 20.54331374 -25.34765625 14.921875 C-24.97469619 9.28199122 -22.79070308 5.79354173 -18.6875 2.125 C-13.10918351 -2.45019818 -6.51975915 -2.80300252 0 0 Z " fill="#7c7c7c" stroke="#7c7c7c" stroke-width="4" transform="translate(320.1875,349.5)"/>
<path d="M0 0 C2.75569447 2.18159145 4.43588747 3.87177494 6 7 C6.41204834 11.63554388 5.87454146 14.30416098 3 18 C-0.42919572 20.57189679 -3.83939486 20.502142 -8 20 C-12.00535091 17.55228556 -13.66804391 16.07397557 -15.0625 11.5625 C-14.99118687 7.49765169 -14.20649268 5.38854234 -12 2 C-7.99745384 -0.66836411 -4.70686701 -0.8340238 0 0 Z " fill="#7c7c7c" stroke="#7c7c7c" stroke-width="4" transform="translate(172,107)"/>
<path d="M0 0 C2.8100346 1.79363911 4.50940468 3.01880935 6 6 C6.5811138 13.08958838 6.5811138 13.08958838 4.125 16.9375 C0.8698054 20.09695358 -1.42413238 20.33421243 -5.9609375 20.29296875 C-9.13134567 19.83745033 -10.8192402 18.24684343 -13 16 C-14.60086627 12.79826746 -14.49917089 9.47422941 -14 6 C-10.32759145 0.24655994 -6.71744997 -0.96515086 0 0 Z " fill="#7c7c7c" stroke="#7c7c7c" stroke-width="4" transform="translate(209,107)"/>
<path d="M0 0 C2.8100346 1.79363911 4.50940468 3.01880935 6 6 C6.5811138 13.08958838 6.5811138 13.08958838 4.125 16.9375 C0.8698054 20.09695358 -1.42413238 20.33421243 -5.9609375 20.29296875 C-9.13134567 19.83745033 -10.8192402 18.24684343 -13 16 C-14.60086627 12.79826746 -14.49917089 9.47422941 -14 6 C-10.32759145 0.24655994 -6.71744997 -0.96515086 0 0 Z " fill="#7c7c7c" stroke="#7c7c7c" stroke-width="4" transform="translate(134,107)"/>
</svg>
