<?xml version="1.0" encoding="UTF-8"?>
<svg version="1.1" xmlns="http://www.w3.org/2000/svg" width="512" height="512">
<path d="M0 0 C0.76169518 -0.00453111 1.52339036 -0.00906223 2.30816722 -0.01373065 C4.85050636 -0.02635118 7.39263063 -0.0247558 9.93499756 -0.02310181 C11.76200128 -0.02908858 13.58900248 -0.03589447 15.41600037 -0.04345703 C20.37278355 -0.06111048 25.32949766 -0.06581218 30.28630924 -0.0670886 C33.38569161 -0.0685113 36.48505649 -0.07278317 39.58443451 -0.07808304 C50.40458794 -0.09658216 61.22469212 -0.10475392 72.04486084 -0.10317993 C82.11844889 -0.10197903 92.1918225 -0.12307163 102.2653563 -0.15466726 C110.92374623 -0.18085299 119.58206624 -0.19154624 128.24049544 -0.19026911 C133.40739847 -0.18976009 138.57411096 -0.19540989 143.74097443 -0.21662521 C148.60348051 -0.23604589 153.46561505 -0.23610587 158.32813454 -0.22159195 C160.10743314 -0.21950741 161.88675523 -0.22418352 163.66601372 -0.23631287 C175.38557839 -0.31099745 185.71238122 0.15594122 194.715271 8.56430054 C201.72216684 16.35768469 203.547228 24.21658902 203.51394653 34.45732117 C203.51847765 35.48106927 203.52300876 36.50481737 203.52767718 37.55958813 C203.54033356 40.9886951 203.53869999 44.4176435 203.53704834 47.84677124 C203.5430328 50.30593063 203.54983815 52.76508813 203.55740356 55.22424316 C203.57324306 61.21023896 203.57951231 67.19617246 203.58062832 73.18218342 C203.58157963 78.04943664 203.58569407 82.91667689 203.59202957 87.78392601 C203.60963717 101.59261236 203.6188692 115.40126767 203.61736862 129.20996533 C203.61728871 129.95394429 203.6172088 130.69792324 203.61712646 131.46444702 C203.6170447 132.20933753 203.61696294 132.95422803 203.6168787 133.72169098 C203.61606594 145.79152124 203.63520244 157.86122667 203.6634032 169.93102083 C203.6921511 182.33314923 203.70594245 194.73521679 203.70421565 207.13737935 C203.7035524 214.0966632 203.70901583 221.05581618 203.73057175 228.01506996 C203.75071775 234.56093097 203.75009037 241.1065631 203.73553848 247.65245438 C203.73344713 250.05300614 203.73817064 252.45357513 203.7502594 254.85409737 C203.76571087 258.13524896 203.75640338 261.41544768 203.74099731 264.69657898 C203.75128444 265.64289871 203.76157157 266.58921844 203.77217042 267.56421453 C203.67645563 276.81093192 200.43378406 283.74760529 194.17230225 290.47836304 C187.32020822 296.84400008 179.9492225 299.57669775 170.61366272 299.53485107 C169.49055428 299.54164774 169.49055428 299.54164774 168.34475678 299.54858172 C165.84620911 299.56119996 163.34788013 299.55960702 160.8493042 299.55795288 C159.05347922 299.56393985 157.25765681 299.57074579 155.46183777 299.57830811 C150.58969525 299.59596085 145.717623 299.60066326 140.84545159 299.60193968 C137.79832433 299.60336256 134.75121486 299.60763482 131.70409203 299.61293411 C121.06433353 299.63143393 110.42462512 299.63960502 99.78485107 299.63803101 C89.88282856 299.63683051 79.98102434 299.65791492 70.07905704 299.68951833 C61.56587304 299.71571638 53.05276016 299.72639678 44.53953618 299.72512019 C39.46034932 299.72461147 34.38135639 299.73024416 29.30220985 299.75147629 C24.52095552 299.77091744 19.74007888 299.77094308 14.95881081 299.75644302 C13.21057073 299.75436091 11.46230665 299.75901995 9.71410751 299.77116394 C-3.19339956 299.85497083 -14.07134458 298.86097867 -23.8081665 289.56039429 C-28.402617 284.14484721 -31.87058603 277.21241174 -31.88770008 270.03748989 C-31.89215792 269.17031824 -31.89661577 268.30314658 -31.9012087 267.409697 C-31.90093215 265.97976739 -31.90093215 265.97976739 -31.90065002 264.52095032 C-31.90432671 263.50863816 -31.9080034 262.49632601 -31.9117915 261.45333773 C-31.92284672 258.04492638 -31.92667533 254.63654551 -31.93048096 251.2281189 C-31.93674429 248.7907298 -31.94339097 246.35334167 -31.95039368 243.91595459 C-31.96963547 236.58895106 -31.98022491 229.26195561 -31.98912147 221.93493423 C-31.99350579 218.48290835 -31.99887231 215.030884 -32.00411034 211.57885933 C-32.021124 200.10005862 -32.0356168 188.62125886 -32.04285908 177.14244747 C-32.04476892 174.16368038 -32.04668926 171.1849133 -32.04864502 168.20614624 C-32.04937063 167.09563104 -32.04937063 167.09563104 -32.0501109 165.96268118 C-32.05840601 153.97740638 -32.08373348 141.99223155 -32.1162257 130.00700038 C-32.14932698 117.69650002 -32.1673107 105.3860504 -32.17050332 93.07550532 C-32.17266582 86.16587887 -32.18137603 79.25639812 -32.20696449 72.34681511 C-32.23099221 65.84368638 -32.23447787 59.34074842 -32.22420311 52.83758163 C-32.22370764 50.45357327 -32.23003125 48.06955201 -32.24375916 45.68558311 C-32.26148447 42.42433815 -32.25436787 39.16403244 -32.2412262 35.90278625 C-32.25219544 34.9651149 -32.26316469 34.02744355 -32.27446634 33.06135792 C-32.18258973 23.58100053 -29.11906479 15.90290089 -22.612854 9.02133179 C-15.78617367 2.58187912 -9.51322666 -0.04189396 0 0 Z M-8.753479 27.26742554 C-9.65968229 29.9860354 -9.88077822 31.55960197 -9.88770008 34.35236073 C-9.89215792 35.18716522 -9.89661577 36.02196972 -9.9012087 36.88207132 C-9.90102434 37.79917672 -9.90083997 38.71628212 -9.90065002 39.66117859 C-9.90432671 40.63547748 -9.9080034 41.60977638 -9.9117915 42.61359948 C-9.92284459 45.89315159 -9.92667492 49.17267203 -9.93048096 52.45223999 C-9.93674429 54.79759828 -9.94339097 57.14295557 -9.95039368 59.48831177 C-9.96781343 65.87056139 -9.97835774 72.25280353 -9.98659921 78.63507104 C-9.99174646 82.62002395 -9.99782226 86.60497451 -10.00411034 90.58992577 C-10.02112071 101.62265981 -10.03561546 112.65539286 -10.04285908 123.68813801 C-10.04476897 126.55074884 -10.0466893 129.41335966 -10.04864502 132.27597046 C-10.04912876 132.98745702 -10.0496125 133.69894359 -10.0501109 134.43199035 C-10.05841347 145.96084582 -10.08375501 157.48959761 -10.1162257 169.0184078 C-10.14928958 180.85428372 -10.16730717 192.69010693 -10.17050332 204.52602929 C-10.17266889 211.17171633 -10.18186696 217.81726933 -10.20696449 224.46291542 C-10.23018785 230.71326203 -10.23450143 236.96333609 -10.22420311 243.2137146 C-10.22370627 245.50910026 -10.23007003 247.80449908 -10.24375916 250.09984398 C-10.26139054 253.23113237 -10.25441456 256.36143334 -10.2412262 259.49272156 C-10.25219544 260.40313479 -10.26316469 261.31354803 -10.27446634 262.25154954 C-10.21878899 267.71896117 -9.51705955 271.00435773 -5.753479 275.26742554 C-2.33626574 277.83714303 1.16733683 277.52143543 5.33757019 277.52812195 C6.40933749 277.53386027 6.40933749 277.53386027 7.50275666 277.53971452 C9.89715592 277.55003398 12.29131491 277.54605442 14.68572998 277.54208374 C16.40232566 277.54643079 18.1189194 277.55161392 19.83551025 277.55757141 C24.49870536 277.57097319 29.16181947 277.57153878 33.82503009 277.56900811 C37.7167902 277.56793923 41.60853386 277.57281964 45.50029045 277.57761353 C54.68076846 277.58871274 63.86120554 277.58914376 73.04168701 277.58309937 C82.51545387 277.57705783 91.98907227 277.5893742 101.46281379 277.61066943 C109.59454974 277.6282766 117.7262384 277.6342882 125.85799271 277.63103169 C130.71565127 277.62921732 135.57320394 277.63187036 140.43084526 277.64574623 C144.99860978 277.65830561 149.56614261 277.65639842 154.1339035 277.64333534 C155.81047964 277.64096591 157.48707198 277.64371738 159.16362953 277.65195847 C161.4521857 277.66239682 163.73996025 277.65434934 166.02848816 277.64164734 C167.3091941 277.64181508 168.58990004 277.64198282 169.90941525 277.64215565 C174.38315961 277.13979017 176.72793303 275.61538086 180.03521156 272.67971706 C181.98230349 268.80213365 181.65850034 264.94868476 181.62747192 260.67076111 C181.63449188 259.19472212 181.63449188 259.19472212 181.64165366 257.68886417 C181.65364637 254.38231442 181.64412953 251.07617584 181.63470459 247.7696228 C181.63876841 245.40278887 181.64410921 243.03595684 181.65063477 240.66912842 C181.66291337 234.90208214 181.66108962 229.13516714 181.65239684 223.3681168 C181.64562414 218.68098327 181.64470178 213.99388255 181.64796829 209.30674553 C181.64865784 208.3064308 181.64865784 208.3064308 181.64936132 207.2859077 C181.65032049 205.93118548 181.65129313 204.57646327 181.65227909 203.22174107 C181.66083622 190.51473262 181.65099416 177.80778907 181.63487799 165.10079127 C181.62147758 154.19756327 181.62379997 143.2944311 181.63763428 132.39120483 C181.65368973 119.73149679 181.66000897 107.07184567 181.65079749 94.41212887 C181.64984184 93.06205969 181.64889872 91.7119905 181.64796829 90.36192131 C181.64750547 89.69765425 181.64704264 89.03338718 181.64656579 88.34899082 C181.64397556 83.66799071 181.64834766 78.9870267 181.65540695 74.30603218 C181.66406202 68.0048006 181.65808122 61.70375027 181.64072418 55.4025383 C181.63675139 53.08739333 181.63790687 50.77223315 181.64451218 48.45709419 C181.65268632 45.30154683 181.6424556 42.14658356 181.62747192 38.99107361 C181.63751017 37.61043483 181.63751017 37.61043483 181.64775121 36.20190436 C181.60383841 31.44766533 181.47583393 28.04128613 178.246521 24.26742554 C174.8059662 21.70603756 171.2630326 22.0082843 167.08627319 21.99327087 C166.36430012 21.9880342 165.64232705 21.98279752 164.898476 21.97740215 C162.47879045 21.96239802 160.05931629 21.96169692 157.6395874 21.96102905 C155.90490868 21.95340788 154.17023334 21.94498046 152.43556213 21.93580627 C147.72273001 21.91385123 143.00996277 21.90506111 138.29708529 21.89997983 C135.35285833 21.89633769 132.40864841 21.8900984 129.46442795 21.88297844 C119.1935425 21.85848123 108.9227076 21.84543129 98.65179443 21.84188843 C89.07685535 21.83825211 79.50223661 21.80835054 69.92739546 21.76648384 C61.70732034 21.73180055 53.4873515 21.71634033 45.26720369 21.71564239 C40.35744137 21.71484896 35.44800537 21.70607982 30.53831863 21.67764473 C25.92037627 21.6514974 21.30303157 21.64924011 16.68504906 21.66530037 C14.99114238 21.66711748 13.29720161 21.66040046 11.60336876 21.64448166 C9.28844975 21.62405381 6.97562846 21.63455065 4.66073608 21.6526947 C3.36620325 21.65068337 2.07167042 21.64867205 0.73790932 21.64659977 C-3.8829445 22.46826292 -5.48892019 23.94010578 -8.753479 27.26742554 Z " stroke="#7c7c7c" stroke-width="8" fill="#7c7c7c" transform="translate(308.75347900390625,-0.267425537109375)"/>
<path d="M0 0 C1.12310844 -0.00679667 1.12310844 -0.00679667 2.26890594 -0.01373065 C4.76745361 -0.02634888 7.26578259 -0.02475594 9.76435852 -0.02310181 C11.5601835 -0.02908878 13.35600591 -0.03589472 15.15182495 -0.04345703 C20.02396747 -0.06110978 24.89603972 -0.06581219 29.76821113 -0.0670886 C32.81533839 -0.06851149 35.86244786 -0.07278375 38.90957069 -0.07808304 C49.54932919 -0.09658286 60.1890376 -0.10475395 70.82881165 -0.10317993 C80.73083416 -0.10197944 90.63263838 -0.12306385 100.53460568 -0.15466726 C109.04778968 -0.18086531 117.56090256 -0.1915457 126.07412654 -0.19026911 C131.15331339 -0.1897604 136.23230633 -0.19539308 141.31145287 -0.21662521 C146.0927072 -0.23606637 150.87358384 -0.236092 155.65485191 -0.22159195 C157.40309199 -0.21950984 159.15135607 -0.22416887 160.89955521 -0.23631287 C173.80706228 -0.32011975 184.6850073 0.6738724 194.42182922 9.97445679 C199.01474269 15.38819213 202.48183075 22.31936916 202.50415611 29.49177456 C202.50923066 30.35771282 202.5143052 31.22365107 202.51953351 32.11582989 C202.52003127 33.06775205 202.52052903 34.01967421 202.52104187 35.0004425 C202.52761525 36.51679404 202.52761525 36.51679404 202.53432143 38.06377894 C202.54772723 41.46751911 202.55389238 44.87123337 202.56001282 48.2749939 C202.56791256 50.70913816 202.57618143 53.14328125 202.58479309 55.5774231 C202.60876773 62.8955326 202.62394625 70.21364386 202.63685316 77.5317789 C202.64056609 79.59995201 202.64453926 81.66812445 202.64860582 83.73629689 C202.67384947 96.58711754 202.69589658 109.43793928 202.70833397 122.28877926 C202.71126355 125.26546673 202.71422522 128.24215417 202.71723938 131.21884155 C202.71798543 131.9586604 202.71873148 132.69847925 202.71950014 133.46071685 C202.73213994 145.43173246 202.76534403 157.40259907 202.80704121 169.3735451 C202.84952926 181.67275397 202.87303714 193.97188673 202.87825453 206.27116877 C202.88166149 213.1730728 202.89333122 220.07474425 202.92635727 226.97657585 C202.95740134 233.47481104 202.96273611 239.97275263 202.95097351 246.47105408 C202.95075307 248.85100374 202.95903349 251.23097237 202.97662735 253.61085701 C203.16183616 280.11532751 203.16183616 280.11532751 193.55464172 290.76742554 C186.84578993 296.87908788 179.96332315 299.41692347 170.96769714 299.41459656 C170.20785967 299.41827325 169.4480222 299.42194993 168.66515934 299.42573804 C166.1112235 299.43677801 163.55732834 299.44061927 161.00337219 299.44442749 C159.17518993 299.45069199 157.34700894 299.45733878 155.51882935 299.46434021 C149.50733834 299.48538754 143.49584705 299.49574436 137.48432922 299.50570679 C135.41452649 299.50975432 133.34472388 299.51387125 131.27492142 299.51805687 C121.54927181 299.53711132 111.82362981 299.55134089 102.09796512 299.55966884 C90.87505553 299.56943761 79.65234336 299.59574673 68.42950332 299.63616973 C59.75336378 299.66634615 51.07728078 299.68113924 42.40108979 299.68444985 C37.2201888 299.68679893 32.03949866 299.6957407 26.85865402 299.72091103 C21.9814336 299.74422284 17.10456238 299.74841242 12.22730064 299.73814964 C10.44112803 299.7376549 8.65493805 299.7439571 6.86881828 299.75770569 C-10.36453897 299.88289255 -10.36453897 299.88289255 -17.63285828 295.26742554 C-18.44238953 294.79820679 -19.25192078 294.32898804 -20.08598328 293.84555054 C-26.71309509 288.9472505 -30.46667217 283.22614623 -32.63285828 275.26742554 C-32.92410826 271.87028011 -32.91135954 268.4855388 -32.90028381 265.07752991 C-32.90481493 264.05378181 -32.90934604 263.03003371 -32.91401446 261.97526294 C-32.92667084 258.54615597 -32.92503727 255.11720757 -32.92338562 251.68807983 C-32.92937008 249.22892045 -32.93617543 246.76976294 -32.94374084 244.31060791 C-32.95958034 238.32461211 -32.96584959 232.33867861 -32.9669656 226.35266765 C-32.96791691 221.48541443 -32.97203135 216.61817418 -32.97836685 211.75092506 C-32.99597445 197.94223871 -33.00520648 184.13358341 -33.0037059 170.32488575 C-33.00362599 169.58090679 -33.00354608 168.83692783 -33.00346375 168.07040405 C-33.00338198 167.32551355 -33.00330022 166.58062304 -33.00321598 165.8131601 C-33.00240322 153.74332984 -33.02153972 141.6736244 -33.04974048 129.60383024 C-33.07848838 117.20170184 -33.09227973 104.79963428 -33.09055293 92.39747173 C-33.08988968 85.43818788 -33.09535311 78.4790349 -33.11690903 71.51978111 C-33.13705503 64.9739201 -33.13642765 58.42828797 -33.12187576 51.8823967 C-33.11978441 49.48184493 -33.12450792 47.08127595 -33.13659668 44.68075371 C-33.15204815 41.39960211 -33.14274066 38.11940339 -33.12733459 34.83827209 C-33.13762172 33.89195236 -33.14790885 32.94563263 -33.1585077 31.97063655 C-33.06279291 22.72391915 -29.82012134 15.78724579 -23.55863953 9.05648804 C-16.7065455 2.69085099 -9.33555978 -0.04184668 0 0 Z M-9.42154884 26.85513401 C-11.36864077 30.73271742 -11.04483762 34.58616631 -11.0138092 38.86408997 C-11.01848918 39.84811595 -11.02316915 40.83214194 -11.02799094 41.8459869 C-11.03998365 45.15253666 -11.03046681 48.45867523 -11.02104187 51.76522827 C-11.02510569 54.1320622 -11.03044649 56.49889423 -11.03697205 58.86572266 C-11.04925066 64.63276893 -11.0474269 70.39968393 -11.03873412 76.16673427 C-11.03196142 80.85386781 -11.03103906 85.54096852 -11.03430557 90.22810555 C-11.03476527 90.89498203 -11.03522497 91.56185851 -11.0356986 92.24894338 C-11.03665777 93.60366559 -11.03763041 94.9583878 -11.03861637 96.31311 C-11.0471735 109.02011845 -11.03733144 121.727062 -11.02121527 134.43405981 C-11.00781486 145.33728781 -11.01013725 156.24041998 -11.02397156 167.14364624 C-11.04002701 179.80335428 -11.04634625 192.46300541 -11.03713477 205.12272221 C-11.03617912 206.47279138 -11.035236 207.82286057 -11.03430557 209.17292976 C-11.03384275 209.83719683 -11.03337992 210.50146389 -11.03290307 211.18586026 C-11.03031284 215.86686037 -11.03468494 220.54782438 -11.04174423 225.22881889 C-11.0503993 231.53005047 -11.0444185 237.83110081 -11.02706146 244.13231277 C-11.02308867 246.44745775 -11.02424415 248.76261792 -11.03084946 251.07775688 C-11.0390236 254.23330424 -11.02879288 257.38826751 -11.0138092 260.54377747 C-11.02050137 261.46420332 -11.02719353 262.38462917 -11.03408849 263.33294672 C-10.99017569 268.08718575 -10.86217121 271.49356495 -7.63285828 275.26742554 C-4.19230348 277.82881351 -0.64936988 277.52656678 3.52738953 277.5415802 C4.2493626 277.54681688 4.97133567 277.55205356 5.71518672 277.55744892 C8.13487227 277.57245306 10.55434643 277.57315416 12.97407532 277.57382202 C14.70875404 277.58144319 16.44342938 277.58987062 18.17810059 277.5990448 C22.89093271 277.62099985 27.60369995 277.62978996 32.31657743 277.63487124 C35.26080439 277.63851338 38.20501431 277.64475267 41.14923477 277.65187263 C51.42012022 277.67636984 61.69095512 277.68941979 71.96186829 277.69296265 C81.53680737 277.69659896 91.11142611 277.72650053 100.68626726 277.76836723 C108.90634238 277.80305052 117.12631122 277.81851074 125.34645903 277.81920868 C130.25622135 277.82000211 135.16565735 277.82877125 140.07534409 277.85720634 C144.69328645 277.88335367 149.31063115 277.88561096 153.92861366 277.8695507 C155.62252034 277.8677336 157.31646111 277.87445061 159.01029396 277.89036942 C161.32521297 277.91079727 163.63803426 277.90030042 165.95292664 277.88215637 C167.24745947 277.8841677 168.5419923 277.88617903 169.8757534 277.8882513 C174.49660722 277.06658816 176.10258291 275.5947453 179.36714172 272.26742554 C180.27334501 269.54881568 180.49444094 267.9752491 180.5013628 265.18249035 C180.50804957 263.93028361 180.50804957 263.93028361 180.51487142 262.65277976 C180.51468706 261.73567436 180.51450269 260.81856896 180.51431274 259.87367249 C180.51798943 258.89937359 180.52166612 257.9250747 180.52545422 256.9212516 C180.53650731 253.64169949 180.54033764 250.36217905 180.54414368 247.08261108 C180.55040701 244.7372528 180.55705369 242.3918955 180.5640564 240.04653931 C180.58147615 233.66428968 180.59202046 227.28204755 180.60026193 220.89978004 C180.60540917 216.91482713 180.61148498 212.92987656 180.61777306 208.94492531 C180.63478343 197.91219126 180.64927818 186.87945821 180.6565218 175.84671307 C180.65843169 172.98410224 180.66035202 170.12149141 180.66230774 167.25888062 C180.66279148 166.54739405 180.66327522 165.83590749 180.66377362 165.10286073 C180.67207619 153.57400525 180.69741773 142.04525346 180.72988842 130.51644327 C180.7629523 118.68056735 180.78096989 106.84474414 180.78416604 95.00882179 C180.78633161 88.36313475 180.79552968 81.71758174 180.82062721 75.07193565 C180.84385057 68.82158905 180.84816415 62.57151498 180.83786583 56.32113647 C180.83736899 54.02575081 180.84373275 51.73035199 180.85742188 49.4350071 C180.87505326 46.30371871 180.86807728 43.17341773 180.85488892 40.04212952 C180.86585816 39.13171628 180.87682741 38.22130305 180.88812906 37.28330153 C180.83245171 31.8158899 180.13072227 28.53049334 176.36714172 24.26742554 C172.94992846 21.69770805 169.44632589 22.01341565 165.27609253 22.00672913 C164.561581 22.00290358 163.84706946 21.99907803 163.11090606 21.99513656 C160.7165068 21.9848171 158.32234781 21.98879665 155.92793274 21.99276733 C154.21133706 21.98842028 152.49474332 21.98323715 150.77815247 21.97727966 C146.11495736 21.96387788 141.45184324 21.96331229 136.78863263 21.96584296 C132.89687252 21.96691185 129.00512886 21.96203143 125.11337227 21.95723754 C115.93289426 21.94613834 106.75245718 21.94570732 97.57197571 21.95175171 C88.09820885 21.95779324 78.62459045 21.94547687 69.15084893 21.92418164 C61.01911298 21.90657447 52.88742432 21.90056287 44.75567001 21.90381938 C39.89801145 21.90563375 35.04045878 21.90298072 30.18281746 21.88910484 C25.61505294 21.87654546 21.04752011 21.87845265 16.47975922 21.89151573 C14.80318308 21.89388517 13.12659074 21.8911337 11.45003319 21.88289261 C9.16147702 21.87245425 6.87370247 21.88050174 4.58517456 21.89320374 C3.30446862 21.89303599 2.02376268 21.89286825 0.70424747 21.89269543 C-3.76949689 22.3950609 -6.11427032 23.91947021 -9.42154884 26.85513401 Z " stroke="#7c7c7c" stroke-width="8" fill="#7c7c7c" transform="translate(32.63285827636719,212.73257446289063)"/>
<path d="M0 0 C0.74773568 -0.00367669 1.49547135 -0.00735338 2.26586568 -0.01114148 C4.77290302 -0.0221596 7.27989888 -0.026019 9.78695679 -0.02983093 C11.58410778 -0.03609706 13.38125748 -0.04274399 15.17840576 -0.04974365 C21.08225606 -0.07077089 26.98610658 -0.08114565 32.88998413 -0.09111023 C34.92416777 -0.09515846 36.95835127 -0.0992754 38.99253464 -0.10346031 C48.55106088 -0.12251002 58.10957941 -0.13674082 67.66812098 -0.14507228 C78.69235035 -0.15484049 89.71637872 -0.18115013 100.74053729 -0.22157317 C109.26724466 -0.25176278 117.79389451 -0.26654391 126.32065427 -0.26985329 C131.41047103 -0.27220076 136.500073 -0.28112169 141.58983231 -0.30631447 C146.38171019 -0.32964958 151.17323269 -0.33380656 155.96515274 -0.32355309 C157.71865524 -0.32305892 159.47217555 -0.3293441 161.22562408 -0.34310913 C173.58623315 -0.43467115 183.49877481 0.44945948 192.84701538 9.28779602 C200.60217442 17.50930093 201.90049265 24.85686043 201.89144897 35.97651672 C201.8981662 37.16262543 201.90488342 38.34873413 201.9118042 39.57078552 C201.92751404 42.81270684 201.93415732 46.05447413 201.93543577 49.29642892 C201.9368611 51.32575521 201.94113792 53.35505495 201.94643021 55.38437462 C201.96491342 62.47516448 201.97310306 69.56587935 201.9715271 76.6566925 C201.97032648 83.24827958 201.99141724 89.83953881 202.02301443 96.43104297 C202.04923687 102.10515855 202.05989189 107.77916745 202.05861628 113.45334309 C202.05810835 116.83564403 202.06369693 120.21765343 202.08497238 123.59989357 C202.10462033 127.37675109 202.09879776 131.15277 202.08676147 134.92964172 C202.09800049 136.03799881 202.1092395 137.1463559 202.12081909 138.28829956 C202.03860542 148.46720153 198.65890944 156.73304621 191.60092163 164.14717102 C184.95323204 169.38555042 178.28895503 171.45176453 169.8407135 171.41459656 C168.69711238 171.42139323 168.69711238 171.42139323 167.5304082 171.4283272 C164.98573514 171.44094774 162.44127675 171.43935236 159.89657593 171.43769836 C158.06794969 171.44368509 156.23932597 171.45049097 154.41070557 171.45805359 C149.44985744 171.4757063 144.48907832 171.48040867 139.52820182 171.48168516 C136.42681713 171.48310775 133.32544993 171.4873794 130.2240696 171.4926796 C119.39858513 171.51117759 108.57314989 171.51935051 97.74765015 171.51777649 C87.6660898 171.51657521 77.58474359 171.53767544 67.50323743 171.56926382 C58.83976763 171.59543908 50.17636772 171.60614326 41.51285869 171.60486567 C36.34207524 171.6043564 31.17148211 171.61002045 26.00073814 171.63122177 C21.13577284 171.6506251 16.27117902 171.65071425 11.40620041 171.63618851 C9.62486921 171.6341019 7.84351464 171.63879244 6.06222343 171.65090942 C-6.25733549 171.72925644 -15.27897871 170.75341911 -24.61001587 162.07295227 C-32.27797673 153.81901187 -33.69867366 145.46396297 -33.68960571 134.51728821 C-33.69632294 133.35229294 -33.70304016 132.18729767 -33.70996094 130.98699951 C-33.72894354 127.13930483 -33.73286545 123.2917846 -33.73501587 119.44404602 C-33.73981862 117.44148221 -33.74462501 115.43891836 -33.7499367 113.43635583 C-33.76619844 107.13991549 -33.7711078 100.8435323 -33.76968384 94.54707336 C-33.76848383 88.07251925 -33.78956224 81.59829924 -33.82117116 75.1238296 C-33.84741228 69.54821112 -33.85804782 63.97270121 -33.85677302 58.39702153 C-33.85626554 55.07447337 -33.86369631 51.75228713 -33.88312912 48.42978668 C-33.90280544 44.71778962 -33.89694322 41.00664381 -33.88491821 37.29463196 C-33.90177673 35.66554146 -33.90177673 35.66554146 -33.91897583 34.00354004 C-33.8338079 23.61576247 -30.84152061 15.69629062 -23.68814087 8.12763977 C-16.6316307 2.02243388 -9.10834423 -0.00240764 0 0 Z M-9.39907837 26.14717102 C-11.39726201 29.02768438 -11.65098019 31.34543417 -11.65977478 34.80853271 C-11.66685959 35.74077667 -11.6739444 36.67302063 -11.6812439 37.6335144 C-11.67876648 38.64921005 -11.67628906 39.6649057 -11.67373657 40.71138 C-11.6788475 41.78657898 -11.68395844 42.86177795 -11.68922424 43.96955872 C-11.70313645 47.52751719 -11.70216226 51.08528231 -11.69985962 54.64326477 C-11.70374556 57.11421786 -11.70808002 59.58517028 -11.71284485 62.05612183 C-11.72031051 67.23696558 -11.72001318 72.4177412 -11.7147522 77.59858704 C-11.70895625 84.24115104 -11.72589021 90.88343633 -11.74909687 97.52595425 C-11.76382079 102.6294315 -11.76470774 107.73284141 -11.76158714 112.83633614 C-11.762101 115.28557449 -11.76735073 117.73481655 -11.77739906 120.18403435 C-11.78972021 123.60739692 -11.78299736 127.03021382 -11.77139282 130.4535675 C-11.77903656 131.46723892 -11.7866803 132.48091034 -11.79455566 133.52529907 C-11.77006598 140.34877674 -11.77006598 140.34877674 -8.39907837 146.14717102 C-4.86608582 149.5575779 -2.04289279 149.52392037 2.76789856 149.52812195 C3.4905772 149.53280192 4.21325584 149.53748189 4.95783383 149.54230368 C7.37998389 149.55427194 9.80157007 149.54478954 12.22372437 149.53535461 C13.96002533 149.53941955 15.69632372 149.54476099 17.43261719 149.55128479 C22.14957213 149.56497454 26.86633047 149.55965263 31.58328891 149.55014753 C36.51772518 149.54255833 41.45214449 149.5495946 46.38658142 149.55430603 C54.67461167 149.55976625 62.96256175 149.55256552 71.25057983 149.5382843 C80.8334173 149.52196267 90.41606325 149.52724169 99.99889606 149.54376352 C108.22405653 149.55737722 116.44915934 149.55929845 124.67432743 149.55144751 C129.58786824 149.54676967 134.50131902 149.54614911 139.41485405 149.55605698 C144.03516097 149.56472246 148.65522101 149.55871235 153.27550125 149.54137421 C154.97142311 149.5374069 156.66736574 149.53854758 158.36327934 149.5451622 C160.67812052 149.55335844 162.99217032 149.54307994 165.30696106 149.52812195 C167.250143 149.52642533 167.250143 149.52642533 169.23258114 149.52469444 C172.88697445 149.11511024 174.73769612 148.42572447 177.60092163 146.14717102 C179.58559164 143.24862342 179.8554502 140.88486253 179.87507629 137.41661072 C179.89003899 135.99517006 179.89003899 135.99517006 179.90530396 134.54501343 C179.90596863 133.51218735 179.9066333 132.47936127 179.90731812 131.41523743 C179.91980339 129.77558769 179.91980339 129.77558769 179.93254089 128.10281372 C179.95666142 124.48475089 179.96541534 120.86686825 179.97201538 117.24873352 C179.98097965 114.73533574 179.99010145 112.22193853 179.99937439 109.70854187 C180.01587217 104.43775186 180.0235991 99.16700591 180.02645874 93.89619446 C180.03009359 87.81119599 180.05998763 81.72670203 180.10186332 75.64185774 C180.14078289 69.78029355 180.15205215 63.91892903 180.15318489 58.05724716 C180.15739332 55.56694679 180.16985234 53.07664623 180.19070244 50.5864296 C180.21754707 47.10313685 180.21281084 43.62123692 180.20028687 40.13789368 C180.21512115 39.10911606 180.22995544 38.08033844 180.24523926 37.02038574 C180.19876849 32.48324263 180.13180105 29.17118187 177.2509613 25.52275085 C173.12794403 21.82674706 170.00084087 22.01790918 164.63685608 22 C163.92390454 21.99632331 163.21095299 21.99264662 162.47639686 21.98885852 C160.08129304 21.97782291 157.68623261 21.97397808 155.29110718 21.97016907 C153.57628237 21.96390439 151.86145892 21.95725758 150.14663696 21.95025635 C145.48334205 21.93284872 140.82005739 21.9222955 136.15673804 21.91405082 C133.24384683 21.90890074 130.3309588 21.90282505 127.41806984 21.89653969 C118.30591903 21.8774893 109.19377632 21.86325715 100.08160943 21.85492772 C89.55992033 21.8451512 79.03844137 21.8188202 68.51682633 21.77842683 C60.38595197 21.74828168 52.25513791 21.73346042 44.12420875 21.73014671 C39.26700858 21.72779465 34.41003296 21.7188138 29.55289268 21.69368553 C24.98346554 21.6704274 20.41441115 21.66616243 15.84494019 21.67644691 C14.16877313 21.67694292 12.49258786 21.67060353 10.81647682 21.65689087 C8.52585024 21.63920062 6.23656566 21.64626267 3.94593811 21.65942383 C2.66485515 21.65703547 1.38377218 21.65464712 0.06386852 21.65218639 C-4.07494566 22.24377773 -6.20232927 23.48572908 -9.39907837 26.14717102 Z " stroke="#7c7c7c" stroke-width="8" fill="#7c7c7c" transform="translate(310.3990783691406,340.8528289794922)"/>
<path d="M0 0 C0.76240075 -0.00453111 1.5248015 -0.00906223 2.3103053 -0.01373065 C4.85497836 -0.02635118 7.39943675 -0.02475581 9.94413757 -0.02310181 C11.77276382 -0.02908853 13.60138753 -0.03589441 15.43000793 -0.04345703 C20.39085607 -0.06110975 25.35163518 -0.06581211 30.31251168 -0.0670886 C33.41389637 -0.06851119 36.51526357 -0.07278285 39.61664391 -0.07808304 C50.44212837 -0.09658104 61.26756361 -0.10475395 72.09306335 -0.10317993 C82.1746237 -0.10197866 92.25596991 -0.12307888 102.33747607 -0.15466726 C111.00094587 -0.18084252 119.66434579 -0.1915467 128.32785481 -0.19026911 C133.49863826 -0.18975984 138.66923139 -0.19542389 143.83997536 -0.21662521 C148.70494066 -0.23602854 153.56953448 -0.23611769 158.43451309 -0.22159195 C160.21584429 -0.21950535 161.99719886 -0.22419588 163.77849007 -0.23631287 C176.09804899 -0.31465988 185.11969221 0.66117745 194.45072937 9.34164429 C202.11869023 17.59558469 203.53938716 25.95063359 203.53031921 36.89730835 C203.53703644 38.06230362 203.54375366 39.22729889 203.55067444 40.42759705 C203.56965704 44.27529172 203.57357895 48.12281196 203.57572937 51.97055054 C203.58053212 53.97311435 203.58533851 55.9756782 203.5906502 57.97824073 C203.60691194 64.27468107 203.6118213 70.57106426 203.61039734 76.86752319 C203.60919733 83.34207731 203.63027575 89.81629732 203.66188467 96.29076695 C203.68812578 101.86638543 203.69876133 107.44189535 203.69748652 113.01757503 C203.69697904 116.34012318 203.70440981 119.66230943 203.72384262 122.98480988 C203.74351894 126.69680694 203.73765672 130.40795275 203.72563171 134.1199646 C203.73687073 135.20602493 203.74810974 136.29208527 203.75968933 137.41105652 C203.6745214 147.79883409 200.68223411 155.71830594 193.52885437 163.28695679 C186.47823679 169.38706449 178.95527824 171.41481777 169.85417175 171.42132568 C168.73468494 171.42789906 168.73468494 171.42789906 167.59258223 171.43460524 C165.09021722 171.44796602 162.58788741 171.45416605 160.085495 171.46029663 C158.29158877 171.46819994 156.49768412 171.47646903 154.70378113 171.4850769 C148.80955011 171.51127731 142.91531207 171.52660565 137.02104187 171.54086304 C134.98937984 171.54622411 132.95771785 171.55160163 130.92605591 171.55699539 C122.47109339 171.57862395 114.01613277 171.59735826 105.5611496 171.60861778 C93.45990999 171.62484069 81.35899229 171.65797857 69.25787401 171.71501863 C60.7413281 171.75378742 52.22486803 171.77325886 43.70823622 171.77853835 C38.62612479 171.78218316 33.54435686 171.7941113 28.46234131 171.82664108 C23.67532823 171.85684279 18.8888643 171.86299058 14.10177612 171.85125732 C12.35232999 171.85103758 10.60285747 171.85925997 8.85350037 171.87691116 C-3.35314616 171.9932938 -13.78191126 171.10110873 -23.26020813 162.45492554 C-28.50010458 156.70302257 -31.86975238 150.15195434 -31.90737915 142.30439758 C-31.91811211 140.76747757 -31.91811211 140.76747757 -31.92906189 139.19950867 C-31.93175079 138.07586411 -31.9344397 136.95221954 -31.93721008 135.79452515 C-31.94378128 134.61046082 -31.95035248 133.42639648 -31.9571228 132.20645142 C-31.97687481 128.27756394 -31.98852759 124.34868983 -31.99848938 120.41976929 C-32.00253839 119.06444338 -32.00665536 117.70911768 -32.01083946 116.35379219 C-32.02989201 109.98179371 -32.0441196 103.60980677 -32.05245143 97.23778528 C-32.06220685 89.89920306 -32.08848131 82.56092384 -32.12895232 75.22244829 C-32.15920276 69.54074736 -32.17392895 63.8591328 -32.17723244 58.17735296 C-32.17957394 54.78880808 -32.18841474 51.40058681 -32.21369362 48.01212883 C-32.23810068 44.22320517 -32.23711619 40.43506624 -32.23017883 36.64608765 C-32.24298889 35.5366127 -32.25579895 34.42713776 -32.26899719 33.28404236 C-32.20645349 23.87745111 -29.99828985 15.79569991 -23.46333313 8.79867554 C-16.56002851 2.59203468 -9.26300006 -0.0407525 0 0 Z M-7.76020813 25.26742554 C-9.74487814 28.16597314 -10.0147367 30.52973402 -10.03436279 33.99798584 C-10.04433792 34.94561295 -10.05431305 35.89324005 -10.06459045 36.86958313 C-10.06525513 37.90240921 -10.0659198 38.93523529 -10.06660461 39.99935913 C-10.07492813 41.09245895 -10.08325165 42.18555878 -10.09182739 43.31178284 C-10.11594792 46.92984566 -10.12470184 50.5477283 -10.13130188 54.16586304 C-10.14026615 56.67926081 -10.14938795 59.19265803 -10.15866089 61.70605469 C-10.17515867 66.97684469 -10.1828856 72.24759065 -10.18574524 77.5184021 C-10.18938009 83.60340057 -10.21927413 89.68789452 -10.26114982 95.77273881 C-10.30006939 101.63430301 -10.31133864 107.49566752 -10.31247139 113.3573494 C-10.31667982 115.84764976 -10.32913884 118.33795032 -10.34998894 120.82816696 C-10.37683357 124.3114597 -10.37209733 127.79335964 -10.35957336 131.27670288 C-10.37440765 132.3054805 -10.38924194 133.33425812 -10.40452576 134.39421082 C-10.35805499 138.93135392 -10.29108755 142.24341468 -7.4102478 145.8918457 C-3.28723053 149.5878495 -0.16012737 149.39668738 5.20385742 149.41459656 C6.27328474 149.42011159 6.27328474 149.42011159 7.36431664 149.42573804 C9.75942046 149.43677364 12.15448089 149.44061848 14.54960632 149.44442749 C16.26443113 149.45069217 17.97925458 149.45733897 19.69407654 149.46434021 C24.35737145 149.48174783 29.02065611 149.49230106 33.68397546 149.50054574 C36.59686667 149.50569581 39.5097547 149.5117715 42.42264366 149.51805687 C51.53479447 149.53710726 60.64693718 149.5513394 69.75910407 149.55966884 C80.28079317 149.56944536 90.80227213 149.59577635 101.32388717 149.63616973 C109.45476153 149.66631487 117.58557559 149.68113614 125.71650475 149.68444985 C130.57370492 149.68680191 135.43068054 149.69578276 140.28782082 149.72091103 C144.85724796 149.74416915 149.42630235 149.74843413 153.99577332 149.73814964 C155.67194037 149.73765364 157.34812564 149.74399303 159.02423668 149.75770569 C161.31486326 149.77539594 163.60414784 149.76833389 165.89477539 149.75517273 C167.17585835 149.75756108 168.45694132 149.75994944 169.77684498 149.76241016 C173.91565916 149.17081882 176.04304277 147.92886748 179.23979187 145.26742554 C181.23797551 142.38691218 181.49169369 140.06916239 181.50048828 136.60606384 C181.50757309 135.67381989 181.5146579 134.74157593 181.5219574 133.78108215 C181.51947998 132.76538651 181.51700256 131.74969086 181.51445007 130.70321655 C181.519561 129.62801758 181.52467194 128.5528186 181.52993774 127.44503784 C181.54384995 123.88707937 181.54287576 120.32931424 181.54057312 116.77133179 C181.54445906 114.3003787 181.54879352 111.82942628 181.55355835 109.35847473 C181.56102401 104.17763097 181.56072668 98.99685536 181.5554657 93.81600952 C181.54966975 87.17344552 181.56660372 80.53116022 181.58981037 73.88864231 C181.60453429 68.78516506 181.60542124 63.68175515 181.60230064 58.57826042 C181.6028145 56.12902207 181.60806423 53.67978001 181.61811256 51.23056221 C181.63043371 47.80719963 181.62371086 44.38438274 181.61210632 40.96102905 C181.61975006 39.94735764 181.6273938 38.93368622 181.63526917 37.88929749 C181.61077948 31.06581982 181.61077948 31.06581982 178.23979187 25.26742554 C174.70679932 21.85701866 171.88360629 21.89067619 167.07281494 21.88647461 C165.98879698 21.87945465 165.98879698 21.87945465 164.88287967 21.87229288 C162.46072961 21.86032461 160.03914343 21.86980702 157.61698914 21.87924194 C155.88068817 21.87517701 154.14438978 21.86983557 152.40809631 21.86331177 C147.69114137 21.84962201 142.97438303 21.85494393 138.25742459 21.86444902 C133.32298832 21.87203823 128.38856901 21.86500195 123.45413208 21.86029053 C115.16610183 21.85483031 106.87815175 21.86203104 98.59013367 21.87631226 C89.0072962 21.89263389 79.42465025 21.88735486 69.84181744 21.87083304 C61.61665697 21.85721934 53.39155416 21.85529811 45.16638607 21.86314905 C40.25284526 21.86782689 35.33939448 21.86844745 30.42585945 21.85853958 C25.80555254 21.84987409 21.18549249 21.85588421 16.56521225 21.87322235 C14.86929039 21.87718965 13.17334776 21.87604897 11.47743416 21.86943436 C9.16259298 21.86123812 6.84854318 21.87151662 4.53375244 21.88647461 C3.23829782 21.88760569 1.94284319 21.88873676 0.60813236 21.88990211 C-3.04626095 22.29948632 -4.89698262 22.98887209 -7.76020813 25.26742554 Z " stroke="#7c7c7c" stroke-width="8" fill="#7c7c7c" transform="translate(31.760208129882813,-0.267425537109375)"/>
</svg>
