<?xml version="1.0" encoding="UTF-8"?>
<svg version="1.1" xmlns="http://www.w3.org/2000/svg" width="512" height="512">
<path d="M0 0 C1.31397803 -0.00226556 2.62795607 -0.00453111 3.98175162 -0.00686532 C7.61375319 -0.01296108 11.24573166 -0.01285236 14.87773716 -0.01167095 C18.80081924 -0.01146638 22.72389401 -0.01699103 26.64697266 -0.02172852 C34.32715171 -0.03002326 42.00732308 -0.03278282 49.68750624 -0.03334089 C55.93197841 -0.03381658 62.17644805 -0.03587397 68.42091942 -0.03904152 C86.13661737 -0.04784465 103.85230926 -0.05246139 121.56800941 -0.05171105 C122.52240881 -0.05167109 123.4768082 -0.05163113 124.46012878 -0.05158997 C125.41569731 -0.05154909 126.37126584 -0.0515082 127.355791 -0.05146609 C142.84165902 -0.05105964 158.32750272 -0.06062961 173.81336371 -0.07472833 C189.72537644 -0.08910041 205.63737731 -0.09599807 221.54939669 -0.09513456 C230.47828269 -0.09480289 239.40714319 -0.09753676 248.33602333 -0.10831261 C255.93798761 -0.11742851 263.53991483 -0.11958388 271.14188222 -0.11280318 C275.01766149 -0.10954357 278.89336969 -0.10946107 282.76914215 -0.11815643 C286.97757729 -0.12750075 291.18584867 -0.12123089 295.39428711 -0.11352539 C296.60967425 -0.11866895 297.82506138 -0.12381252 299.07727844 -0.12911195 C313.87797187 -0.06933319 325.82664292 2.50838373 336.84855652 12.90715027 C348.07956175 25.17089161 348.33417261 39.46601093 348.29167175 55.16838074 C348.29738249 57.07992449 348.30434947 58.99146484 348.31246948 60.90299988 C348.33033875 66.0683955 348.32924419 71.23362065 348.3235271 76.39903784 C348.32042603 80.72284789 348.32653793 85.04662563 348.33256584 89.37043107 C348.34658918 99.57687158 348.3450682 109.78322835 348.33366394 119.9896698 C348.32218641 130.49331348 348.33625736 140.99670171 348.36306041 151.50031173 C348.38526459 160.54271829 348.39184413 169.58504494 348.385984 178.62747681 C348.38262433 184.01739315 348.38496344 189.40714581 348.40223503 194.79703903 C348.41777728 199.86810872 348.41366824 204.93880196 348.39492989 210.00985718 C348.39126401 211.86207129 348.39429348 213.71431376 348.40481567 215.56650162 C348.48836587 231.50019317 346.55609231 244.78114938 335.23136902 256.90715027 C323.94037846 267.39924998 310.14613701 268.44184825 295.41447449 268.38768005 C294.09793318 268.39080003 292.78139187 268.39392002 291.42495537 268.39713454 C287.79970289 268.40542779 284.1745567 268.40138238 280.54930401 268.39516211 C276.62831618 268.39061605 272.70734596 268.39763201 268.78636169 268.40312195 C261.11660892 268.4119947 253.44689538 268.4101034 245.77714109 268.40429667 C239.54131976 268.39977183 233.30550939 268.39917083 227.06968689 268.4013443 C226.18068691 268.40165077 225.29168693 268.40195723 224.37574756 268.40227298 C222.56951348 268.40291246 220.7632794 268.40356089 218.95704532 268.40421817 C202.03744499 268.40991526 185.11786637 268.40337332 168.19826961 268.39261743 C153.69431792 268.38368249 139.19039825 268.38523471 124.68644714 268.39445496 C107.82556952 268.40516857 90.96471089 268.40936599 74.10383034 268.40323043 C72.30440394 268.40259336 70.50497755 268.40196462 68.70555115 268.4013443 C67.82030034 268.40103575 66.93504953 268.4007272 66.02297294 268.4004093 C59.79781694 268.39868563 53.57267304 268.40159037 47.34751892 268.40630341 C39.75660267 268.41192436 32.16572777 268.41037028 24.57481623 268.39974192 C20.70509473 268.39450154 16.83544205 268.39240048 12.96572113 268.39904022 C8.76400922 268.40614033 4.56246966 268.39763739 0.36076355 268.38768005 C-0.85257723 268.3921415 -2.06591801 268.39660294 -3.31602669 268.40119958 C-17.59053116 268.3357083 -30.17481361 266.00489502 -40.98738098 256.00871277 C-50.2728581 246.06481091 -52.34443929 235.79172714 -52.46247864 222.71647644 C-52.4790603 221.37124864 -52.50638063 220.02610975 -52.54450989 218.68132019 C-52.59944223 216.72978884 -52.61804406 214.77734242 -52.63581848 212.82511902 C-52.65563782 211.66182068 -52.67545715 210.49852234 -52.69587708 209.29997253 C-51.94001456 205.19839055 -50.27653016 203.75103451 -47.11238098 201.13371277 C-44.72888611 199.94196533 -43.44314977 200.02295649 -40.79988098 200.19621277 C-39.66099426 200.24455261 -39.66099426 200.24455261 -38.49909973 200.29386902 C-34.80831764 201.59258939 -32.79284249 203.69783864 -31.11238098 207.13371277 C-30.38252215 211.09335212 -30.32215347 214.98976654 -30.29988098 219.00871277 C-30.27474426 220.07863464 -30.24960754 221.14855652 -30.22370911 222.25090027 C-30.16504897 224.87887442 -30.12861428 227.50519102 -30.11238098 230.13371277 C-25.24667312 226.58991574 -20.67683415 222.95330143 -16.29988098 218.82121277 C-11.60968107 214.44140471 -6.76102467 210.33935425 -1.76081848 206.31340027 C0.86037021 204.15613878 3.37916183 201.92060276 5.88761902 199.63371277 C10.18753692 195.71480025 14.64681449 192.04200408 19.16886902 188.38371277 C21.80909631 186.19869708 24.35491622 183.94199886 26.88761902 181.63371277 C31.18753692 177.71480025 35.64681449 174.04200408 40.16886902 170.38371277 C42.80909631 168.19869708 45.35491622 165.94199886 47.88761902 163.63371277 C51.30501274 160.51912609 54.79284252 157.54184657 58.38761902 154.63371277 C63.72547813 150.31366578 68.80561322 145.74900375 73.88761902 141.13371277 C80.55428569 135.13371277 80.55428569 135.13371277 82.88761902 135.13371277 C82.88761902 134.47371277 82.88761902 133.81371277 82.88761902 133.13371277 C82.32172058 132.88750183 81.75582214 132.64129089 81.17277527 132.38761902 C78.49513644 130.91835053 76.5571829 129.15618842 74.32511902 127.07121277 C70.76464974 123.80352804 67.14828982 120.66892084 63.38761902 117.63371277 C58.92485688 114.02338834 54.66042369 110.24943348 50.41886902 106.38371277 C47.79917092 104.05509224 45.11246592 101.8380833 42.38761902 99.63371277 C37.92485688 96.02338834 33.66042369 92.24943348 29.41886902 88.38371277 C26.79917092 86.05509224 24.11246592 83.8380833 21.38761902 81.63371277 C16.92485688 78.02338834 12.66042369 74.24943348 8.41886902 70.38371277 C5.79917092 68.05509224 3.11246592 65.8380833 0.38761902 63.63371277 C-3.20715748 60.72557897 -6.69498726 57.74829945 -10.11238098 54.63371277 C-16.51093463 48.8075537 -23.17699483 43.30912781 -30.11238098 38.13371277 C-30.11854431 39.13168884 -30.11854431 39.13168884 -30.12483215 40.14982605 C-30.15788518 43.18700254 -30.22854132 46.22220414 -30.29988098 49.25871277 C-30.30568176 50.30543152 -30.31148254 51.35215027 -30.31745911 52.43058777 C-30.56624407 61.16570415 -30.56624407 61.16570415 -33.38581848 64.80558777 C-36.78150594 67.70505729 -38.57318623 68.15641304 -42.88972473 68.37980652 C-46.4005679 67.99108399 -48.50429592 66.4157872 -51.11238098 64.13371277 C-53.40406818 59.55033837 -52.38795022 53.22618296 -52.42488098 48.19621277 C-52.45388489 46.91424011 -52.48288879 45.63226746 -52.51277161 44.31144714 C-52.60106589 30.99259348 -49.20621229 21.69294454 -40.14753723 12.03996277 C-28.53961904 0.78888835 -15.33177104 -0.01942821 0 0 Z M-13.11238098 22.13371277 C-10.03241449 25.98367089 -7.74249467 28.42779238 -3.98738098 31.38371277 C-0.25933401 34.37010583 3.36129426 37.41157577 6.88761902 40.63371277 C10.30501274 43.74829945 13.79284252 46.72557897 17.38761902 49.63371277 C21.85038115 53.24403719 26.11481435 57.01799206 30.35636902 60.88371277 C32.97606712 63.2123333 35.66277212 65.42934224 38.38761902 67.63371277 C42.85038115 71.24403719 47.11481435 75.01799206 51.35636902 78.88371277 C53.97606712 81.2123333 56.66277212 83.42934224 59.38761902 85.63371277 C63.85038115 89.24403719 68.11481435 93.01799206 72.35636902 96.88371277 C74.97606712 99.2123333 77.66277212 101.42934224 80.38761902 103.63371277 C83.98239552 106.54184657 87.4702253 109.51912609 90.88761902 112.63371277 C94.20751388 115.65653698 97.58526014 118.55883438 101.07511902 121.38371277 C105.52614742 124.98841887 109.87949476 128.68753541 114.20011902 132.44621277 C114.83143738 132.99511169 115.46275574 133.54401062 116.11320496 134.10954285 C117.3972253 135.22645795 118.68107895 136.34356473 119.96476746 137.46086121 C124.75554852 141.62876774 129.55324599 145.78689145 134.40715027 149.88127136 C135.71038091 150.98377354 137.00299333 152.09880126 138.29386902 153.21574402 C141.51168125 155.85806291 143.33708763 157.03879356 147.51261902 157.75871277 C154.59613762 156.44695007 159.02656507 151.28079517 164.18058777 146.55949402 C166.85452715 144.16336652 169.59465803 141.88941393 172.38761902 139.63371277 C175.98239552 136.72557897 179.4702253 133.74829945 182.88761902 130.63371277 C187.18753692 126.71480025 191.64681449 123.04200408 196.16886902 119.38371277 C198.80909631 117.19869708 201.35491622 114.94199886 203.88761902 112.63371277 C208.18753692 108.71480025 212.64681449 105.04200408 217.16886902 101.38371277 C219.80909631 99.19869708 222.35491622 96.94199886 224.88761902 94.63371277 C228.20751388 91.61088856 231.58526014 88.70859115 235.07511902 85.88371277 C241.51473895 80.66852761 247.74217305 75.22039525 253.99113464 69.78019714 C256.9661709 67.19733868 259.95705962 64.63314362 262.95011902 62.07121277 C263.52351013 61.58032166 264.09690125 61.08943054 264.68766785 60.58366394 C265.8429242 59.59486073 266.99827877 58.60617228 268.1537323 57.61759949 C270.48232062 55.62475806 272.80932164 53.63006859 275.13615417 51.63517761 C276.30100958 50.63659094 277.4660478 49.63821749 278.63127136 48.64006042 C281.58850424 46.10658999 284.5430896 43.57013652 287.49308777 41.02824402 C288.68691373 40.00068593 289.88092221 38.97333984 291.07511902 37.94621277 C291.93774353 37.20407532 291.93774353 37.20407532 292.8177948 36.44694519 C297.463637 32.46470022 302.19453211 28.6000863 306.97355652 24.77824402 C307.60519714 24.23554871 308.23683777 23.69285339 308.88761902 23.13371277 C308.88761902 22.80371277 308.88761902 22.47371277 308.88761902 22.13371277 C202.62761902 22.13371277 96.36761902 22.13371277 -13.11238098 22.13371277 Z M318.70011902 42.38371277 C317.41501837 43.49315218 316.12986057 44.60252538 314.84465027 45.71183777 C314.18545593 46.28224792 313.5262616 46.85265808 312.84709167 47.44035339 C309.8686904 50.0142621 306.87802808 52.57377671 303.88761902 55.13371277 C302.72088329 56.13363219 301.55421688 57.1336325 300.38761902 58.13371277 C256.63761902 95.63371277 256.63761902 95.63371277 212.88761902 133.13371277 C214.18026029 136.03245694 215.4524947 137.89973803 217.87199402 139.94621277 C218.47019958 140.45805115 219.06840515 140.96988953 219.68473816 141.49723816 C220.32918884 142.03727478 220.97363953 142.5773114 221.63761902 143.13371277 C222.30720642 143.70404236 222.97679382 144.27437195 223.66667175 144.86198425 C225.05758057 146.04617835 226.45075454 147.22771675 227.84611511 148.40666199 C230.3196421 150.49919128 232.77751919 152.60946506 235.23429871 154.72160339 C236.96185564 156.20629945 238.69190093 157.68804229 240.42277527 159.16886902 C243.9129408 162.15495423 247.40047134 165.14410434 250.88761902 168.13371277 C252.0542742 169.13372617 253.22094086 170.13372617 254.38761902 171.13371277 C289.38761902 201.13371277 289.38761902 201.13371277 291.13835144 202.63444519 C292.30243879 203.63216472 293.46666357 204.62972391 294.63102722 205.62712097 C297.58831789 208.1607002 300.5430027 210.69721414 303.49308777 213.23918152 C314.15042339 224.19250003 314.15042339 224.19250003 325.88761902 231.13371277 C325.88761902 167.11371277 325.88761902 103.09371277 325.88761902 37.13371277 C323.45616109 37.13371277 320.55295693 40.77357887 318.70011902 42.38371277 Z M194.88761902 148.13371277 C194.29336121 148.67898621 193.69910339 149.22425964 193.08683777 149.78605652 C187.70680694 154.68079685 182.21461796 159.37160884 176.54777527 163.93058777 C174.0258817 166.01920447 171.64875752 168.20531748 169.26261902 170.44621277 C162.77453746 176.24161658 155.63562722 179.23409975 146.88761902 179.13371277 C134.93638889 178.31964347 128.02676948 172.38430194 119.51261902 164.50871277 C115.90633484 161.24588422 112.12901361 158.21465392 108.33293152 155.17668152 C105.88761902 153.13371277 105.88761902 153.13371277 103.87980652 150.80949402 C102.01534229 148.88760761 102.01534229 148.88760761 99.48918152 149.07121277 C96.09926856 150.45568173 93.82721863 152.60300281 91.26261902 155.13371277 C90.20243404 156.14396031 89.13988648 157.15173367 88.07511902 158.15715027 C87.2765448 158.91270203 87.2765448 158.91270203 86.46183777 159.68351746 C84.14700906 161.81597442 81.71490416 163.78713125 79.26261902 165.75871277 C75.70577766 168.62253059 72.2622285 171.55717605 68.88761902 174.63371277 C64.58770111 178.55262529 60.12842355 182.22542146 55.60636902 185.88371277 C52.96614172 188.06872846 50.42032182 190.32542668 47.88761902 192.63371277 C43.58770111 196.55262529 39.12842355 200.22542146 34.60636902 203.88371277 C31.96614172 206.06872846 29.42032182 208.32542668 26.88761902 210.63371277 C22.58770111 214.55262529 18.12842355 218.22542146 13.60636902 221.88371277 C10.11842761 224.77028497 6.7880992 227.81103407 3.44621277 230.86418152 C-0.17927529 234.08007246 -3.96251091 237.08726864 -7.76472473 240.09074402 C-10.42980549 242.26581377 -10.42980549 242.26581377 -13.11238098 246.13371277 C93.14761902 246.13371277 199.40761902 246.13371277 308.88761902 246.13371277 C301.492603 238.73869675 293.73347409 231.95844946 285.60636902 225.38371277 C282.10853751 222.48895566 278.76976498 219.43781738 275.41496277 216.37980652 C272.81799509 214.07183679 270.15357889 211.87815414 267.45011902 209.69621277 C262.67765699 205.83662674 258.15652793 201.76171286 253.64152527 197.60636902 C250.05554618 194.38661758 246.3206041 191.37466101 242.57121277 188.34855652 C239.94053345 186.1773845 237.40819477 183.9312992 234.88761902 181.63371277 C231.4702253 178.51912609 227.98239552 175.54184657 224.38761902 172.63371277 C220.79284252 169.72557897 217.30501274 166.74829945 213.88761902 163.63371277 C207.85627422 158.14277647 201.68258163 152.66368784 194.88761902 148.13371277 Z " fill="#7c7c7c" stroke="#7c7c7c" stroke-width="4" transform="translate(139.1123809814453,121.86628723144531)"/>
<path d="M0 0 C0.96659546 -0.0087616 1.93319092 -0.01752319 2.92907715 -0.02655029 C6.11463711 -0.0485029 9.29880166 -0.03400561 12.484375 -0.01708984 C14.70345322 -0.02045915 16.92252965 -0.02531272 19.14160156 -0.03158569 C23.78859048 -0.03895145 28.43509832 -0.02826056 33.08203125 -0.00488281 C39.03418268 0.02360417 44.98520681 0.00719869 50.93731689 -0.02274513 C55.5184781 -0.04082576 60.09937269 -0.03505642 64.68054199 -0.02210617 C66.87496067 -0.01877431 69.06940367 -0.02285147 71.26379395 -0.03450394 C74.33276341 -0.04722469 77.39991566 -0.02781711 80.46875 0 C81.82486389 -0.01518173 81.82486389 -0.01518173 83.20837402 -0.03067017 C87.51820196 0.0415835 90.363766 0.30258529 93.7878418 3.0585022 C96.73751972 6.17930765 97.18950203 7.6107209 97.40625 11.72119141 C97.07101836 15.47730951 95.21429284 17.60212294 92.72398376 20.25744629 C88.82128778 22.43565961 84.9858435 22.08086992 80.58813477 22.06689453 C79.6104715 22.07536407 78.63280823 22.08383362 77.6255188 22.09255981 C74.39214081 22.1159684 71.15923759 22.11695105 67.92578125 22.11572266 C65.67902943 22.12282177 63.43227942 22.13052039 61.18553162 22.13879395 C56.47544312 22.15224756 51.76552227 22.15380346 47.05541992 22.14794922 C41.01798603 22.1420517 34.98135588 22.17264354 28.94407749 22.2130661 C24.30380414 22.23890843 19.66372521 22.24182365 15.02338982 22.23817444 C12.79742347 22.23986886 10.57144845 22.24954214 8.34555244 22.26731873 C5.23315673 22.28943972 2.1223996 22.2798407 -0.98999023 22.26220703 C-1.91015427 22.27547028 -2.8303183 22.28873352 -3.77836609 22.30239868 C-8.30207637 22.24280996 -10.15897826 22.12724946 -13.81410217 19.23352051 C-16.32344522 15.90763788 -16.97148829 14.42873318 -16.703125 10.33447266 C-16.65478516 9.19558594 -16.65478516 9.19558594 -16.60546875 8.03369141 C-13.86345992 0.24128493 -7.10511756 -0.07954199 0 0 Z " fill="#7c7c7c" stroke="#7c7c7c" stroke-width="4" transform="translate(41.765625,270.35302734375)"/>
<path d="M0 0 C0.67340424 -0.00817749 1.34680847 -0.01635498 2.0406189 -0.02478027 C4.2734895 -0.0496305 6.50629645 -0.06615093 8.73925781 -0.08056641 C9.88369228 -0.08855192 9.88369228 -0.08855192 11.05124664 -0.09669876 C15.09112036 -0.12343126 19.13096318 -0.14280407 23.17089844 -0.15722656 C27.33850292 -0.17385723 31.50531395 -0.21862026 35.67261887 -0.26959801 C38.88117348 -0.30330203 42.08954069 -0.31480745 45.29825592 -0.32045364 C46.83403829 -0.3271596 48.36980861 -0.34236485 49.9054184 -0.36634445 C52.0599926 -0.3980645 54.21243988 -0.39802404 56.3671875 -0.390625 C58.2034671 -0.40275528 58.2034671 -0.40275528 60.07684326 -0.41513062 C64.57688581 0.39782479 66.21809848 1.99602091 69.44238281 5.19287109 C70.62394075 7.87039294 70.70164151 10.28799528 70.44238281 13.19287109 C68.85659783 16.94867762 66.91465253 19.10358609 63.44238281 21.19287109 C60.37550354 21.57382202 60.37550354 21.57382202 56.73364258 21.58105469 C55.73531906 21.58894012 55.73531906 21.58894012 54.71682739 21.59698486 C52.52224074 21.61016139 50.32838278 21.60145475 48.13378906 21.59130859 C46.60448569 21.59333026 45.07518326 21.59624247 43.54588318 21.6000061 C40.34226291 21.60442645 37.13889378 21.5980088 33.93530273 21.58398438 C29.83507786 21.56690688 25.73544276 21.57672599 21.6352396 21.59470177 C18.47730595 21.60555991 15.31951132 21.60208375 12.16157341 21.59431839 C10.65014513 21.59232123 9.13870412 21.59475862 7.62729073 21.60175705 C5.51136143 21.60940368 3.39637679 21.59772329 1.28051758 21.58105469 C0.07790787 21.57866791 -1.12470184 21.57628113 -2.36375427 21.57382202 C-5.86204354 21.15656036 -7.73823835 20.26189707 -10.55761719 18.19287109 C-12.89874728 15.18284669 -12.96978326 11.91545567 -12.88574219 8.16162109 C-12.36708951 5.04970505 -10.77206944 3.3421924 -8.55761719 1.19287109 C-5.68960292 -0.24113604 -3.20560845 0.03376356 0 0 Z " fill="#7c7c7c" stroke="#7c7c7c" stroke-width="4" transform="translate(68.5576171875,219.80712890625)"/>
</svg>
