<svg width="30" height="30" viewBox="0 0 30 30" fill="none" xmlns="http://www.w3.org/2000/svg">
<path opacity="0.981" fill-rule="evenodd" clip-rule="evenodd" d="M4.07031 6.1814C9.6758 6.17162 15.2813 6.1814 20.8867 6.2107C22.1055 6.53273 22.623 7.32375 22.4395 8.58375C22.2106 9.30076 21.7322 9.75978 21.0039 9.9607C15.3203 9.99978 9.63672 9.99978 3.95312 9.9607C3.01689 9.69246 2.50908 9.06744 2.42969 8.0857C2.53006 7.05808 3.07693 6.42334 4.07031 6.1814Z" fill="#59A404"/>
<path opacity="0.962" fill-rule="evenodd" clip-rule="evenodd" d="M25.3431 6.18136C26.5076 6.14527 27.2205 6.69213 27.4817 7.82199C27.49 9.33722 26.738 10.0501 25.2259 9.96066C24.0975 9.63213 23.5995 8.88013 23.7317 7.7048C23.9393 6.84277 24.4765 6.33494 25.3431 6.18136Z" fill="#59A404"/>
<path opacity="0.981" fill-rule="evenodd" clip-rule="evenodd" d="M4.07031 13.6814C9.6758 13.6716 15.2813 13.6814 20.8867 13.7107C22.1055 14.0327 22.623 14.8237 22.4395 16.0837C22.2106 16.8008 21.7322 17.2598 21.0039 17.4607C15.3203 17.4998 9.63672 17.4998 3.95312 17.4607C3.01689 17.1925 2.50908 16.5674 2.42969 15.5857C2.53006 14.5581 3.07693 13.9233 4.07031 13.6814Z" fill="#59A404"/>
<path opacity="0.979" fill-rule="evenodd" clip-rule="evenodd" d="M4.07031 21.1814C7.17584 21.1716 10.2813 21.1814 13.3867 21.2107C14.6055 21.5327 15.123 22.3237 14.9395 23.5837C14.7106 24.3008 14.2322 24.7598 13.5039 24.9607C10.3203 24.9998 7.1367 24.9998 3.95312 24.9607C3.01689 24.6925 2.50908 24.0674 2.42969 23.0857C2.53006 22.0581 3.07693 21.4233 4.07031 21.1814Z" fill="#59A404"/>
</svg>
