<svg width="40" height="40" viewBox="0 0 40 40" fill="none" xmlns="http://www.w3.org/2000/svg">
<path opacity="0.993" fill-rule="evenodd" clip-rule="evenodd" d="M19.2188 0C19.7396 0 20.2604 0 20.7812 0C21.3637 0.187042 21.9105 0.46048 22.4219 0.820312C28.0078 6.40625 33.5938 11.9922 39.1797 17.5781C39.5395 18.0895 39.813 18.6363 40 19.2188C40 19.7396 40 20.2604 40 20.7812C39.3572 22.8273 37.9509 23.8169 35.7812 23.75C35.8173 28.0227 35.7782 32.2935 35.6641 36.5625C35.1853 38.4085 34.0264 39.5544 32.1875 40C29.6615 40 27.1354 40 24.6094 40C24.2746 39.8342 24.0272 39.5738 23.8672 39.2188C23.8652 35.7523 23.813 32.2887 23.7109 28.8281C23.5207 28.2473 23.1431 27.8437 22.5781 27.6172C21.723 27.5297 20.8637 27.4906 20 27.5C19.1363 27.4906 18.277 27.5297 17.4219 27.6172C16.767 27.9237 16.3634 28.4316 16.2109 29.1406C16.1849 32.5 16.1588 35.8594 16.1328 39.2188C15.9748 39.5719 15.7274 39.8323 15.3906 40C12.8385 40 10.2865 40 7.73438 40C5.97313 39.5279 4.84032 38.4081 4.33594 36.6406C4.22177 32.3455 4.1827 28.0487 4.21875 23.75C2.04724 23.8145 0.640994 22.8249 0 20.7812C0 20.2604 0 19.7396 0 19.2188C0.160817 18.6214 0.434255 18.0745 0.820312 17.5781C6.40625 11.9922 11.9922 6.40625 17.5781 0.820312C18.0895 0.46048 18.6363 0.187042 19.2188 0Z" fill="none" stroke="#7c7c7c" stroke-width="3"/>
</svg>
