<svg width="20" height="20" viewBox="0 0 20 20" fill="none" xmlns="http://www.w3.org/2000/svg">
<g clip-path="url(#clip0_926_10910)">
<path d="M1.46348 -0.00548393C1.49829 -0.00565807 1.5331 -0.0058322 1.56896 -0.00601161C1.60704 -0.00600441 1.64512 -0.00599721 1.68436 -0.00598979C1.72494 -0.00613341 1.76553 -0.00627703 1.80734 -0.006425C1.94377 -0.00685632 2.08021 -0.00700632 2.21664 -0.00715506C2.3143 -0.00739977 2.41195 -0.00765941 2.50961 -0.0079329C2.80305 -0.00868417 3.09648 -0.00909816 3.38992 -0.00944571C3.52827 -0.00961706 3.66662 -0.00982667 3.80496 -0.0100312C4.26518 -0.0106958 4.7254 -0.0112619 5.18562 -0.0115448C5.30502 -0.0116194 5.42442 -0.0116944 5.54382 -0.0117708C5.57349 -0.0117897 5.60317 -0.0118086 5.63374 -0.0118281C6.11381 -0.0121519 6.59387 -0.0131409 7.07393 -0.0144107C7.56735 -0.0157051 8.06076 -0.0164064 8.55418 -0.0165309C8.83099 -0.0166153 9.1078 -0.0169537 9.38461 -0.0179552C9.64527 -0.0188961 9.90593 -0.0190291 10.1666 -0.0186286C10.262 -0.0186093 10.3574 -0.0188548 10.4528 -0.0193925C11.3009 -0.0239039 11.9642 0.0788808 12.6055 0.688388C13.2319 1.33065 13.3793 2.04327 13.3755 2.90961C13.3756 2.97376 13.3757 3.03792 13.3758 3.10207C13.376 3.23542 13.3758 3.36876 13.3752 3.50211C13.3745 3.67232 13.3749 3.84251 13.3756 4.01273C13.376 4.14477 13.3759 4.2768 13.3756 4.40884C13.3755 4.4716 13.3756 4.53436 13.3759 4.59712C13.3783 5.30727 13.3783 5.30727 13.1524 5.57593C12.9101 5.77875 12.7455 5.8724 12.4284 5.86768C12.1997 5.84444 11.9986 5.74783 11.8365 5.5857C11.6733 5.34967 11.6364 5.16436 11.6356 4.88147C11.6354 4.84046 11.6354 4.84046 11.6352 4.79864C11.6349 4.73941 11.6347 4.68017 11.6346 4.62094C11.6343 4.52698 11.6337 4.43303 11.633 4.33908C11.6309 4.07197 11.629 3.80487 11.6284 3.53776C11.628 3.3742 11.6269 3.21067 11.6253 3.04712C11.6248 2.98502 11.6246 2.92291 11.6247 2.86081C11.6325 2.36026 11.6325 2.36026 11.3921 1.93331C11.1567 1.71747 10.908 1.70716 10.6063 1.70964C10.5697 1.70963 10.533 1.70962 10.4953 1.70961C10.3749 1.70966 10.2544 1.71027 10.1339 1.71088C10.0502 1.71103 9.96643 1.71114 9.88269 1.71121C9.66268 1.71151 9.44267 1.71228 9.22266 1.71314C8.998 1.71394 8.77334 1.7143 8.54868 1.71469C8.10815 1.71553 7.66763 1.71686 7.22711 1.71851C7.25397 1.73165 7.28083 1.7448 7.30851 1.75834C7.34372 1.77573 7.37893 1.79311 7.41521 1.81103C7.45013 1.8282 7.48505 1.84537 7.52102 1.86307C7.87861 2.05073 8.1491 2.3787 8.27765 2.75941C8.35821 3.06437 8.37625 3.3486 8.37402 3.66309C8.37407 3.71586 8.37417 3.76863 8.37432 3.8214C8.37458 3.96509 8.37412 4.10877 8.37353 4.25246C8.37302 4.40791 8.37319 4.56335 8.37328 4.7188C8.37334 4.98768 8.37298 5.25656 8.37231 5.52544C8.37136 5.91419 8.37106 6.30294 8.37091 6.69169C8.37065 7.32251 8.36987 7.95333 8.36876 8.58414C8.36769 9.19669 8.36686 9.80925 8.36636 10.4218C8.36631 10.4785 8.36631 10.4785 8.36627 10.5363C8.36611 10.726 8.36597 10.9156 8.36582 11.1052C8.36461 12.6768 8.36255 14.2485 8.35992 15.8201C8.6951 15.8186 9.03026 15.8163 9.36543 15.8129C9.52109 15.8113 9.67674 15.8101 9.83241 15.8095C9.98287 15.8089 10.1333 15.8075 10.2837 15.8057C10.3409 15.8051 10.3981 15.8048 10.4552 15.8048C10.8094 15.8044 11.1419 15.801 11.4129 15.5453C11.4302 15.5191 11.4475 15.493 11.4654 15.4661C11.4835 15.4398 11.5016 15.4136 11.5203 15.3866C11.6196 15.2139 11.6078 15.0438 11.6077 14.8509C11.6078 14.8157 11.6079 14.7805 11.6081 14.7442C11.6084 14.6677 11.6086 14.5911 11.6087 14.5146C11.609 14.3932 11.6096 14.2719 11.6103 14.1505C11.6124 13.8053 11.6142 13.4602 11.6148 13.115C11.6152 12.9039 11.6164 12.6928 11.618 12.4817C11.6185 12.4014 11.6187 12.3212 11.6186 12.2409C11.6179 11.3284 11.6179 11.3284 11.8658 11.058C12.0923 10.8444 12.312 10.8019 12.6174 10.8079C12.8508 10.8321 12.9918 10.9219 13.1573 11.0837C13.3359 11.3491 13.3774 11.581 13.3757 11.893C13.3761 11.9464 13.3761 11.9464 13.3765 12.0009C13.3772 12.118 13.3771 12.235 13.3769 12.3521C13.377 12.4342 13.3772 12.5163 13.3775 12.5984C13.3778 12.7705 13.3777 12.9426 13.3773 13.1146C13.3769 13.3335 13.3777 13.5524 13.3788 13.7712C13.3796 13.941 13.3795 14.1107 13.3793 14.2804C13.3793 14.361 13.3795 14.4416 13.38 14.5222C13.3844 15.3589 13.2633 16.1288 12.6614 16.758C12.1711 17.2499 11.5796 17.511 10.8844 17.5134C10.7919 17.513 10.6993 17.5121 10.6068 17.5112C10.5417 17.511 10.4766 17.5108 10.4116 17.5107C10.2417 17.5103 10.0719 17.5091 9.90202 17.5078C9.72813 17.5066 9.55424 17.5061 9.38036 17.5055C9.04021 17.5042 8.70007 17.5022 8.35992 17.4998C8.36084 17.5443 8.36084 17.5443 8.36178 17.5898C8.36425 17.7266 8.36575 17.8634 8.36725 18.0002C8.36823 18.047 8.36921 18.0937 8.37022 18.1418C8.37457 18.6734 8.24821 19.142 7.88553 19.5429C7.47656 19.9166 7.02869 20.0348 6.49018 20.0183C6.14972 19.9951 5.83739 19.8778 5.51828 19.7643C5.44557 19.7394 5.37282 19.7147 5.30003 19.69C5.14734 19.6381 4.99487 19.5857 4.84252 19.5329C4.61268 19.4535 4.38198 19.3768 4.15092 19.301C4.11296 19.2886 4.075 19.2761 4.03589 19.2633C3.95913 19.2381 3.88238 19.213 3.80562 19.1878C3.57598 19.1123 3.34664 19.036 3.11725 18.9598C2.92274 18.8951 2.72818 18.8306 2.53354 18.7664C2.33978 18.7024 2.14612 18.6382 1.95253 18.5738C1.88017 18.5497 1.80777 18.5258 1.73534 18.502C1.05181 18.277 0.506312 18.0789 0.133758 17.4227C0.0300588 17.2001 -0.00921718 16.9975 -0.00950087 16.7527C-0.00963783 16.7259 -0.00977476 16.6992 -0.00991587 16.6716C-0.0102784 16.5822 -0.0100878 16.4928 -0.00989769 16.4034C-0.0100437 16.3385 -0.0102234 16.2737 -0.010434 16.2088C-0.0109116 16.0308 -0.0109015 15.8527 -0.0108093 15.6747C-0.0107934 15.4826 -0.0112248 15.2905 -0.0115952 15.0984C-0.0122441 14.7221 -0.0124589 14.3458 -0.0125024 13.9695C-0.0125395 13.6637 -0.0127001 13.3578 -0.0129478 13.0519C-0.0136358 12.1846 -0.0139961 11.3172 -0.0139375 10.4499C-0.0139344 10.4031 -0.0139314 10.3564 -0.0139282 10.3082C-0.013925 10.2614 -0.0139218 10.2146 -0.0139185 10.1663C-0.0138867 9.40772 -0.0146343 8.64909 -0.0157358 7.89047C-0.0168581 7.11141 -0.0173974 6.33235 -0.0173299 5.5533C-0.017304 5.11596 -0.0175185 4.67862 -0.0183595 4.24128C-0.0190709 3.86892 -0.0192407 3.49656 -0.0187104 3.12419C-0.0184554 2.93427 -0.0184505 2.74435 -0.0191285 2.55442C-0.0197433 2.3804 -0.0196309 2.20639 -0.0189501 2.03236C-0.0188303 1.96957 -0.0189718 1.90677 -0.0194079 1.84397C-0.0227034 1.33561 0.0488697 0.936181 0.391174 0.546634C0.410761 0.522968 0.430349 0.499301 0.45053 0.474918C0.703146 0.193415 1.08185 -0.00459581 1.46348 -0.00548393Z" stroke="#7c7c7c" stroke-width="1"/>
<path d="M16.3664 4.29782C16.4978 4.39795 16.6118 4.51192 16.7274 4.62973C16.7611 4.66316 16.7948 4.69659 16.8295 4.73104C16.9211 4.82206 17.0121 4.91358 17.1028 5.00539C17.1984 5.10181 17.2945 5.19761 17.3905 5.29351C17.5516 5.45453 17.7123 5.61601 17.8726 5.77779C18.0575 5.96432 18.243 6.15015 18.429 6.33561C18.6085 6.51473 18.7877 6.6943 18.9666 6.87409C19.0424 6.95029 19.1184 7.02634 19.1945 7.10227C19.3009 7.20847 19.4066 7.31532 19.5122 7.42225C19.5592 7.46896 19.5592 7.46896 19.6072 7.51661C19.8128 7.72615 19.975 7.92059 20.0185 8.22024C20.0178 8.26163 20.017 8.30302 20.0163 8.34567C20.0162 8.40806 20.0162 8.40806 20.0161 8.47171C19.9391 9.03114 19.207 9.54949 18.8293 9.9274C18.7611 9.99565 18.693 10.0639 18.6249 10.1322C18.4828 10.2745 18.3406 10.4168 18.1983 10.559C18.0162 10.7411 17.8344 10.9235 17.6526 11.106C17.5123 11.2467 17.3718 11.3873 17.2312 11.5278C17.1641 11.595 17.097 11.6622 17.03 11.7295C16.9365 11.8235 16.8427 11.9172 16.7488 12.0108C16.7213 12.0385 16.6939 12.0662 16.6656 12.0947C16.4157 12.343 16.217 12.505 15.8512 12.5132C15.5787 12.5098 15.3999 12.4709 15.2044 12.2771C14.9204 11.9359 14.9492 11.5218 14.9525 11.0994C14.9526 11.0439 14.9527 10.9883 14.9528 10.9328C14.9531 10.7877 14.9539 10.6427 14.9547 10.4976C14.9555 10.3491 14.9559 10.2006 14.9563 10.0521C14.9571 9.76163 14.9585 9.47113 14.9601 9.18063C14.9168 9.18098 14.8734 9.18132 14.8287 9.18168C14.4195 9.18485 14.0104 9.18719 13.6012 9.18873C13.3908 9.18954 13.1804 9.19064 12.9701 9.19242C12.767 9.19412 12.5638 9.19505 12.3607 9.19546C12.2833 9.19574 12.206 9.19631 12.1286 9.19715C12.0199 9.19829 11.9113 9.19844 11.8027 9.19837C11.7709 9.19893 11.7392 9.19949 11.7065 9.20007C11.4502 9.19824 11.2481 9.12461 11.0529 8.95617C11.0355 8.93437 11.0181 8.91257 11.0001 8.8901C10.9821 8.8684 10.9641 8.8467 10.9455 8.82434C10.8009 8.60282 10.7864 8.38345 10.8195 8.12594C10.9077 7.84764 11.0368 7.68433 11.2882 7.54001C11.441 7.48909 11.5859 7.49583 11.745 7.49651C11.7797 7.4965 11.8144 7.4965 11.8501 7.49649C11.9649 7.49652 12.0797 7.49682 12.1944 7.49713C12.274 7.4972 12.3535 7.49726 12.433 7.4973C12.6424 7.49745 12.8519 7.49783 13.0613 7.49826C13.2749 7.49866 13.4886 7.49884 13.7022 7.49904C14.1215 7.49945 14.5408 7.50012 14.9601 7.50094C14.9599 7.4704 14.9598 7.43986 14.9596 7.4084C14.958 7.11936 14.9568 6.83032 14.9561 6.54128C14.9556 6.39271 14.9551 6.24415 14.9542 6.09558C14.9534 5.95197 14.9529 5.80836 14.9527 5.66475C14.9525 5.6102 14.9523 5.55565 14.9518 5.5011C14.946 4.7187 14.946 4.7187 15.1945 4.41501C15.5482 4.06911 15.9483 4.07866 16.3664 4.29782Z" stroke="#7c7c7c" stroke-width="1"/>
</g>
<defs>
<clipPath id="clip0_926_10910">
<rect width="20" height="20" fill="white"/>
</clipPath>
</defs>
</svg>
