<?xml version="1.0" encoding="UTF-8"?>
<svg version="1.1" xmlns="http://www.w3.org/2000/svg" width="512" height="512">
<path d="M0 0 C1.06669965 -0.00644889 2.1333993 -0.01289778 3.23242319 -0.0195421 C4.40341833 -0.01644489 5.57441348 -0.01334769 6.78089333 -0.01015663 C8.0255611 -0.01468774 9.27022887 -0.01921886 10.55261385 -0.02388728 C14.00954161 -0.03437192 17.46626163 -0.03585468 20.92319059 -0.03349853 C24.65061979 -0.03309082 28.3780178 -0.04412501 32.10543251 -0.05361366 C39.40882831 -0.07023454 46.71219183 -0.07572369 54.01560496 -0.07683842 C59.9512948 -0.07778835 65.88697398 -0.08189586 71.82266045 -0.08823967 C88.64658545 -0.10585478 105.47048492 -0.11507808 122.29441921 -0.11357872 C123.65521276 -0.11345885 123.65521276 -0.11345885 125.04349709 -0.11333656 C126.40594954 -0.11321392 126.40594954 -0.11321392 127.79592629 -0.1130888 C142.51917655 -0.11227575 157.24232455 -0.13141759 171.96554522 -0.1596133 C187.07849398 -0.18832729 202.19139283 -0.20215442 217.30436957 -0.20042574 C225.79108855 -0.19976134 234.27770032 -0.20527548 242.76439476 -0.22678185 C249.98967792 -0.24497411 257.21480525 -0.24935712 264.44010137 -0.235763 C268.12696671 -0.22922348 271.81353296 -0.22915122 275.50037003 -0.2464695 C279.49636762 -0.26504707 283.4916698 -0.25267163 287.48768044 -0.23720741 C288.65421414 -0.24749454 289.82074784 -0.25778167 291.02263105 -0.26838052 C297.24101015 -0.21502358 301.05806114 0.03510553 305.76127052 4.25726891 C308.67070055 7.74858494 309.24375172 10.71802829 309.04642677 15.26508141 C308.59318954 18.43153333 307.54128151 20.61794227 305.76127052 23.25726891 C302.19789336 25.83226035 299.72095165 26.63300223 295.34984779 26.64037895 C293.73021142 26.65396391 293.73021142 26.65396391 292.07785511 26.66782331 C290.89741784 26.66249539 289.71698057 26.65716746 288.50077248 26.65167809 C287.24229405 26.65776919 285.98381563 26.66386029 284.6872015 26.67013597 C281.19639974 26.68654562 277.70582367 26.68421558 274.21499681 26.67876101 C270.44941781 26.6760921 266.68389914 26.69061984 262.9183445 26.70285606 C255.54255013 26.72391709 248.16683436 26.72845058 240.79101348 26.72666818 C234.7971722 26.72536107 228.80335547 26.72916206 222.80951881 26.73659325 C221.08368906 26.73869241 219.3578593 26.74079001 217.63202953 26.74288607 C216.77307272 26.74392959 215.91411591 26.74497312 215.0291301 26.74604827 C198.78215274 26.76495281 182.53522054 26.76389958 166.28823674 26.75707895 C151.41885078 26.75150134 136.549637 26.77233774 121.6802913 26.80543941 C106.4170165 26.83915474 91.15382425 26.85434758 75.89051151 26.84972239 C67.31942359 26.84747576 58.74849488 26.8527492 50.17743874 26.87761497 C42.88185223 26.8986001 35.58651226 26.90224783 28.29091573 26.88331538 C24.56765649 26.87414074 20.84485727 26.87306663 17.12163353 26.89367104 C13.08798462 26.91574686 9.05542551 26.89920623 5.02176857 26.87872887 C3.25111267 26.89750564 3.25111267 26.89750564 1.44468594 26.91666174 C-7.36175723 26.82037805 -7.36175723 26.82037805 -10.4425106 23.84342766 C-14.09896449 18.57894104 -13.85144104 13.54385742 -13.23872948 7.25726891 C-10.09828284 1.64932849 -6.2456575 0.00954622 0 0 Z " fill="#000000" transform="translate(109.23872947692871,341.74273109436035)" stroke="#000000" stroke-width="3"/>
<path d="M0 0 C1.06669965 -0.00644889 2.1333993 -0.01289778 3.23242319 -0.0195421 C4.40341833 -0.01644489 5.57441348 -0.01334769 6.78089333 -0.01015663 C8.0255611 -0.01468774 9.27022887 -0.01921886 10.55261385 -0.02388728 C14.00954161 -0.03437192 17.46626163 -0.03585468 20.92319059 -0.03349853 C24.65061979 -0.03309082 28.3780178 -0.04412501 32.10543251 -0.05361366 C39.40882831 -0.07023454 46.71219183 -0.07572369 54.01560496 -0.07683842 C59.9512948 -0.07778835 65.88697398 -0.08189586 71.82266045 -0.08823967 C88.64658545 -0.10585478 105.47048492 -0.11507808 122.29441921 -0.11357872 C123.65521276 -0.11345885 123.65521276 -0.11345885 125.04349709 -0.11333656 C126.40594954 -0.11321392 126.40594954 -0.11321392 127.79592629 -0.1130888 C142.51917655 -0.11227575 157.24232455 -0.13141759 171.96554522 -0.1596133 C187.07849398 -0.18832729 202.19139283 -0.20215442 217.30436957 -0.20042574 C225.79108855 -0.19976134 234.27770032 -0.20527548 242.76439476 -0.22678185 C249.98967792 -0.24497411 257.21480525 -0.24935712 264.44010137 -0.235763 C268.12696671 -0.22922348 271.81353296 -0.22915122 275.50037003 -0.2464695 C279.49636762 -0.26504707 283.4916698 -0.25267163 287.48768044 -0.23720741 C288.65421414 -0.24749454 289.82074784 -0.25778167 291.02263105 -0.26838052 C297.24101015 -0.21502358 301.05806114 0.03510553 305.76127052 4.25726891 C308.67070055 7.74858494 309.24375172 10.71802829 309.04642677 15.26508141 C308.59318954 18.43153333 307.54128151 20.61794227 305.76127052 23.25726891 C302.19789336 25.83226035 299.72095165 26.63300223 295.34984779 26.64037895 C293.73021142 26.65396391 293.73021142 26.65396391 292.07785511 26.66782331 C290.89741784 26.66249539 289.71698057 26.65716746 288.50077248 26.65167809 C287.24229405 26.65776919 285.98381563 26.66386029 284.6872015 26.67013597 C281.19639974 26.68654562 277.70582367 26.68421558 274.21499681 26.67876101 C270.44941781 26.6760921 266.68389914 26.69061984 262.9183445 26.70285606 C255.54255013 26.72391709 248.16683436 26.72845058 240.79101348 26.72666818 C234.7971722 26.72536107 228.80335547 26.72916206 222.80951881 26.73659325 C221.08368906 26.73869241 219.3578593 26.74079001 217.63202953 26.74288607 C216.77307272 26.74392959 215.91411591 26.74497312 215.0291301 26.74604827 C198.78215274 26.76495281 182.53522054 26.76389958 166.28823674 26.75707895 C151.41885078 26.75150134 136.549637 26.77233774 121.6802913 26.80543941 C106.4170165 26.83915474 91.15382425 26.85434758 75.89051151 26.84972239 C67.31942359 26.84747576 58.74849488 26.8527492 50.17743874 26.87761497 C42.88185223 26.8986001 35.58651226 26.90224783 28.29091573 26.88331538 C24.56765649 26.87414074 20.84485727 26.87306663 17.12163353 26.89367104 C13.08798462 26.91574686 9.05542551 26.89920623 5.02176857 26.87872887 C3.25111267 26.89750564 3.25111267 26.89750564 1.44468594 26.91666174 C-7.36175723 26.82037805 -7.36175723 26.82037805 -10.4425106 23.84342766 C-14.09896449 18.57894104 -13.85144104 13.54385742 -13.23872948 7.25726891 C-10.09828284 1.64932849 -6.2456575 0.00954622 0 0 Z " fill="#000000" transform="translate(109.23872947692871,229.74273109436035)" stroke="#000000" stroke-width="3"/>
<path d="M0 0 C1.06669965 -0.00644889 2.1333993 -0.01289778 3.23242319 -0.0195421 C4.40341833 -0.01644489 5.57441348 -0.01334769 6.78089333 -0.01015663 C8.0255611 -0.01468774 9.27022887 -0.01921886 10.55261385 -0.02388728 C14.00954161 -0.03437192 17.46626163 -0.03585468 20.92319059 -0.03349853 C24.65061979 -0.03309082 28.3780178 -0.04412501 32.10543251 -0.05361366 C39.40882831 -0.07023454 46.71219183 -0.07572369 54.01560496 -0.07683842 C59.9512948 -0.07778835 65.88697398 -0.08189586 71.82266045 -0.08823967 C88.64658545 -0.10585478 105.47048492 -0.11507808 122.29441921 -0.11357872 C123.65521276 -0.11345885 123.65521276 -0.11345885 125.04349709 -0.11333656 C126.40594954 -0.11321392 126.40594954 -0.11321392 127.79592629 -0.1130888 C142.51917655 -0.11227575 157.24232455 -0.13141759 171.96554522 -0.1596133 C187.07849398 -0.18832729 202.19139283 -0.20215442 217.30436957 -0.20042574 C225.79108855 -0.19976134 234.27770032 -0.20527548 242.76439476 -0.22678185 C249.98967792 -0.24497411 257.21480525 -0.24935712 264.44010137 -0.235763 C268.12696671 -0.22922348 271.81353296 -0.22915122 275.50037003 -0.2464695 C279.49636762 -0.26504707 283.4916698 -0.25267163 287.48768044 -0.23720741 C288.65421414 -0.24749454 289.82074784 -0.25778167 291.02263105 -0.26838052 C297.24101015 -0.21502358 301.05806114 0.03510553 305.76127052 4.25726891 C308.67070055 7.74858494 309.24375172 10.71802829 309.04642677 15.26508141 C308.59318954 18.43153333 307.54128151 20.61794227 305.76127052 23.25726891 C302.19789336 25.83226035 299.72095165 26.63300223 295.34984779 26.64037895 C293.73021142 26.65396391 293.73021142 26.65396391 292.07785511 26.66782331 C290.89741784 26.66249539 289.71698057 26.65716746 288.50077248 26.65167809 C287.24229405 26.65776919 285.98381563 26.66386029 284.6872015 26.67013597 C281.19639974 26.68654562 277.70582367 26.68421558 274.21499681 26.67876101 C270.44941781 26.6760921 266.68389914 26.69061984 262.9183445 26.70285606 C255.54255013 26.72391709 248.16683436 26.72845058 240.79101348 26.72666818 C234.7971722 26.72536107 228.80335547 26.72916206 222.80951881 26.73659325 C221.08368906 26.73869241 219.3578593 26.74079001 217.63202953 26.74288607 C216.77307272 26.74392959 215.91411591 26.74497312 215.0291301 26.74604827 C198.78215274 26.76495281 182.53522054 26.76389958 166.28823674 26.75707895 C151.41885078 26.75150134 136.549637 26.77233774 121.6802913 26.80543941 C106.4170165 26.83915474 91.15382425 26.85434758 75.89051151 26.84972239 C67.31942359 26.84747576 58.74849488 26.8527492 50.17743874 26.87761497 C42.88185223 26.8986001 35.58651226 26.90224783 28.29091573 26.88331538 C24.56765649 26.87414074 20.84485727 26.87306663 17.12163353 26.89367104 C13.08798462 26.91574686 9.05542551 26.89920623 5.02176857 26.87872887 C3.25111267 26.89750564 3.25111267 26.89750564 1.44468594 26.91666174 C-7.36175723 26.82037805 -7.36175723 26.82037805 -10.4425106 23.84342766 C-14.09896449 18.57894104 -13.85144104 13.54385742 -13.23872948 7.25726891 C-10.09828284 1.64932849 -6.2456575 0.00954622 0 0 Z " fill="#000000" transform="translate(109.23872947692871,117.74273109436035)" stroke="#000000" stroke-width="3"/>
</svg>
