<svg width="20" height="20" viewBox="0 0 20 20" fill="none" xmlns="http://www.w3.org/2000/svg">
<g clip-path="url(#clip0_926_10880)">
<path d="M9.15271 1.63533C9.19756 1.63505 9.19756 1.63505 9.24332 1.63477C9.40865 1.63525 9.5636 1.64665 9.72644 1.67927C9.71113 1.7252 9.69582 1.77112 9.68005 1.81843C9.66937 1.85076 9.6587 1.88309 9.6477 1.9164C9.62034 1.99782 9.59218 2.07897 9.56347 2.15993C9.46881 2.43163 9.38881 2.70207 9.32605 2.98298C9.31968 3.01128 9.31331 3.03958 9.30675 3.06873C8.9958 4.51833 9.33442 6.08076 10.1254 7.32141C10.2762 7.55045 10.4442 7.76209 10.6249 7.96834C10.6514 7.99961 10.6779 8.03088 10.7053 8.06309C11.5891 9.08818 12.9887 9.79855 14.3358 9.92146C14.4763 9.93061 14.6169 9.93902 14.7576 9.94379C14.9525 9.95219 14.9525 9.95219 15.0389 10.0386C15.0536 10.1506 15.0644 10.2607 15.0731 10.3731C15.1691 11.4081 15.549 12.4318 16.2108 13.2418C16.2278 13.2628 16.2448 13.2839 16.2623 13.3056C16.4693 13.5605 16.6821 13.7984 16.9286 14.0157C17.255 14.3047 17.4725 14.6177 17.5122 15.0588C17.5259 15.4946 17.4633 15.8132 17.1752 16.147C16.8315 16.4996 16.4754 16.6805 15.9721 16.6989C15.8674 16.6998 15.763 16.6998 15.6583 16.6991C15.5998 16.6993 15.5412 16.6995 15.4827 16.6999C15.323 16.7005 15.1633 16.7002 15.0035 16.6997C14.8308 16.6993 14.6581 16.6999 14.4854 16.7003C14.1476 16.701 13.8097 16.7009 13.4718 16.7004C13.1972 16.7001 12.9225 16.7 12.6478 16.7002C12.6086 16.7002 12.5695 16.7002 12.5291 16.7003C12.4496 16.7003 12.37 16.7004 12.2905 16.7004C11.5452 16.7009 10.8 16.7003 10.0547 16.6995C9.41582 16.6988 8.77692 16.6989 8.13802 16.6996C7.39535 16.7005 6.65269 16.7008 5.91003 16.7003C5.83078 16.7003 5.75152 16.7002 5.67227 16.7002C5.63328 16.7002 5.59429 16.7001 5.55412 16.7001C5.27989 16.7 5.00567 16.7002 4.73144 16.7006C4.39706 16.701 4.0627 16.7009 3.72832 16.7001C3.55785 16.6996 3.38739 16.6995 3.21691 16.7C3.06063 16.7005 2.90436 16.7002 2.74808 16.6994C2.69177 16.6992 2.63547 16.6993 2.57917 16.6997C2.04805 16.703 1.57611 16.5988 1.18167 16.2238C0.830604 15.8395 0.792323 15.4285 0.813186 14.927C0.847893 14.5124 1.13181 14.1995 1.43512 13.9429C2.5595 12.9722 3.15106 11.5879 3.265 10.1262C3.28682 9.7918 3.29033 9.45737 3.29318 9.12236C3.29345 9.09033 3.29373 9.0583 3.29401 9.02531C3.29642 8.72497 3.29788 8.42463 3.29895 8.12429C3.29958 7.95811 3.30076 7.79194 3.30226 7.62577C3.30271 7.56366 3.30295 7.50155 3.30295 7.43944C3.30305 6.25633 3.63814 5.10422 4.33581 4.14021C4.3516 4.1182 4.36738 4.09619 4.38365 4.07351C5.30652 2.80331 6.66532 1.95908 8.21627 1.70109C8.52964 1.65327 8.83607 1.63695 9.15271 1.63533Z" fill="#EEF6E6"/>
<path d="M17.6159 0.875166C17.9634 1.16925 18.2766 1.48536 18.5164 1.87446C18.5391 1.90956 18.5618 1.94466 18.5852 1.98082C19.1697 2.92288 19.3143 4.06295 19.0863 5.13895C18.9243 5.80494 18.6105 6.39496 18.1648 6.91353C18.1345 6.95227 18.1345 6.95227 18.1036 6.9918C17.4559 7.79534 16.4052 8.24079 15.4017 8.3506C14.2706 8.45593 13.1415 8.10613 12.2664 7.38228C11.4928 6.70927 10.9254 5.76003 10.821 4.72603C10.7573 3.36018 11.042 2.26683 11.9638 1.22841C13.4473 -0.31617 15.9454 -0.423645 17.6159 0.875166Z" fill="#EEF6E6"/>
<path d="M6.05469 17.5C8.09141 17.5 10.1281 17.5 12.2266 17.5C12.122 18.2319 11.7042 18.8882 11.1328 19.3532C10.3434 19.9249 9.46087 20.1295 8.49182 19.9757C7.9487 19.8664 7.43778 19.5907 7.03125 19.2188C7.00461 19.1957 6.97798 19.1726 6.95053 19.1489C6.4731 18.7097 6.22162 18.1121 6.05469 17.5Z" fill="#EEF6E6"/>
</g>
<defs>
<clipPath id="clip0_926_10880">
<rect width="20" height="20" fill="white"/>
</clipPath>
</defs>
</svg>
