<?xml version="1.0" encoding="UTF-8"?>
<svg version="1.1" xmlns="http://www.w3.org/2000/svg" width="512" height="512">
<path d="M0 0 C3.64526816 2.93321869 7.0124583 6.10405071 10.34521484 9.38037109 C12.02039864 11.01996526 13.72084608 12.62969732 15.42578125 14.23828125 C24.32104208 22.7460897 31.87818966 31.97182673 39 42 C39.41056641 42.5765332 39.82113281 43.15306641 40.24414062 43.74707031 C60.35131448 72.43490354 73.51257147 107.12571465 77 142 C77.10957031 142.95132813 77.21914063 143.90265625 77.33203125 144.8828125 C81.47905386 187.23773673 73.28933043 230.57298679 53 268 C52.65356445 268.65661621 52.30712891 269.31323242 51.95019531 269.98974609 C40.53976717 291.60483435 24.77325037 312.31140031 6 328 C5.12601562 328.78503906 4.25203125 329.57007813 3.3515625 330.37890625 C-38.65072809 367.79469983 -94.84922604 385.00509801 -150.56494141 381.85498047 C-199.63884941 378.42849515 -246.40962814 357.86907365 -282 324 C-282.58507324 323.44747559 -283.17014648 322.89495117 -283.77294922 322.32568359 C-293.96421515 312.64180279 -302.89547791 302.48851553 -311 291 C-311.40766602 290.42636719 -311.81533203 289.85273438 -312.23535156 289.26171875 C-344.95494561 242.59104673 -356.41537815 183.84611551 -347 128 C-338.54978523 83.31264782 -316.96901453 44.23357492 -285.3125 11.8125 C-284.15488159 10.60859619 -284.15488159 10.60859619 -282.97387695 9.38037109 C-276.66809305 3.07391728 -269.99871854 -2.06121157 -260.8125 -2.5 C-254.44300878 -2.13118752 -249.13513779 0.1408615 -244.35546875 4.43359375 C-239.92119889 9.5579229 -238.20701846 15.78242999 -238.578125 22.47265625 C-240.21867552 32.30076908 -246.55612992 37.74201936 -253.66015625 44.0078125 C-282.08072193 69.14318357 -298.79811406 106.93881266 -304 144 C-304.14356934 145.00691895 -304.14356934 145.00691895 -304.29003906 146.03417969 C-309.64054856 188.0136252 -298.47467859 233.75066743 -272.875 267.6875 C-268.20052692 273.71802353 -263.28219944 279.49191704 -258 285 C-257.55140625 285.48500977 -257.1028125 285.97001953 -256.640625 286.46972656 C-227.37191732 318.07914407 -184.78326425 335.62121577 -142.04296875 337.28515625 C-98.11198933 338.28083977 -54.56954584 323.65901563 -22.40234375 293.2265625 C-20 291 -20 291 -17.38671875 288.921875 C-13.76256268 286.00356929 -10.95928139 282.57672545 -8 279 C-7.58943359 278.50709473 -7.17886719 278.01418945 -6.75585938 277.50634766 C0.42706396 268.82742016 6.55085178 259.85662206 12 250 C12.3412793 249.39526855 12.68255859 248.79053711 13.03417969 248.16748047 C32.29725572 213.66906248 38.28389583 170.53316109 30 132 C29.83371094 131.22043945 29.66742188 130.44087891 29.49609375 129.63769531 C21.68841223 94.4019178 2.19641283 58.43014703 -26.6796875 35.91015625 C-30.57697827 32.70178052 -33.38330444 28.08773835 -34 23 C-34.48552179 15.71717316 -33.17760634 10.42195282 -29.25 4.25 C-21.411375 -3.588625 -9.74499491 -5.84020601 0 0 Z " fill="#000000" transform="translate(392,88)"/>
<path d="M0 0 C6.04223527 6.04223527 7.37162747 12.20417157 7.39044189 20.51068115 C7.39341302 21.24349375 7.39638414 21.97630635 7.3994453 22.73132539 C7.40811934 25.18775714 7.40963945 27.64414008 7.41113281 30.10058594 C7.41576192 31.86157332 7.42078671 33.62255971 7.42617798 35.38354492 C7.43929546 40.16881619 7.44574572 44.95407342 7.45018864 49.73935986 C7.45312054 52.72982916 7.45722559 55.72029464 7.46169281 58.71076202 C7.47536631 68.06959444 7.48503357 77.4284181 7.4888947 86.78725982 C7.49337458 97.58621165 7.51091989 108.38503685 7.5398953 119.18395019 C7.56152123 127.53398324 7.57159948 135.88398069 7.57293582 144.23404145 C7.57398323 149.21979532 7.57987753 154.20543013 7.59775543 159.19115448 C7.61425173 163.88285029 7.61638403 168.57433774 7.60761642 173.26605225 C7.60684687 174.9849122 7.61117794 176.70378342 7.62107468 178.42261505 C7.63382566 180.77578438 7.62790076 183.12821922 7.61749268 185.48138428 C7.61895924 186.79619656 7.6204258 188.11100883 7.6219368 189.46566391 C6.92208687 196.58640961 4.80948157 201.59555031 -0.75 206.25 C-1.61625 206.9925 -2.4825 207.735 -3.375 208.5 C-9.50469084 211.67835821 -16.00089259 212.06025676 -22.625 210.125 C-28.91417219 207.64744732 -32.35974336 202.94078793 -35.75 197.25 C-37.03558815 193.54733335 -36.88163171 189.87898946 -36.89044189 185.98931885 C-36.89341302 185.25650625 -36.89638414 184.52369365 -36.8994453 183.76867461 C-36.90811934 181.31224286 -36.90963945 178.85585992 -36.91113281 176.39941406 C-36.91576192 174.63842668 -36.92078671 172.87744029 -36.92617798 171.11645508 C-36.93929546 166.33118381 -36.94574572 161.54592658 -36.95018864 156.76064014 C-36.95312054 153.77017084 -36.95722559 150.77970536 -36.96169281 147.78923798 C-36.97536631 138.43040556 -36.98503357 129.0715819 -36.9888947 119.71274018 C-36.99337458 108.91378835 -37.01091989 98.11496315 -37.0398953 87.31604981 C-37.06152123 78.96601676 -37.07159948 70.61601931 -37.07293582 62.26595855 C-37.07398323 57.28020468 -37.07987753 52.29456987 -37.09775543 47.30884552 C-37.11425173 42.61714971 -37.11638403 37.92566226 -37.10761642 33.23394775 C-37.10684687 31.5150878 -37.11117794 29.79621658 -37.12107468 28.07738495 C-37.13382566 25.72421562 -37.12790076 23.37178078 -37.11749268 21.01861572 C-37.11895924 19.70380344 -37.1204258 18.38899117 -37.1219368 17.03433609 C-36.48603889 10.56428142 -34.40427368 4.90427368 -29.75 0.25 C-19.91568315 -6.55130324 -9.93984913 -6.32535854 0 0 Z " fill="#000000" transform="translate(270.75,46.75)"/>
</svg>
