<svg width="150" height="150" viewBox="0 0 150 150" fill="none" xmlns="http://www.w3.org/2000/svg">
<path d="M74.9086 0.00119057C75.3332 0.00199062 75.3332 0.00199062 75.7663 0.00280684C79.9602 0.0160994 84.0409 0.165003 88.1673 0.970451C88.561 1.0411 88.561 1.0411 88.9627 1.11318C103.209 3.69105 116.383 10.5507 126.791 20.5751C127.081 20.8526 127.081 20.8526 127.376 21.1356C130.152 23.8113 132.71 26.5318 134.984 29.6459C135.235 29.9827 135.487 30.3195 135.738 30.6563C137.504 33.0527 139.079 35.5406 140.544 38.1315C140.662 38.3385 140.779 38.5454 140.901 38.7586C144.709 45.5235 147.265 52.8823 148.828 60.4794C148.872 60.6873 148.915 60.8952 148.959 61.1094C149.833 65.6864 150.017 70.2617 149.999 74.9086C149.998 75.3332 149.998 75.3332 149.997 75.7663C149.984 79.9602 149.835 84.0409 149.03 88.1673C148.982 88.4298 148.935 88.6923 148.887 88.9627C146.309 103.209 139.449 116.383 129.425 126.791C129.24 126.984 129.055 127.177 128.864 127.376C126.189 130.152 123.468 132.71 120.354 134.984C120.017 135.235 119.68 135.487 119.344 135.738C116.947 137.504 114.459 139.079 111.868 140.544C111.662 140.662 111.455 140.779 111.241 140.901C104.476 144.709 97.1177 147.265 89.5206 148.828C89.3127 148.872 89.1048 148.915 88.8906 148.959C84.3136 149.833 79.7383 150.017 75.0914 149.999C74.8084 149.998 74.5253 149.998 74.2337 149.997C70.0398 149.984 65.9591 149.835 61.8327 149.03C61.5702 148.982 61.3077 148.935 61.0373 148.887C46.791 146.309 33.6166 139.449 23.2086 129.425C23.0156 129.24 22.8227 129.055 22.6239 128.864C19.8476 126.189 17.2902 123.468 15.0156 120.354C14.7645 120.017 14.5134 119.68 14.2623 119.344C12.4957 116.947 10.9207 114.459 9.45605 111.868C9.33837 111.662 9.22069 111.455 9.09944 111.241C5.29072 104.476 2.73529 97.1177 1.17162 89.5206C1.10694 89.2088 1.10694 89.2088 1.04096 88.8906C0.167116 84.3136 -0.0170416 79.7383 0.00119057 75.0914C0.00172394 74.8084 0.00225731 74.5253 0.00280684 74.2337C0.0160994 70.0398 0.165003 65.9591 0.970451 61.8327C1.0411 61.439 1.0411 61.439 1.11318 61.0373C3.69105 46.791 10.5507 33.6166 20.5751 23.2086C20.7601 23.0156 20.945 22.8227 21.1356 22.6239C23.8113 19.8476 26.5318 17.2902 29.6459 15.0156C29.9827 14.7645 30.3195 14.5134 30.6563 14.2623C33.0527 12.4957 35.5406 10.9207 38.1315 9.45605C38.3385 9.33837 38.5454 9.22069 38.7586 9.09944C45.5235 5.29072 52.8823 2.73529 60.4794 1.17162C60.7912 1.10694 60.7912 1.10694 61.1094 1.04096C65.6864 0.167116 70.2617 -0.0170416 74.9086 0.00119057ZM61.2475 10.3339C61.0006 10.3871 60.7536 10.4403 60.4992 10.4952C46.0226 13.7074 32.2497 22.2218 23.2086 34.035C23.0827 34.1986 22.9568 34.3622 22.8271 34.5308C20.7996 37.1799 19.0003 39.9116 17.3564 42.8132C17.2566 42.9865 17.1567 43.1598 17.0538 43.3383C13.3307 49.8315 10.9434 57.093 9.74866 64.4662C9.67051 64.9341 9.67051 64.9341 9.59078 65.4116C9.11506 68.5503 9.047 71.6477 9.05372 74.8171C9.05378 75.0873 9.05384 75.3575 9.0539 75.6358C9.06389 80.0161 9.35879 84.1759 10.3339 88.4599C10.3902 88.7195 10.4466 88.9791 10.5046 89.2466C12.8416 99.8947 17.8379 109.289 24.6716 117.721C25.3102 117.482 25.3102 117.482 25.4917 116.843C25.6063 116.46 25.6063 116.46 25.7232 116.069C25.8118 115.783 25.9004 115.497 25.9918 115.202C26.0872 114.893 26.1826 114.583 26.281 114.264C27.8098 109.503 29.8939 105.078 32.8646 101.042C33.1973 100.585 33.1973 100.585 33.5367 100.118C39.4435 92.145 47.3038 86.1953 56.5658 82.6078C56.5658 82.3181 56.5658 82.0284 56.5658 81.73C56.0037 81.193 56.0037 81.193 55.2673 80.6693C52.6115 78.6128 50.5273 76.3318 48.6654 73.537C48.4907 73.2763 48.3161 73.0157 48.1362 72.7472C43.8581 65.9155 42.524 57.3312 44.1848 49.47C45.3635 44.4154 47.5689 39.6938 51.0062 35.7907C51.2039 35.5512 51.4015 35.3116 51.6052 35.0649C56.3119 29.525 63.636 25.6243 70.9035 24.9642C79.9919 24.5733 87.9739 26.059 95.1899 31.9868C95.4392 32.1878 95.6885 32.3889 95.9454 32.596C100.976 36.8662 104.316 42.8369 105.724 49.2506C105.777 49.4936 105.831 49.7366 105.886 49.987C107.5 57.9709 105.846 66.2762 101.654 73.2044C99.4269 76.5464 96.5371 79.8344 93.1416 82.0226C93.6075 82.9543 94.5768 83.127 95.5008 83.5039C107.661 88.6643 117.356 98.4501 122.449 110.651C123.314 112.873 124.028 115.154 124.743 117.428C125.605 117.528 125.605 117.528 126.019 117.055C126.153 116.88 126.287 116.705 126.426 116.525C126.578 116.328 126.73 116.13 126.887 115.927C127.049 115.71 127.21 115.493 127.377 115.27C127.545 115.047 127.713 114.823 127.886 114.593C130.686 110.81 132.995 106.764 134.984 102.505C135.073 102.317 135.162 102.13 135.254 101.937C137.453 97.2651 138.939 92.3452 139.959 87.2895C140.003 87.0861 140.047 86.8828 140.093 86.6733C141.793 78.6025 141.445 69.2664 139.666 61.2475C139.613 61.0006 139.56 60.7536 139.505 60.4992C136.293 46.0226 127.778 32.2497 115.965 23.2086C115.801 23.0827 115.638 22.9568 115.469 22.8271C112.82 20.7996 110.088 19.0003 107.187 17.3564C107.013 17.2566 106.84 17.1567 106.662 17.0538C100.169 13.3307 92.907 10.9433 85.5338 9.74866C85.0656 9.67051 85.0656 9.67051 84.5878 9.59078C81.4552 9.11621 78.3644 9.047 75.2012 9.05372C74.7968 9.05381 74.7968 9.05381 74.3842 9.0539C69.91 9.06412 65.629 9.36172 61.2475 10.3339ZM57.543 41.6474C53.4028 46.928 51.7517 53.2205 52.5477 59.8527C53.2715 64.1957 55.3626 68.2551 58.3214 71.4887C58.4942 71.6882 58.6669 71.8878 58.8449 72.0934C62.6056 76.1821 68.2567 78.5485 73.7427 78.8668C80.1037 79.0783 85.5967 76.962 90.4259 72.8615C94.7796 68.7697 97.4502 63.0585 97.649 57.0835C97.7304 50.758 95.5169 44.902 91.1745 40.2346C86.3657 35.6155 80.6465 33.5398 74.0766 33.6053C67.6055 33.8009 61.7467 36.7305 57.543 41.6474ZM65.9292 89.0451C65.6263 89.1017 65.3234 89.1583 65.0114 89.2166C57.2089 90.8924 50.5498 95.3352 44.8615 100.749C44.6725 100.923 44.4835 101.096 44.2888 101.275C37.9397 107.282 33.7727 116.463 32.756 125.078C32.7876 125.948 32.7876 125.948 33.427 126.527C33.7 126.717 33.9731 126.907 34.2545 127.102C34.4079 127.21 34.5614 127.318 34.7195 127.429C35.2669 127.809 35.8209 128.178 36.3759 128.547C36.5939 128.695 36.8118 128.843 37.0364 128.995C48.3842 136.678 61.0573 140.977 74.8171 140.946C75.0876 140.946 75.358 140.946 75.6367 140.946C80.015 140.934 84.1809 140.662 88.4599 139.666C88.8943 139.567 88.8943 139.567 89.3374 139.467C92.9523 138.628 96.4452 137.579 99.8716 136.155C100.062 136.078 100.252 136 100.448 135.921C104.962 134.079 109.108 131.69 113.101 128.901C113.621 128.549 114.151 128.224 114.689 127.9C116.398 126.857 116.398 126.857 117.348 125.184C117.312 124.195 117.106 123.358 116.843 122.402C116.725 121.927 116.608 121.451 116.491 120.976C114.739 114.188 111.714 108.151 107.187 102.798C106.869 102.417 106.869 102.417 106.544 102.03C99.6347 94.0089 88.978 89.0339 78.5113 88.1673C74.2354 87.9208 70.1207 88.1861 65.9292 89.0451Z" stroke="#7c7c7c" stroke-width="5" fill="url(#paint0_linear_1099_117978)"/>
<defs>
<linearGradient id="paint0_linear_1099_117978" x1="73.506" y1="84.0948" x2="51.13" y2="31.4453" gradientUnits="userSpaceOnUse">
<stop stop-color="#EEF6E6"/>
<stop offset="1" stop-color="#EEF6E6"/>
</linearGradient>
</defs>
</svg>
