<?xml version="1.0" encoding="UTF-8"?>
<svg version="1.1" xmlns="http://www.w3.org/2000/svg" width="512" height="512">
<path d="M0 0 C1.35035589 -0.00551503 1.35035589 -0.00551503 2.7279917 -0.01114148 C5.74539422 -0.02215667 8.76276228 -0.02601855 11.78018188 -0.02983093 C13.94374704 -0.0360974 16.10731112 -0.04274436 18.27087402 -0.04974365 C25.37894951 -0.07077108 32.48702517 -0.08114733 39.59512329 -0.09111023 C42.04554887 -0.09515879 44.49597434 -0.09927574 46.94639969 -0.10346031 C58.46394435 -0.12251197 69.98148262 -0.136741 81.49904001 -0.14507228 C94.77355424 -0.15483391 108.04790124 -0.18112562 121.32235658 -0.22157317 C131.59437045 -0.25179261 141.86633656 -0.26654683 152.138394 -0.26985329 C158.2673603 -0.27219782 164.39614795 -0.28108007 170.52506638 -0.30631447 C176.29860316 -0.32970103 182.07184503 -0.33378593 187.84541702 -0.32355309 C189.95480585 -0.32306012 192.06420972 -0.32930909 194.17355347 -0.34310913 C216.0815471 -0.47832026 234.28037529 3.47325433 250.41934204 19.40107727 C265.80602952 35.3316241 270.5540803 52.86770715 270.45263672 74.6566925 C270.45610008 76.29207133 270.46086917 77.92744781 270.46681845 79.56281948 C270.47926499 84.02343772 270.4731872 88.48386176 270.4638598 92.94448042 C270.45704346 97.76800781 270.4675633 102.59150292 270.47579956 107.4150238 C270.4891116 116.85117518 270.48627044 126.2872548 270.47756164 135.72340894 C270.47077553 143.39509496 270.46987238 151.06676093 270.47313309 158.7384491 C270.47359279 159.83197738 270.47405249 160.92550567 270.47452611 162.05217117 C270.47548533 164.27392873 270.47645797 166.49568628 270.47744389 168.71744382 C270.48599037 189.53142884 270.47617529 210.34537416 270.46004279 231.15935266 C270.44664029 249.00329376 270.44896859 266.84717629 270.46279907 284.69111633 C270.47886798 305.43264892 270.48516647 326.17414676 270.47596228 346.9156847 C270.47500667 349.12908744 270.47406356 351.34249019 270.47313309 353.55589294 C270.47267026 354.64481651 270.47220743 355.73374008 270.47173058 356.85566133 C270.46914463 364.51459715 270.47350317 372.17351085 270.48057175 379.83244324 C270.48900151 389.17117757 270.48667558 398.50983629 270.47072951 407.848562 C270.46286668 412.60968164 270.45972121 417.37067538 270.46967697 422.13179398 C270.47866567 426.49657418 270.47362278 430.86111269 270.45774432 435.22587121 C270.4544141 436.79837944 270.45605057 438.37090841 270.46337168 439.94340312 C270.5460797 459.19648796 266.10242669 475.52662296 253.07168579 490.14717102 C252.19963501 491.15844055 252.19963501 491.15844055 251.30996704 492.19013977 C241.03322949 503.32865825 225.55624147 511.29306644 210.31691241 512.33563304 C207.16080487 512.40966133 204.01000104 512.42336373 200.85302734 512.41459656 C199.64718951 512.41912767 198.44135167 512.42365878 197.1989733 512.4283272 C193.87332867 512.43875396 190.54790131 512.44030453 187.22225595 512.43793845 C183.62698605 512.43752861 180.03174786 512.44858541 176.43649292 512.45805359 C169.40013927 512.47462934 162.36381913 512.48016161 155.32744758 512.48127834 C149.60362503 512.48223058 143.87981348 512.48634963 138.15599442 512.4926796 C121.9052387 512.51028376 105.65450934 512.51951992 89.40374403 512.51801865 C88.52862282 512.51793874 87.65350161 512.51785882 86.75186157 512.51777649 C85.43756487 512.51765385 85.43756487 512.51765385 84.09671672 512.51752873 C69.9068846 512.51671638 55.71715877 512.53584333 41.52735738 512.56405322 C26.93514234 512.59283268 12.34297905 512.60659069 -2.24926507 512.60486567 C-10.43270825 512.60420345 -18.61604004 512.60962176 -26.79945755 512.63122177 C-33.76891127 512.64950048 -40.73820312 512.65372645 -47.70767052 512.64020292 C-51.25797184 512.63370638 -54.80796324 512.63343447 -58.35823441 512.65090942 C-82.49149354 512.76232837 -101.66982826 510.70047809 -119.82284546 493.28779602 C-120.51765015 492.58138977 -121.21245483 491.87498352 -121.92831421 491.14717102 C-122.4890564 490.58513977 -123.04979858 490.02310852 -123.62753296 489.44404602 C-133.48287597 478.7868247 -140.03650208 463.94595613 -140.06253529 449.37604046 C-140.06699313 448.21598167 -140.07145097 447.05592288 -140.0760439 445.8607108 C-140.07585954 444.59050314 -140.07567518 443.32029548 -140.07548523 442.01159668 C-140.07878617 440.64512491 -140.08251222 439.2786541 -140.08662671 437.91218454 C-140.09662915 434.15764554 -140.10036069 430.40312252 -140.10301602 426.64857209 C-140.10692443 422.59854781 -140.11650258 418.54853612 -140.12522888 414.4985199 C-140.14498085 404.71623801 -140.1550591 394.93395511 -140.16395667 385.15165827 C-140.16834272 380.54083579 -140.17370881 375.93001446 -140.17894554 371.31919289 C-140.19595857 355.9834921 -140.2104507 340.64779202 -140.21769428 325.31208324 C-140.21960407 321.33336575 -140.22152442 317.35464826 -140.22348022 313.37593079 C-140.22396396 312.38708054 -140.22444771 311.3982303 -140.2249461 310.37941489 C-140.23323872 294.37615317 -140.2585623 278.37296638 -140.2910609 262.36973735 C-140.32418155 245.92555985 -140.34214767 229.48142035 -140.34533852 213.03720933 C-140.34749927 203.8101816 -140.35618377 194.58326306 -140.3817997 185.35626793 C-140.40357539 177.49450449 -140.41152359 169.63287677 -140.40183292 161.7710866 C-140.39730766 157.76501142 -140.39906987 153.75921584 -140.41859436 149.75317955 C-140.55968849 119.07517315 -136.20905878 94.96179924 -113.92831421 72.14717102 C-106.92930472 65.40776871 -99.49289005 59.23546924 -91.92831421 53.14717102 C-86.04563385 48.37070898 -80.20403874 43.55216197 -74.42831421 38.64717102 C-69.58642872 34.53834544 -64.7279224 30.45431478 -59.78768921 26.46357727 C-57.73721526 24.80246928 -55.71135388 23.12454986 -53.69393921 21.42451477 C-41.79083615 11.54388284 -29.00550397 4.9111521 -13.92831421 1.14717102 C-13.23033911 0.97094617 -12.53236401 0.79472132 -11.81323814 0.61315632 C-7.86353606 -0.02481652 -3.99478831 -0.00087782 0 0 Z M-37.41464233 54.84687805 C-39.46103513 56.60479547 -41.56239582 58.28636821 -43.67831421 59.95967102 C-49.65300691 64.69888607 -55.52469071 69.56120664 -61.40487671 74.41670227 C-64.41401154 76.90129108 -67.42980672 79.3773992 -70.45175171 81.84638977 C-74.62735863 85.26000456 -78.78456806 88.69496688 -82.92831421 92.14717102 C-83.9324939 92.98119446 -84.93667358 93.8152179 -85.97128296 94.67451477 C-95.00106768 102.44750646 -100.52963753 110.70861402 -103.92831421 122.14717102 C-104.10558886 122.74360957 -104.28286352 123.34004813 -104.46551013 123.95456058 C-105.01888011 126.57624188 -105.05632481 128.99359117 -105.05974197 131.6742506 C-105.06358312 132.80528467 -105.06742426 133.93631874 -105.07138181 135.10162657 C-105.07051533 136.34450338 -105.06964884 137.58738018 -105.0687561 138.86791992 C-105.07134008 140.2013941 -105.07435334 141.5348675 -105.0777595 142.86833984 C-105.08582899 146.53604072 -105.08761905 150.20372204 -105.08835697 153.87143075 C-105.09020763 157.82590343 -105.09775507 161.78036596 -105.10449219 165.73483276 C-105.11807597 174.3836833 -105.12410038 183.03252919 -105.12850285 191.68138862 C-105.13126536 197.08199458 -105.13550275 202.48259875 -105.14000702 207.88320351 C-105.15220006 222.83628445 -105.1624991 237.78936395 -105.16588211 252.74244976 C-105.16610168 253.69955126 -105.16632124 254.65665277 -105.16654746 255.64275734 C-105.16676574 256.60214896 -105.16698402 257.56154057 -105.16720891 258.55000466 C-105.16765238 260.49409592 -105.16809894 262.43818718 -105.16854858 264.38227844 C-105.16877001 265.34661483 -105.16899144 266.31095121 -105.16921958 267.30450992 C-105.17316701 282.92779153 -105.19061918 298.55102649 -105.21390811 314.17429008 C-105.23762623 330.21498806 -105.25008418 346.25566264 -105.25125003 362.29637843 C-105.25216656 371.30240565 -105.25791341 380.30837208 -105.27606964 389.31438255 C-105.29147688 396.98385197 -105.29658743 404.65324182 -105.28833154 412.32272377 C-105.28442716 416.23471625 -105.28534419 420.14654854 -105.29938889 424.05852127 C-105.31214062 427.64319537 -105.3109193 431.22758909 -105.29879817 434.81226287 C-105.29592072 436.71618594 -105.30776738 438.62011392 -105.32022023 440.52399844 C-105.25524152 451.80504992 -102.90598268 459.96074113 -94.92831421 468.14717102 C-85.67369211 475.94600986 -78.10020381 477.44827336 -66.29615784 477.41459656 C-65.12933655 477.41912767 -63.96251526 477.42365878 -62.76033574 477.4283272 C-59.53456417 477.43877377 -56.30893332 477.4403011 -53.08315027 477.43793845 C-49.59905243 477.43752936 -46.11498753 477.44857823 -42.63090515 477.45805359 C-35.80985255 477.47464424 -28.98883453 477.48016225 -22.16776343 477.48127834 C-16.62167222 477.4822297 -11.07559239 477.48634435 -5.52950478 477.4926796 C10.20502045 477.51028641 25.93951844 477.5195193 41.67405359 477.51801865 C42.9455971 477.51789878 42.9455971 477.51789878 44.24282837 477.51777649 C45.09156258 477.51769473 45.94029679 477.51761297 46.81475022 477.51752873 C60.56836491 477.5167159 74.32187007 477.5358543 88.07545308 477.56405322 C102.20766586 477.59279915 116.33982526 477.60659259 130.47206801 477.60486567 C138.40219512 477.60420238 146.33220739 477.60966802 154.26230812 477.63122177 C161.01419795 477.64945604 167.76592086 477.65376251 174.51782469 477.64020292 C177.96015702 477.63368462 181.40216933 477.63351432 184.84447098 477.65090942 C188.58279174 477.66635566 192.32027562 477.65705631 196.05857849 477.64164734 C197.13748645 477.65193447 198.21639441 477.66222159 199.32799655 477.67282045 C209.60748492 477.57938068 218.59928182 474.3785297 226.07168579 467.14717102 C234.64962405 456.83808422 235.51478582 446.45357261 235.45936584 433.48484802 C235.46354259 431.89274339 235.46902198 430.30064173 235.47568566 428.70854557 C235.4901143 424.34904928 235.48590363 419.98974246 235.47851884 415.63023591 C235.47378307 410.92255529 235.48630066 406.21491543 235.49653625 401.50724792 C235.51372166 392.29046856 235.51456478 383.07375738 235.50932335 373.85696615 C235.50527988 366.36441872 235.50672732 358.87189141 235.51207161 351.37934494 C235.51282003 350.31245086 235.51356845 349.24555679 235.51433956 348.14633258 C235.51587105 345.97884743 235.5174094 343.81136228 235.51895452 341.64387713 C235.53267868 321.32308003 235.5272425 301.00232144 235.51576931 280.68152522 C235.50583742 262.09822674 235.51877701 243.51502783 235.5427035 224.93174471 C235.56709644 205.84209682 235.57670186 186.7524953 235.57005078 167.66283214 C235.56655894 156.94877214 235.56878828 146.23478872 235.5863018 135.52074051 C235.6010262 126.39995865 235.60165608 117.27930729 235.58423089 108.15852799 C235.57572045 103.5070089 235.57357246 98.85572291 235.58888245 94.204216 C235.60273816 89.9417062 235.59795512 85.679629 235.57864321 81.41714416 C235.57488559 79.87954384 235.5777983 78.34190879 235.58825486 76.80433942 C235.66091534 65.29700421 234.31210143 55.1213784 226.83340454 45.92842102 C220.00697774 39.02631321 211.25588604 34.85098103 201.54628015 34.74127871 C200.75288728 34.74728875 199.9594944 34.7532988 199.14205933 34.75949097 C198.27797762 34.75410543 197.41389591 34.74871989 196.5236299 34.74317116 C193.64659731 34.72893648 190.77002775 34.73598425 187.89297485 34.74311829 C185.82261792 34.73741226 183.75226413 34.7304471 181.68191528 34.72232056 C176.07014654 34.70439681 170.45853425 34.70555647 164.84674549 34.71126294 C160.15516404 34.71435685 155.46361255 34.70825986 150.77203536 34.7022242 C139.69839082 34.68818226 128.62482342 34.68973667 117.55117798 34.7011261 C106.14497341 34.71259869 94.73900421 34.69854521 83.33283067 34.67172962 C73.5253275 34.6495397 63.71789802 34.64294292 53.91037154 34.64880604 C48.05934372 34.65216992 42.20846663 34.64979861 36.35746002 34.63255501 C30.85143213 34.61703626 25.34575136 34.6210962 19.83973694 34.63986015 C17.82584955 34.64353282 15.81193617 34.64047641 13.79807281 34.62997437 C-7.87505566 34.52563501 -21.2448106 40.78805376 -37.41464233 54.84687805 Z " fill="#7c7c7c" transform="translate(190.92831420898438,-0.1471710205078125)"/>
<path d="M0 0 C1.33175809 -0.00551503 1.33175809 -0.00551503 2.69042039 -0.01114148 C5.67742879 -0.02219002 8.66440243 -0.02602414 11.65142822 -0.02983093 C13.78827017 -0.03609466 15.92511103 -0.04274138 18.06195068 -0.04974365 C23.87610342 -0.06716087 29.69024792 -0.07770724 35.50442028 -0.08594918 C39.13560059 -0.09109748 42.76677834 -0.09717327 46.39795685 -0.10346031 C57.75531102 -0.12251383 69.11265869 -0.13674501 80.47002578 -0.14507228 C93.58729945 -0.15484831 106.70440454 -0.18117684 119.8216188 -0.22157317 C129.95588887 -0.25171395 140.09011056 -0.2665392 150.2244246 -0.26985329 C156.27938959 -0.27220596 162.33417451 -0.28119479 168.38909149 -0.30631447 C174.08542529 -0.3295646 179.78146006 -0.3338406 185.47782898 -0.32355309 C187.56800073 -0.32305688 189.65818704 -0.32940203 191.7483139 -0.34310913 C194.60340182 -0.36078454 197.45741153 -0.35374312 200.3125 -0.34057617 C201.55118572 -0.35703004 201.55118572 -0.35703004 202.81489539 -0.37381631 C208.47488435 -0.31086128 211.73411717 0.92740293 216.41021729 4.14717102 C220.16567806 8.00413074 222.35661502 11.83574233 222.44537354 17.31904602 C221.99070667 23.92834971 219.81960462 27.97284587 214.84771729 32.45967102 C210.33988266 35.58047961 206.08954262 35.29308508 200.81370544 35.28761292 C199.480889 35.2920696 199.480889 35.2920696 198.12114698 35.29661632 C195.13180095 35.30531578 192.14249491 35.30681262 189.15313721 35.30830383 C187.01467299 35.31293111 184.87620961 35.31795564 182.73774719 35.323349 C176.91952603 35.33648336 171.1013164 35.34291993 165.28308272 35.34735966 C161.64989996 35.35028859 158.01672037 35.35439305 154.3835392 35.35886383 C143.02137968 35.37254123 131.65922738 35.38220681 120.29706019 35.38606572 C107.17131718 35.39054781 94.04567824 35.40810175 80.91996688 35.43706632 C70.78061623 35.45866594 60.64129489 35.46876908 50.50192147 35.47010684 C44.44311133 35.47115606 38.38439899 35.47708883 32.32561302 35.49492645 C26.62685586 35.51137745 20.92827032 35.51357704 15.22949791 35.50478745 C13.137299 35.50401549 11.04509098 35.50838057 8.95291519 35.5182457 C6.09763132 35.53092001 3.24295942 35.52511287 0.38768005 35.5146637 C-0.44102327 35.5227201 -1.26972659 35.53077651 -2.12354213 35.53907704 C-7.0196006 35.49714689 -10.34080887 34.83707572 -14.58978271 32.14717102 C-18.75226007 27.89009191 -21.53309031 24.08020626 -21.62103271 17.97920227 C-21.17806999 11.36798357 -18.99810217 7.32053248 -14.02728271 2.83467102 C-9.52258706 -0.28396444 -5.27265312 -0.00116457 0 0 Z " fill="#7c7c7c" transform="translate(155.58978271484375,374.8528289794922)"/>
<path d="M0 0 C1.32056578 -0.00551503 1.32056578 -0.00551503 2.66780967 -0.01114148 C5.62951303 -0.02218948 8.59118132 -0.02602403 11.55290222 -0.02983093 C13.67166252 -0.03609466 15.79042171 -0.04274138 17.90917969 -0.04974365 C23.67368005 -0.06715988 29.43817211 -0.07770678 35.20269227 -0.08594918 C38.80237297 -0.09109725 42.40205109 -0.09717302 46.00172997 -0.10346031 C57.25923603 -0.12251279 68.51673553 -0.13674469 79.77425462 -0.14507228 C92.77890792 -0.15485063 105.78339127 -0.18118561 118.78798467 -0.22157317 C128.83391714 -0.25170423 138.87980082 -0.26653824 148.92577761 -0.26985329 C154.92873238 -0.2722069 160.93150561 -0.28120799 166.934412 -0.30631447 C172.58067616 -0.32954792 178.22663863 -0.33384738 183.87293816 -0.32355309 C185.9457919 -0.32305649 188.01866026 -0.32941317 190.09146881 -0.34310913 C192.92063647 -0.36075756 195.74871311 -0.35375657 198.57788086 -0.34057617 C199.39880228 -0.35154542 200.21972371 -0.36251466 201.06552154 -0.37381631 C206.33722896 -0.31449122 209.27246778 0.69935465 213.47941589 4.14717102 C217.19287517 8.06693359 219.42534287 11.80665967 219.51457214 17.31904602 C219.15250921 22.58220478 217.99805684 26.05793965 214.47941589 30.14717102 C208.59544346 34.59017061 204.27877486 35.29596994 197.08618164 35.29434204 C196.21946624 35.29801873 195.35275084 35.30169542 194.45977134 35.30548352 C191.54419444 35.31653089 188.62865318 35.32036599 185.71305847 35.32417297 C183.62709947 35.33043684 181.54114159 35.33708357 179.45518494 35.34408569 C173.77939049 35.36150274 168.10360448 35.37204945 162.42778993 35.38029122 C158.88236676 35.38544004 155.33694621 35.39151584 151.79152489 35.39780235 C140.70060275 35.41685667 129.60968728 35.43108712 118.51875192 35.43941432 C105.71277917 35.44918767 92.90697922 35.47550886 80.10106736 35.51591522 C70.20542084 35.54606815 60.30982387 35.56088243 50.4141323 35.56419533 C44.5027743 35.56654679 38.59160087 35.57551991 32.68029213 35.60065651 C27.11773959 35.62392761 21.55549326 35.62817418 15.99290466 35.61789513 C13.95314198 35.61739942 11.91336428 35.62373002 9.87364769 35.63745117 C7.0845883 35.65516079 4.2966289 35.64806839 1.50756836 35.63491821 C0.70414546 35.64588746 -0.09927743 35.6568567 -0.92704648 35.66815835 C-7.309298 35.59572131 -12.67183222 33.81194101 -17.39558411 29.39326477 C-20.90834214 23.74601835 -21.42607074 18.70691863 -20.52058411 12.14717102 C-18.75750415 6.85793115 -15.90903298 4.34708166 -11.52058411 1.14717102 C-7.663276 -0.13859835 -4.02003685 -0.00089552 0 0 Z " fill="#7c7c7c" transform="translate(158.5205841064453,289.8528289794922)"/>
<path d="M0 0 C3.72380258 3.28049274 6.05583653 6.60500958 7.625 11.3125 C7.72007598 12.81944591 7.75987407 14.330217 7.76544189 15.84014893 C7.77115204 16.7681279 7.77686218 17.69610687 7.78274536 18.65220642 C7.78386322 19.66835526 7.78498108 20.68450409 7.78613281 21.73144531 C7.79358017 23.33920586 7.79358017 23.33920586 7.80117798 24.97944641 C7.81580912 28.53317909 7.82260356 32.08686712 7.828125 35.640625 C7.8338761 38.10821535 7.83963384 40.57580568 7.84539795 43.043396 C7.85591094 48.22180388 7.86175152 53.40019622 7.86523438 58.57861328 C7.8707167 65.21090161 7.89473811 71.84298439 7.92320633 78.47520828 C7.94184035 83.57446897 7.94703875 88.67368025 7.94857025 93.77297211 C7.95159606 96.21777214 7.95962215 98.66257132 7.97275543 101.10733795 C7.98982979 104.53037593 7.98793187 107.95291315 7.98144531 111.37597656 C7.99526749 112.88805443 7.99526749 112.88805443 8.0093689 114.43067932 C7.96662707 121.6392466 7.04179686 126.52388823 2.1875 132.125 C-2.71702532 136.3117899 -6.34686396 136.7019326 -12.6875 136.55859375 C-17.82206423 136.0884229 -20.8724711 134.08768872 -24.1875 130.3125 C-26.91015555 126.57857239 -27.49920365 124.12702186 -27.52217102 119.63299561 C-27.52932632 118.67136002 -27.53648163 117.70972443 -27.54385376 116.71894836 C-27.54654266 115.66539658 -27.54923157 114.61184479 -27.55200195 113.52636719 C-27.55857315 112.41551254 -27.56514435 111.3046579 -27.57191467 110.16014099 C-27.59165791 106.47655167 -27.60331242 102.79300313 -27.61328125 99.109375 C-27.61735678 97.85211861 -27.6214323 96.59486221 -27.62563133 95.29950714 C-27.64434435 89.33170364 -27.65890924 83.36391312 -27.6672433 77.39608741 C-27.67701027 70.51648057 -27.70331749 63.63719594 -27.74374419 56.75770259 C-27.77759269 50.79206036 -27.7893924 44.82649669 -27.79344749 38.86075592 C-27.79832039 36.3266303 -27.80995425 33.79250829 -27.82848549 31.25844574 C-27.85281704 27.71077295 -27.85192231 24.16394152 -27.8449707 20.61621094 C-27.86418579 19.04802864 -27.86418579 19.04802864 -27.88378906 17.44816589 C-27.83907591 11.18329905 -27.1105036 7.40473343 -23.375 2.3125 C-16.11999251 -3.43104759 -8.34650094 -4.17325047 0 0 Z " fill="#7c7c7c" transform="translate(334.375,102.6875)"/>
<path d="M0 0 C5.67458259 1.89152753 9.32628019 5.65256038 12 11 C12.11362929 13.47013233 12.16780035 15.91274384 12.17700195 18.38378906 C12.18685875 19.52556862 12.18685875 19.52556862 12.19691467 20.69041443 C12.216663 23.21548558 12.22831456 25.74049718 12.23828125 28.265625 C12.24235678 29.12787437 12.2464323 29.99012375 12.25063133 30.87850189 C12.27150012 35.44357566 12.28579747 40.0086193 12.29516602 44.57373047 C12.30622314 49.28599148 12.34061246 53.99777932 12.38033772 58.7098732 C12.40650417 62.33533598 12.41485794 65.96068614 12.41844749 69.58623505 C12.42331458 71.32294658 12.43493208 73.05965303 12.45348549 74.79627228 C12.47787482 77.23077154 12.47691257 79.66404838 12.4699707 82.09863281 C12.48278076 82.81262741 12.49559082 83.52662201 12.50878906 84.26225281 C12.45657804 89.30059715 11.13472899 92.10753057 8 96 C2.51608524 100.83106777 -0.80539399 101.35024743 -8.015625 101.28125 C-13.23894934 100.78899954 -15.77395566 98.29415791 -19.25 94.625 C-22.62946976 89.55579536 -23.2536261 84.84635698 -23.29052734 78.83642578 C-23.29724457 78.14614288 -23.30396179 77.45585999 -23.31088257 76.74465942 C-23.32977446 74.47813586 -23.33378214 72.21190975 -23.3359375 69.9453125 C-23.34237122 68.35879396 -23.3491 66.7722766 -23.35610962 65.1857605 C-23.3680601 61.86551158 -23.37179271 58.54536655 -23.37060547 55.22509766 C-23.37040233 50.98614886 -23.39770894 46.74787084 -23.43214989 42.50908089 C-23.45446773 39.23352035 -23.45844154 35.95812006 -23.45738602 32.6824913 C-23.45973445 31.12048912 -23.46851505 29.55848201 -23.48405075 27.99655533 C-23.62152878 12.74845278 -23.62152878 12.74845278 -19 6 C-13.02465008 -0.05149963 -8.25638812 -0.63150844 0 0 Z " fill="#7c7c7c" transform="translate(261,138)"/>
<path d="M0 0 C3.63910362 3.04669141 6.17621884 5.71615652 7.6875 10.25 C7.80137055 12.24673135 7.85674118 14.24699012 7.88037109 16.24682617 C7.89643402 17.48208542 7.91249695 18.71734467 7.92904663 19.99003601 C7.9405366 21.34100655 7.95114471 22.69198484 7.9609375 24.04296875 C7.96626118 24.72528376 7.97158485 25.40759876 7.97706985 26.11058998 C8.00377822 29.72483826 8.02315712 33.33905233 8.03759766 36.95336914 C8.05091342 39.9341517 8.07872353 42.91424584 8.11962891 45.89477539 C8.16914618 49.50339299 8.19374188 53.11138842 8.20082474 56.72033119 C8.20750659 58.08979399 8.2226484 59.45924458 8.24671555 60.82851219 C8.37862902 68.79019897 8.31983895 75.18779943 2.6875 81.25 C-1.94483497 85.25775097 -6.5334797 85.94946721 -12.59375 85.69140625 C-16.93010336 84.98737187 -20.29850614 83.47208698 -23.3125 80.25 C-27.9514943 73.02015057 -27.89661156 66.59332937 -27.84375 58.15234375 C-27.8464501 56.79048893 -27.85033681 55.428636 -27.85534668 54.06678772 C-27.86121557 51.22491948 -27.85276314 48.38355708 -27.83398438 45.54174805 C-27.81117335 41.91469368 -27.82434635 38.28882214 -27.84827423 34.66181087 C-27.86278519 31.85375689 -27.85810266 29.04597964 -27.84776306 26.23791695 C-27.84383069 24.25552214 -27.85589104 22.27311619 -27.86828613 20.29075623 C-27.79686965 13.40924718 -27.54258833 8.79295854 -23.3125 3.25 C-16.49453117 -3.38854859 -8.31730374 -4.39404726 0 0 Z " fill="#7c7c7c" transform="translate(197.3125,153.75)"/>
</svg>
