<?xml version="1.0" encoding="UTF-8"?>
<svg version="1.1" xmlns="http://www.w3.org/2000/svg" width="512" height="512">
<path d="M0 0 C0.82773926 0.19867676 1.65547852 0.39735352 2.50830078 0.60205078 C15.29966741 3.74631048 27.19520519 8.18362719 39 14 C39.99338379 14.48339844 39.99338379 14.48339844 41.00683594 14.9765625 C61.61295606 25.10970703 81.20929857 40.29699978 95.3125 58.5 C95.77760986 59.09893066 96.24271973 59.69786133 96.72192383 60.31494141 C126.15379984 98.69048044 138.75391908 144.93934889 132.47827148 192.97412109 C128.02312476 223.4753074 115.38894268 251.38236813 96.16992188 275.36279297 C94.88604501 277.1594704 93.96778743 279.01857218 93 281 C93.61429981 281.61291712 93.61429981 281.61291712 94.24100971 282.2382164 C104.20910703 292.18422221 114.1744299 302.13300063 124.13667774 312.08486557 C128.95442489 316.89745807 133.77310406 321.70911037 138.59399414 326.51855469 C143.24521111 331.158734 147.89380869 335.80152641 152.54080772 340.44593048 C154.31536717 342.21864031 156.09080746 343.99046882 157.867136 345.76140594 C160.35230999 348.23933569 162.83435181 350.72036231 165.31567383 353.20214844 C166.05294708 353.93582642 166.79022034 354.66950439 167.54983521 355.42541504 C168.22709152 356.10404602 168.90434784 356.782677 169.60212708 357.48187256 C170.48290027 358.36126307 170.48290027 358.36126307 171.38146687 359.25841904 C175.59138204 363.78839002 176.53569564 366.43346623 176.36328125 372.5859375 C175.85426028 375.96846396 174.49711098 377.72322234 172 380 C167.97915102 382.01042449 164.34333303 381.97616253 160 381 C157.42059326 379.11198425 157.42059326 379.11198425 154.70605469 376.50463867 C153.94253252 375.77816399 153.94253252 375.77816399 153.16358566 375.03701305 C151.42707141 373.37307982 149.7121479 371.68898382 148 370 C147.37797195 369.38988194 146.75594391 368.77976387 146.11506653 368.15115738 C141.06884354 363.19309101 136.07171594 358.18675776 131.078125 353.17578125 C129.48123831 351.57702506 127.88412742 349.97849278 126.2868042 348.38017273 C122.12215978 344.21174506 117.96052949 340.04032123 113.79956055 335.8682251 C109.5374923 331.59585165 105.27252386 327.32637542 101.0078125 323.05664062 C92.66906468 314.7072296 84.33350428 306.35464436 76 298 C72.33088499 299.74547762 69.47808824 301.938346 66.3125 304.5 C31.91866859 331.5407016 -13.49364452 342.94830023 -56.70019531 338.17724609 C-90.46955813 333.96594158 -123.35937454 320.69081899 -149 298 C-149.48952148 297.57074219 -149.97904297 297.14148438 -150.48339844 296.69921875 C-167.0178789 282.1463596 -179.91511734 265.54646016 -190 246 C-190.31952637 245.38157227 -190.63905273 244.76314453 -190.96826172 244.12597656 C-201.28743756 223.83285607 -207.98878904 200.78489449 -208.23828125 177.93359375 C-208.24816574 177.18595764 -208.25805023 176.43832153 -208.26823425 175.66802979 C-208.78257969 126.61959184 -194.18935544 83.11291896 -159.71655273 47.38452148 C-151.42086858 38.93660707 -142.93111999 31.45002636 -133 25 C-132.39623535 24.60522461 -131.7924707 24.21044922 -131.17041016 23.80371094 C-93.43816766 -0.54936988 -44.11586601 -10.97718732 0 0 Z M-150.02392578 69.76513672 C-155.30723677 75.74035648 -159.73275948 82.2776348 -164 89 C-164.37946777 89.58281738 -164.75893555 90.16563477 -165.14990234 90.76611328 C-174.69427672 105.56355949 -180.50496495 122.8191435 -184 140 C-184.33644531 141.55847656 -184.33644531 141.55847656 -184.6796875 143.1484375 C-188.02281351 161.69591744 -186.98189345 181.64828449 -183 200 C-182.74476563 201.24007812 -182.48953125 202.48015625 -182.2265625 203.7578125 C-173.40686067 241.2213166 -148.31161875 273.7974273 -116.125 294.25 C-81.78552675 315.31626666 -41.21146904 321.96063366 -1.9375 312.75 C6.73564774 310.57747774 14.8669643 307.71770687 23 304 C23.63180176 303.71817871 24.26360352 303.43635742 24.91455078 303.14599609 C41.64749573 295.61346731 56.07150213 284.95855416 69 272 C69.93199219 271.07960938 70.86398437 270.15921875 71.82421875 269.2109375 C100.26003428 239.76100587 111.87136791 200.99881624 111.32254028 160.8855896 C111.14247271 151.6403909 110.40345821 142.95315622 108 134 C107.71793701 132.86908936 107.71793701 132.86908936 107.43017578 131.71533203 C101.52901229 108.35010474 90.63688674 88.25202125 75 70 C73.97132813 68.76830078 73.97132813 68.76830078 72.921875 67.51171875 C58.23518156 50.45883581 38.88899541 37.28219146 18 29 C17.33242676 28.73493652 16.66485352 28.46987305 15.97705078 28.19677734 C-43.42830415 5.26136105 -107.60536732 24.18383463 -150.02392578 69.76513672 Z " fill="none" stroke="#7c7c7c" stroke-width="12" transform="translate(272,67)"/>
</svg>