<svg width="68" height="68" viewBox="0 0 68 68" fill="none" xmlns="http://www.w3.org/2000/svg">
<path d="M43.2832 7.80529C46.586 10.5032 48.7871 14.0374 49.3135 18.3206C49.6813 22.6934 48.4685 26.8471 45.6351 30.2266C43.6997 32.4661 41.1675 34.0438 38.3353 34.8896C38.2504 34.915 38.1656 34.9404 38.0781 34.9665C34.1155 36.0787 29.9454 35.446 26.3638 33.5037C25.5548 33.0465 24.8191 32.5098 24.1019 31.9193C23.9816 31.8204 23.8612 31.7215 23.7372 31.6197C20.7195 29.0117 18.9494 25.1939 18.6332 21.2422C18.4162 17.1078 19.6817 13.0062 22.4545 9.90083C22.5685 9.77629 22.6824 9.65175 22.7998 9.52343C22.8883 9.42574 22.9768 9.32806 23.0679 9.22741C28.2484 3.77768 37.3841 3.3283 43.2832 7.80529Z" fill="#B0B0B0"/>
<path d="M33.9765 37.7648C34.2965 37.7661 34.6165 37.7673 34.9365 37.7684C35.7097 37.7712 36.4829 37.7755 37.2561 37.7811C37.0667 38.2787 36.8545 38.6403 36.5237 39.0588C34.2807 42.0914 33.4305 46.0184 33.978 49.7288C34.419 52.3003 35.4581 54.6554 37.1259 56.6613C37.2182 56.7734 37.3105 56.8856 37.4056 57.0011C39.5744 59.5222 42.5202 60.9993 45.7196 61.7394C45.7196 61.7824 45.7196 61.8254 45.7196 61.8696C41.116 61.8816 36.5124 61.8907 31.9088 61.8962C31.365 61.8969 30.8211 61.8976 30.2773 61.8983C30.169 61.8984 30.0607 61.8985 29.9492 61.8987C28.1975 61.9009 26.4459 61.905 24.6942 61.9098C22.8961 61.9147 21.0979 61.9176 19.2997 61.9186C18.1907 61.9194 17.0817 61.9216 15.9727 61.9259C15.2116 61.9286 14.4504 61.9294 13.6893 61.9288C13.2506 61.9284 12.8119 61.9292 12.3731 61.9317C11.8964 61.9343 11.4197 61.9337 10.9429 61.9323C10.8057 61.9338 10.6685 61.9353 10.5272 61.9369C9.03511 61.9249 7.81511 61.4278 6.71409 60.4211C5.94011 59.6265 5.47593 58.6025 5.46221 57.4938C5.46054 57.3754 5.45886 57.2571 5.45714 57.1351C5.45618 57.0076 5.45522 56.8801 5.45423 56.7488C5.45318 56.6157 5.45213 56.4827 5.45104 56.3456C5.44924 56.0632 5.44784 55.7809 5.44682 55.4985C5.44533 55.2131 5.44268 54.9278 5.43881 54.6424C5.40985 52.5079 5.46598 50.5176 6.55133 48.6128C6.60204 48.5209 6.65276 48.429 6.705 48.3343C7.16836 47.5184 7.71086 46.8021 8.34984 46.1144C8.45659 45.9973 8.56334 45.8801 8.67332 45.7594C13.4236 40.7702 21.0242 38.8282 27.6207 38.0415C27.7588 38.0245 27.7588 38.0245 27.8996 38.0071C29.9267 37.7635 31.9371 37.7501 33.9765 37.7648Z" fill="#B0B0B0"/>
<path d="M56.3009 38.626C58.6423 40.7278 59.9681 43.6572 60.1658 46.7857C60.2603 49.145 59.7694 51.3968 58.5353 53.4187C58.3809 53.6711 58.3809 53.6711 58.2208 54.0529C58.3733 54.4908 58.6429 54.7647 58.9707 55.0846C59.0711 55.1833 59.1715 55.282 59.2749 55.3836C59.4377 55.5419 59.4377 55.5419 59.6038 55.7034C59.8326 55.929 60.0614 56.1545 60.2902 56.3801C60.6511 56.7347 61.0125 57.0887 61.3746 57.4421C61.724 57.7837 62.0719 58.1269 62.4195 58.4703C62.5819 58.6275 62.5819 58.6275 62.7475 58.7877C63.447 59.4812 63.8795 60.0099 64.0069 61.0109C63.9099 61.8009 63.6565 62.3355 63.0304 62.8339C62.4377 63.1491 62.015 63.2224 61.3458 63.1675C60.388 62.7867 59.7763 62.1873 59.0631 61.4565C58.949 61.3416 58.8348 61.2268 58.7172 61.1084C58.4166 60.8054 58.1172 60.5012 57.8182 60.1965C57.5119 59.8848 57.2041 59.5746 56.8963 59.2643C56.2948 58.657 55.6947 58.0483 55.0958 57.4383C54.7119 57.5904 54.3378 57.7455 53.9702 57.9337C50.9139 59.4632 47.6871 59.8272 44.4021 58.7616C42.9395 58.2551 41.6794 57.5484 40.5125 56.5269C40.4249 56.4579 40.3372 56.3889 40.247 56.3178C37.9901 54.4971 36.7357 51.5942 36.3865 48.7754C36.0902 45.487 37.0031 42.31 39.1127 39.7626C43.5711 34.6099 51.1966 34.254 56.3009 38.626Z" fill="#B0B0B0"/>
</svg>
