<svg width="40" height="40" viewBox="0 0 40 40" fill="none" xmlns="http://www.w3.org/2000/svg">
<path d="M24.3813 1.45069C25.1373 2.13015 25.3218 2.99252 25.4216 3.95954C25.5641 5.21719 26.0199 6.14081 26.9875 6.96522C27.829 7.57089 28.8409 7.83774 29.868 7.71351C30.4772 7.61182 31.0441 7.37609 31.5913 7.09339C32.2886 6.75675 33.1259 6.76255 33.8695 6.94202C35.7978 7.67037 36.9211 10.2725 37.7358 12.0321C38.1573 12.9793 38.4617 14.0231 38.0775 15.0447C37.7133 15.7975 37.1755 16.2867 36.4906 16.744C35.6438 17.3325 35.0493 18.1989 34.8451 19.2195C34.6685 20.2774 34.858 21.3193 35.439 22.2277C35.8411 22.7702 36.3234 23.1762 36.8813 23.5506C37.5239 23.9929 38.0574 24.6042 38.2045 25.3914C38.3102 26.7898 37.8326 27.8512 37.1889 29.0633C37.1585 29.121 37.1282 29.1787 37.0969 29.2381C36.6625 30.0591 36.1884 30.8238 35.6264 31.5633C35.5716 31.6374 35.5168 31.7115 35.4604 31.7879C34.9704 32.4309 34.4026 32.9433 33.5951 33.1258C32.7247 33.2312 32.0376 33.1293 31.2514 32.7352C30.4938 32.4107 30.4938 32.4107 29.6889 32.2664C29.597 32.26 29.5052 32.2535 29.4106 32.2469C28.3473 32.2695 27.3526 32.6486 26.5736 33.3748C25.802 34.2089 25.4984 35.0987 25.4018 36.202C25.3084 37.2157 25.0093 37.9916 24.2201 38.6727C22.6015 39.8803 19.3025 39.5477 17.3988 39.2879C16.5577 39.1515 15.7523 38.8339 15.2358 38.1258C14.8367 37.4963 14.6883 36.9064 14.6108 36.1727C14.4611 34.8732 14.0212 33.8934 13.0153 33.0364C12.1737 32.4307 11.1619 32.1639 10.1347 32.2881C9.52559 32.3898 8.95864 32.6255 8.41141 32.9082C7.71418 33.2449 6.87682 33.2391 6.13327 33.0596C4.32643 32.3771 3.17584 29.9661 2.41776 28.3208C1.95347 27.2778 1.57865 26.3028 1.85715 25.147C1.93041 24.9588 2.01194 24.7861 2.11075 24.6102C2.15426 24.5296 2.19776 24.449 2.24259 24.366C2.60494 23.9155 3.04236 23.5671 3.52189 23.2479C4.36621 22.6667 4.95508 21.7948 5.15763 20.7821C5.33422 19.7242 5.1448 18.6823 4.56376 17.7739C4.17375 17.2477 3.70969 16.8385 3.16056 16.4852C2.49643 16.0508 2.08439 15.54 1.82877 14.7814C1.57345 13.349 2.15988 12.1697 2.81388 10.9383C2.84423 10.8806 2.87458 10.8229 2.90585 10.7635C3.34023 9.94245 3.81438 9.17777 4.37638 8.4383C4.43116 8.36418 4.48595 8.29006 4.54239 8.21369C5.03232 7.57066 5.60015 7.0583 6.40763 6.8758C7.27808 6.77037 7.9652 6.87227 8.75138 7.26643C9.50892 7.59088 9.50892 7.59088 10.3139 7.73518C10.4057 7.74162 10.4976 7.74807 10.5922 7.75471C11.6554 7.73213 12.6501 7.35305 13.4291 6.62678C14.2008 5.79268 14.5044 4.90286 14.601 3.79963C14.6943 2.78593 14.9935 2.01004 15.7826 1.32893C17.569 -0.00382787 22.6268 0.124845 24.3813 1.45069ZM15.5727 16.3338C14.5897 17.5986 14.1396 19.1111 14.2983 20.7039C14.5064 22.2545 15.3274 23.6305 16.5443 24.6004C17.8766 25.538 19.4185 25.9258 21.0335 25.6554C22.5484 25.347 23.895 24.4848 24.767 23.2039C25.6147 21.8197 25.9649 20.2614 25.5873 18.6629C25.1836 17.1597 24.2937 15.9066 22.9701 15.0789C20.4699 13.6674 17.4699 14.1785 15.5727 16.3338Z" stroke="#7c7c7c" stroke-width="3"/>
</svg>
