<svg width="20" height="20" viewBox="0 0 20 20" fill="#7c7c7c" xmlns="http://www.w3.org/2000/svg">
<g clip-path="url(#clip0_968_20280)">
<path d="M15.7445 2.57993C15.7659 2.59886 15.7872 2.61779 15.8092 2.6373C17.3724 4.02958 18.4132 6.03136 18.5961 8.1268C18.5966 8.1798 18.5964 8.23281 18.5952 8.2858C18.5937 8.4262 18.5944 8.53919 18.6352 8.67368C18.7426 8.77702 18.8511 8.84385 18.9811 8.9166C19.41 9.15954 19.6384 9.59032 19.7746 10.0487C19.8352 10.3262 19.8294 10.6039 19.8278 10.8868C19.8279 10.9523 19.828 11.0178 19.8282 11.0833C19.8285 11.2197 19.8281 11.3562 19.8274 11.4926C19.8265 11.6661 19.827 11.8395 19.828 12.013C19.8285 12.148 19.8283 12.283 19.8279 12.418C19.8278 12.4819 19.828 12.5458 19.8283 12.6097C19.8313 13.2704 19.6935 13.8148 19.2284 14.3109C19.1124 14.4235 19.0095 14.4789 18.8616 14.5411C18.7545 14.5981 18.7545 14.5981 18.6742 14.6893C18.6208 14.9024 18.63 15.1106 18.6376 15.3289C18.6398 15.444 18.6409 15.559 18.6414 15.6741C18.6417 15.7168 18.6417 15.7168 18.6421 15.7603C18.639 16.5749 18.3274 17.2845 17.7659 17.8665C17.2004 18.3945 16.5175 18.6521 15.7499 18.6384C15.6702 18.6383 15.5904 18.6382 15.5107 18.6382C15.3865 18.6379 15.2625 18.637 15.1383 18.6348C15.0174 18.6328 14.8967 18.633 14.7758 18.6335C14.7387 18.6323 14.7016 18.6311 14.6634 18.6299C14.5571 18.6314 14.4769 18.6358 14.3773 18.6737C14.2864 18.7814 14.2366 18.8964 14.182 19.0252C13.8994 19.3928 13.5341 19.541 13.0883 19.6112C12.9636 19.621 12.8399 19.6222 12.7149 19.6216C12.6809 19.6216 12.647 19.6217 12.6119 19.6218C12.5407 19.6218 12.4694 19.6217 12.3982 19.6214C12.2903 19.6209 12.1825 19.6214 12.0747 19.6219C11.4687 19.6224 10.9616 19.5941 10.4931 19.1679C10.23 18.8897 10.116 18.5443 10.1049 18.1659C10.1177 17.7487 10.258 17.4168 10.5434 17.1121C10.8222 16.8511 11.1397 16.7174 11.5222 16.7143C11.5777 16.7137 11.5777 16.7137 11.6344 16.7131C11.674 16.713 11.7137 16.7128 11.7545 16.7126C11.8164 16.7123 11.8164 16.7123 11.8796 16.7119C11.9669 16.7116 12.0542 16.7113 12.1415 16.7112C12.2741 16.7108 12.4067 16.7096 12.5394 16.7083C12.6244 16.7081 12.7095 16.7079 12.7946 16.7077C12.8338 16.7073 12.873 16.7068 12.9135 16.7063C13.364 16.7077 13.7426 16.8304 14.0667 17.1513C14.3383 17.4527 14.3383 17.4527 14.3383 17.6581C14.5801 17.6563 14.8218 17.6536 15.0636 17.6499C15.1456 17.6488 15.2277 17.648 15.3097 17.6475C15.9982 17.6426 16.5442 17.5881 17.0826 17.1113C17.5533 16.6246 17.6287 16.0349 17.644 15.39C17.6454 15.337 17.647 15.284 17.6485 15.2311C17.6522 15.1026 17.6555 14.9741 17.6586 14.8456C17.6353 14.8437 17.612 14.8418 17.588 14.8399C17.2366 14.8073 16.9867 14.6756 16.7434 14.4169C16.4865 14.0853 16.4418 13.765 16.4414 13.3593C16.4412 13.3199 16.441 13.2805 16.4408 13.2399C16.4402 13.1097 16.4399 12.9795 16.4397 12.8492C16.4395 12.7585 16.4393 12.6678 16.4391 12.577C16.4386 12.3867 16.4384 12.1964 16.4383 12.0061C16.4381 11.7629 16.4371 11.5197 16.436 11.2765C16.4353 11.089 16.4351 10.9015 16.435 10.714C16.4349 10.6244 16.4346 10.5348 16.4341 10.4452C16.4334 10.3194 16.4335 10.1937 16.4337 10.068C16.4334 10.0314 16.433 9.99471 16.4326 9.95696C16.4354 9.5168 16.5606 9.19979 16.8615 8.8812C17.0714 8.68321 17.3293 8.55649 17.6195 8.55649C17.4517 7.12604 17.069 5.78911 16.2133 4.61118C16.1976 4.5894 16.1819 4.56763 16.1657 4.5452C15.4448 3.55391 14.5291 2.78742 13.4398 2.22836C13.4159 2.2158 13.3919 2.20324 13.3672 2.19029C12.2886 1.62961 10.9839 1.33895 9.76797 1.40805C9.7391 1.40966 9.71023 1.41126 9.68048 1.41292C8.30833 1.49607 6.9683 1.88401 5.82266 2.65805C5.80028 2.67315 5.7779 2.68825 5.75484 2.70381C5.4775 2.89237 5.21759 3.09014 4.97198 3.31937C4.89371 3.39228 4.81338 3.46103 4.73135 3.52963C3.29683 4.79202 2.56819 6.6973 2.38516 8.55649C2.45646 8.56314 2.45646 8.56314 2.52921 8.56992C2.87319 8.61352 3.12133 8.83497 3.33731 9.09406C3.55019 9.38727 3.56292 9.69278 3.56333 10.0427C3.56362 10.1018 3.56362 10.1018 3.56392 10.1621C3.56449 10.2924 3.56476 10.4226 3.56497 10.5528C3.5652 10.6435 3.56542 10.7343 3.56565 10.825C3.56606 11.0153 3.56629 11.2056 3.56642 11.3959C3.56664 11.6391 3.56757 11.8823 3.56869 12.1255C3.56942 12.313 3.56962 12.5005 3.56968 12.688C3.56979 12.7776 3.57011 12.8673 3.57062 12.9569C3.57129 13.0826 3.57121 13.2083 3.57096 13.334C3.57132 13.3707 3.57168 13.4073 3.57205 13.4451C3.56927 13.8897 3.44238 14.2151 3.1304 14.5309C2.82925 14.8099 2.52268 14.8983 2.11539 14.8929C1.52937 14.8529 1.0668 14.6044 0.666412 14.1815C0.350454 13.802 0.194429 13.4073 0.190748 12.9147C0.190491 12.8862 0.190235 12.8576 0.189971 12.8282C0.189203 12.734 0.188745 12.6399 0.188354 12.5457C0.188195 12.5134 0.188036 12.481 0.187872 12.4477C0.187058 12.2761 0.186499 12.1046 0.186132 11.933C0.185702 11.7571 0.18436 11.5811 0.182805 11.4052C0.181777 11.2689 0.181456 11.1325 0.181316 10.9962C0.181128 10.9314 0.180679 10.8666 0.179948 10.8019C0.172929 10.1381 0.306256 9.5928 0.773834 9.0936C0.864643 9.0035 0.934834 8.94933 1.05246 8.89737C1.18915 8.83563 1.27089 8.78787 1.36954 8.67368C1.42794 8.4744 1.42466 8.26362 1.43347 8.05753C1.47655 7.09336 1.81652 6.13859 2.22891 5.27524C2.25051 5.22846 2.27212 5.18168 2.29437 5.13348C2.63717 4.41435 3.11233 3.77055 3.65607 3.19135C3.73264 3.10895 3.8055 3.02565 3.87686 2.93881C4.00363 2.78941 4.14942 2.66655 4.29922 2.54086C4.33296 2.51151 4.3667 2.48215 4.40146 2.45191C4.89812 2.0259 5.43828 1.67155 6.01797 1.36899C6.04527 1.3546 6.07256 1.34021 6.10068 1.32539C6.86742 0.926446 7.70415 0.649437 8.55704 0.509614C8.60684 0.501356 8.65664 0.493098 8.70795 0.48459C11.2491 0.108914 13.8312 0.870222 15.7445 2.57993ZM1.41745 9.85562C1.14952 10.1856 1.15042 10.5334 1.1521 10.9416C1.15189 11.0023 1.15165 11.0631 1.15137 11.1238C1.15096 11.2507 1.15114 11.3775 1.15171 11.5043C1.15238 11.6659 1.15146 11.8274 1.15009 11.989C1.14922 12.1143 1.14929 12.2396 1.14961 12.365C1.14964 12.4245 1.14938 12.484 1.1488 12.5436C1.14521 12.9783 1.20533 13.2925 1.49161 13.6297C1.68947 13.8129 1.94108 13.891 2.2045 13.9251C2.32918 13.9044 2.40264 13.8684 2.50235 13.7909C2.5695 13.6806 2.59026 13.5983 2.5904 13.4701C2.59073 13.4213 2.59073 13.4213 2.59106 13.3715C2.5909 13.3361 2.59075 13.3008 2.59058 13.2644C2.59072 13.2269 2.59086 13.1894 2.591 13.1508C2.59134 13.0268 2.59111 12.9029 2.59085 12.7789C2.5909 12.6928 2.59098 12.6067 2.59108 12.5206C2.59119 12.3401 2.59102 12.1596 2.59066 11.9792C2.59021 11.7477 2.59047 11.5163 2.59094 11.2848C2.59122 11.107 2.59113 10.9292 2.59093 10.7514C2.59088 10.6661 2.59094 10.5807 2.59112 10.4954C2.59132 10.3761 2.59102 10.2569 2.59058 10.1377C2.59074 10.1023 2.5909 10.067 2.59106 10.0305C2.59084 9.99802 2.59062 9.96549 2.5904 9.93198C2.59037 9.90381 2.59034 9.87564 2.59031 9.84661C2.57868 9.75299 2.55144 9.69147 2.50235 9.61118C2.13241 9.33122 1.71423 9.59171 1.41745 9.85562ZM17.5023 9.61118C17.4352 9.72114 17.4144 9.80366 17.414 9.93172C17.4138 9.96419 17.4135 9.99666 17.4132 10.0301C17.4133 10.0654 17.4134 10.1007 17.4135 10.1371C17.4133 10.1745 17.4131 10.2119 17.4129 10.2505C17.4123 10.3742 17.4124 10.498 17.4125 10.6218C17.4123 10.7078 17.4122 10.7938 17.412 10.8798C17.4117 11.0601 17.4117 11.2404 17.4119 11.4207C17.4121 11.6518 17.4115 11.8829 17.4106 12.114C17.41 12.2917 17.4099 12.4693 17.4101 12.6469C17.41 12.7321 17.4098 12.8173 17.4094 12.9026C17.409 13.0217 17.4092 13.1408 17.4097 13.2599C17.4094 13.2951 17.4091 13.3304 17.4088 13.3666C17.4103 13.5532 17.4197 13.6786 17.5414 13.8299C17.6887 13.9328 17.8158 13.9119 17.9871 13.8897C18.2696 13.8318 18.5052 13.6731 18.6742 13.4393C18.8657 13.1328 18.854 12.8095 18.8526 12.4605C18.8528 12.3997 18.8531 12.339 18.8533 12.2782C18.8537 12.1514 18.8536 12.0246 18.853 11.8977C18.8523 11.7361 18.8532 11.5746 18.8546 11.413C18.8555 11.2877 18.8554 11.1624 18.8551 11.0371C18.8551 10.9776 18.8553 10.918 18.8559 10.8585C18.8593 10.451 18.8135 10.1457 18.5529 9.82129C18.2639 9.56918 17.8515 9.34693 17.5023 9.61118ZM11.1352 17.9315C11.079 18.1079 11.0796 18.2459 11.1547 18.4149C11.3084 18.5763 11.4735 18.6388 11.6923 18.6498C11.7536 18.6505 11.8149 18.6506 11.8761 18.6502C11.9089 18.6503 11.9417 18.6504 11.9755 18.6505C12.0444 18.6506 12.1133 18.6504 12.1823 18.6499C12.2872 18.6493 12.3921 18.6499 12.497 18.6506C12.5643 18.6506 12.6316 18.6504 12.6989 18.6502C12.7299 18.6504 12.761 18.6507 12.793 18.6509C13.0232 18.648 13.2187 18.611 13.3959 18.4515C13.46 18.3198 13.4882 18.1941 13.4789 18.0487C13.3927 17.8729 13.3042 17.7782 13.1273 17.6971C13.0007 17.6801 12.8753 17.6807 12.7477 17.6815C12.7112 17.6814 12.6746 17.6813 12.637 17.6812C12.5599 17.6811 12.4828 17.6813 12.4057 17.6818C12.2879 17.6825 12.1702 17.6818 12.0524 17.6811C11.9773 17.6812 11.9023 17.6813 11.8273 17.6815C11.7922 17.6813 11.7571 17.6811 11.7209 17.6808C11.476 17.6836 11.2936 17.7303 11.1352 17.9315Z" stroke="#7c7c7c" stroke-width="0"/>
<path d="M6.95257 4.95637C6.97952 4.95625 7.00647 4.95613 7.03424 4.95601C7.12431 4.95568 7.21438 4.95562 7.30445 4.95556C7.36914 4.95538 7.43384 4.95518 7.49853 4.95497C7.67416 4.95446 7.8498 4.95421 8.02543 4.95403C8.1353 4.95392 8.24518 4.95376 8.35505 4.95358C8.69923 4.95305 9.04341 4.95267 9.38759 4.95252C9.78411 4.95235 10.1806 4.95166 10.5771 4.95053C10.8841 4.94968 11.1911 4.94929 11.498 4.94924C11.6811 4.9492 11.8642 4.94897 12.0473 4.94827C12.2198 4.94762 12.3923 4.94754 12.5647 4.94788C12.6277 4.94791 12.6907 4.94775 12.7537 4.94736C13.4017 4.9436 13.9698 5.05389 14.4597 5.50964C14.9024 5.98428 15.0517 6.50124 15.0502 7.1362C15.0505 7.20259 15.0505 7.20259 15.0508 7.27031C15.0514 7.4158 15.0513 7.56127 15.0513 7.70676C15.0514 7.80847 15.0516 7.91019 15.0518 8.01191C15.0521 8.22484 15.052 8.43778 15.0518 8.65071C15.0516 8.89575 15.0521 9.14077 15.0529 9.3858C15.0537 9.6228 15.0538 9.85979 15.0537 10.0968C15.0537 10.197 15.0539 10.2973 15.0543 10.3975C15.0548 10.5381 15.0545 10.6786 15.054 10.8192C15.0543 10.8601 15.0546 10.9009 15.055 10.943C15.0507 11.5519 14.8492 12.05 14.4308 12.4922C14.0581 12.8348 13.5751 13.0151 13.0737 13.0118C13.0155 13.0115 12.9572 13.0113 12.899 13.0111C12.8684 13.0109 12.8377 13.0107 12.8062 13.0105C12.6429 13.0098 12.4797 13.0104 12.3165 13.0108C12.1092 13.0113 11.902 13.0113 11.6947 13.0097C11.5268 13.0084 11.3589 13.0086 11.191 13.0098C11.1272 13.01 11.0635 13.0096 10.9998 13.0087C10.6506 12.9952 10.6506 12.9952 10.3306 13.1103C10.2519 13.1893 10.1857 13.2721 10.1176 13.3603C10.0662 13.4075 10.0137 13.4535 9.96007 13.4981C9.80268 13.6338 9.65797 13.7792 9.51353 13.9284C9.45921 13.9838 9.40486 14.0391 9.35049 14.0945C9.26627 14.1804 9.1822 14.2664 9.09854 14.3529C9.01679 14.4373 8.93441 14.521 8.85191 14.6046C8.81509 14.6432 8.81509 14.6432 8.77753 14.6825C8.5794 14.8817 8.36809 15.0102 8.08897 15.0607C7.79422 15.0571 7.53071 15.0117 7.30223 14.8134C7.07181 14.5646 6.97354 14.3277 6.98118 13.9891C6.98135 13.9609 6.98152 13.9327 6.98169 13.9036C6.98234 13.8144 6.98381 13.7253 6.9853 13.6362C6.98589 13.5753 6.98643 13.5145 6.98691 13.4536C6.98819 13.3053 6.99021 13.157 6.99263 13.0087C6.9702 13.0095 6.94776 13.0103 6.92465 13.011C6.37078 13.0219 5.88495 12.7856 5.48598 12.4115C5.07944 11.9579 4.94272 11.4205 4.94622 10.8211C4.94601 10.7768 4.9458 10.7325 4.94559 10.6869C4.94508 10.5421 4.94542 10.3972 4.94581 10.2524C4.94574 10.1508 4.94562 10.0493 4.94547 9.94773C4.9453 9.73549 4.94554 9.52326 4.9461 9.31103C4.94674 9.06686 4.94653 8.8227 4.94589 8.57852C4.94529 8.34209 4.94535 8.10566 4.9457 7.86923C4.94577 7.76931 4.94568 7.66939 4.94541 7.56947C4.94511 7.42948 4.94557 7.2895 4.94622 7.14951C4.94598 7.10883 4.94574 7.06815 4.9455 7.02623C4.95047 6.44324 5.13561 5.93815 5.53725 5.51132C5.93036 5.15153 6.42246 4.95765 6.95257 4.95637ZM6.13325 6.32904C6.01273 6.5221 5.93338 6.71025 5.93219 6.93951C5.93191 6.97663 5.93163 7.01376 5.93135 7.052C5.93124 7.09267 5.93113 7.13334 5.93103 7.17524C5.93077 7.21812 5.93051 7.26101 5.93025 7.30519C5.92948 7.44744 5.92902 7.58969 5.92863 7.73193C5.92847 7.78052 5.92831 7.8291 5.92815 7.87915C5.92742 8.10985 5.92685 8.34055 5.92653 8.57125C5.92614 8.83695 5.92512 9.10265 5.92354 9.36835C5.92221 9.59892 5.92175 9.82949 5.9216 10.0601C5.92141 10.1579 5.92095 10.2557 5.92023 10.3536C5.91927 10.4907 5.91931 10.6279 5.91958 10.765C5.91908 10.8052 5.91858 10.8454 5.91807 10.8868C5.92061 11.2413 6.02363 11.5155 6.26433 11.7781C6.46364 11.9604 6.67849 12.0347 6.94472 12.0404C6.98017 12.0415 7.01561 12.0426 7.05214 12.0438C7.12608 12.0458 7.20004 12.0475 7.274 12.0489C7.47861 12.0559 7.64188 12.064 7.81294 12.1884C7.94482 12.3915 7.94843 12.5704 7.95012 12.8046C7.95082 12.8406 7.95152 12.8767 7.95224 12.9139C7.95435 13.0285 7.95568 13.1431 7.95698 13.2578C7.95828 13.3357 7.95963 13.4137 7.96103 13.4917C7.96434 13.6822 7.96695 13.8728 7.96919 14.0634C8.20386 13.8695 8.41651 13.6584 8.6299 13.4415C8.66668 13.4043 8.70348 13.3672 8.7403 13.3301C8.89543 13.1736 9.0504 13.017 9.20496 12.86C9.3 12.7635 9.39533 12.6673 9.49085 12.5712C9.54448 12.5171 9.5978 12.4627 9.65111 12.4083C9.68384 12.3754 9.71657 12.3426 9.75029 12.3087C9.77887 12.2797 9.80745 12.2508 9.8369 12.2209C10.0184 12.0688 10.1923 12.0598 10.4217 12.0606C10.4667 12.0603 10.4667 12.0603 10.5126 12.06C10.5776 12.0596 10.6425 12.0594 10.7075 12.0593C10.8105 12.0592 10.9134 12.0585 11.0164 12.0577C11.3092 12.0556 11.6019 12.0544 11.8946 12.0534C12.0739 12.0528 12.2532 12.0516 12.4325 12.0501C12.5006 12.0496 12.5687 12.0494 12.6368 12.0494C12.7324 12.0494 12.8279 12.0487 12.9234 12.0478C12.9512 12.048 12.979 12.0482 13.0076 12.0484C13.3259 12.0438 13.5674 11.9327 13.7988 11.7186C13.9708 11.526 14.0674 11.2886 14.0687 11.0311C14.069 10.9939 14.0692 10.9568 14.0695 10.9186C14.0696 10.8779 14.0697 10.8372 14.0699 10.7953C14.0702 10.731 14.0702 10.731 14.0706 10.6654C14.0714 10.5231 14.0719 10.3809 14.0722 10.2386C14.0724 10.1901 14.0726 10.1415 14.0727 10.0914C14.0735 9.86073 14.074 9.63003 14.0744 9.39933C14.0747 9.13363 14.0758 8.86793 14.0773 8.60223C14.0787 8.37166 14.0791 8.14109 14.0793 7.91052C14.0795 7.81268 14.0799 7.71485 14.0807 7.61702C14.0816 7.47986 14.0816 7.34273 14.0813 7.20556C14.0818 7.16537 14.0823 7.12518 14.0828 7.08377C14.0803 6.73178 13.978 6.45423 13.7393 6.19247C13.521 6.00101 13.2691 5.93367 12.9847 5.93267C12.9452 5.93245 12.9452 5.93245 12.9049 5.93223C12.8165 5.9318 12.7281 5.93165 12.6397 5.9315C12.5763 5.93126 12.513 5.931 12.4497 5.93072C12.2415 5.9299 12.0333 5.9295 11.8251 5.92911C11.7534 5.92895 11.6817 5.92879 11.61 5.92862C11.273 5.92788 10.936 5.92732 10.599 5.927C10.2103 5.92662 9.82158 5.92559 9.43286 5.92401C9.13227 5.92283 8.83167 5.92225 8.53108 5.92213C8.35162 5.92203 8.17217 5.92168 7.99272 5.9207C7.82375 5.91979 7.65479 5.91963 7.48582 5.92003C7.42399 5.92005 7.36215 5.9198 7.30032 5.91926C6.83916 5.91548 6.45216 5.9654 6.13325 6.32904Z" stroke="#7c7c7c" stroke-width="1"/>
<path d="M8.01379 8.38921C8.19979 8.4866 8.31151 8.62095 8.40961 8.80242C8.47876 9.05021 8.45519 9.23928 8.33255 9.46099C8.22833 9.61015 8.10521 9.70874 7.93109 9.76678C7.6736 9.7959 7.46655 9.78858 7.25375 9.63128C7.10511 9.49417 7.04367 9.38241 7.01801 9.18588C7.00773 8.92875 7.02479 8.75688 7.1889 8.55584C7.42238 8.34049 7.71123 8.28427 8.01379 8.38921Z" stroke="#7c7c7c" stroke-width="0"/>
<path d="M12.5912 8.39499C12.7706 8.49784 12.9088 8.62657 12.9678 8.82971C12.9958 9.04446 13.0053 9.25782 12.9043 9.45471C12.7781 9.61416 12.6524 9.70306 12.46 9.76721C12.191 9.79589 12.0145 9.7727 11.7959 9.61096C11.6363 9.44268 11.5695 9.3017 11.5469 9.07141C11.5532 8.86149 11.6318 8.68598 11.7762 8.53369C12.0048 8.33532 12.3052 8.28941 12.5912 8.39499Z" stroke="#7c7c7c" stroke-width="0"/>
<path d="M10.3228 8.40122C10.4954 8.52282 10.6363 8.66525 10.7037 8.86753C10.7246 9.10053 10.7253 9.29555 10.5865 9.49253C10.4064 9.67353 10.2697 9.7709 10.0079 9.77573C9.79803 9.77238 9.65899 9.73647 9.50604 9.58423C9.32555 9.38241 9.28506 9.23475 9.28936 8.96503C9.30669 8.75609 9.40048 8.63868 9.55136 8.50376C9.77395 8.31778 10.0535 8.31315 10.3228 8.40122Z" stroke="#7c7c7c" stroke-width="0"/>
</g>
<defs>
<clipPath id="clip0_968_20280">
<rect width="20" height="20" fill=""/>
</clipPath>
</defs>
</svg>
