<?xml version="1.0" encoding="UTF-8"?>
<svg version="1.1" xmlns="http://www.w3.org/2000/svg" width="512" height="512">
<path d="M0 0 C1.08237946 -0.00287018 2.16475891 -0.00574036 3.27993774 -0.00869751 C5.54714487 -0.01072394 7.81437005 -0.00529455 10.08154297 0.00732422 C13.55084988 0.02349243 17.01900851 0.00737816 20.48828125 -0.01171875 C22.7005234 -0.00973791 24.91276483 -0.00589753 27.125 0 C28.15837494 -0.00607269 29.19174988 -0.01214539 30.25643921 -0.0184021 C35.88513009 0.03674717 39.973536 0.207911 44.1640625 4.3984375 C44.74416752 11.47571869 44.74416752 11.47571869 42.84375 14.49853516 C38.52434592 17.56099895 34.02739353 16.94172597 28.86328125 16.90234375 C27.19867607 16.9164756 27.19867607 16.9164756 25.5004425 16.93089294 C21.95062869 16.95958873 18.40148303 16.96262004 14.8515625 16.9609375 C11.31245082 16.9645481 7.77382764 16.97413485 4.2348175 17.00169373 C2.03337241 17.01844191 -0.16823307 17.02138963 -2.3697052 17.00868225 C-8.35564115 17.04957425 -12.51713136 17.6290038 -17.8359375 20.3984375 C-18.8259375 20.7284375 -19.8159375 21.0584375 -20.8359375 21.3984375 C-23.91878684 27.56413618 -25.08573776 33.95268925 -25.09041309 40.79392815 C-25.09361957 41.50842564 -25.09682605 42.22292313 -25.10012969 42.95907205 C-25.1084155 45.34762433 -25.10251045 47.73592493 -25.09663391 50.1244812 C-25.09965524 51.85652618 -25.10354463 53.58856983 -25.10822648 55.32061112 C-25.11851757 60.07610415 -25.11632182 64.83152188 -25.11204588 69.58702111 C-25.10958069 74.71732413 -25.11859026 79.84760892 -25.12608337 84.97790527 C-25.13883811 95.02713889 -25.1406231 105.07634579 -25.13828311 115.12558614 C-25.13650066 123.29325191 -25.13824802 131.46090957 -25.14250755 139.62857437 C-25.14310274 140.79067916 -25.14369793 141.95278394 -25.14431116 143.15010402 C-25.1455229 145.51086171 -25.14673703 147.87161939 -25.14795353 150.23237707 C-25.15883205 172.37578145 -25.1566651 194.51917061 -25.15056869 216.66257586 C-25.14539921 236.92216385 -25.15665524 257.18170377 -25.17566691 277.44128226 C-25.19503653 298.24169014 -25.20330285 319.04207526 -25.19954365 339.84249222 C-25.19763029 351.52118965 -25.2001324 363.19984615 -25.21425819 374.87853622 C-25.22616178 384.82065582 -25.22758834 394.76270931 -25.21546803 404.7048298 C-25.2095722 409.77730385 -25.20849942 414.84965691 -25.22047043 419.92212296 C-25.23130483 424.56695373 -25.22825494 429.21156212 -25.21420874 433.85638238 C-25.21155509 435.53532609 -25.21394931 437.21428709 -25.22194461 438.89321385 C-25.71858292 452.16354053 -25.71858292 452.16354053 -20.56103212 463.96467769 C-13.60527873 470.43080193 -4.76373355 469.68660468 4.09371948 469.65913391 C5.40008712 469.66295946 6.70645476 469.66678501 8.05240929 469.67072648 C11.6677523 469.68099639 15.28299603 469.67882724 18.89834714 469.67454588 C22.80164738 469.67207683 26.70492383 469.68109507 30.60821533 469.68858337 C38.25110426 469.70132745 45.89395804 469.70312442 53.5368558 469.70078311 C59.74990741 469.69899945 65.96294836 469.70075063 72.17599869 469.70500755 C73.06056735 469.70560274 73.94513601 469.70619793 74.85650978 469.70681116 C76.65356746 469.70802292 78.45062515 469.70923705 80.24768282 469.71045353 C97.09757637 469.72132797 113.9474499 469.71916705 130.79734458 469.71306869 C146.20704378 469.70789976 161.61667976 469.71915449 177.02636646 469.73816691 C192.85472121 469.75754593 208.68304605 469.76580118 224.51141274 469.76204365 C233.39554749 469.76013169 242.27962844 469.76261871 251.16375351 469.77675819 C258.72702281 469.78867379 266.29020518 469.79007489 273.85347567 469.77796803 C277.71080336 469.77208056 281.56797207 469.77097618 285.42528915 469.78297043 C289.61046475 469.79583269 293.79526221 469.78536167 297.98043823 469.7726593 C299.8016078 469.78372073 299.8016078 469.78372073 301.65956867 469.79500562 C308.58557012 469.75076826 316.09520441 469.67938626 321.74513233 465.12353212 C326.75695451 459.6732612 327.41368139 453.10959024 327.41853809 446.00294685 C327.42174457 445.28844936 327.42495105 444.57395187 327.42825469 443.83780295 C327.4365405 441.44925067 327.43063545 439.06095007 327.42475891 436.6723938 C327.42778024 434.94034882 327.43166963 433.20830517 327.43635148 431.47626388 C327.44664257 426.72077085 327.44444682 421.96535312 327.44017088 417.20985389 C327.43770569 412.07955087 327.44671526 406.94926608 327.45420837 401.81896973 C327.46696311 391.76973611 327.4687481 381.72052921 327.46640811 371.67128886 C327.46462566 363.50362309 327.46637302 355.33596543 327.47063255 347.16830063 C327.47152534 345.42514345 327.47152534 345.42514345 327.47243616 343.64677098 C327.4736479 341.28601329 327.47486203 338.92525561 327.47607853 336.56449793 C327.48695705 314.42109355 327.4847901 292.27770439 327.47869369 270.13429914 C327.47352421 249.87471115 327.48478024 229.61517123 327.50379191 209.35559274 C327.52316153 188.55518486 327.53142785 167.75479974 327.52766865 146.95438278 C327.52575529 135.27568535 327.5282574 123.59702885 327.54238319 111.91833878 C327.55428678 101.97621918 327.55571334 92.03416569 327.54359303 82.0920452 C327.5376972 77.01957115 327.53662442 71.94721809 327.54859543 66.87475204 C327.55942983 62.22992127 327.55637994 57.58531288 327.54233374 52.94049262 C327.53968009 51.26154891 327.54207431 49.58258791 327.55006961 47.90366115 C327.58706622 39.55423277 327.4833401 32.21887867 324.1640625 24.3984375 C323.8340625 23.4084375 323.5040625 22.4184375 323.1640625 21.3984375 C321.43263396 20.23921622 321.43263396 20.23921622 319.1640625 19.3984375 C318.36564941 19.05474121 317.56723633 18.71104492 316.74462891 18.35693359 C311.66980423 16.99843355 306.79362741 17.12013502 301.5625 17.125 C299.27603667 17.10472301 296.98957836 17.08387247 294.703125 17.0625 C291.11063367 17.03984376 287.51834092 17.0234039 283.92578125 17.01757812 C280.45015953 17.00808189 276.975424 16.97435374 273.5 16.9375 C271.88585709 16.94506821 271.88585709 16.94506821 270.23910522 16.95278931 C269.23771515 16.93952606 268.23632507 16.92626282 267.20458984 16.91259766 C266.32556 16.90974762 265.44653015 16.90689758 264.54086304 16.90396118 C261.39068029 16.2339462 260.17603909 14.854896 258.1640625 12.3984375 C257.45523947 9.49058869 257.82434461 7.4558985 258.1640625 4.3984375 C259.97569517 1.72412261 261.04167327 1.43923391 264.1640625 0.3984375 C265.74699196 0.29669101 267.33377716 0.25007006 268.91992188 0.23730469 C269.88522827 0.22769714 270.85053467 0.2180896 271.84509277 0.20819092 C273.41063904 0.2018161 273.41063904 0.2018161 275.0078125 0.1953125 C276.62701599 0.18676239 276.62701599 0.18676239 278.27893066 0.17803955 C280.5687563 0.16858497 282.85859558 0.16205376 285.1484375 0.15820312 C288.62264445 0.14855255 292.09624581 0.11755585 295.5703125 0.0859375 C297.79947567 0.07940166 300.02864306 0.07415347 302.2578125 0.0703125 C303.28531616 0.0579657 304.31281982 0.0456189 305.37145996 0.03289795 C316.813743 0.06756589 326.57071246 2.58766925 335.1640625 10.3984375 C342.57611509 19.22230963 344.2864285 28.48672256 344.29269695 39.82236958 C344.29444999 40.53994422 344.29620303 41.25751886 344.29800919 41.99683818 C344.30265259 44.39580492 344.30020798 46.7947106 344.29777527 49.19367981 C344.29964407 50.93326053 344.30194506 52.67284082 344.30464059 54.41242045 C344.31075634 59.18876781 344.31062526 63.96509766 344.30944622 68.74144804 C344.30924215 73.89425973 344.31476148 79.04706581 344.31950378 84.19987488 C344.32780956 94.29355467 344.33055859 104.38722861 344.33111616 114.48091153 C344.33159134 122.68527515 344.33364616 130.88963685 344.33681679 139.09399986 C344.345623 162.35442416 344.35023619 185.61484384 344.34948631 208.87526981 C344.34942638 210.75616042 344.34942638 210.75616042 344.34936523 212.67504883 C344.34932435 213.93050665 344.34928347 215.18596447 344.34924135 216.47946646 C344.34883485 236.82889902 344.35840566 257.17831307 344.3725036 277.52774028 C344.38686476 298.42194078 344.39377393 319.31613225 344.39290982 340.21033782 C344.39257778 351.94103793 344.39532838 363.67171865 344.40608788 375.40241432 C344.41518942 385.3895075 344.41737094 395.37657248 344.41057845 405.363668 C344.40731157 410.45852063 344.40726268 415.55331916 344.4159317 420.64816666 C344.42379006 425.31459355 344.42237201 429.98092338 344.41364757 434.64734789 C344.41211113 436.33303937 344.41393416 438.01873806 344.41950765 439.70442102 C344.46193914 453.45109283 344.30887575 466.13277322 334.4140625 476.6484375 C328.42938357 482.34227222 321.86880857 485.5180348 313.5726223 485.53265858 C312.40177853 485.53711642 311.23093476 485.54157426 310.02461088 485.54616719 C308.08588934 485.54589065 308.08588934 485.54589065 306.10800171 485.54560852 C304.7258928 485.54890732 303.34378486 485.55263292 301.96167815 485.55675 C298.15490146 485.56677646 294.34814054 485.57048783 290.54135251 485.57313931 C286.43893847 485.57704049 282.33653693 485.586619 278.23413086 485.59535217 C268.32201752 485.61512255 258.40990315 485.62518382 248.49777502 485.63407996 C243.83075706 485.63846219 239.16374024 485.64382919 234.49672318 485.64906883 C218.98351718 485.66608219 203.4703119 485.68057632 187.95709801 485.68781757 C183.9305458 485.68972749 179.90399359 485.69164782 175.87744141 485.69360352 C174.87665214 485.69408726 173.87586288 485.694571 172.84474666 485.6950694 C156.63293379 485.70336953 140.4211947 485.72870568 124.20941405 485.76118419 C107.5675815 485.79425259 90.92578646 485.81226616 74.28392088 485.81546181 C64.93915649 485.81762718 55.59449969 485.82637973 46.2497673 485.85192299 C38.29113753 485.87362704 30.33264147 485.88168189 22.37398545 485.87195621 C18.31411088 485.86741055 14.2545122 485.86931298 10.19467545 485.88871765 C6.47481672 485.90634356 2.75543528 485.9053566 -0.96442847 485.88982036 C-2.94098233 485.886321 -4.91754116 485.90247495 -6.89402544 485.91942483 C-17.3400715 485.84387731 -24.39806529 483.38857534 -32.046875 476.2578125 C-40.25858619 467.7233703 -41.95810658 458.66624659 -41.96457195 446.97450542 C-41.96632499 446.25693078 -41.96807803 445.53935614 -41.96988419 444.80003682 C-41.97452759 442.40107008 -41.97208298 440.0021644 -41.96965027 437.60319519 C-41.97151907 435.86361447 -41.97382006 434.12403418 -41.97651559 432.38445455 C-41.98263134 427.60810719 -41.98250026 422.83177734 -41.98132122 418.05542696 C-41.98111715 412.90261527 -41.98663648 407.74980919 -41.99137878 402.59700012 C-41.99968456 392.50332033 -42.00243359 382.40964639 -42.00299116 372.31596347 C-42.00346634 364.11159985 -42.00552116 355.90723815 -42.00869179 347.70287514 C-42.017498 324.44245084 -42.02211119 301.18203116 -42.02136131 277.92160519 C-42.02132136 276.66767812 -42.0212814 275.41375104 -42.02124023 274.12182617 C-42.02117891 272.23863944 -42.02117891 272.23863944 -42.02111635 270.31740854 C-42.02070985 249.96797598 -42.03028066 229.61856193 -42.0443786 209.26913472 C-42.05873976 188.37493422 -42.06564893 167.48074275 -42.06478482 146.58653718 C-42.06445278 134.85583707 -42.06720338 123.12515635 -42.07796288 111.39446068 C-42.08706442 101.4073675 -42.08924594 91.42030252 -42.08245345 81.433207 C-42.07918657 76.33835437 -42.07913768 71.24355584 -42.0878067 66.14870834 C-42.09566506 61.48228145 -42.09424701 56.81595162 -42.08552257 52.14952711 C-42.08398613 50.46383563 -42.08580916 48.77813694 -42.09138265 47.09245398 C-42.13351425 33.44293722 -41.95388407 19.78984209 -31.8359375 9.3984375 C-22.34450682 1.61467008 -12.01888908 -0.07146975 0 0 Z " fill="#000000" transform="translate(104.8359375,26.6015625)"/>
<path d="M0 0 C1.40691252 -0.00678504 2.81381614 -0.01569314 4.22070312 -0.02655029 C8.02252189 -0.04924564 11.82365837 -0.0405484 15.62548828 -0.02465487 C19.61492676 -0.0119448 23.60430908 -0.02375009 27.59375 -0.03158569 C34.29177272 -0.04066748 40.98951927 -0.02873321 47.6875 -0.00488281 C55.41758356 0.02232587 63.14700761 0.01351065 70.8770752 -0.01401484 C77.52874371 -0.03674709 84.18021435 -0.03988598 90.83190918 -0.02682149 C94.79820558 -0.01904947 98.76419256 -0.01792293 102.73046875 -0.03450394 C106.46051715 -0.0490098 110.18972012 -0.03881729 113.91967773 -0.01003265 C115.93146623 -0.00033051 117.94332672 -0.01506978 119.95507812 -0.03067017 C128.69213964 0.07104523 133.52684615 1.72648646 140.0234375 7.42041016 C140.46945312 7.94892578 140.91546875 8.47744141 141.375 9.02197266 C142.06722656 9.80701172 142.06722656 9.80701172 142.7734375 10.60791016 C146.9343931 17.52516755 146.33945153 25.57987228 146.31567383 33.35253906 C146.31251782 35.50979369 146.33600561 37.66566857 146.36132812 39.82275391 C146.40927747 50.00845953 145.76013158 58.49628741 138.546875 66.20947266 C133.54524613 70.857451 128.8736188 71.76809417 122.25114441 71.78741455 C121.0777803 71.79312469 119.9044162 71.79883484 118.69549561 71.80471802 C117.41177063 71.80583588 116.12804565 71.80695374 114.80541992 71.80810547 C113.43689338 71.81273591 112.06836812 71.81776087 110.69984436 71.82315063 C106.98485414 71.83625465 103.26988198 71.84271565 99.55487227 71.84716129 C97.23243897 71.85009517 94.91001056 71.85420056 92.58757973 71.85866547 C85.31697303 71.87233496 78.04637758 71.88200437 70.77575892 71.88586736 C62.39071292 71.8903473 54.00583 71.90789446 45.62083358 71.93686795 C39.13406962 71.95850219 32.64735149 71.96857256 26.16055185 71.96990848 C22.28873025 71.97095523 18.41706207 71.97683541 14.54527855 71.99472809 C10.90169844 72.01123908 7.25838658 72.01334975 3.61478233 72.00458908 C1.64686504 72.00345491 -0.32104347 72.01714875 -2.28890991 72.03134155 C-11.15948533 71.9895404 -17.68917424 70.83133874 -24.30834961 64.54516602 C-30.8459438 57.20936073 -30.59981351 47.55101525 -30.46655273 38.2878418 C-30.43750066 36.08452253 -30.44599852 33.88360644 -30.45898438 31.68017578 C-30.4461982 23.0872574 -30.41101494 14.93510573 -24.8125 7.89697266 C-23.4203125 6.78322266 -23.4203125 6.78322266 -22 5.64697266 C-21.49428467 5.22103128 -20.98856934 4.79508991 -20.4675293 4.35624123 C-14.06143998 -0.3875542 -7.72869435 -0.05993316 0 0 Z M-12 18.64697266 C-15.15040396 23.3725786 -14.41002437 28.425767 -14.42553711 33.98876953 C-14.43742301 36.00888795 -14.48659792 38.02593747 -14.53710938 40.04541016 C-14.54419922 41.32416016 -14.55128906 42.60291016 -14.55859375 43.92041016 C-14.57204834 45.09007324 -14.58550293 46.25973633 -14.59936523 47.46484375 C-13.9939126 50.67929169 -13.26778406 52.36400065 -10.87571812 54.60266685 C-6.50892732 57.03387703 -1.06579922 56.33398615 3.7890625 56.29394531 C5.08873962 56.30270691 6.38841675 56.31146851 7.72747803 56.32049561 C11.28549336 56.34325821 14.84278248 56.33446596 18.40081024 56.31860018 C22.12741527 56.30592507 25.85395889 56.31768574 29.58056641 56.32553101 C35.8383295 56.33462295 42.09579737 56.32265188 48.35351562 56.29882812 C55.58430706 56.27161736 62.81439357 56.28043187 70.04516792 56.30796015 C76.25767099 56.33066347 82.46996206 56.33384544 88.68249321 56.32076681 C92.39108711 56.31297887 96.09934985 56.31191217 99.80792236 56.32844925 C103.94268415 56.34559949 108.07623425 56.32181885 112.2109375 56.29394531 C113.43810486 56.30406647 114.66527222 56.31418762 115.92962646 56.32461548 C122.64238305 56.45176927 122.64238305 56.45176927 128.25987244 53.30343628 C130.43519625 49.98260584 130.63138546 47.946437 130.62890625 43.99072266 C130.63083984 42.72099609 130.63277344 41.45126953 130.63476562 40.14306641 C130.61091797 38.82435547 130.58707031 37.50564453 130.5625 36.14697266 C130.57893555 34.16890625 130.57893555 34.16890625 130.59570312 32.15087891 C130.70421713 23.54163353 130.70421713 23.54163353 126 16.64697266 C122.96329151 15.63473649 120.91477949 15.51648552 117.73757935 15.50653076 C116.10147202 15.49796555 116.10147202 15.49796555 114.43231201 15.48922729 C113.23535706 15.48810944 112.0384021 15.48699158 110.80517578 15.48583984 C109.54480499 15.48087494 108.2844342 15.47591003 106.98587036 15.47079468 C103.52714543 15.45767971 100.06843991 15.4512276 96.609694 15.44678402 C94.44859335 15.44385211 92.28749798 15.43974709 90.12639999 15.43527985 C83.36410107 15.42160789 76.60181425 15.41193951 69.83950245 15.40807796 C62.03455639 15.40359643 54.22978538 15.38604304 46.42489254 15.35707736 C40.39082993 15.33546116 34.35681657 15.32537373 28.32271564 15.32403684 C24.71921678 15.32298885 21.11588255 15.3170824 17.51242447 15.29921722 C13.49271263 15.27967568 9.47336735 15.28402522 5.45361328 15.29052734 C4.26070679 15.28131256 3.06780029 15.27209778 1.83874512 15.26260376 C0.74236725 15.26817291 -0.35401062 15.27374207 -1.48361206 15.27947998 C-2.43377134 15.27801342 -3.38393063 15.27654686 -4.36288261 15.27503586 C-7.55574957 15.7253551 -9.40680634 16.75397892 -12 18.64697266 Z " fill="#000000" transform="translate(198,-0.64697265625)"/>
<path d="M0 0 C0.83202438 -0.0066568 1.66404877 -0.0133136 2.52128601 -0.02017212 C4.27352709 -0.03024854 6.02580615 -0.0349907 7.77807617 -0.03466797 C10.43148373 -0.03903332 13.08321492 -0.07538315 15.73632812 -0.11328125 C35.00619802 -0.24254075 35.00619802 -0.24254075 41.7590332 5.78369141 C47.81870245 12.61115501 48.28833245 19.65354365 48.33984375 28.48046875 C48.34554382 29.24969162 48.3512439 30.01891449 48.3571167 30.81144714 C48.36652185 32.43263391 48.37308274 34.0538394 48.37695312 35.67504883 C48.38664878 38.13071703 48.41770994 40.58554366 48.44921875 43.04101562 C48.57242568 61.13930708 48.57242568 61.13930708 42.76171875 68.7109375 C37.99732573 73.47533052 33.64682455 75.40765838 26.98583984 75.52880859 C26.1775473 75.54487152 25.36925476 75.56093445 24.53646851 75.57748413 C20.83763864 75.6223984 17.13898104 75.66302112 13.43994141 75.68603516 C11.49841281 75.7025464 9.55694378 75.72977221 7.61572266 75.76806641 C-14.01367525 76.1918832 -14.01367525 76.1918832 -20.86328125 70.3359375 C-24.60599249 65.7050162 -26.95922983 61.21110001 -27.0402832 55.17504883 C-27.05311844 54.34020462 -27.06595367 53.50536041 -27.07917786 52.6452179 C-27.09025826 51.29522957 -27.09025826 51.29522957 -27.1015625 49.91796875 C-27.10963425 48.98675705 -27.11770599 48.05554535 -27.12602234 47.09611511 C-27.13985489 45.12325904 -27.15058075 43.15037912 -27.15844727 41.17749023 C-27.17561721 38.17710236 -27.21950567 35.17782891 -27.26367188 32.17773438 C-27.27380311 30.25782058 -27.28231786 28.33789743 -27.2890625 26.41796875 C-27.30657059 25.52809769 -27.32407867 24.63822662 -27.34211731 23.72138977 C-27.31838721 16.82189488 -25.61431004 11.65769254 -21.1875 6.3125 C-20.64738281 5.86648438 -20.10726562 5.42046875 -19.55078125 4.9609375 C-19.01839844 4.49945313 -18.48601562 4.03796875 -17.9375 3.5625 C-12.31293995 0.23648897 -6.35778041 0.01801244 0 0 Z M-9.33081055 17.33886719 C-11.74512577 20.48513109 -11.41382605 23.81503469 -11.359375 27.6171875 C-11.36083023 28.4270813 -11.36228546 29.2369751 -11.36378479 30.07141113 C-11.36212564 31.78283284 -11.35056237 33.49426943 -11.32983398 35.20556641 C-11.30088559 37.82649045 -11.30922208 40.44539126 -11.32226562 43.06640625 C-11.31602793 44.72917651 -11.30763675 46.39194037 -11.296875 48.0546875 C-11.29981064 48.83912231 -11.30274628 49.62355713 -11.30577087 50.4317627 C-11.25568507 53.31769121 -11.17227364 55.73350924 -9.84008789 58.33081055 C-6.6270069 59.96453346 -3.3219612 59.74174541 0.19921875 59.69921875 C0.9869165 59.69971725 1.77461426 59.70021576 2.58618164 59.70072937 C4.25051396 59.69839032 5.91484991 59.68867166 7.57910156 59.67211914 C10.12727474 59.64852494 12.67440159 59.65155936 15.22265625 59.65820312 C16.83984999 59.65262625 18.45703932 59.64551631 20.07421875 59.63671875 C21.2180603 59.63808586 21.2180603 59.63808586 22.38500977 59.63948059 C26.16481289 59.58879511 27.91502414 59.48373391 31.13671875 57.3359375 C32.30969539 53.81700758 32.29881391 50.6268034 32.3046875 46.96484375 C32.3080159 46.2461058 32.3113443 45.52736786 32.31477356 44.78684998 C32.31983168 43.26798135 32.32218223 41.74910164 32.32202148 40.23022461 C32.32420742 37.91045778 32.34237285 35.59116706 32.36132812 33.27148438 C32.36426242 31.79427246 32.36624697 30.31705828 32.3671875 28.83984375 C32.37437302 28.14806534 32.38155853 27.45628693 32.38896179 26.74354553 C32.37186754 23.12815303 32.23854734 20.35168496 30.13671875 17.3359375 C27.05610773 15.79563199 23.80761592 16.15216374 20.42578125 16.1328125 C19.66123627 16.12711243 18.89669128 16.12141235 18.10897827 16.11553955 C16.48998398 16.1060878 14.87097043 16.09955487 13.25195312 16.09570312 C10.77830317 16.08600254 8.30548594 16.05498415 5.83203125 16.0234375 C4.25911952 16.01690682 2.68620184 16.0116566 1.11328125 16.0078125 C0.37461823 15.9954657 -0.3640448 15.9831189 -1.12509155 15.97039795 C-4.10733177 15.98329478 -6.55737314 16.21160085 -9.33081055 17.33886719 Z " fill="#000000" transform="translate(135.86328125,357.6640625)"/>
<path d="M0 0 C0.90128632 -0.00953201 1.80257263 -0.01906403 2.73117065 -0.02888489 C4.18126022 -0.02751778 4.18126022 -0.02751778 5.66064453 -0.02612305 C6.66177277 -0.03040817 7.662901 -0.0346933 8.69436646 -0.03910828 C10.81088505 -0.04484765 12.92742338 -0.04535474 15.04394531 -0.04101562 C18.27459576 -0.03786022 21.50432633 -0.06130437 24.73486328 -0.08666992 C26.79345588 -0.08894347 28.85205093 -0.08964615 30.91064453 -0.08862305 C31.87332245 -0.09783279 32.83600037 -0.10704254 33.82785034 -0.11653137 C40.61679362 -0.06993889 44.89111953 1.04119715 50.10595703 5.6496582 C56.07913231 12.43001933 56.56993397 18.57179691 56.62158203 27.3840332 C56.6272821 28.1508844 56.63298218 28.9177356 56.63885498 29.70782471 C56.6482611 31.32481526 56.65482141 32.94182461 56.65869141 34.55883789 C56.66837333 37.00352314 56.69942797 39.44735806 56.73095703 41.8918457 C56.86282909 60.77823944 56.86282909 60.77823944 51.55126953 67.7121582 C50.88869141 68.2277832 50.22611328 68.7434082 49.54345703 69.2746582 C48.88603516 69.8109082 48.22861328 70.3471582 47.55126953 70.8996582 C41.97669254 74.49352469 37.04561543 74.59482479 30.58642578 74.6105957 C29.16055901 74.6205809 29.16055901 74.6205809 27.70588684 74.63076782 C25.69790577 74.64087499 23.68989125 74.64558544 21.68188477 74.64526367 C18.62670825 74.64962856 15.5729868 74.68594599 12.51806641 74.72387695 C10.56169111 74.72974735 8.60530899 74.73371525 6.64892578 74.7355957 C5.74345505 74.74996674 4.83798431 74.76433777 3.90507507 74.77914429 C-3.03643667 74.72971778 -8.60820954 73.21413964 -13.64013672 68.23950195 C-14.32269531 67.2359668 -14.32269531 67.2359668 -15.01904297 66.2121582 C-15.72867188 65.20475586 -15.72867188 65.20475586 -16.45263672 64.17700195 C-18.27836204 61.10043368 -18.71264408 58.52304498 -18.75854492 55.02197266 C-18.77138016 54.1671077 -18.78421539 53.31224274 -18.79743958 52.43147278 C-18.80482651 51.50960678 -18.81221344 50.58774078 -18.81982422 49.63793945 C-18.82789597 48.68453171 -18.83596771 47.73112396 -18.84428406 46.74882507 C-18.85811746 44.72889012 -18.86884294 42.70893185 -18.87670898 40.68896484 C-18.8938809 37.61615986 -18.93776907 34.54444244 -18.98193359 31.47192383 C-18.99206461 29.50643692 -19.00057943 27.54094089 -19.00732422 25.57543945 C-19.02483231 24.66369461 -19.04234039 23.75194977 -19.06037903 22.81257629 C-19.03820758 16.2145296 -17.79438934 10.66090284 -13.13398743 5.74897766 C-8.98715084 2.14472163 -5.50305397 0.03208624 0 0 Z M-2.58154297 18.2746582 C-2.78141266 21.03644258 -2.86133198 23.69575904 -2.84716797 26.45825195 C-2.84908142 27.2695607 -2.85099487 28.08086945 -2.85296631 28.91676331 C-2.85432839 30.63412791 -2.85063035 32.35150279 -2.84228516 34.06884766 C-2.83159956 36.69823369 -2.84217232 39.32693433 -2.85498047 41.95629883 C-2.85365861 43.62361805 -2.85109566 45.29093684 -2.84716797 46.95825195 C-2.85121643 47.74582382 -2.85526489 48.53339569 -2.85943604 49.34483337 C-2.82648979 53.18114987 -2.75982557 55.00723431 -0.58154297 58.2746582 C2.29139115 58.59115331 4.94452944 58.71865738 7.82080078 58.70825195 C9.07105797 58.71611473 9.07105797 58.71611473 10.34657288 58.72413635 C12.11100144 58.73056529 13.87547281 58.72920829 15.63989258 58.72070312 C18.34224748 58.71220133 21.04248354 58.74092673 23.74462891 58.77270508 C25.4575189 58.77431734 27.17041264 58.77373909 28.88330078 58.77075195 C30.09746925 58.78760292 30.09746925 58.78760292 31.33616638 58.80479431 C35.69281206 58.75255367 35.69281206 58.75255367 39.42700195 56.72412109 C40.79438653 53.34589664 40.8475591 50.17496329 40.81689453 46.5871582 C40.8211998 45.47787964 40.8211998 45.47787964 40.82559204 44.34619141 C40.82762906 42.78620638 40.82212448 41.2261956 40.80957031 39.66625977 C40.79351013 37.28253912 40.80942982 34.90051381 40.82861328 32.5168457 C40.82663078 30.99861281 40.82278697 29.48038096 40.81689453 27.9621582 C40.82296722 27.25164307 40.82903992 26.54112793 40.83529663 25.80908203 C40.79419537 22.90791957 40.51794475 20.52067045 39.42700195 17.82299805 C36.2202226 15.35096758 32.76186214 15.74486008 28.88330078 15.8137207 C27.63160851 15.81509537 27.63160851 15.81509537 26.35462952 15.8164978 C24.59191189 15.82253673 22.82920466 15.83829161 21.06665039 15.86303711 C18.36257309 15.89956882 15.65986479 15.90405637 12.95556641 15.90356445 C11.24396598 15.91339462 9.53237485 15.92505119 7.82080078 15.9387207 C6.60359596 15.94205917 6.60359596 15.94205917 5.36180115 15.94546509 C0.91918112 15.84461923 0.91918112 15.84461923 -2.58154297 18.2746582 Z " fill="#000000" transform="translate(127.58154296875,232.725341796875)"/>
<path d="M0 0 C1.25215302 -0.01925285 1.25215302 -0.01925285 2.52960205 -0.03889465 C3.42443298 -0.04628159 4.31926392 -0.05366852 5.24121094 -0.0612793 C6.17100769 -0.06935104 7.10080444 -0.07742279 8.05877686 -0.08573914 C10.02565662 -0.09955572 11.99256013 -0.1102887 13.95947266 -0.11816406 C15.96312525 -0.12967931 17.96674727 -0.15012386 19.97021484 -0.1796875 C22.87325784 -0.22251301 25.77539064 -0.23855413 28.67871094 -0.2487793 C30.00881195 -0.27504143 30.00881195 -0.27504143 31.36578369 -0.30183411 C38.2590575 -0.2780351 43.37218967 1.458032 48.74902344 5.81762695 C49.19503906 6.3487207 49.64105469 6.87981445 50.10058594 7.42700195 C50.7928125 8.20817383 50.7928125 8.20817383 51.49902344 9.00512695 C54.73390794 14.733139 55.02724948 21.13319635 54.99121094 27.55200195 C54.99312439 28.3207666 54.99503784 29.08953125 54.99700928 29.8815918 C54.99836064 31.49503917 54.99473812 33.10849781 54.98632812 34.72192383 C54.97561332 37.17074349 54.98625906 39.61882971 54.99902344 42.06762695 C54.99770166 43.64575355 54.99513888 45.22387969 54.99121094 46.80200195 C54.9952594 47.52307129 54.99930786 48.24414062 55.003479 48.98706055 C54.94735074 55.16870144 54.26811148 61.78389507 50.53808594 66.92700195 C50.17328125 67.4580957 49.80847656 67.98918945 49.43261719 68.53637695 C43.46303558 74.27373227 37.94359577 74.77450424 30.00683594 74.70825195 C28.99012817 74.71207886 27.97342041 74.71590576 26.92590332 74.71984863 C24.78441371 74.72256073 22.64289057 74.71524896 20.50146484 74.69848633 C17.23557224 74.67706745 13.97187939 74.69831277 10.70605469 74.72387695 C8.61881028 74.72123355 6.53156723 74.71610833 4.44433594 74.70825195 C2.98936707 74.72039734 2.98936707 74.72039734 1.50500488 74.73278809 C-5.39308987 74.63802822 -9.73353321 73.34515851 -14.98144531 68.6496582 C-19.98405027 62.2682434 -20.58322004 57.3895188 -20.57519531 49.52856445 C-20.57948044 48.59781097 -20.58376556 47.6670575 -20.58818054 46.70809937 C-20.59391228 44.74298921 -20.59443264 42.77785785 -20.59008789 40.81274414 C-20.5869322 37.81920832 -20.61038679 34.82666541 -20.63574219 31.83325195 C-20.63801585 29.91919069 -20.63871837 28.00512679 -20.63769531 26.09106445 C-20.64690506 25.20230621 -20.65611481 24.31354797 -20.66560364 23.39785767 C-20.60838748 15.64300972 -18.7342687 9.95802451 -13.27441406 4.17700195 C-8.93085567 1.13651108 -5.24834109 0.07068996 0 0 Z M-3.26489258 17.18652344 C-4.92602717 20.46179075 -4.72144689 23.86718381 -4.70800781 27.45825195 C-4.71324966 28.26814575 -4.71849152 29.07803955 -4.72389221 29.91247559 C-4.73031223 31.62384902 -4.72897563 33.33526658 -4.72045898 35.04663086 C-4.71194425 37.66770784 -4.74071529 40.28660887 -4.77246094 42.9074707 C-4.77407291 44.57023047 -4.77349548 46.23299409 -4.77050781 47.89575195 C-4.78174179 48.68018677 -4.79297577 49.46462158 -4.80455017 50.27282715 C-4.76371202 53.45447662 -4.71368401 55.61185083 -2.72387695 58.171875 C0.65623512 59.55888999 3.81919114 59.58686752 7.41308594 59.5402832 C8.5223645 59.54103096 8.5223645 59.54103096 9.65405273 59.54179382 C11.21405735 59.53945843 12.7740661 59.52976135 14.33398438 59.51318359 C16.71746631 59.48958235 19.09982923 59.49262742 21.48339844 59.49926758 C23.00163425 59.49369054 24.51986537 59.4865805 26.03808594 59.4777832 C27.10385864 59.47915031 27.10385864 59.47915031 28.19116211 59.48054504 C31.81051077 59.42885957 34.75154682 59.37402746 37.72558594 57.17700195 C38.91825241 53.59900253 38.90658459 50.31321872 38.92871094 46.5871582 C38.93726105 45.47575722 38.93726105 45.47575722 38.94598389 44.34190369 C38.95542129 42.77596459 38.96196287 41.21000575 38.96582031 39.64404297 C38.97553647 37.25168224 39.00657452 34.86017714 39.03808594 32.46801758 C39.04461542 30.94523621 39.04986611 29.42244871 39.05371094 27.8996582 C39.06605774 27.18600601 39.07840454 26.47235382 39.09112549 25.73707581 C39.07805008 22.8148309 38.83291711 20.43937285 37.72265625 17.7253418 C34.58122542 15.28977281 31.25324132 15.62636045 27.44433594 15.6809082 C26.63444214 15.67945297 25.82454834 15.67799774 24.9901123 15.67649841 C23.2786906 15.67815757 21.56725401 15.68972083 19.85595703 15.71044922 C17.23503299 15.73939761 14.61613218 15.73106113 11.99511719 15.71801758 C10.33234693 15.72425527 8.66958307 15.73264645 7.00683594 15.7434082 C6.22240112 15.74047256 5.43796631 15.73753693 4.62976074 15.73451233 C1.75174031 15.78446089 -0.66920904 15.87005693 -3.26489258 17.18652344 Z " fill="#000000" transform="translate(129.2744140625,106.822998046875)"/>
<path d="M0 0 C0.69086464 -0.00779995 1.38172929 -0.01559991 2.09352922 -0.02363622 C4.40237712 -0.04353814 6.70957329 -0.02780085 9.01843262 -0.01205444 C10.67607077 -0.01883145 12.33370138 -0.02773505 13.99131775 -0.03860474 C18.48933567 -0.06139508 22.98678005 -0.05256298 27.48480797 -0.03670931 C32.19236164 -0.0240489 36.89986627 -0.03579081 41.60742188 -0.04364014 C49.51290706 -0.05273629 57.41815868 -0.0407497 65.3236084 -0.01693726 C74.46295467 0.010274 83.60174324 0.00145981 92.74107599 -0.02606928 C100.58837231 -0.04876034 108.43550075 -0.05196047 116.28281927 -0.03887594 C120.96948736 -0.03108139 125.65589332 -0.03003989 130.34254456 -0.04655838 C134.74881656 -0.06100388 139.15436969 -0.05098037 143.56056404 -0.0220871 C145.17746347 -0.01547665 146.79442341 -0.01737334 148.41129875 -0.02840042 C150.61933492 -0.04207067 152.82506946 -0.02492736 155.03295898 0 C156.26812004 0.00188513 157.5032811 0.00377026 158.77587128 0.00571251 C162.92772141 0.81184754 164.41909419 2.3640026 167.01647949 5.63491821 C167.64147949 8.63491821 167.64147949 8.63491821 167.01647949 11.63491821 C164.41782133 14.90913128 162.93007571 16.45925818 158.77307796 17.25853729 C157.53661809 17.25782478 156.30015821 17.25711227 155.02622986 17.25637817 C154.33465965 17.262767 153.64308944 17.26915582 152.93056256 17.27573824 C150.61933389 17.29096702 148.30982546 17.2705438 145.99865723 17.25015259 C144.33940056 17.25365443 142.68014725 17.25931372 141.02090454 17.26696777 C136.51878645 17.2812154 132.01727914 17.26415533 127.51521945 17.2406826 C122.80454658 17.22057855 118.09389919 17.22645287 113.38319397 17.22879028 C105.47349978 17.22873671 97.56404448 17.20897882 89.65441895 17.1769104 C80.50720797 17.14000487 71.3603098 17.13123659 62.21303409 17.13820791 C53.41533139 17.14451059 44.61773605 17.13376381 35.82005501 17.11424255 C32.07491591 17.10606366 28.32983165 17.1033599 24.58468437 17.10493469 C20.17609322 17.10581291 15.76779986 17.09161446 11.35928726 17.06570816 C9.74035778 17.05853949 8.12139663 17.05646611 6.50245476 17.0598259 C4.29456076 17.0635343 2.08753896 17.04881681 -0.12025452 17.02932739 C-1.35633737 17.02559868 -2.59242022 17.02186996 -3.86596012 17.01802826 C-7.22068586 16.60577349 -8.59833725 15.97877678 -10.98352051 13.63491821 C-11.76867676 11.76773071 -11.76867676 11.76773071 -12.04602051 9.75991821 C-12.16074707 9.10249634 -12.27547363 8.44507446 -12.39367676 7.76773071 C-11.15215409 1.31181286 -5.72710015 0.00874082 0 0 Z " fill="#000000" transform="translate(235.9835205078125,116.36508178710938)"/>
<path d="M0 0 C0.69802846 -0.00538554 1.39605693 -0.01077108 2.11523777 -0.01631981 C4.45990222 -0.03065516 6.80400652 -0.02348224 9.1486969 -0.01637268 C10.82736161 -0.02207337 12.50602244 -0.02903645 14.18467712 -0.03717041 C18.74872773 -0.05515064 23.31258659 -0.0539243 27.87666202 -0.04822803 C31.68397255 -0.0451431 35.49124589 -0.05122087 39.29855114 -0.05726677 C48.27906725 -0.07132645 57.25948826 -0.06973881 66.24000549 -0.05836487 C75.51103328 -0.0468826 84.78177183 -0.06095784 94.0527615 -0.08776134 C102.00697955 -0.10989862 109.96110668 -0.11656017 117.91535336 -0.11068493 C122.66850746 -0.10730936 127.42147615 -0.10977005 132.17460442 -0.12693596 C136.64392986 -0.14237162 141.11282598 -0.13848737 145.58213425 -0.11963081 C147.22365167 -0.11593549 148.86520066 -0.1190808 150.50668907 -0.1295166 C152.74551816 -0.14266468 154.98291297 -0.13123612 157.22167969 -0.11352539 C158.47510886 -0.11331611 159.72853804 -0.11310682 161.01994991 -0.1128912 C164.76637885 0.48163247 165.95901528 1.35278959 168.17433167 4.38768005 C168.67433167 7.88768005 168.67433167 7.88768005 168.17433167 11.38768005 C166.30724662 13.75265445 164.85371736 15.04798721 162.17433167 16.38768005 C159.99159065 16.4864396 157.80574536 16.51840242 155.62077332 16.52139282 C154.59951357 16.52479116 154.59951357 16.52479116 153.55762231 16.52825814 C151.26529097 16.5346125 148.97301853 16.53376786 146.68067932 16.53294373 C145.04157433 16.53593434 143.40247005 16.53933664 141.7633667 16.54312134 C137.30261126 16.55197589 132.84187499 16.55430007 128.38111162 16.55493712 C124.66084984 16.55588517 120.94059256 16.5595623 117.2203325 16.56310922 C108.44457992 16.57125945 99.6688376 16.57369295 90.89308167 16.57298279 C81.83290081 16.57238196 72.77277949 16.58293342 63.7126137 16.59872645 C55.94102244 16.61179185 48.16945065 16.6171671 40.39784849 16.61652738 C35.75315789 16.61627208 31.10852017 16.61914078 26.46384048 16.62970543 C22.09559922 16.6393695 17.72746155 16.63947725 13.35921669 16.6321888 C11.75478655 16.63114082 10.15035001 16.63351845 8.54593086 16.63954926 C6.35778362 16.64724223 4.16999653 16.64264246 1.9818573 16.63491821 C0.75662668 16.63546298 -0.46860394 16.63600775 -1.73096275 16.63656902 C-4.70663274 16.39725339 -6.35803014 16.01138493 -8.82566833 14.38768005 C-10.92246236 11.69180202 -10.82077655 10.29473606 -10.63816833 6.82518005 C-9.09372254 0.2909863 -6.41308518 0.01243614 0 0 Z " fill="#000000" transform="translate(234.82566833496094,242.61231994628906)"/>
<path d="M0 0 C0.67690514 -0.00297112 1.35381027 -0.00594224 2.05122769 -0.0090034 C4.32429487 -0.01768989 6.59730938 -0.0191986 8.87039185 -0.02069092 C10.49817009 -0.02531909 12.12594725 -0.03034374 13.75372314 -0.03573608 C18.1793595 -0.04886122 22.60498068 -0.05530513 27.03063345 -0.05974674 C29.79476851 -0.06267696 32.55889941 -0.06678164 35.32303238 -0.07125092 C43.96905749 -0.08492543 52.61507311 -0.09459261 61.26110828 -0.09845281 C71.2462173 -0.10293522 81.23118955 -0.12049179 91.21625698 -0.1494534 C98.93183355 -0.17105673 106.6473716 -0.18115635 114.3629781 -0.18249393 C118.97250634 -0.18354282 123.581906 -0.18946857 128.19140244 -0.20731354 C132.5268642 -0.22377118 136.86210041 -0.22596101 141.19758224 -0.21717453 C142.78869734 -0.21640295 144.37982445 -0.22076285 145.97090912 -0.23063278 C148.14347328 -0.24331938 150.31523454 -0.23749414 152.48779297 -0.22705078 C153.70342863 -0.22851734 154.91906429 -0.2299839 156.1715374 -0.2314949 C159.68009146 0.17638899 161.56468928 1.03211199 164.37088013 3.14044189 C165.91674888 6.23217941 165.66447534 8.73473742 165.37088013 12.14044189 C163.78546906 14.33483791 163.78546906 14.33483791 161.37088013 16.14044189 C158.21929169 16.64659977 158.21929169 16.64659977 154.42495728 16.65510559 C153.72607439 16.66205112 153.0271915 16.66899665 152.30713034 16.67615265 C149.96542538 16.69444839 147.6247306 16.68415201 145.2829895 16.67388916 C143.6041742 16.68094633 141.92536527 16.6896905 140.24656677 16.69999695 C135.6866591 16.72252224 131.127098 16.71954413 126.56715584 16.71067548 C122.76227056 16.70557033 118.95745069 16.71285421 115.15257215 16.72014755 C106.17824572 16.73715617 97.20408929 16.7335706 88.22976685 16.71685791 C78.96603767 16.69992957 69.70277944 16.71577867 60.4391017 16.74808079 C52.48909498 16.77475372 44.53923508 16.7820591 36.5891881 16.77356571 C31.83936645 16.76863049 27.08982832 16.77088431 22.34004211 16.79135323 C17.87471751 16.80967476 13.410072 16.80379533 8.94478416 16.77915382 C7.30488107 16.77413492 5.66492654 16.77766366 4.02506447 16.79030228 C1.78819126 16.80618004 -0.44643106 16.79133648 -2.68319702 16.76863098 C-4.56139256 16.76775152 -4.56139256 16.76775152 -6.47753143 16.76685429 C-9.62911987 16.14044189 -9.62911987 16.14044189 -12.0671463 13.82774258 C-13.62911987 11.14044189 -13.62911987 11.14044189 -13.56661987 7.51544189 C-12.31165956 2.99758475 -12.31165956 2.99758475 -9.62911987 1.14044189 C-6.21559897 0.00260159 -3.60090345 0.00881689 0 0 Z " fill="#000000" transform="translate(237.62911987304688,367.85955810546875)"/>
<path d="M0 0 C0.85261917 -0.0071553 1.70523834 -0.01431061 2.58369446 -0.02168274 C5.39480583 -0.03855661 8.20431962 -0.01917698 11.01538086 0.00219727 C12.97163525 0.00136852 14.92788958 -0.00109107 16.88414001 -0.00511169 C20.98059084 -0.00796869 25.0764946 0.00672342 29.17285156 0.03417969 C34.42452239 0.06828475 39.67521647 0.0622358 44.92693424 0.04351711 C48.96500293 0.03295147 53.00284412 0.04188062 57.04089165 0.05690193 C58.97738405 0.06208588 60.9139002 0.06159936 62.85038948 0.05535698 C65.5557279 0.04990914 68.259665 0.07026459 70.96484375 0.09765625 C71.76547241 0.09113037 72.56610107 0.08460449 73.39099121 0.07788086 C76.9608355 0.13937158 79.00633703 0.31777998 81.88743591 2.51210022 C83.70881992 5.03418557 84.34166368 6.51260546 84.41772461 9.63110352 C82.79616832 13.11744953 81.65319169 14.47412546 78.41772461 16.63110352 C75.66568168 16.83083782 73.01460392 16.91444313 70.26196289 16.90576172 C69.43074921 16.91087265 68.59953552 16.91598358 67.74313354 16.92124939 C64.99136177 16.9351658 62.23983992 16.93418691 59.48803711 16.93188477 C57.57616075 16.93577095 55.66428526 16.94010546 53.75241089 16.94487 C49.74254561 16.95233689 45.73276836 16.95203781 41.72290039 16.94677734 C36.58578267 16.94098612 31.4490259 16.95790305 26.31196785 16.98112202 C22.3622731 16.99585977 18.41266522 16.99673093 14.46294785 16.99361229 C12.56913412 16.99412561 10.67531555 16.99936544 8.78152847 17.00942421 C6.13153965 17.02177026 3.4822531 17.01500772 0.83227539 17.00341797 C0.05080139 17.01106171 -0.73067261 17.01870544 -1.53582764 17.02658081 C-6.0525475 16.98295145 -8.99705591 16.44630552 -12.58227539 13.63110352 C-13.46508789 11.76391602 -13.46508789 11.76391602 -13.70727539 9.75610352 C-13.86583008 8.7699707 -13.86583008 8.7699707 -14.02758789 7.76391602 C-12.52396585 0.56235782 -6.2067904 -0.09087231 0 0 Z " fill="#000000" transform="translate(237.582275390625,406.368896484375)"/>
<path d="M0 0 C0.83150574 -0.00686325 1.66301147 -0.0137265 2.51971436 -0.02079773 C5.26071377 -0.039058 8.00114047 -0.0352298 10.7421875 -0.02954102 C12.65120632 -0.03410281 14.56022349 -0.03940837 16.46923828 -0.04542542 C20.46719034 -0.0543547 24.46494261 -0.05193499 28.46289062 -0.04199219 C33.58437638 -0.03049581 38.70517334 -0.05072518 43.8265686 -0.07990932 C47.767704 -0.09825983 51.70867392 -0.09798128 55.64984131 -0.0922718 C57.53807543 -0.09211849 59.42632069 -0.09817151 61.31451416 -0.11056328 C63.95490701 -0.1254519 66.59402197 -0.11481282 69.234375 -0.09765625 C70.01270691 -0.10732422 70.79103882 -0.11699219 71.59295654 -0.12695312 C75.29675538 -0.07659305 77.42329103 0.28077043 80.57861328 2.28697205 C82.99516244 4.79658367 83.6171875 5.92374197 83.6171875 9.40405273 C81.34007907 15.04260695 81.34007907 15.04260695 78.6171875 16.40405273 C75.86741782 16.523339 73.14220117 16.58241755 70.39135742 16.59692383 C69.54078262 16.60510132 68.69020782 16.61327881 67.81385803 16.6217041 C64.99179798 16.64656905 62.16978825 16.66307655 59.34765625 16.67749023 C58.38486567 16.68281391 57.42207508 16.68813759 56.43010902 16.69362259 C51.33451762 16.72035844 46.23895077 16.7397323 41.14331055 16.75415039 C35.87710171 16.77080308 30.6115181 16.81558483 25.34554577 16.86652184 C21.29892752 16.90015837 17.25245836 16.91172386 13.20571327 16.91737747 C11.26440971 16.92409946 9.32311627 16.93934605 7.38194847 16.96326828 C4.66451256 16.99484716 1.94877199 16.99496781 -0.76879883 16.98754883 C-1.57054535 17.00395416 -2.37229187 17.0203595 -3.19833374 17.03726196 C-7.29810792 16.99144978 -9.14679629 16.59245276 -12.39335632 14.00088501 C-14.3828125 11.40405273 -14.3828125 11.40405273 -14.828125 9.27124023 C-14.72242188 8.61381836 -14.61671875 7.95639648 -14.5078125 7.27905273 C-14.42789063 6.61647461 -14.34796875 5.95389648 -14.265625 5.27124023 C-11.61151416 -0.34232163 -5.40282036 -0.03124836 0 0 Z " fill="#000000" transform="translate(238.3828125,280.595947265625)"/>
<path d="M0 0 C0.87344055 -0.00525696 1.7468811 -0.01051392 2.64678955 -0.01593018 C5.538145 -0.02914965 8.42895131 -0.02038521 11.3203125 -0.01025391 C13.32666123 -0.01227408 15.33300925 -0.01518505 17.33935547 -0.01895142 C21.54596949 -0.02337741 25.75239253 -0.01693481 29.95898438 -0.00292969 C35.35638633 0.01416229 40.75334079 0.00432259 46.15072632 -0.01364708 C50.29422388 -0.02447745 54.43761499 -0.021042 58.58111572 -0.0132637 C60.5714727 -0.01125963 62.56183929 -0.01372821 64.55218506 -0.02070236 C67.33192618 -0.02830452 70.1109383 -0.01673004 72.890625 0 C74.12972626 -0.00910904 74.12972626 -0.00910904 75.39385986 -0.0184021 C81.01560447 0.0444157 81.01560447 0.0444157 83.12545776 1.73230553 C85.1185748 4.23285251 85.31878884 6.22509222 85.4453125 9.38818359 C84.30751378 11.71549916 83.27690536 13.55659073 81.4453125 15.38818359 C78.66701763 15.50999827 75.91315062 15.56681739 73.13354492 15.58105469 C71.82623161 15.59332092 71.82623161 15.59332092 70.49250793 15.60583496 C67.59527281 15.63073956 64.69808684 15.64721782 61.80078125 15.66162109 C60.81376032 15.66694477 59.82673939 15.67226845 58.80980873 15.67775345 C53.58569743 15.70450701 48.36161022 15.72387486 43.13745117 15.73828125 C37.73323903 15.7549349 32.32963606 15.79971248 26.92565441 15.85065269 C22.7778501 15.88426325 18.63019144 15.89585192 14.48226357 15.90150833 C12.48989519 15.90823795 10.49753697 15.92350414 8.50530052 15.94739914 C5.7181129 15.97892122 2.93258179 15.97910711 0.14526367 15.97167969 C-0.68035065 15.98808502 -1.50596497 16.00449036 -2.3565979 16.02139282 C-6.28543425 15.97846523 -8.14437433 15.76020631 -11.1023407 13.07827759 C-13.08346753 9.40875637 -12.65500945 7.34934261 -11.5546875 3.38818359 C-8.42522809 -0.60029987 -4.72201437 -0.03471307 0 0 Z " fill="#000000" transform="translate(236.5546875,155.61181640625)"/>
</svg>
