<svg width="70" height="70" viewBox="0 0 70 70" fill="none" xmlns="http://www.w3.org/2000/svg">
<path d="M41.9476 5.50773C43.2598 6.59969 44.5027 7.8327 45.3906 9.29686C45.4682 9.41459 45.5457 9.53232 45.6256 9.65362C47.7744 13.0653 48.2837 17.2829 47.4713 21.1871C46.4936 25.1992 43.9939 28.7312 40.4688 30.8984C36.7355 33.069 32.4812 33.6431 28.296 32.6069C24.4068 31.5462 21.032 28.8775 19.0082 25.4056C17.1265 22.0793 16.4303 17.8502 17.3681 14.1162C17.4116 13.9696 17.4551 13.8229 17.5 13.6719C17.5449 13.5083 17.5899 13.3448 17.6362 13.1763C18.7763 9.38893 21.3906 6.11158 24.8668 4.21744C30.3541 1.3281 36.9844 1.65192 41.9476 5.50773Z" fill="#E14803"/>
<path d="M31.9304 39.2315C32.1226 39.2318 32.3148 39.232 32.5069 39.2322C32.9736 39.2328 33.4403 39.2337 33.9069 39.2347C33.9071 39.3467 33.9073 39.4587 33.9075 39.5741C33.9126 42.3087 33.9207 45.0432 33.9321 47.7777C33.9375 49.1001 33.9419 50.4225 33.944 51.745C33.9458 52.8986 33.9495 54.0522 33.9554 55.2058C33.9585 55.8158 33.9606 56.4257 33.9605 57.0356C33.9604 57.6117 33.9629 58.1876 33.9672 58.7636C33.9684 58.9732 33.9687 59.1828 33.9679 59.3923C33.9612 61.487 34.3688 63.3565 35.2506 65.2577C35.4108 65.6214 35.4108 65.6214 35.4108 65.8949C31.836 65.9077 28.2611 65.9173 24.6863 65.9232C23.0263 65.926 21.3664 65.9299 19.7064 65.9361C18.2593 65.9416 16.8122 65.9451 15.3651 65.9463C14.5991 65.947 13.8332 65.9487 13.0672 65.9527C12.3456 65.9564 11.6239 65.9575 10.9023 65.9567C10.6381 65.9569 10.374 65.958 10.1098 65.9601C8.05274 65.9756 6.53445 65.7615 4.97062 64.3199C3.51049 62.7968 3.59188 60.9448 3.60611 58.9767C3.60599 58.6911 3.60565 58.4055 3.60511 58.1199C3.60472 57.524 3.60671 56.9281 3.61048 56.3322C3.61514 55.5712 3.61431 54.8104 3.61175 54.0494C3.6103 53.4606 3.61154 52.8718 3.61358 52.283C3.61429 52.0025 3.61423 51.722 3.61337 51.4415C3.6097 49.5206 3.68032 47.9533 5.05928 46.4808C5.79806 45.839 6.62026 45.381 7.49458 44.9513C7.62408 44.8873 7.75358 44.8234 7.88701 44.7575C14.0527 41.7663 20.7877 39.9264 27.6179 39.3714C27.865 39.3487 27.865 39.3487 28.1172 39.3255C29.388 39.2251 30.6566 39.2285 31.9304 39.2315Z" fill="#E14803"/>
<path d="M46.8577 32.5006C47.0058 32.5 47.1539 32.4995 47.3065 32.4989C47.6178 32.4981 47.929 32.498 48.2403 32.4986C48.711 32.499 49.1815 32.4958 49.6522 32.4924C52.586 32.4837 55.0727 32.806 57.2623 34.9472C57.8324 35.5822 58.0042 36.0618 57.9592 36.9253C57.8688 37.546 57.7197 37.9516 57.2842 38.4207C56.5728 38.9254 55.9572 39.0647 55.0967 38.9675C54.4331 38.7325 54.0008 38.3262 53.5132 37.8353C52.5961 37.1835 51.5608 37.1288 50.4696 37.1357C50.2626 37.1351 50.2626 37.1351 50.0515 37.1345C49.7615 37.1343 49.4715 37.135 49.1815 37.1367C48.7405 37.1389 48.2996 37.1367 47.8586 37.1341C47.5753 37.1344 47.2921 37.1349 47.0089 37.1357C46.8785 37.1349 46.7482 37.1341 46.6139 37.1332C45.4681 37.1451 44.4043 37.3431 43.5594 38.1698C42.665 39.1869 42.7133 40.4057 42.7212 41.6915C42.7205 41.8958 42.7195 42.1 42.7183 42.3043C42.7158 42.856 42.7168 43.4076 42.7185 43.9593C42.7199 44.5384 42.7186 45.1176 42.7178 45.6967C42.7168 46.669 42.7181 47.6412 42.7207 48.6135C42.7236 49.7353 42.7227 50.8571 42.7197 51.9789C42.7172 52.9445 42.7168 53.9101 42.7183 54.8757C42.7191 55.4514 42.7192 56.027 42.7174 56.6027C42.7158 57.1441 42.717 57.6854 42.7201 58.2267C42.7208 58.4246 42.7206 58.6225 42.7194 58.8204C42.7124 60.0825 42.7777 61.1192 43.6027 62.1195C43.7343 62.2276 43.7343 62.2276 43.8686 62.3379C43.9557 62.4124 44.0428 62.487 44.1325 62.5638C44.9738 63.1042 45.844 63.0759 46.8102 63.0808C46.9606 63.082 47.1109 63.0832 47.2659 63.0845C47.5835 63.0865 47.9011 63.0877 48.2187 63.0882C48.7015 63.0898 49.1841 63.0966 49.6669 63.1035C49.9765 63.1048 50.286 63.1058 50.5956 63.1064C50.7385 63.1091 50.8814 63.1117 51.0286 63.1145C52.4054 63.1061 53.3301 62.6103 54.3351 61.7034C54.8324 61.2928 55.3437 61.2249 55.9682 61.2442C56.7308 61.3525 57.2064 61.7717 57.6943 62.3464C58.058 63.0156 58.0054 63.6734 57.831 64.3972C57.1695 65.7778 55.6702 66.7468 54.2763 67.2683C53.1153 67.6255 52.0394 67.7394 50.8285 67.7329C50.6617 67.7333 50.4949 67.7337 50.3231 67.7341C49.9729 67.7344 49.6227 67.7337 49.2726 67.7319C48.7407 67.7297 48.2089 67.7319 47.677 67.7346C47.3347 67.7343 46.9923 67.7338 46.65 67.7329C46.4932 67.7338 46.3363 67.7346 46.1747 67.7355C44.0077 67.7169 41.9087 67.0258 40.331 65.491C38.5893 63.4947 38.1018 61.5869 38.1038 59.0008C38.103 58.7884 38.1021 58.576 38.101 58.3637C38.0986 57.7896 38.098 57.2156 38.0978 56.6415C38.0976 56.2819 38.097 55.9223 38.0963 55.5626C38.0938 54.305 38.0926 53.0474 38.0929 51.7898C38.093 50.6223 38.0901 49.4549 38.0858 48.2874C38.0822 47.2813 38.0808 46.2751 38.081 45.269C38.081 44.6698 38.0803 44.0706 38.0774 43.4714C38.0747 42.9069 38.0747 42.3424 38.0767 41.778C38.077 41.5725 38.0763 41.367 38.0747 41.1615C38.0555 38.6365 38.6593 36.6395 40.4117 34.773C42.2214 33.0308 44.4107 32.4984 46.8577 32.5006Z" fill="#E14803"/>
<path d="M58.2251 42.0567C58.3629 42.0528 58.5008 42.0489 58.6428 42.0449C59.4338 42.1637 59.9848 42.7225 60.5364 43.2708C60.7197 43.4522 60.7197 43.4522 60.9068 43.6373C61.0376 43.7681 61.1684 43.8991 61.2992 44.03C61.4352 44.1656 61.5713 44.3011 61.7075 44.4366C61.9915 44.7196 62.2751 45.0032 62.5583 45.2871C62.9206 45.6502 63.2844 46.0117 63.6487 46.3729C63.9298 46.6519 64.2098 46.9318 64.4897 47.2121C64.6234 47.3458 64.7575 47.4792 64.892 47.6122C65.0797 47.7983 65.2661 47.9859 65.4524 48.1735C65.5586 48.2796 65.6648 48.3857 65.7743 48.4951C66.1861 48.9876 66.3479 49.46 66.3513 50.0974C66.3536 50.196 66.3559 50.2945 66.3583 50.396C66.242 51.1572 65.8034 51.6883 65.275 52.2202C65.0861 52.4117 65.0861 52.4117 64.8933 52.6072C64.7561 52.7441 64.6189 52.8809 64.4816 53.0177C64.34 53.1599 64.1985 53.3021 64.0571 53.4444C63.7611 53.7415 63.4644 54.0379 63.1672 54.3338C62.7872 54.7122 62.4094 55.0927 62.0323 55.4739C61.7408 55.7679 61.4481 56.0605 61.155 56.3528C61.0152 56.4926 60.8758 56.6328 60.7369 56.7734C60.5423 56.9701 60.3458 57.1648 60.1492 57.3594C60.0381 57.4705 59.927 57.5816 59.8125 57.696C59.1665 58.2118 58.5062 58.3132 57.6953 58.2408C57.0569 57.9982 56.6075 57.6902 56.1914 57.147C55.9686 56.5249 55.9021 55.9583 55.9607 55.3013C56.4106 54.3682 57.1969 53.6796 57.9225 52.9547C58.0081 52.8691 58.0938 52.7835 58.182 52.6953C58.247 52.6304 58.312 52.5655 58.3789 52.4986C58.242 52.4981 58.1051 52.4976 57.964 52.4971C56.6726 52.492 55.3812 52.4841 54.0897 52.4734C53.4258 52.468 52.7619 52.4636 52.098 52.4615C51.4571 52.4594 50.8162 52.4547 50.1753 52.4482C49.931 52.4462 49.6866 52.4451 49.4423 52.445C49.0996 52.4447 48.7571 52.441 48.4144 52.4365C48.2635 52.4375 48.2635 52.4375 48.1096 52.4386C47.4141 52.4245 47.022 52.2492 46.4844 51.815C45.8524 51.0975 45.7525 50.6737 45.7623 49.7316C45.8334 49.0339 46.1934 48.6764 46.6895 48.2176C47.305 47.8021 47.9068 47.8278 48.6317 47.8221C48.7371 47.8207 48.8426 47.8193 48.9512 47.818C49.2989 47.8136 49.6465 47.8103 49.9942 47.8069C50.2356 47.8041 50.477 47.8012 50.7183 47.7983C51.3531 47.7907 51.9878 47.784 52.6225 47.7774C53.2705 47.7705 53.9184 47.7629 54.5663 47.7553C55.8372 47.7406 57.108 47.7268 58.3789 47.7134C58.3189 47.6577 58.259 47.602 58.1972 47.5447C57.9223 47.287 57.6508 47.026 57.3792 46.7649C57.2848 46.6774 57.1904 46.5899 57.0932 46.4998C56.4615 45.8864 56.0571 45.3166 55.918 44.4322C55.971 43.5506 56.2468 42.9946 56.875 42.3814C57.3241 42.0973 57.698 42.0634 58.2251 42.0567Z" fill="#E14803"/>
</svg>
