<svg width="10" height="8" viewBox="0 0 10 8" fill="none" xmlns="http://www.w3.org/2000/svg">
<path opacity="0.994" fill-rule="evenodd" clip-rule="evenodd" d="M9.98715 0.922205C9.99568 0.944396 10 0.967972 10 0.991744C10 1.08819 10 1.18464 10 1.28109C10 1.29852 9.99778 1.3159 9.99271 1.33258C9.95637 1.45199 9.89696 1.56076 9.81445 1.65891C7.81676 3.6566 5.81907 5.65429 3.82138 7.65198C3.81287 7.66049 3.80364 7.66826 3.79355 7.67481C3.64994 7.76805 3.4922 7.79726 3.32031 7.76243C3.23994 7.73854 3.16832 7.69948 3.10547 7.64524C2.11217 6.6584 1.12582 5.66567 0.146431 4.66705C0.13351 4.65388 0.122482 4.63896 0.113921 4.62261C0.0765939 4.55133 0.0432082 4.4798 0.0137646 4.40805C0.00449491 4.38546 0 4.36122 0 4.3368C0 4.24094 0 4.14508 0 4.04922C0 4.03129 0.00235543 4.0134 0.00769423 3.99628C0.041891 3.88661 0.0946647 3.78456 0.166016 3.69016C0.327707 3.52214 0.494982 3.36081 0.667842 3.20617C0.678302 3.19682 0.689789 3.18856 0.702142 3.1819C0.999849 3.02135 1.29327 3.02736 1.58239 3.19995C1.59517 3.20758 1.60688 3.21696 1.6174 3.22748C2.18782 3.79791 2.75826 4.36835 3.32869 4.93877C3.40496 5.01505 3.52863 5.01505 3.6049 4.93877C5.19186 3.35182 6.77884 1.76484 8.36579 0.177886C8.37452 0.169162 8.38408 0.161205 8.39439 0.154437C8.68792 -0.0381306 8.98996 -0.0506132 9.30053 0.116986C9.31109 0.122687 9.32106 0.129563 9.33025 0.137284C9.55074 0.322508 9.74627 0.530047 9.91683 0.759905C9.92671 0.773217 9.93474 0.787803 9.94082 0.803223C9.95681 0.84376 9.97225 0.883419 9.98715 0.922205Z" fill="#2654DC"/>
</svg>
